<svg width="182" height="209" viewBox="0 0 182 209" fill="none" xmlns="http://www.w3.org/2000/svg">
<g clip-path="url(#clip0_384_308)">
<path fill-rule="evenodd" clip-rule="evenodd" d="M7.26887 5.8831C6.67737 5.26866 6.30249 4.87924 6 5.03398C3.99995 6.05804 2.00013 16.2909 4 23.454C5.47253 28.7279 10.1974 34.5567 13.3855 38.4897C14.5276 39.8987 15.4725 41.0643 16 41.874C18 44.944 18 46.9907 16 46.9907C14.0026 46.9903 3.03204 38.8278 3.00006 38.804C3.01872 38.8231 11.3321 47.3318 11 48.014C10.9507 48.2159 10.8686 48.4682 10.772 48.7653C10.4425 49.7783 9.94407 51.3108 10 53.1307C10.0112 53.4932 10.1031 53.8662 10.2227 54.2499C10.3841 55.0327 10.602 55.7064 10.7737 56.2373C10.8694 56.5333 10.9508 56.7849 11 56.9862C11.3266 57.6731 3.0192 66.1765 3 66.1962C3.01206 66.1872 14.0008 58.0098 16 58.0095C18 58.0095 18 60.0562 16 63.1262C15.4724 63.9358 14.5277 65.1013 13.3859 66.5099C10.1976 70.4431 5.47254 76.2722 4 81.5462C2.00048 88.7092 4.00002 98.9421 6 99.9662C6.30249 100.121 6.67763 99.7309 7.26931 99.1165C7.70777 98.6611 8.26515 98.0823 9 97.5098L14 94.8495C17.8038 92.9032 20.4021 89.7229 22.3041 87.3948C23.4021 86.0509 24.268 84.9909 25 84.6162C25.6666 84.2751 26.7777 84.275 27.9998 84.2748C30.4441 84.2746 33.3329 84.2743 34 81.5462C34.7999 78.2718 34.3333 71.9955 34 69.2662C36 70.6305 40.3997 72.9491 42 71.3128C43.5998 69.6756 42.6667 62.4443 42 59.0328C45.5944 58.6984 52.7209 57.0515 53 53.1307V52.1073C52.9998 48.0141 45.6666 46.3084 42 45.9673C42.6667 42.5562 43.5999 35.3247 42 33.6873C40.4 32.0501 36 34.3696 34 35.734C34.3333 33.0051 34.7999 26.7286 34 23.454C33.3333 20.7252 30.4444 20.7252 28 20.7251C26.7778 20.7251 25.6667 20.7251 25 20.384C24.268 20.0094 23.402 18.9493 22.3039 17.6053C20.402 15.2772 17.8038 12.097 14 10.1506L9 7.49038C8.26477 6.91763 7.70731 6.33855 7.26887 5.8831ZM24 75.4062C23.9609 75.4258 20.4516 77.1886 20 79.4995C19.3185 82.9845 16.7808 82.671 14.9162 82.4407C14.0438 82.3329 13.3187 82.2433 13 82.5695C12.7909 82.7846 12.7933 83.5904 12.7964 84.6181C12.8037 87.0605 12.8147 90.7562 10 90.7562C6.80134 90.7562 5.0015 89.392 5 88.7095V91.7795C5.00037 93.3136 6 95.8728 6 95.8728C7.99988 95.1907 12.5999 93.212 15 90.7562C17.9996 87.6866 23.9983 81.547 24 79.4995V75.4062ZM34 60.0562C34.9999 59.0328 30 58.0095 29 59.0328C28.5004 59.5442 28.5003 59.8001 28.5002 60.056C28.5001 60.3119 28.5 60.5678 28 61.0795C27.5428 61.5471 27.2946 61.3729 26.9685 61.1441C26.5816 60.8727 26.0851 60.5243 25 61.0795C24.0004 61.5912 24.2503 62.3586 24.5001 63.1261C24.7501 63.8936 25 64.6612 24 65.1728C23.0002 65.6843 22.2502 65.6844 21.6252 65.6844C21.0001 65.6845 20.5 65.6845 20 66.1962C19.5282 66.6796 19.9484 67.3914 20.3123 68.0079C20.7187 68.6964 21.0551 69.2662 20 69.2662C18.4 69.2662 16 69.2662 14 70.2895C11.9999 71.3131 8.01186 75.3818 7 77.4528C5.99993 79.4999 4.00017 84.6163 5 85.6395C5.70894 86.3645 6.5856 86.0614 7.27335 85.8237C7.5556 85.7261 7.80604 85.6395 8 85.6395C8 86.6631 8.0003 88.7095 9 88.7095C10.0172 88.7095 10.2585 86.8563 10.5131 84.9005C10.7591 83.0111 11.0175 81.0259 12 80.5228C13.9999 79.4995 14 79.4995 16 79.4995C17.9998 79.4995 19.9996 79.4987 20 76.4295C20 73.3599 21.0001 72.336 22 71.3128C22.4684 70.8335 22.9368 71.0277 23.508 71.2644C24.1563 71.5331 24.9369 71.8566 26 71.3128C27.114 70.7428 27.6075 69.5379 27.9989 68.5821C28.3102 67.822 28.557 67.2195 29 67.2195C29.3333 67.2195 29.6666 67.3331 29.9999 67.4467C30.6666 67.674 31.3334 67.9013 32 67.2195C32.793 66.408 31.0308 64.1882 31 64.1495C31.034 64.1747 33.206 65.7729 34 64.1495C34.7179 62.6802 33.6101 61.65 33.1343 61.2076C33.0802 61.1572 33.0342 61.1144 33 61.0795L34 60.0562ZM32 71.3128C31.3332 71.9952 29.9998 73.3595 29 73.3595H26V77.4528C26.0002 79.4986 26.6 80.5226 27.5996 80.5228C28.5994 80.5228 28.9999 77.112 29 75.4062C29.0004 76.0887 29.4007 77.4528 31 77.4528C32.5998 77.4528 32.3333 73.3598 32 71.3128ZM38.0991 60.3305C38.3171 59.6392 38.5084 59.0328 38 59.0328C36.4 59.0328 36 60.7384 36 62.1028C36.0002 62.5573 36.1112 63.0498 36.2222 63.5422C36.4444 64.528 36.6667 65.5139 36 66.1962C35.7747 66.4266 35.5703 66.5817 35.4058 66.7065C35.1573 66.895 35 67.0143 35 67.2195C36.3332 67.9016 39.1994 69.0605 40 68.2428C40.7998 67.4243 39.6667 66.5374 39 66.1962C39.3333 66.1962 39.9997 65.786 40 64.1495C40 62.8845 39.6178 62.7921 39.0898 62.6645C38.7636 62.5856 38.3818 62.4933 38 62.1028C37.6524 61.7471 37.8883 60.9991 38.0991 60.3305ZM9 16.2907C8.00004 16.2907 8 18.3373 8 19.3607C7.806 19.3607 7.55555 19.274 7.27328 19.1764C6.58555 18.9384 5.70896 18.6352 5 19.3607C4.00006 20.384 6.00004 25.5006 7 27.5473C8.01191 29.6184 12 33.6873 14 34.7107C16 35.734 18.4 35.734 20 35.734C21.055 35.734 20.7187 36.3036 20.3121 36.992C19.948 37.6086 19.5275 38.3205 20 38.804C20.5 39.3157 21 39.3157 21.625 39.3157C22.25 39.3157 23 39.3157 24 39.8273C25 40.339 24.75 41.1065 24.5 41.874C24.25 42.6415 24 43.409 25 43.9207C26.0851 44.4759 26.5815 44.1274 26.9683 43.8558C27.2944 43.6268 27.5426 43.4526 28 43.9207C28.5 44.4323 28.5 44.6882 28.5 44.944C28.5 45.1998 28.5 45.4557 29 45.9673C30 46.9906 35 45.9673 34 44.944L33 43.9207C33.0342 43.8857 33.0803 43.8428 33.1347 43.7922C33.6105 43.3498 34.7179 42.32 34 40.8507C33.2018 39.217 31.0098 40.8434 31 40.8507C31.0079 40.8407 32.7982 38.5975 32 37.7807C31.3333 37.0985 30.6667 37.3259 30 37.5533C29.6666 37.667 29.3333 37.7807 29 37.7807C28.557 37.7807 28.3102 37.1782 27.9989 36.418C27.6075 35.4623 27.114 34.2573 26 33.6873C24.9368 33.1433 24.1561 33.4669 23.5079 33.7357C22.9367 33.9724 22.4684 34.1666 22 33.6873C21 32.664 20 31.6406 20 28.5707C20 25.5007 18 25.5007 16 25.5007C14 25.5007 13.9999 25.5006 12 24.4773C11.0173 23.9745 10.7589 21.9891 10.5129 20.0996C10.2584 18.1438 10.0172 16.2907 9 16.2907ZM40 36.7573C39.1999 35.9388 36.3333 37.0985 35 37.7807C35 37.9858 35.1571 38.105 35.4054 38.2933C35.57 38.4181 35.7746 38.5733 36 38.804C36.6667 39.4862 36.4444 40.4717 36.2222 41.4572C36.1111 41.9499 36 42.4426 36 42.8973C36 44.2618 36.4 45.9673 38 45.9673C38.5084 45.9673 38.3171 45.361 38.0991 44.6697C37.8883 44.0011 37.6524 43.2531 38 42.8973C38.3819 42.5065 38.7639 42.4142 39.0901 42.3354C39.618 42.2079 40 42.1156 40 40.8507C40 39.2135 39.3333 38.804 39 38.804C39.6667 38.4629 40.8 37.576 40 36.7573ZM27.5996 24.4773C26.5999 24.4776 26 25.501 26 27.5473V31.6407H29C30 31.6407 31.3333 33.0051 32 33.6873C32.3333 31.6406 32.6 27.5473 31 27.5473C29.4001 27.5473 29 28.9117 29 29.594C29 27.8884 28.5996 24.4773 27.5996 24.4773ZM6 9.12732C6 9.12732 5.00003 11.6856 5 13.2207V16.2907C5.0001 15.6084 6.80009 14.244 10 14.244C12.8147 14.244 12.8035 17.9394 12.7961 20.3817C12.7929 21.41 12.7905 22.2162 13 22.4307C13.3187 22.7568 14.0438 22.6672 14.9162 22.5593C16.7809 22.3287 19.3187 22.0149 20 25.5007C20.4535 27.8212 23.9898 29.5889 24 29.594V25.5007C23.9999 23.4539 18 17.314 15 14.244C12.6 11.788 7.99999 9.80954 6 9.12732Z" fill="#7B8868"/>
<path fill-rule="evenodd" clip-rule="evenodd" d="M7.26887 110.883C6.67737 110.269 6.30249 109.879 6 110.034C3.99995 111.058 2.00013 121.291 4 128.454C5.47253 133.728 10.1974 139.557 13.3855 143.49C14.5276 144.899 15.4725 146.064 16 146.874C18 149.944 18 151.991 16 151.991C14.0026 151.99 3.03204 143.828 3.00006 143.804C3.01872 143.823 11.3321 152.332 11 153.014C10.9507 153.216 10.8686 153.468 10.772 153.765C10.4425 154.778 9.94407 156.311 10 158.131C10.0112 158.493 10.1031 158.866 10.2227 159.25C10.3841 160.033 10.602 160.706 10.7737 161.237C10.8694 161.533 10.9508 161.785 11 161.986C11.3266 162.673 3.0192 171.177 3 171.196C3.01206 171.187 14.0008 163.01 16 163.009C18 163.009 18 165.056 16 168.126C15.4724 168.936 14.5277 170.101 13.3859 171.51C10.1976 175.443 5.47254 181.272 4 186.546C2.00048 193.709 4.00002 203.942 6 204.966C6.30249 205.121 6.67763 204.731 7.26931 204.116C7.70777 203.661 8.26515 203.082 9 202.51L14 199.85C17.8038 197.903 20.4021 194.723 22.3041 192.395C23.4021 191.051 24.268 189.991 25 189.616C25.6666 189.275 26.7777 189.275 27.9998 189.275C30.4441 189.275 33.3329 189.274 34 186.546C34.7999 183.272 34.3333 176.996 34 174.266C36 175.631 40.3997 177.949 42 176.313C43.5998 174.676 42.6667 167.444 42 164.033C45.5944 163.698 52.7209 162.052 53 158.131V157.107C52.9998 153.014 45.6666 151.308 42 150.967C42.6667 147.556 43.5999 140.325 42 138.687C40.4 137.05 36 139.37 34 140.734C34.3333 138.005 34.7999 131.729 34 128.454C33.3333 125.725 30.4444 125.725 28 125.725C26.7778 125.725 25.6667 125.725 25 125.384C24.268 125.009 23.402 123.949 22.3039 122.605C20.402 120.277 17.8038 117.097 14 115.151L9 112.49C8.26477 111.918 7.70731 111.339 7.26887 110.883ZM24 180.406C23.9609 180.426 20.4516 182.189 20 184.499C19.3185 187.985 16.7808 187.671 14.9162 187.441C14.0438 187.333 13.3187 187.243 13 187.57C12.7909 187.785 12.7933 188.59 12.7964 189.618C12.8037 192.06 12.8147 195.756 10 195.756C6.80134 195.756 5.0015 194.392 5 193.71V196.78C5.00037 198.314 6 200.873 6 200.873C7.99988 200.191 12.5999 198.212 15 195.756C17.9996 192.687 23.9983 186.547 24 184.499V180.406ZM34 165.056C34.9999 164.033 30 163.01 29 164.033C28.5004 164.544 28.5003 164.8 28.5002 165.056C28.5001 165.312 28.5 165.568 28 166.079C27.5428 166.547 27.2946 166.373 26.9685 166.144C26.5816 165.873 26.0851 165.524 25 166.079C24.0004 166.591 24.2503 167.359 24.5001 168.126C24.7501 168.894 25 169.661 24 170.173C23.0002 170.684 22.2502 170.684 21.6252 170.684C21.0001 170.684 20.5 170.685 20 171.196C19.5282 171.68 19.9484 172.391 20.3123 173.008C20.7187 173.696 21.0551 174.266 20 174.266C18.4 174.266 16 174.266 14 175.289C11.9999 176.313 8.01186 180.382 7 182.453C5.99993 184.5 4.00017 189.616 5 190.64C5.70894 191.365 6.5856 191.061 7.27335 190.824C7.5556 190.726 7.80604 190.64 8 190.64C8 191.663 8.0003 193.71 9 193.71C10.0172 193.709 10.2585 191.856 10.5131 189.9C10.7591 188.011 11.0175 186.026 12 185.523C13.9999 184.5 14 184.499 16 184.499C17.9998 184.499 19.9996 184.499 20 181.429C20 178.36 21.0001 177.336 22 176.313C22.4684 175.834 22.9368 176.028 23.508 176.264C24.1563 176.533 24.9369 176.857 26 176.313C27.114 175.743 27.6075 174.538 27.9989 173.582C28.3102 172.822 28.557 172.219 29 172.219C29.3333 172.22 29.6666 172.333 29.9999 172.447C30.6666 172.674 31.3334 172.901 32 172.219C32.793 171.408 31.0308 169.188 31 169.149C31.034 169.175 33.206 170.773 34 169.149C34.7179 167.68 33.6101 166.65 33.1343 166.208C33.0802 166.157 33.0342 166.114 33 166.079L34 165.056ZM32 176.313C31.3332 176.995 29.9998 178.359 29 178.359H26V182.453C26.0002 184.499 26.6 185.523 27.5996 185.523C28.5994 185.523 28.9999 182.112 29 180.406C29.0004 181.089 29.4007 182.453 31 182.453C32.5998 182.453 32.3333 178.36 32 176.313ZM38.0991 165.331C38.3171 164.639 38.5084 164.033 38 164.033C36.4 164.033 36 165.738 36 167.103C36.0002 167.557 36.1112 168.05 36.2222 168.542C36.4444 169.528 36.6667 170.514 36 171.196C35.7747 171.427 35.5703 171.582 35.4058 171.707C35.1573 171.895 35 172.014 35 172.219C36.3332 172.902 39.1994 174.06 40 173.243C40.7998 172.424 39.6667 171.537 39 171.196C39.3333 171.196 39.9997 170.786 40 169.149C40 167.885 39.6178 167.792 39.0898 167.664C38.7636 167.586 38.3818 167.493 38 167.103C37.6524 166.747 37.8883 165.999 38.0991 165.331ZM9 121.291C8.00004 121.291 8 123.337 8 124.361C7.806 124.361 7.55555 124.274 7.27328 124.176C6.58555 123.938 5.70896 123.635 5 124.361C4.00006 125.384 6.00004 130.501 7 132.547C8.01191 134.618 12 138.687 14 139.711C16 140.734 18.4 140.734 20 140.734C21.055 140.734 20.7187 141.304 20.3121 141.992C19.948 142.609 19.5275 143.32 20 143.804C20.5 144.316 21 144.316 21.625 144.316C22.25 144.316 23 144.316 24 144.827C25 145.339 24.75 146.106 24.5 146.874C24.25 147.641 24 148.409 25 148.921C26.0851 149.476 26.5815 149.127 26.9683 148.856C27.2944 148.627 27.5426 148.453 28 148.921C28.5 149.432 28.5 149.688 28.5 149.944C28.5 150.2 28.5 150.456 29 150.967C30 151.991 35 150.967 34 149.944L33 148.921C33.0342 148.886 33.0803 148.843 33.1347 148.792C33.6105 148.35 34.7179 147.32 34 145.851C33.2018 144.217 31.0098 145.843 31 145.851C31.0079 145.841 32.7982 143.598 32 142.781C31.3333 142.098 30.6667 142.326 30 142.553C29.6666 142.667 29.3333 142.781 29 142.781C28.557 142.781 28.3102 142.178 27.9989 141.418C27.6075 140.462 27.114 139.257 26 138.687C24.9368 138.143 24.1561 138.467 23.5079 138.736C22.9367 138.972 22.4684 139.167 22 138.687C21 137.664 20 136.641 20 133.571C20 130.501 18 130.501 16 130.501C14 130.501 13.9999 130.501 12 129.477C11.0173 128.974 10.7589 126.989 10.5129 125.1C10.2584 123.144 10.0172 121.291 9 121.291ZM40 141.757C39.1999 140.939 36.3333 142.098 35 142.781C35 142.986 35.1571 143.105 35.4054 143.293C35.57 143.418 35.7746 143.573 36 143.804C36.6667 144.486 36.4444 145.472 36.2222 146.457C36.1111 146.95 36 147.443 36 147.897C36 149.262 36.4 150.967 38 150.967C38.5084 150.967 38.3171 150.361 38.0991 149.67C37.8883 149.001 37.6524 148.253 38 147.897C38.3819 147.507 38.7639 147.414 39.0901 147.335C39.618 147.208 40 147.116 40 145.851C40 144.213 39.3333 143.804 39 143.804C39.6667 143.463 40.8 142.576 40 141.757ZM27.5996 129.477C26.5999 129.478 26 130.501 26 132.547V136.641H29C30 136.641 31.3333 138.005 32 138.687C32.3333 136.641 32.6 132.547 31 132.547C29.4001 132.547 29 133.912 29 134.594C29 132.888 28.5996 129.477 27.5996 129.477ZM6 114.127C6 114.127 5.00003 116.686 5 118.221V121.291C5.0001 120.608 6.80009 119.244 10 119.244C12.8147 119.244 12.8035 122.939 12.7961 125.382C12.7929 126.41 12.7905 127.216 13 127.431C13.3187 127.757 14.0438 127.667 14.9162 127.559C16.7809 127.329 19.3187 127.015 20 130.501C20.4535 132.821 23.9898 134.589 24 134.594V130.501C23.9999 128.454 18 122.314 15 119.244C12.6 116.788 7.99999 114.81 6 114.127Z" fill="#7B8868"/>
<path fill-rule="evenodd" clip-rule="evenodd" d="M175.731 6.8831C176.323 6.26866 176.698 5.87924 177 6.03398C179 7.05804 181 17.2909 179 24.454C177.527 29.7279 172.803 35.5567 169.614 39.4897C168.472 40.8987 167.528 42.0643 167 42.874C165 45.944 165 47.9907 167 47.9907C168.997 47.9903 179.968 39.8278 180 39.804C179.981 39.8231 171.668 48.3318 172 49.014C172.049 49.2159 172.131 49.4682 172.228 49.7653C172.558 50.7783 173.056 52.3108 173 54.1307C172.989 54.4932 172.897 54.8662 172.777 55.2499C172.616 56.0327 172.398 56.7064 172.226 57.2373C172.131 57.5333 172.049 57.7849 172 57.9862C171.673 58.6731 179.981 67.1765 180 67.1962C179.988 67.1872 168.999 59.0098 167 59.0095C165 59.0095 165 61.0562 167 64.1262C167.528 64.9358 168.472 66.1013 169.614 67.5099C172.802 71.4431 177.527 77.2722 179 82.5462C181 89.7092 179 99.9421 177 100.966C176.698 101.121 176.322 100.731 175.731 100.116C175.292 99.6611 174.735 99.0823 174 98.5098L169 95.8495C165.196 93.9032 162.598 90.7229 160.696 88.3948C159.598 87.0509 158.732 85.9909 158 85.6162C157.333 85.2751 156.222 85.275 155 85.2748C152.556 85.2746 149.667 85.2743 149 82.5462C148.2 79.2718 148.667 72.9955 149 70.2662C147 71.6305 142.6 73.9491 141 72.3128C139.4 70.6756 140.333 63.4443 141 60.0328C137.406 59.6984 130.279 58.0515 130 54.1307V53.1073C130 49.0141 137.333 47.3084 141 46.9673C140.333 43.5562 139.4 36.3247 141 34.6873C142.6 33.0501 147 35.3696 149 36.734C148.667 34.0051 148.2 27.7286 149 24.454C149.667 21.7252 152.556 21.7252 155 21.7251C156.222 21.7251 157.333 21.7251 158 21.384C158.732 21.0094 159.598 19.9493 160.696 18.6053C162.598 16.2772 165.196 13.097 169 11.1506L174 8.49038C174.735 7.91763 175.293 7.33855 175.731 6.8831ZM159 76.4062C159.039 76.4258 162.548 78.1886 163 80.4995C163.682 83.9845 166.219 83.671 168.084 83.4407C168.956 83.3329 169.681 83.2433 170 83.5695C170.209 83.7846 170.207 84.5904 170.204 85.6181C170.196 88.0605 170.185 91.7562 173 91.7562C176.199 91.7562 177.998 90.392 178 89.7095V92.7795C178 94.3136 177 96.8728 177 96.8728C175 96.1907 170.4 94.212 168 91.7562C165 88.6866 159.002 82.547 159 80.4995V76.4062ZM149 61.0562C148 60.0328 153 59.0095 154 60.0328C154.5 60.5442 154.5 60.8001 154.5 61.056C154.5 61.3119 154.5 61.5678 155 62.0795C155.457 62.5471 155.705 62.3729 156.032 62.1441C156.418 61.8727 156.915 61.5243 158 62.0795C159 62.5912 158.75 63.3586 158.5 64.1261C158.25 64.8936 158 65.6612 159 66.1728C160 66.6843 160.75 66.6844 161.375 66.6844C162 66.6845 162.5 66.6845 163 67.1962C163.472 67.6796 163.052 68.3914 162.688 69.0079C162.281 69.6964 161.945 70.2662 163 70.2662C164.6 70.2662 167 70.2662 169 71.2895C171 72.3131 174.988 76.3818 176 78.4528C177 80.4999 179 85.6163 178 86.6395C177.291 87.3645 176.414 87.0614 175.727 86.8237C175.444 86.7261 175.194 86.6395 175 86.6395C175 87.6631 175 89.7095 174 89.7095C172.983 89.7095 172.742 87.8563 172.487 85.9005C172.241 84.0111 171.982 82.0259 171 81.5228C169 80.4995 169 80.4995 167 80.4995C165 80.4995 163 80.4987 163 77.4295C163 74.3599 162 73.336 161 72.3128C160.532 71.8335 160.063 72.0277 159.492 72.2644C158.844 72.5331 158.063 72.8566 157 72.3128C155.886 71.7428 155.393 70.5379 155.001 69.5821C154.69 68.822 154.443 68.2195 154 68.2195C153.667 68.2195 153.333 68.3331 153 68.4467C152.333 68.674 151.667 68.9013 151 68.2195C150.207 67.408 151.969 65.1882 152 65.1495C151.966 65.1747 149.794 66.7729 149 65.1495C148.282 63.6802 149.39 62.65 149.866 62.2076C149.92 62.1572 149.966 62.1144 150 62.0795L149 61.0562ZM151 72.3128C151.667 72.9952 153 74.3595 154 74.3595H157V78.4528C157 80.4986 156.4 81.5226 155.4 81.5228C154.401 81.5228 154 78.112 154 76.4062C154 77.0887 153.599 78.4528 152 78.4528C150.4 78.4528 150.667 74.3598 151 72.3128ZM144.901 61.3305C144.683 60.6392 144.492 60.0328 145 60.0328C146.6 60.0328 147 61.7384 147 63.1028C147 63.5573 146.889 64.0498 146.778 64.5422C146.556 65.528 146.333 66.5139 147 67.1962C147.225 67.4266 147.43 67.5817 147.594 67.7065C147.843 67.895 148 68.0143 148 68.2195C146.667 68.9016 143.801 70.0605 143 69.2428C142.2 68.4243 143.333 67.5374 144 67.1962C143.667 67.1962 143 66.786 143 65.1495C143 63.8845 143.382 63.7921 143.91 63.6645C144.236 63.5856 144.618 63.4933 145 63.1028C145.348 62.7471 145.112 61.9991 144.901 61.3305ZM174 17.2907C175 17.2907 175 19.3373 175 20.3607C175.194 20.3607 175.444 20.274 175.727 20.1764C176.414 19.9384 177.291 19.6352 178 20.3607C179 21.384 177 26.5006 176 28.5473C174.988 30.6184 171 34.6873 169 35.7107C167 36.734 164.6 36.734 163 36.734C161.945 36.734 162.281 37.3036 162.688 37.992C163.052 38.6086 163.472 39.3205 163 39.804C162.5 40.3157 162 40.3157 161.375 40.3157C160.75 40.3157 160 40.3157 159 40.8273C158 41.339 158.25 42.1065 158.5 42.874C158.75 43.6415 159 44.409 158 44.9207C156.915 45.4759 156.418 45.1274 156.032 44.8558C155.706 44.6268 155.457 44.4526 155 44.9207C154.5 45.4323 154.5 45.6882 154.5 45.944C154.5 46.1998 154.5 46.4557 154 46.9673C153 47.9906 148 46.9673 149 45.944L150 44.9207C149.966 44.8857 149.92 44.8428 149.865 44.7922C149.39 44.3498 148.282 43.32 149 41.8507C149.798 40.217 151.99 41.8434 152 41.8507C151.992 41.8407 150.202 39.5975 151 38.7807C151.667 38.0985 152.333 38.3259 153 38.5533C153.333 38.667 153.667 38.7807 154 38.7807C154.443 38.7807 154.69 38.1782 155.001 37.418C155.393 36.4623 155.886 35.2573 157 34.6873C158.063 34.1433 158.844 34.4669 159.492 34.7357C160.063 34.9724 160.532 35.1666 161 34.6873C162 33.664 163 32.6406 163 29.5707C163 26.5007 165 26.5007 167 26.5007C169 26.5007 169 26.5006 171 25.4773C171.983 24.9745 172.241 22.9891 172.487 21.0996C172.742 19.1438 172.983 17.2907 174 17.2907ZM143 37.7573C143.8 36.9388 146.667 38.0985 148 38.7807C148 38.9858 147.843 39.105 147.595 39.2933C147.43 39.4181 147.225 39.5733 147 39.804C146.333 40.4862 146.556 41.4717 146.778 42.4572C146.889 42.9499 147 43.4426 147 43.8973C147 45.2618 146.6 46.9673 145 46.9673C144.492 46.9673 144.683 46.361 144.901 45.6697C145.112 45.0011 145.348 44.2531 145 43.8973C144.618 43.5065 144.236 43.4142 143.91 43.3354C143.382 43.2079 143 43.1156 143 41.8507C143 40.2135 143.667 39.804 144 39.804C143.333 39.4629 142.2 38.576 143 37.7573ZM155.4 25.4773C156.4 25.4776 157 26.501 157 28.5473V32.6407H154C153 32.6407 151.667 34.0051 151 34.6873C150.667 32.6406 150.4 28.5473 152 28.5473C153.6 28.5473 154 29.9117 154 30.594C154 28.8884 154.4 25.4773 155.4 25.4773ZM177 10.1273C177 10.1273 178 12.6856 178 14.2207V17.2907C178 16.6084 176.2 15.244 173 15.244C170.185 15.244 170.197 18.9394 170.204 21.3817C170.207 22.41 170.21 23.2162 170 23.4307C169.681 23.7568 168.956 23.6672 168.084 23.5593C166.219 23.3287 163.681 23.0149 163 26.5007C162.546 28.8212 159.01 30.5889 159 30.594V26.5007C159 24.4539 165 18.314 168 15.244C170.4 12.788 175 10.8095 177 10.1273Z" fill="#7B8868"/>
<path fill-rule="evenodd" clip-rule="evenodd" d="M175.731 111.883C176.323 111.269 176.698 110.879 177 111.034C179 112.058 181 122.291 179 129.454C177.527 134.728 172.803 140.557 169.614 144.49C168.472 145.899 167.528 147.064 167 147.874C165 150.944 165 152.991 167 152.991C168.997 152.99 179.968 144.828 180 144.804C179.981 144.823 171.668 153.332 172 154.014C172.049 154.216 172.131 154.468 172.228 154.765C172.558 155.778 173.056 157.311 173 159.131C172.989 159.493 172.897 159.866 172.777 160.25C172.616 161.033 172.398 161.706 172.226 162.237C172.131 162.533 172.049 162.785 172 162.986C171.673 163.673 179.981 172.177 180 172.196C179.988 172.187 168.999 164.01 167 164.009C165 164.009 165 166.056 167 169.126C167.528 169.936 168.472 171.101 169.614 172.51C172.802 176.443 177.527 182.272 179 187.546C181 194.709 179 204.942 177 205.966C176.698 206.121 176.322 205.731 175.731 205.116C175.292 204.661 174.735 204.082 174 203.51L169 200.85C165.196 198.903 162.598 195.723 160.696 193.395C159.598 192.051 158.732 190.991 158 190.616C157.333 190.275 156.222 190.275 155 190.275C152.556 190.275 149.667 190.274 149 187.546C148.2 184.272 148.667 177.996 149 175.266C147 176.631 142.6 178.949 141 177.313C139.4 175.676 140.333 168.444 141 165.033C137.406 164.698 130.279 163.052 130 159.131V158.107C130 154.014 137.333 152.308 141 151.967C140.333 148.556 139.4 141.325 141 139.687C142.6 138.05 147 140.37 149 141.734C148.667 139.005 148.2 132.729 149 129.454C149.667 126.725 152.556 126.725 155 126.725C156.222 126.725 157.333 126.725 158 126.384C158.732 126.009 159.598 124.949 160.696 123.605C162.598 121.277 165.196 118.097 169 116.151L174 113.49C174.735 112.918 175.293 112.339 175.731 111.883ZM159 181.406C159.039 181.426 162.548 183.189 163 185.499C163.682 188.985 166.219 188.671 168.084 188.441C168.956 188.333 169.681 188.243 170 188.57C170.209 188.785 170.207 189.59 170.204 190.618C170.196 193.06 170.185 196.756 173 196.756C176.199 196.756 177.998 195.392 178 194.71V197.78C178 199.314 177 201.873 177 201.873C175 201.191 170.4 199.212 168 196.756C165 193.687 159.002 187.547 159 185.499V181.406ZM149 166.056C148 165.033 153 164.01 154 165.033C154.5 165.544 154.5 165.8 154.5 166.056C154.5 166.312 154.5 166.568 155 167.079C155.457 167.547 155.705 167.373 156.032 167.144C156.418 166.873 156.915 166.524 158 167.079C159 167.591 158.75 168.359 158.5 169.126C158.25 169.894 158 170.661 159 171.173C160 171.684 160.75 171.684 161.375 171.684C162 171.684 162.5 171.685 163 172.196C163.472 172.68 163.052 173.391 162.688 174.008C162.281 174.696 161.945 175.266 163 175.266C164.6 175.266 167 175.266 169 176.289C171 177.313 174.988 181.382 176 183.453C177 185.5 179 190.616 178 191.64C177.291 192.365 176.414 192.061 175.727 191.824C175.444 191.726 175.194 191.64 175 191.64C175 192.663 175 194.71 174 194.71C172.983 194.709 172.742 192.856 172.487 190.9C172.241 189.011 171.982 187.026 171 186.523C169 185.5 169 185.499 167 185.499C165 185.499 163 185.499 163 182.429C163 179.36 162 178.336 161 177.313C160.532 176.834 160.063 177.028 159.492 177.264C158.844 177.533 158.063 177.857 157 177.313C155.886 176.743 155.393 175.538 155.001 174.582C154.69 173.822 154.443 173.219 154 173.219C153.667 173.22 153.333 173.333 153 173.447C152.333 173.674 151.667 173.901 151 173.219C150.207 172.408 151.969 170.188 152 170.149C151.966 170.175 149.794 171.773 149 170.149C148.282 168.68 149.39 167.65 149.866 167.208C149.92 167.157 149.966 167.114 150 167.079L149 166.056ZM151 177.313C151.667 177.995 153 179.359 154 179.359H157V183.453C157 185.499 156.4 186.523 155.4 186.523C154.401 186.523 154 183.112 154 181.406C154 182.089 153.599 183.453 152 183.453C150.4 183.453 150.667 179.36 151 177.313ZM144.901 166.331C144.683 165.639 144.492 165.033 145 165.033C146.6 165.033 147 166.738 147 168.103C147 168.557 146.889 169.05 146.778 169.542C146.556 170.528 146.333 171.514 147 172.196C147.225 172.427 147.43 172.582 147.594 172.707C147.843 172.895 148 173.014 148 173.219C146.667 173.902 143.801 175.06 143 174.243C142.2 173.424 143.333 172.537 144 172.196C143.667 172.196 143 171.786 143 170.149C143 168.885 143.382 168.792 143.91 168.664C144.236 168.586 144.618 168.493 145 168.103C145.348 167.747 145.112 166.999 144.901 166.331ZM174 122.291C175 122.291 175 124.337 175 125.361C175.194 125.361 175.444 125.274 175.727 125.176C176.414 124.938 177.291 124.635 178 125.361C179 126.384 177 131.501 176 133.547C174.988 135.618 171 139.687 169 140.711C167 141.734 164.6 141.734 163 141.734C161.945 141.734 162.281 142.304 162.688 142.992C163.052 143.609 163.472 144.32 163 144.804C162.5 145.316 162 145.316 161.375 145.316C160.75 145.316 160 145.316 159 145.827C158 146.339 158.25 147.106 158.5 147.874C158.75 148.641 159 149.409 158 149.921C156.915 150.476 156.418 150.127 156.032 149.856C155.706 149.627 155.457 149.453 155 149.921C154.5 150.432 154.5 150.688 154.5 150.944C154.5 151.2 154.5 151.456 154 151.967C153 152.991 148 151.967 149 150.944L150 149.921C149.966 149.886 149.92 149.843 149.865 149.792C149.39 149.35 148.282 148.32 149 146.851C149.798 145.217 151.99 146.843 152 146.851C151.992 146.841 150.202 144.598 151 143.781C151.667 143.098 152.333 143.326 153 143.553C153.333 143.667 153.667 143.781 154 143.781C154.443 143.781 154.69 143.178 155.001 142.418C155.393 141.462 155.886 140.257 157 139.687C158.063 139.143 158.844 139.467 159.492 139.736C160.063 139.972 160.532 140.167 161 139.687C162 138.664 163 137.641 163 134.571C163 131.501 165 131.501 167 131.501C169 131.501 169 131.501 171 130.477C171.983 129.974 172.241 127.989 172.487 126.1C172.742 124.144 172.983 122.291 174 122.291ZM143 142.757C143.8 141.939 146.667 143.098 148 143.781C148 143.986 147.843 144.105 147.595 144.293C147.43 144.418 147.225 144.573 147 144.804C146.333 145.486 146.556 146.472 146.778 147.457C146.889 147.95 147 148.443 147 148.897C147 150.262 146.6 151.967 145 151.967C144.492 151.967 144.683 151.361 144.901 150.67C145.112 150.001 145.348 149.253 145 148.897C144.618 148.507 144.236 148.414 143.91 148.335C143.382 148.208 143 148.116 143 146.851C143 145.213 143.667 144.804 144 144.804C143.333 144.463 142.2 143.576 143 142.757ZM155.4 130.477C156.4 130.478 157 131.501 157 133.547V137.641H154C153 137.641 151.667 139.005 151 139.687C150.667 137.641 150.4 133.547 152 133.547C153.6 133.547 154 134.912 154 135.594C154 133.888 154.4 130.477 155.4 130.477ZM177 115.127C177 115.127 178 117.686 178 119.221V122.291C178 121.608 176.2 120.244 173 120.244C170.185 120.244 170.197 123.939 170.204 126.382C170.207 127.41 170.21 128.216 170 128.431C169.681 128.757 168.956 128.667 168.084 128.559C166.219 128.329 163.681 128.015 163 131.501C162.546 133.821 159.01 135.589 159 135.594V131.501C159 129.454 165 123.314 168 120.244C170.4 117.788 175 115.81 177 115.127Z" fill="#7B8868"/>
<path fill-rule="evenodd" clip-rule="evenodd" d="M100.269 -47.1169C99.6774 -47.7313 99.3025 -48.1208 99 -47.966C96.9999 -46.942 95.0001 -36.7091 97 -29.546C98.4725 -24.2721 103.197 -18.4433 106.386 -14.5103C107.528 -13.1013 108.472 -11.9357 109 -11.126C111 -8.05603 111 -6.00933 109 -6.00933C107.003 -6.00966 96.032 -14.1722 96.0001 -14.196C96.0187 -14.1769 104.332 -5.66823 104 -4.986C103.951 -4.78413 103.869 -4.53176 103.772 -4.23475C103.442 -3.22169 102.944 -1.68923 103 0.13067C103.011 0.493246 103.103 0.866164 103.223 1.24994C103.384 2.03271 103.602 2.70645 103.774 3.23728C103.869 3.53331 103.951 3.7849 104 3.98616C104.327 4.67306 96.0192 13.1765 96 13.1962C96.0121 13.1872 107.001 5.00982 109 5.00949C111 5.00949 111 7.05619 109 10.1262C108.472 10.9358 107.528 12.1013 106.386 13.5099C103.198 17.4431 98.4725 23.2722 97 28.5462C95.0005 35.7092 97 45.9421 99 46.9662C99.3025 47.1205 99.6776 46.7309 100.269 46.1165C100.708 45.6611 101.265 45.0823 102 44.5098L107 41.8495C110.804 39.9032 113.402 36.7229 115.304 34.3948C116.402 33.0509 117.268 31.9909 118 31.6162C118.667 31.2751 119.778 31.275 121 31.2748C123.444 31.2746 126.333 31.2743 127 28.5462C127.8 25.2718 127.333 18.9955 127 16.2662C129 17.6305 133.4 19.9491 135 18.3128C136.6 16.6756 135.667 9.44429 135 6.03283C138.594 5.69844 145.721 4.05152 146 0.130666V-0.892664C146 -4.98591 138.667 -6.69156 135 -7.03267C135.667 -10.4438 136.6 -17.6753 135 -19.3127C133.4 -20.9499 129 -18.6304 127 -17.266C127.333 -19.9949 127.8 -26.2714 127 -29.546C126.333 -32.2748 123.444 -32.2748 121 -32.2749C119.778 -32.2749 118.667 -32.2749 118 -32.616C117.268 -32.9906 116.402 -34.0507 115.304 -35.3947C113.402 -37.7228 110.804 -40.903 107 -42.8494L102 -45.5096C101.265 -46.0824 100.707 -46.6615 100.269 -47.1169ZM117 22.4062C116.961 22.4258 113.452 24.1886 113 26.4995C112.318 29.9845 109.781 29.671 107.916 29.4407C107.044 29.3329 106.319 29.2433 106 29.5695C105.791 29.7846 105.793 30.5904 105.796 31.6181C105.804 34.0605 105.815 37.7562 103 37.7562C99.8013 37.7562 98.0015 36.392 98 35.7095V38.7795C98.0004 40.3136 99 42.8728 99 42.8728C101 42.1907 105.6 40.212 108 37.7562C111 34.6866 116.998 28.547 117 26.4995V22.4062ZM127 7.05616C128 6.03284 123 5.00952 122 6.03283C121.5 6.54422 121.5 6.80009 121.5 7.05596C121.5 7.3119 121.5 7.56784 121 8.07949C120.543 8.5471 120.295 8.37293 119.968 8.14412C119.582 7.87266 119.085 7.52429 118 8.07949C117 8.59116 117.25 9.35862 117.5 10.1261C117.75 10.8936 118 11.6612 117 12.1728C116 12.6843 115.25 12.6844 114.625 12.6844C114 12.6845 113.5 12.6845 113 13.1962C112.528 13.6796 112.948 14.3914 113.312 15.0079C113.719 15.6964 114.055 16.2662 113 16.2662C111.4 16.2662 109 16.2662 107 17.2895C105 18.3131 101.012 22.3818 100 24.4528C98.9999 26.4999 97.0002 31.6163 98 32.6395C98.7089 33.3645 99.5856 33.0614 100.273 32.8237C100.556 32.7261 100.806 32.6395 101 32.6395C101 33.6631 101 35.7095 102 35.7095C103.017 35.7095 103.258 33.8563 103.513 31.9005C103.759 30.0111 104.018 28.0259 105 27.5228C107 26.4995 107 26.4995 109 26.4995C111 26.4995 113 26.4987 113 23.4295C113 20.3599 114 19.336 115 18.3128C115.468 17.8335 115.937 18.0277 116.508 18.2644C117.156 18.5331 117.937 18.8566 119 18.3128C120.114 17.7428 120.607 16.5379 120.999 15.5821C121.31 14.822 121.557 14.2195 122 14.2195C122.333 14.2195 122.667 14.3331 123 14.4467C123.667 14.674 124.333 14.9013 125 14.2195C125.793 13.408 124.031 11.1882 124 11.1495C124.034 11.1747 126.206 12.7729 127 11.1495C127.718 9.68018 126.61 8.65003 126.134 8.20757C126.08 8.15718 126.034 8.11442 126 8.07949L127 7.05616ZM125 18.3128C124.333 18.9952 123 20.3595 122 20.3595H119V24.4528C119 26.4986 119.6 27.5226 120.6 27.5228C121.599 27.5228 122 24.112 122 22.4062C122 23.0887 122.401 24.4528 124 24.4528C125.6 24.4528 125.333 20.3598 125 18.3128ZM131.099 7.33051C131.317 6.63921 131.508 6.03283 131 6.03283C129.4 6.03283 129 7.73838 129 9.10283C129 9.55734 129.111 10.0498 129.222 10.5422C129.444 11.528 129.667 12.5139 129 13.1962C128.775 13.4266 128.57 13.5817 128.406 13.7065C128.157 13.895 128 14.0143 128 14.2195C129.333 14.9016 132.199 16.0605 133 15.2428C133.8 14.4243 132.667 13.5374 132 13.1962C132.333 13.1962 133 12.786 133 11.1495C133 9.88453 132.618 9.79212 132.09 9.66445C131.764 9.58559 131.382 9.49327 131 9.10283C130.652 8.74708 130.888 7.99908 131.099 7.33051ZM102 -36.7093C101 -36.7093 101 -34.6627 101 -33.6393C100.806 -33.6393 100.556 -33.726 100.273 -33.8236C99.5855 -34.0616 98.709 -34.3648 98 -33.6393C97.0001 -32.616 99 -27.4994 100 -25.4527C101.012 -23.3816 105 -19.3127 107 -18.2893C109 -17.266 111.4 -17.266 113 -17.266C114.055 -17.266 113.719 -16.6964 113.312 -16.008C112.948 -15.3914 112.528 -14.6795 113 -14.196C113.5 -13.6843 114 -13.6843 114.625 -13.6843C115.25 -13.6843 116 -13.6843 117 -13.1727C118 -12.661 117.75 -11.8935 117.5 -11.126C117.25 -10.3585 117 -9.591 118 -9.07933C119.085 -8.52412 119.582 -8.87264 119.968 -9.14421C120.294 -9.37316 120.543 -9.54742 121 -9.07933C121.5 -8.56767 121.5 -8.31183 121.5 -8.056C121.5 -7.80016 121.5 -7.54433 122 -7.03267C123 -6.00935 128 -7.03267 127 -8.056L126 -9.07933C126.034 -9.11433 126.08 -9.15723 126.135 -9.20781C126.61 -9.6502 127.718 -10.68 127 -12.1493C126.202 -13.783 124.01 -12.1566 124 -12.1493C124.008 -12.1593 125.798 -14.4025 125 -15.2193C124.333 -15.9015 123.667 -15.6741 123 -15.4467C122.667 -15.333 122.333 -15.2193 122 -15.2193C121.557 -15.2193 121.31 -15.8218 120.999 -16.582C120.607 -17.5377 120.114 -18.7427 119 -19.3127C117.937 -19.8567 117.156 -19.5331 116.508 -19.2643C115.937 -19.0276 115.468 -18.8334 115 -19.3127C114 -20.336 113 -21.3594 113 -24.4293C113 -27.4993 111 -27.4993 109 -27.4993C107 -27.4993 107 -27.4994 105 -28.5227C104.017 -29.0255 103.759 -31.0109 103.513 -32.9004C103.258 -34.8562 103.017 -36.7093 102 -36.7093ZM133 -16.2427C132.2 -17.0612 129.333 -15.9015 128 -15.2193C128 -15.0142 128.157 -14.895 128.405 -14.7067C128.57 -14.5819 128.775 -14.4267 129 -14.196C129.667 -13.5138 129.444 -12.5283 129.222 -11.5428C129.111 -11.0501 129 -10.5574 129 -10.1027C129 -8.73822 129.4 -7.03267 131 -7.03267C131.508 -7.03267 131.317 -7.63904 131.099 -8.33034C130.888 -8.99891 130.652 -9.74691 131 -10.1027C131.382 -10.4935 131.764 -10.5858 132.09 -10.6646C132.618 -10.7921 133 -10.8844 133 -12.1493C133 -13.7865 132.333 -14.196 132 -14.196C132.667 -14.5371 133.8 -15.424 133 -16.2427ZM120.6 -28.5227C119.6 -28.5224 119 -27.499 119 -25.4527V-21.3593H122C123 -21.3593 124.333 -19.9949 125 -19.3127C125.333 -21.3594 125.6 -25.4527 124 -25.4527C122.4 -25.4527 122 -24.0883 122 -23.406C122 -25.1116 121.6 -28.5227 120.6 -28.5227ZM99 -43.8727C99 -43.8727 98 -41.3144 98 -39.7793V-36.7093C98.0001 -37.3916 99.8001 -38.756 103 -38.756C105.815 -38.756 105.803 -35.0606 105.796 -32.6183C105.793 -31.59 105.79 -30.7838 106 -30.5693C106.319 -30.2432 107.044 -30.3328 107.916 -30.4407C109.781 -30.6713 112.319 -30.9851 113 -27.4993C113.454 -25.1788 116.99 -23.4111 117 -23.406V-27.4993C117 -29.5461 111 -35.686 108 -38.756C105.6 -41.212 101 -43.1905 99 -43.8727Z" fill="#7B8868"/>
<path fill-rule="evenodd" clip-rule="evenodd" d="M86.7311 -47.1169C87.3226 -47.7313 87.6975 -48.1208 88 -47.966C90.0001 -46.942 91.9999 -36.7091 90 -29.546C88.5275 -24.2721 83.8026 -18.4433 80.6145 -14.5103C79.4724 -13.1013 78.5275 -11.9357 78 -11.126C76 -8.05603 76 -6.00933 78 -6.00933C79.9974 -6.00966 90.968 -14.1722 90.9999 -14.196C90.9813 -14.1769 82.6679 -5.66823 83 -4.986C83.0493 -4.78413 83.1314 -4.53176 83.228 -4.23475C83.5575 -3.22169 84.0559 -1.68923 84 0.13067C83.9888 0.493246 83.8969 0.866164 83.7773 1.24994C83.6159 2.03271 83.398 2.70645 83.2263 3.23728C83.1306 3.53331 83.0492 3.7849 83 3.98616C82.6734 4.67306 90.9808 13.1765 91 13.1962C90.9879 13.1872 79.9992 5.00982 78 5.00949C76 5.00949 76 7.05619 78 10.1262C78.5276 10.9358 79.4723 12.1013 80.6141 13.5099C83.8024 17.4431 88.5275 23.2722 90 28.5462C91.9995 35.7092 90 45.9421 88 46.9662C87.6975 47.1205 87.3224 46.7309 86.7307 46.1165C86.2922 45.6611 85.7349 45.0823 85 44.5098L80 41.8495C76.1962 39.9032 73.5979 36.7229 71.6959 34.3948C70.5979 33.0509 69.732 31.9909 69 31.6162C68.3334 31.2751 67.2223 31.275 66.0002 31.2748C63.5559 31.2746 60.6671 31.2743 60 28.5462C59.2001 25.2718 59.6667 18.9955 60 16.2662C58 17.6305 53.6003 19.9491 52 18.3128C50.4002 16.6756 51.3333 9.44429 52 6.03283C48.4056 5.69844 41.2791 4.05152 41 0.130666V-0.892664C41.0002 -4.98591 48.3334 -6.69156 52 -7.03267C51.3333 -10.4438 50.4001 -17.6753 52 -19.3127C53.6 -20.9499 58 -18.6304 60 -17.266C59.6667 -19.9949 59.2001 -26.2714 60 -29.546C60.6667 -32.2748 63.5556 -32.2748 66 -32.2749C67.2222 -32.2749 68.3333 -32.2749 69 -32.616C69.732 -32.9906 70.598 -34.0507 71.6961 -35.3947C73.598 -37.7228 76.1962 -40.903 80 -42.8494L85 -45.5096C85.7352 -46.0824 86.2927 -46.6615 86.7311 -47.1169ZM70 22.4062C70.0391 22.4258 73.5484 24.1886 74 26.4995C74.6815 29.9845 77.2192 29.671 79.0838 29.4407C79.9562 29.3329 80.6813 29.2433 81 29.5695C81.2091 29.7846 81.2067 30.5904 81.2036 31.6181C81.1963 34.0605 81.1853 37.7562 84 37.7562C87.1987 37.7562 88.9985 36.392 89 35.7095V38.7795C88.9996 40.3136 88 42.8728 88 42.8728C86.0001 42.1907 81.4001 40.212 79 37.7562C76.0004 34.6866 70.0017 28.547 70 26.4995V22.4062ZM60 7.05616C59.0001 6.03284 64 5.00952 65 6.03283C65.4996 6.54422 65.4997 6.80009 65.4998 7.05596C65.4999 7.3119 65.5 7.56784 66 8.07949C66.4572 8.5471 66.7054 8.37293 67.0315 8.14412C67.4184 7.87266 67.9149 7.52429 69 8.07949C69.9996 8.59116 69.7497 9.35862 69.4999 10.1261C69.2499 10.8936 69 11.6612 70 12.1728C70.9998 12.6843 71.7498 12.6844 72.3748 12.6844C72.9999 12.6845 73.5 12.6845 74 13.1962C74.4718 13.6796 74.0516 14.3914 73.6877 15.0079C73.2813 15.6964 72.9449 16.2662 74 16.2662C75.6 16.2662 78 16.2662 80 17.2895C82.0001 18.3131 85.9881 22.3818 87 24.4528C88.0001 26.4999 89.9998 31.6163 89 32.6395C88.2911 33.3645 87.4144 33.0614 86.7266 32.8237C86.4444 32.7261 86.194 32.6395 86 32.6395C86 33.6631 85.9997 35.7095 85 35.7095C83.9828 35.7095 83.7415 33.8563 83.4869 31.9005C83.2409 30.0111 82.9825 28.0259 82 27.5228C80.0001 26.4995 80 26.4995 78 26.4995C76.0002 26.4995 74.0004 26.4987 74 23.4295C74 20.3599 72.9999 19.336 72 18.3128C71.5316 17.8335 71.0632 18.0277 70.492 18.2644C69.8437 18.5331 69.0631 18.8566 68 18.3128C66.886 17.7428 66.3925 16.5379 66.0011 15.5821C65.6898 14.822 65.443 14.2195 65 14.2195C64.6667 14.2195 64.3334 14.3331 64.0001 14.4467C63.3334 14.674 62.6666 14.9013 62 14.2195C61.207 13.408 62.9692 11.1882 63 11.1495C62.966 11.1747 60.794 12.7729 60 11.1495C59.2821 9.68018 60.3899 8.65003 60.8657 8.20757C60.9198 8.15718 60.9658 8.11442 61 8.07949L60 7.05616ZM62 18.3128C62.6668 18.9952 64.0002 20.3595 65 20.3595H68V24.4528C67.9998 26.4986 67.4 27.5226 66.4004 27.5228C65.4006 27.5228 65.0001 24.112 65 22.4062C64.9996 23.0887 64.5993 24.4528 63 24.4528C61.4002 24.4528 61.6667 20.3598 62 18.3128ZM55.9009 7.33051C55.6829 6.63921 55.4916 6.03283 56 6.03283C57.6 6.03283 58 7.73838 58 9.10283C57.9998 9.55734 57.8888 10.0498 57.7778 10.5422C57.5556 11.528 57.3333 12.5139 58 13.1962C58.2253 13.4266 58.4297 13.5817 58.5942 13.7065C58.8427 13.895 59 14.0143 59 14.2195C57.6668 14.9016 54.8006 16.0605 54 15.2428C53.2002 14.4243 54.3333 13.5374 55 13.1962C54.6667 13.1962 54.0003 12.786 54 11.1495C54 9.88453 54.3822 9.79212 54.9102 9.66445C55.2364 9.58559 55.6182 9.49327 56 9.10283C56.3476 8.74708 56.1117 7.99908 55.9009 7.33051ZM85 -36.7093C86 -36.7093 86 -34.6627 86 -33.6393C86.194 -33.6393 86.4444 -33.726 86.7267 -33.8236C87.4145 -34.0616 88.291 -34.3648 89 -33.6393C89.9999 -32.616 88 -27.4994 87 -25.4527C85.9881 -23.3816 82 -19.3127 80 -18.2893C78 -17.266 75.6 -17.266 74 -17.266C72.945 -17.266 73.2813 -16.6964 73.6879 -16.008C74.052 -15.3914 74.4725 -14.6795 74 -14.196C73.5 -13.6843 73 -13.6843 72.375 -13.6843C71.75 -13.6843 71 -13.6843 70 -13.1727C69 -12.661 69.25 -11.8935 69.5 -11.126C69.75 -10.3585 70 -9.591 69 -9.07933C67.9149 -8.52412 67.4185 -8.87264 67.0317 -9.14421C66.7056 -9.37316 66.4574 -9.54742 66 -9.07933C65.5 -8.56767 65.5 -8.31183 65.5 -8.056C65.5 -7.80016 65.5 -7.54433 65 -7.03267C64 -6.00935 59 -7.03267 60 -8.056L61 -9.07933C60.9658 -9.11433 60.9197 -9.15723 60.8653 -9.20781C60.3895 -9.6502 59.2821 -10.68 60 -12.1493C60.7982 -13.783 62.9902 -12.1566 63 -12.1493C62.9921 -12.1593 61.2018 -14.4025 62 -15.2193C62.6667 -15.9015 63.3333 -15.6741 64 -15.4467C64.3334 -15.333 64.6667 -15.2193 65 -15.2193C65.443 -15.2193 65.6898 -15.8218 66.0011 -16.582C66.3925 -17.5377 66.886 -18.7427 68 -19.3127C69.0632 -19.8567 69.8439 -19.5331 70.4921 -19.2643C71.0633 -19.0276 71.5316 -18.8334 72 -19.3127C73 -20.336 74 -21.3594 74 -24.4293C74 -27.4993 76 -27.4993 78 -27.4993C80 -27.4993 80.0001 -27.4994 82 -28.5227C82.9827 -29.0255 83.2411 -31.0109 83.4871 -32.9004C83.7416 -34.8562 83.9828 -36.7093 85 -36.7093ZM54 -16.2427C54.8001 -17.0612 57.6667 -15.9015 59 -15.2193C59 -15.0142 58.8429 -14.895 58.5946 -14.7067C58.43 -14.5819 58.2254 -14.4267 58 -14.196C57.3333 -13.5138 57.5556 -12.5283 57.7778 -11.5428C57.8889 -11.0501 58 -10.5574 58 -10.1027C58 -8.73822 57.6 -7.03267 56 -7.03267C55.4916 -7.03267 55.6829 -7.63904 55.9009 -8.33034C56.1117 -8.99891 56.3476 -9.74691 56 -10.1027C55.6181 -10.4935 55.2361 -10.5858 54.9099 -10.6646C54.382 -10.7921 54 -10.8844 54 -12.1493C54 -13.7865 54.6667 -14.196 55 -14.196C54.3333 -14.5371 53.2 -15.424 54 -16.2427ZM66.4004 -28.5227C67.4001 -28.5224 68 -27.499 68 -25.4527V-21.3593H65C64 -21.3593 62.6667 -19.9949 62 -19.3127C61.6667 -21.3594 61.4 -25.4527 63 -25.4527C64.5999 -25.4527 65 -24.0883 65 -23.406C65 -25.1116 65.4004 -28.5227 66.4004 -28.5227ZM88 -43.8727C88 -43.8727 89 -41.3144 89 -39.7793V-36.7093C88.9999 -37.3916 87.1999 -38.756 84 -38.756C81.1853 -38.756 81.1965 -35.0606 81.2039 -32.6183C81.2071 -31.59 81.2095 -30.7838 81 -30.5693C80.6813 -30.2432 79.9562 -30.3328 79.0838 -30.4407C77.2191 -30.6713 74.6813 -30.9851 74 -27.4993C73.5465 -25.1788 70.0102 -23.4111 70 -23.406V-27.4993C70.0001 -29.5461 76 -35.686 79 -38.756C81.4 -41.212 86 -43.1905 88 -43.8727Z" fill="#7B8868"/>
<path fill-rule="evenodd" clip-rule="evenodd" d="M100.269 57.8831C99.6774 57.2687 99.3025 56.8792 99 57.034C96.9999 58.058 95.0001 68.2909 97 75.454C98.4725 80.7279 103.197 86.5567 106.386 90.4897C107.528 91.8987 108.472 93.0643 109 93.874C111 96.944 111 98.9907 109 98.9907C107.003 98.9903 96.032 90.8278 96.0001 90.804C96.0187 90.8231 104.332 99.3318 104 100.014C103.951 100.216 103.869 100.468 103.772 100.765C103.442 101.778 102.944 103.311 103 105.131C103.011 105.493 103.103 105.866 103.223 106.25C103.384 107.033 103.602 107.706 103.774 108.237C103.869 108.533 103.951 108.785 104 108.986C104.327 109.673 96.0192 118.177 96 118.196C96.0121 118.187 107.001 110.01 109 110.009C111 110.009 111 112.056 109 115.126C108.472 115.936 107.528 117.101 106.386 118.51C103.198 122.443 98.4725 128.272 97 133.546C95.0005 140.709 97 150.942 99 151.966C99.3025 152.121 99.6776 151.731 100.269 151.116C100.708 150.661 101.265 150.082 102 149.51L107 146.85C110.804 144.903 113.402 141.723 115.304 139.395C116.402 138.051 117.268 136.991 118 136.616C118.667 136.275 119.778 136.275 121 136.275C123.444 136.275 126.333 136.274 127 133.546C127.8 130.272 127.333 123.996 127 121.266C129 122.631 133.4 124.949 135 123.313C136.6 121.676 135.667 114.444 135 111.033C138.594 110.698 145.721 109.052 146 105.131V104.107C146 100.014 138.667 98.3084 135 97.9673C135.667 94.5562 136.6 87.3247 135 85.6873C133.4 84.0501 129 86.3696 127 87.734C127.333 85.0051 127.8 78.7286 127 75.454C126.333 72.7252 123.444 72.7252 121 72.7251C119.778 72.7251 118.667 72.7251 118 72.384C117.268 72.0094 116.402 70.9493 115.304 69.6053C113.402 67.2772 110.804 64.097 107 62.1506L102 59.4904C101.265 58.9176 100.707 58.3385 100.269 57.8831ZM117 127.406C116.961 127.426 113.452 129.189 113 131.499C112.318 134.985 109.781 134.671 107.916 134.441C107.044 134.333 106.319 134.243 106 134.57C105.791 134.785 105.793 135.59 105.796 136.618C105.804 139.06 105.815 142.756 103 142.756C99.8013 142.756 98.0015 141.392 98 140.71V143.78C98.0004 145.314 99 147.873 99 147.873C101 147.191 105.6 145.212 108 142.756C111 139.687 116.998 133.547 117 131.499V127.406ZM127 112.056C128 111.033 123 110.01 122 111.033C121.5 111.544 121.5 111.8 121.5 112.056C121.5 112.312 121.5 112.568 121 113.079C120.543 113.547 120.295 113.373 119.968 113.144C119.582 112.873 119.085 112.524 118 113.079C117 113.591 117.25 114.359 117.5 115.126C117.75 115.894 118 116.661 117 117.173C116 117.684 115.25 117.684 114.625 117.684C114 117.684 113.5 117.685 113 118.196C112.528 118.68 112.948 119.391 113.312 120.008C113.719 120.696 114.055 121.266 113 121.266C111.4 121.266 109 121.266 107 122.289C105 123.313 101.012 127.382 100 129.453C98.9999 131.5 97.0002 136.616 98 137.64C98.7089 138.365 99.5856 138.061 100.273 137.824C100.556 137.726 100.806 137.64 101 137.64C101 138.663 101 140.71 102 140.71C103.017 140.709 103.258 138.856 103.513 136.9C103.759 135.011 104.018 133.026 105 132.523C107 131.5 107 131.499 109 131.499C111 131.499 113 131.499 113 128.429C113 125.36 114 124.336 115 123.313C115.468 122.834 115.937 123.028 116.508 123.264C117.156 123.533 117.937 123.857 119 123.313C120.114 122.743 120.607 121.538 120.999 120.582C121.31 119.822 121.557 119.219 122 119.219C122.333 119.22 122.667 119.333 123 119.447C123.667 119.674 124.333 119.901 125 119.219C125.793 118.408 124.031 116.188 124 116.149C124.034 116.175 126.206 117.773 127 116.149C127.718 114.68 126.61 113.65 126.134 113.208C126.08 113.157 126.034 113.114 126 113.079L127 112.056ZM125 123.313C124.333 123.995 123 125.359 122 125.359H119V129.453C119 131.499 119.6 132.523 120.6 132.523C121.599 132.523 122 129.112 122 127.406C122 128.089 122.401 129.453 124 129.453C125.6 129.453 125.333 125.36 125 123.313ZM131.099 112.331C131.317 111.639 131.508 111.033 131 111.033C129.4 111.033 129 112.738 129 114.103C129 114.557 129.111 115.05 129.222 115.542C129.444 116.528 129.667 117.514 129 118.196C128.775 118.427 128.57 118.582 128.406 118.707C128.157 118.895 128 119.014 128 119.219C129.333 119.902 132.199 121.06 133 120.243C133.8 119.424 132.667 118.537 132 118.196C132.333 118.196 133 117.786 133 116.149C133 114.885 132.618 114.792 132.09 114.664C131.764 114.586 131.382 114.493 131 114.103C130.652 113.747 130.888 112.999 131.099 112.331ZM102 68.2907C101 68.2907 101 70.3373 101 71.3607C100.806 71.3607 100.556 71.274 100.273 71.1764C99.5855 70.9384 98.709 70.6352 98 71.3607C97.0001 72.384 99 77.5006 100 79.5473C101.012 81.6184 105 85.6873 107 86.7107C109 87.734 111.4 87.734 113 87.734C114.055 87.734 113.719 88.3036 113.312 88.992C112.948 89.6086 112.528 90.3205 113 90.804C113.5 91.3157 114 91.3157 114.625 91.3157C115.25 91.3157 116 91.3157 117 91.8273C118 92.339 117.75 93.1065 117.5 93.874C117.25 94.6415 117 95.409 118 95.9207C119.085 96.4759 119.582 96.1274 119.968 95.8558C120.294 95.6268 120.543 95.4526 121 95.9207C121.5 96.4323 121.5 96.6882 121.5 96.944C121.5 97.1998 121.5 97.4557 122 97.9673C123 98.9906 128 97.9673 127 96.944L126 95.9207C126.034 95.8857 126.08 95.8428 126.135 95.7922C126.61 95.3498 127.718 94.32 127 92.8507C126.202 91.217 124.01 92.8434 124 92.8507C124.008 92.8407 125.798 90.5975 125 89.7807C124.333 89.0985 123.667 89.3259 123 89.5533C122.667 89.667 122.333 89.7807 122 89.7807C121.557 89.7807 121.31 89.1782 120.999 88.418C120.607 87.4623 120.114 86.2573 119 85.6873C117.937 85.1433 117.156 85.4669 116.508 85.7357C115.937 85.9724 115.468 86.1666 115 85.6873C114 84.664 113 83.6406 113 80.5707C113 77.5007 111 77.5007 109 77.5007C107 77.5007 107 77.5006 105 76.4773C104.017 75.9745 103.759 73.9891 103.513 72.0996C103.258 70.1438 103.017 68.2907 102 68.2907ZM133 88.7573C132.2 87.9388 129.333 89.0985 128 89.7807C128 89.9858 128.157 90.105 128.405 90.2933C128.57 90.4181 128.775 90.5733 129 90.804C129.667 91.4862 129.444 92.4717 129.222 93.4572C129.111 93.9499 129 94.4426 129 94.8973C129 96.2618 129.4 97.9673 131 97.9673C131.508 97.9673 131.317 97.361 131.099 96.6697C130.888 96.0011 130.652 95.2531 131 94.8973C131.382 94.5065 131.764 94.4142 132.09 94.3354C132.618 94.2079 133 94.1156 133 92.8507C133 91.2135 132.333 90.804 132 90.804C132.667 90.4629 133.8 89.576 133 88.7573ZM120.6 76.4773C119.6 76.4776 119 77.501 119 79.5473V83.6407H122C123 83.6407 124.333 85.0051 125 85.6873C125.333 83.6406 125.6 79.5473 124 79.5473C122.4 79.5473 122 80.9117 122 81.594C122 79.8884 121.6 76.4773 120.6 76.4773ZM99 61.1273C99 61.1273 98 63.6856 98 65.2207V68.2907C98.0001 67.6084 99.8001 66.244 103 66.244C105.815 66.244 105.803 69.9394 105.796 72.3817C105.793 73.41 105.79 74.2162 106 74.4307C106.319 74.7568 107.044 74.6672 107.916 74.5593C109.781 74.3287 112.319 74.0149 113 77.5007C113.454 79.8212 116.99 81.5889 117 81.594V77.5007C117 75.4539 111 69.314 108 66.244C105.6 63.788 101 61.8095 99 61.1273Z" fill="#7B8868"/>
<path fill-rule="evenodd" clip-rule="evenodd" d="M86.7311 57.8831C87.3226 57.2687 87.6975 56.8792 88 57.034C90.0001 58.058 91.9999 68.2909 90 75.454C88.5275 80.7279 83.8026 86.5567 80.6145 90.4897C79.4724 91.8987 78.5275 93.0643 78 93.874C76 96.944 76 98.9907 78 98.9907C79.9974 98.9903 90.968 90.8278 90.9999 90.804C90.9813 90.8231 82.6679 99.3318 83 100.014C83.0493 100.216 83.1314 100.468 83.228 100.765C83.5575 101.778 84.0559 103.311 84 105.131C83.9888 105.493 83.8969 105.866 83.7773 106.25C83.6159 107.033 83.398 107.706 83.2263 108.237C83.1306 108.533 83.0492 108.785 83 108.986C82.6734 109.673 90.9808 118.177 91 118.196C90.9879 118.187 79.9992 110.01 78 110.009C76 110.009 76 112.056 78 115.126C78.5276 115.936 79.4723 117.101 80.6141 118.51C83.8024 122.443 88.5275 128.272 90 133.546C91.9995 140.709 90 150.942 88 151.966C87.6975 152.121 87.3224 151.731 86.7307 151.116C86.2922 150.661 85.7349 150.082 85 149.51L80 146.85C76.1962 144.903 73.5979 141.723 71.6959 139.395C70.5979 138.051 69.732 136.991 69 136.616C68.3334 136.275 67.2223 136.275 66.0002 136.275C63.5559 136.275 60.6671 136.274 60 133.546C59.2001 130.272 59.6667 123.996 60 121.266C58 122.631 53.6003 124.949 52 123.313C50.4002 121.676 51.3333 114.444 52 111.033C48.4056 110.698 41.2791 109.052 41 105.131V104.107C41.0002 100.014 48.3334 98.3084 52 97.9673C51.3333 94.5562 50.4001 87.3247 52 85.6873C53.6 84.0501 58 86.3696 60 87.734C59.6667 85.0051 59.2001 78.7286 60 75.454C60.6667 72.7252 63.5556 72.7252 66 72.7251C67.2222 72.7251 68.3333 72.7251 69 72.384C69.732 72.0094 70.598 70.9493 71.6961 69.6053C73.598 67.2772 76.1962 64.097 80 62.1506L85 59.4904C85.7352 58.9176 86.2927 58.3385 86.7311 57.8831ZM70 127.406C70.0391 127.426 73.5484 129.189 74 131.499C74.6815 134.985 77.2192 134.671 79.0838 134.441C79.9562 134.333 80.6813 134.243 81 134.57C81.2091 134.785 81.2067 135.59 81.2036 136.618C81.1963 139.06 81.1853 142.756 84 142.756C87.1987 142.756 88.9985 141.392 89 140.71V143.78C88.9996 145.314 88 147.873 88 147.873C86.0001 147.191 81.4001 145.212 79 142.756C76.0004 139.687 70.0017 133.547 70 131.499V127.406ZM60 112.056C59.0001 111.033 64 110.01 65 111.033C65.4996 111.544 65.4997 111.8 65.4998 112.056C65.4999 112.312 65.5 112.568 66 113.079C66.4572 113.547 66.7054 113.373 67.0315 113.144C67.4184 112.873 67.9149 112.524 69 113.079C69.9996 113.591 69.7497 114.359 69.4999 115.126C69.2499 115.894 69 116.661 70 117.173C70.9998 117.684 71.7498 117.684 72.3748 117.684C72.9999 117.684 73.5 117.685 74 118.196C74.4718 118.68 74.0516 119.391 73.6877 120.008C73.2813 120.696 72.9449 121.266 74 121.266C75.6 121.266 78 121.266 80 122.289C82.0001 123.313 85.9881 127.382 87 129.453C88.0001 131.5 89.9998 136.616 89 137.64C88.2911 138.365 87.4144 138.061 86.7266 137.824C86.4444 137.726 86.194 137.64 86 137.64C86 138.663 85.9997 140.71 85 140.71C83.9828 140.709 83.7415 138.856 83.4869 136.9C83.2409 135.011 82.9825 133.026 82 132.523C80.0001 131.5 80 131.499 78 131.499C76.0002 131.499 74.0004 131.499 74 128.429C74 125.36 72.9999 124.336 72 123.313C71.5316 122.834 71.0632 123.028 70.492 123.264C69.8437 123.533 69.0631 123.857 68 123.313C66.886 122.743 66.3925 121.538 66.0011 120.582C65.6898 119.822 65.443 119.219 65 119.219C64.6667 119.22 64.3334 119.333 64.0001 119.447C63.3334 119.674 62.6666 119.901 62 119.219C61.207 118.408 62.9692 116.188 63 116.149C62.966 116.175 60.794 117.773 60 116.149C59.2821 114.68 60.3899 113.65 60.8657 113.208C60.9198 113.157 60.9658 113.114 61 113.079L60 112.056ZM62 123.313C62.6668 123.995 64.0002 125.359 65 125.359H68V129.453C67.9998 131.499 67.4 132.523 66.4004 132.523C65.4006 132.523 65.0001 129.112 65 127.406C64.9996 128.089 64.5993 129.453 63 129.453C61.4002 129.453 61.6667 125.36 62 123.313ZM55.9009 112.331C55.6829 111.639 55.4916 111.033 56 111.033C57.6 111.033 58 112.738 58 114.103C57.9998 114.557 57.8888 115.05 57.7778 115.542C57.5556 116.528 57.3333 117.514 58 118.196C58.2253 118.427 58.4297 118.582 58.5942 118.707C58.8427 118.895 59 119.014 59 119.219C57.6668 119.902 54.8006 121.06 54 120.243C53.2002 119.424 54.3333 118.537 55 118.196C54.6667 118.196 54.0003 117.786 54 116.149C54 114.885 54.3822 114.792 54.9102 114.664C55.2364 114.586 55.6182 114.493 56 114.103C56.3476 113.747 56.1117 112.999 55.9009 112.331ZM85 68.2907C86 68.2907 86 70.3373 86 71.3607C86.194 71.3607 86.4444 71.274 86.7267 71.1764C87.4145 70.9384 88.291 70.6352 89 71.3607C89.9999 72.384 88 77.5006 87 79.5473C85.9881 81.6184 82 85.6873 80 86.7107C78 87.734 75.6 87.734 74 87.734C72.945 87.734 73.2813 88.3036 73.6879 88.992C74.052 89.6086 74.4725 90.3205 74 90.804C73.5 91.3157 73 91.3157 72.375 91.3157C71.75 91.3157 71 91.3157 70 91.8273C69 92.339 69.25 93.1065 69.5 93.874C69.75 94.6415 70 95.409 69 95.9207C67.9149 96.4759 67.4185 96.1274 67.0317 95.8558C66.7056 95.6268 66.4574 95.4526 66 95.9207C65.5 96.4323 65.5 96.6882 65.5 96.944C65.5 97.1998 65.5 97.4557 65 97.9673C64 98.9906 59 97.9673 60 96.944L61 95.9207C60.9658 95.8857 60.9197 95.8428 60.8653 95.7922C60.3895 95.3498 59.2821 94.32 60 92.8507C60.7982 91.217 62.9902 92.8434 63 92.8507C62.9921 92.8407 61.2018 90.5975 62 89.7807C62.6667 89.0985 63.3333 89.3259 64 89.5533C64.3334 89.667 64.6667 89.7807 65 89.7807C65.443 89.7807 65.6898 89.1782 66.0011 88.418C66.3925 87.4623 66.886 86.2573 68 85.6873C69.0632 85.1433 69.8439 85.4669 70.4921 85.7357C71.0633 85.9724 71.5316 86.1666 72 85.6873C73 84.664 74 83.6406 74 80.5707C74 77.5007 76 77.5007 78 77.5007C80 77.5007 80.0001 77.5006 82 76.4773C82.9827 75.9745 83.2411 73.9891 83.4871 72.0996C83.7416 70.1438 83.9828 68.2907 85 68.2907ZM54 88.7573C54.8001 87.9388 57.6667 89.0985 59 89.7807C59 89.9858 58.8429 90.105 58.5946 90.2933C58.43 90.4181 58.2254 90.5733 58 90.804C57.3333 91.4862 57.5556 92.4717 57.7778 93.4572C57.8889 93.9499 58 94.4426 58 94.8973C58 96.2618 57.6 97.9673 56 97.9673C55.4916 97.9673 55.6829 97.361 55.9009 96.6697C56.1117 96.0011 56.3476 95.2531 56 94.8973C55.6181 94.5065 55.2361 94.4142 54.9099 94.3354C54.382 94.2079 54 94.1156 54 92.8507C54 91.2135 54.6667 90.804 55 90.804C54.3333 90.4629 53.2 89.576 54 88.7573ZM66.4004 76.4773C67.4001 76.4776 68 77.501 68 79.5473V83.6407H65C64 83.6407 62.6667 85.0051 62 85.6873C61.6667 83.6406 61.4 79.5473 63 79.5473C64.5999 79.5473 65 80.9117 65 81.594C65 79.8884 65.4004 76.4773 66.4004 76.4773ZM88 61.1273C88 61.1273 89 63.6856 89 65.2207V68.2907C88.9999 67.6084 87.1999 66.244 84 66.244C81.1853 66.244 81.1965 69.9394 81.2039 72.3817C81.2071 73.41 81.2095 74.2162 81 74.4307C80.6813 74.7568 79.9562 74.6672 79.0838 74.5593C77.2191 74.3287 74.6813 74.0149 74 77.5007C73.5465 79.8212 70.0102 81.5889 70 81.594V77.5007C70.0001 75.4539 76 69.314 79 66.244C81.4 63.788 86 61.8095 88 61.1273Z" fill="#7B8868"/>
<path fill-rule="evenodd" clip-rule="evenodd" d="M100.269 162.883C99.6774 162.269 99.3025 161.879 99 162.034C96.9999 163.058 95.0001 173.291 97 180.454C98.4725 185.728 103.197 191.557 106.386 195.49C107.528 196.899 108.472 198.064 109 198.874C111 201.944 111 203.991 109 203.991C107.003 203.99 96.032 195.828 96.0001 195.804C96.0187 195.823 104.332 204.332 104 205.014C103.951 205.216 103.869 205.468 103.772 205.765C103.442 206.778 102.944 208.311 103 210.131C103.011 210.493 103.103 210.866 103.223 211.25C103.384 212.033 103.602 212.706 103.774 213.237C103.869 213.533 103.951 213.785 104 213.986C104.327 214.673 96.0192 223.177 96 223.196C96.0121 223.187 107.001 215.01 109 215.009C111 215.009 111 217.056 109 220.126C108.472 220.936 107.528 222.101 106.386 223.51C103.198 227.443 98.4725 233.272 97 238.546C95.0005 245.709 97 255.942 99 256.966C99.3025 257.121 99.6776 256.731 100.269 256.116C100.708 255.661 101.265 255.082 102 254.51L107 251.85C110.804 249.903 113.402 246.723 115.304 244.395C116.402 243.051 117.268 241.991 118 241.616C118.667 241.275 119.778 241.275 121 241.275C123.444 241.275 126.333 241.274 127 238.546C127.8 235.272 127.333 228.996 127 226.266C129 227.631 133.4 229.949 135 228.313C136.6 226.676 135.667 219.444 135 216.033C138.594 215.698 145.721 214.052 146 210.131V209.107C146 205.014 138.667 203.308 135 202.967C135.667 199.556 136.6 192.325 135 190.687C133.4 189.05 129 191.37 127 192.734C127.333 190.005 127.8 183.729 127 180.454C126.333 177.725 123.444 177.725 121 177.725C119.778 177.725 118.667 177.725 118 177.384C117.268 177.009 116.402 175.949 115.304 174.605C113.402 172.277 110.804 169.097 107 167.151L102 164.49C101.265 163.918 100.707 163.339 100.269 162.883ZM117 232.406C116.961 232.426 113.452 234.189 113 236.499C112.318 239.985 109.781 239.671 107.916 239.441C107.044 239.333 106.319 239.243 106 239.57C105.791 239.785 105.793 240.59 105.796 241.618C105.804 244.06 105.815 247.756 103 247.756C99.8013 247.756 98.0015 246.392 98 245.71V248.78C98.0004 250.314 99 252.873 99 252.873C101 252.191 105.6 250.212 108 247.756C111 244.687 116.998 238.547 117 236.499V232.406ZM127 217.056C128 216.033 123 215.01 122 216.033C121.5 216.544 121.5 216.8 121.5 217.056C121.5 217.312 121.5 217.568 121 218.079C120.543 218.547 120.295 218.373 119.968 218.144C119.582 217.873 119.085 217.524 118 218.079C117 218.591 117.25 219.359 117.5 220.126C117.75 220.894 118 221.661 117 222.173C116 222.684 115.25 222.684 114.625 222.684C114 222.684 113.5 222.685 113 223.196C112.528 223.68 112.948 224.391 113.312 225.008C113.719 225.696 114.055 226.266 113 226.266C111.4 226.266 109 226.266 107 227.289C105 228.313 101.012 232.382 100 234.453C98.9999 236.5 97.0002 241.616 98 242.64C98.7089 243.365 99.5856 243.061 100.273 242.824C100.556 242.726 100.806 242.64 101 242.64C101 243.663 101 245.71 102 245.71C103.017 245.709 103.258 243.856 103.513 241.9C103.759 240.011 104.018 238.026 105 237.523C107 236.5 107 236.499 109 236.499C111 236.499 113 236.499 113 233.429C113 230.36 114 229.336 115 228.313C115.468 227.834 115.937 228.028 116.508 228.264C117.156 228.533 117.937 228.857 119 228.313C120.114 227.743 120.607 226.538 120.999 225.582C121.31 224.822 121.557 224.219 122 224.219C122.333 224.22 122.667 224.333 123 224.447C123.667 224.674 124.333 224.901 125 224.219C125.793 223.408 124.031 221.188 124 221.149C124.034 221.175 126.206 222.773 127 221.149C127.718 219.68 126.61 218.65 126.134 218.208C126.08 218.157 126.034 218.114 126 218.079L127 217.056ZM125 228.313C124.333 228.995 123 230.359 122 230.359H119V234.453C119 236.499 119.6 237.523 120.6 237.523C121.599 237.523 122 234.112 122 232.406C122 233.089 122.401 234.453 124 234.453C125.6 234.453 125.333 230.36 125 228.313ZM131.099 217.331C131.317 216.639 131.508 216.033 131 216.033C129.4 216.033 129 217.738 129 219.103C129 219.557 129.111 220.05 129.222 220.542C129.444 221.528 129.667 222.514 129 223.196C128.775 223.427 128.57 223.582 128.406 223.707C128.157 223.895 128 224.014 128 224.219C129.333 224.902 132.199 226.06 133 225.243C133.8 224.424 132.667 223.537 132 223.196C132.333 223.196 133 222.786 133 221.149C133 219.885 132.618 219.792 132.09 219.664C131.764 219.586 131.382 219.493 131 219.103C130.652 218.747 130.888 217.999 131.099 217.331ZM102 173.291C101 173.291 101 175.337 101 176.361C100.806 176.361 100.556 176.274 100.273 176.176C99.5855 175.938 98.709 175.635 98 176.361C97.0001 177.384 99 182.501 100 184.547C101.012 186.618 105 190.687 107 191.711C109 192.734 111.4 192.734 113 192.734C114.055 192.734 113.719 193.304 113.312 193.992C112.948 194.609 112.528 195.32 113 195.804C113.5 196.316 114 196.316 114.625 196.316C115.25 196.316 116 196.316 117 196.827C118 197.339 117.75 198.106 117.5 198.874C117.25 199.641 117 200.409 118 200.921C119.085 201.476 119.582 201.127 119.968 200.856C120.294 200.627 120.543 200.453 121 200.921C121.5 201.432 121.5 201.688 121.5 201.944C121.5 202.2 121.5 202.456 122 202.967C123 203.991 128 202.967 127 201.944L126 200.921C126.034 200.886 126.08 200.843 126.135 200.792C126.61 200.35 127.718 199.32 127 197.851C126.202 196.217 124.01 197.843 124 197.851C124.008 197.841 125.798 195.598 125 194.781C124.333 194.098 123.667 194.326 123 194.553C122.667 194.667 122.333 194.781 122 194.781C121.557 194.781 121.31 194.178 120.999 193.418C120.607 192.462 120.114 191.257 119 190.687C117.937 190.143 117.156 190.467 116.508 190.736C115.937 190.972 115.468 191.167 115 190.687C114 189.664 113 188.641 113 185.571C113 182.501 111 182.501 109 182.501C107 182.501 107 182.501 105 181.477C104.017 180.974 103.759 178.989 103.513 177.1C103.258 175.144 103.017 173.291 102 173.291ZM133 193.757C132.2 192.939 129.333 194.098 128 194.781C128 194.986 128.157 195.105 128.405 195.293C128.57 195.418 128.775 195.573 129 195.804C129.667 196.486 129.444 197.472 129.222 198.457C129.111 198.95 129 199.443 129 199.897C129 201.262 129.4 202.967 131 202.967C131.508 202.967 131.317 202.361 131.099 201.67C130.888 201.001 130.652 200.253 131 199.897C131.382 199.507 131.764 199.414 132.09 199.335C132.618 199.208 133 199.116 133 197.851C133 196.213 132.333 195.804 132 195.804C132.667 195.463 133.8 194.576 133 193.757ZM120.6 181.477C119.6 181.478 119 182.501 119 184.547V188.641H122C123 188.641 124.333 190.005 125 190.687C125.333 188.641 125.6 184.547 124 184.547C122.4 184.547 122 185.912 122 186.594C122 184.888 121.6 181.477 120.6 181.477ZM99 166.127C99 166.127 98 168.686 98 170.221V173.291C98.0001 172.608 99.8001 171.244 103 171.244C105.815 171.244 105.803 174.939 105.796 177.382C105.793 178.41 105.79 179.216 106 179.431C106.319 179.757 107.044 179.667 107.916 179.559C109.781 179.329 112.319 179.015 113 182.501C113.454 184.821 116.99 186.589 117 186.594V182.501C117 180.454 111 174.314 108 171.244C105.6 168.788 101 166.81 99 166.127Z" fill="#7B8868"/>
<path fill-rule="evenodd" clip-rule="evenodd" d="M86.7311 162.883C87.3226 162.269 87.6975 161.879 88 162.034C90.0001 163.058 91.9999 173.291 90 180.454C88.5275 185.728 83.8026 191.557 80.6145 195.49C79.4724 196.899 78.5275 198.064 78 198.874C76 201.944 76 203.991 78 203.991C79.9974 203.99 90.968 195.828 90.9999 195.804C90.9813 195.823 82.6679 204.332 83 205.014C83.0493 205.216 83.1314 205.468 83.228 205.765C83.5575 206.778 84.0559 208.311 84 210.131C83.9888 210.493 83.8969 210.866 83.7773 211.25C83.6159 212.033 83.398 212.706 83.2263 213.237C83.1306 213.533 83.0492 213.785 83 213.986C82.6734 214.673 90.9808 223.177 91 223.196C90.9879 223.187 79.9992 215.01 78 215.009C76 215.009 76 217.056 78 220.126C78.5276 220.936 79.4723 222.101 80.6141 223.51C83.8024 227.443 88.5275 233.272 90 238.546C91.9995 245.709 90 255.942 88 256.966C87.6975 257.121 87.3224 256.731 86.7307 256.116C86.2922 255.661 85.7349 255.082 85 254.51L80 251.85C76.1962 249.903 73.5979 246.723 71.6959 244.395C70.5979 243.051 69.732 241.991 69 241.616C68.3334 241.275 67.2223 241.275 66.0002 241.275C63.5559 241.275 60.6671 241.274 60 238.546C59.2001 235.272 59.6667 228.996 60 226.266C58 227.631 53.6003 229.949 52 228.313C50.4002 226.676 51.3333 219.444 52 216.033C48.4056 215.698 41.2791 214.052 41 210.131V209.107C41.0002 205.014 48.3334 203.308 52 202.967C51.3333 199.556 50.4001 192.325 52 190.687C53.6 189.05 58 191.37 60 192.734C59.6667 190.005 59.2001 183.729 60 180.454C60.6667 177.725 63.5556 177.725 66 177.725C67.2222 177.725 68.3333 177.725 69 177.384C69.732 177.009 70.598 175.949 71.6961 174.605C73.598 172.277 76.1962 169.097 80 167.151L85 164.49C85.7352 163.918 86.2927 163.339 86.7311 162.883ZM70 232.406C70.0391 232.426 73.5484 234.189 74 236.499C74.6815 239.985 77.2192 239.671 79.0838 239.441C79.9562 239.333 80.6813 239.243 81 239.57C81.2091 239.785 81.2067 240.59 81.2036 241.618C81.1963 244.06 81.1853 247.756 84 247.756C87.1987 247.756 88.9985 246.392 89 245.71V248.78C88.9996 250.314 88 252.873 88 252.873C86.0001 252.191 81.4001 250.212 79 247.756C76.0004 244.687 70.0017 238.547 70 236.499V232.406ZM60 217.056C59.0001 216.033 64 215.01 65 216.033C65.4996 216.544 65.4997 216.8 65.4998 217.056C65.4999 217.312 65.5 217.568 66 218.079C66.4572 218.547 66.7054 218.373 67.0315 218.144C67.4184 217.873 67.9149 217.524 69 218.079C69.9996 218.591 69.7497 219.359 69.4999 220.126C69.2499 220.894 69 221.661 70 222.173C70.9998 222.684 71.7498 222.684 72.3748 222.684C72.9999 222.684 73.5 222.685 74 223.196C74.4718 223.68 74.0516 224.391 73.6877 225.008C73.2813 225.696 72.9449 226.266 74 226.266C75.6 226.266 78 226.266 80 227.289C82.0001 228.313 85.9881 232.382 87 234.453C88.0001 236.5 89.9998 241.616 89 242.64C88.2911 243.365 87.4144 243.061 86.7266 242.824C86.4444 242.726 86.194 242.64 86 242.64C86 243.663 85.9997 245.71 85 245.71C83.9828 245.709 83.7415 243.856 83.4869 241.9C83.2409 240.011 82.9825 238.026 82 237.523C80.0001 236.5 80 236.499 78 236.499C76.0002 236.499 74.0004 236.499 74 233.429C74 230.36 72.9999 229.336 72 228.313C71.5316 227.834 71.0632 228.028 70.492 228.264C69.8437 228.533 69.0631 228.857 68 228.313C66.886 227.743 66.3925 226.538 66.0011 225.582C65.6898 224.822 65.443 224.219 65 224.219C64.6667 224.22 64.3334 224.333 64.0001 224.447C63.3334 224.674 62.6666 224.901 62 224.219C61.207 223.408 62.9692 221.188 63 221.149C62.966 221.175 60.794 222.773 60 221.149C59.2821 219.68 60.3899 218.65 60.8657 218.208C60.9198 218.157 60.9658 218.114 61 218.079L60 217.056ZM62 228.313C62.6668 228.995 64.0002 230.359 65 230.359H68V234.453C67.9998 236.499 67.4 237.523 66.4004 237.523C65.4006 237.523 65.0001 234.112 65 232.406C64.9996 233.089 64.5993 234.453 63 234.453C61.4002 234.453 61.6667 230.36 62 228.313ZM55.9009 217.331C55.6829 216.639 55.4916 216.033 56 216.033C57.6 216.033 58 217.738 58 219.103C57.9998 219.557 57.8888 220.05 57.7778 220.542C57.5556 221.528 57.3333 222.514 58 223.196C58.2253 223.427 58.4297 223.582 58.5942 223.707C58.8427 223.895 59 224.014 59 224.219C57.6668 224.902 54.8006 226.06 54 225.243C53.2002 224.424 54.3333 223.537 55 223.196C54.6667 223.196 54.0003 222.786 54 221.149C54 219.885 54.3822 219.792 54.9102 219.664C55.2364 219.586 55.6182 219.493 56 219.103C56.3476 218.747 56.1117 217.999 55.9009 217.331ZM85 173.291C86 173.291 86 175.337 86 176.361C86.194 176.361 86.4444 176.274 86.7267 176.176C87.4145 175.938 88.291 175.635 89 176.361C89.9999 177.384 88 182.501 87 184.547C85.9881 186.618 82 190.687 80 191.711C78 192.734 75.6 192.734 74 192.734C72.945 192.734 73.2813 193.304 73.6879 193.992C74.052 194.609 74.4725 195.32 74 195.804C73.5 196.316 73 196.316 72.375 196.316C71.75 196.316 71 196.316 70 196.827C69 197.339 69.25 198.106 69.5 198.874C69.75 199.641 70 200.409 69 200.921C67.9149 201.476 67.4185 201.127 67.0317 200.856C66.7056 200.627 66.4574 200.453 66 200.921C65.5 201.432 65.5 201.688 65.5 201.944C65.5 202.2 65.5 202.456 65 202.967C64 203.991 59 202.967 60 201.944L61 200.921C60.9658 200.886 60.9197 200.843 60.8653 200.792C60.3895 200.35 59.2821 199.32 60 197.851C60.7982 196.217 62.9902 197.843 63 197.851C62.9921 197.841 61.2018 195.598 62 194.781C62.6667 194.098 63.3333 194.326 64 194.553C64.3334 194.667 64.6667 194.781 65 194.781C65.443 194.781 65.6898 194.178 66.0011 193.418C66.3925 192.462 66.886 191.257 68 190.687C69.0632 190.143 69.8439 190.467 70.4921 190.736C71.0633 190.972 71.5316 191.167 72 190.687C73 189.664 74 188.641 74 185.571C74 182.501 76 182.501 78 182.501C80 182.501 80.0001 182.501 82 181.477C82.9827 180.974 83.2411 178.989 83.4871 177.1C83.7416 175.144 83.9828 173.291 85 173.291ZM54 193.757C54.8001 192.939 57.6667 194.098 59 194.781C59 194.986 58.8429 195.105 58.5946 195.293C58.43 195.418 58.2254 195.573 58 195.804C57.3333 196.486 57.5556 197.472 57.7778 198.457C57.8889 198.95 58 199.443 58 199.897C58 201.262 57.6 202.967 56 202.967C55.4916 202.967 55.6829 202.361 55.9009 201.67C56.1117 201.001 56.3476 200.253 56 199.897C55.6181 199.507 55.2361 199.414 54.9099 199.335C54.382 199.208 54 199.116 54 197.851C54 196.213 54.6667 195.804 55 195.804C54.3333 195.463 53.2 194.576 54 193.757ZM66.4004 181.477C67.4001 181.478 68 182.501 68 184.547V188.641H65C64 188.641 62.6667 190.005 62 190.687C61.6667 188.641 61.4 184.547 63 184.547C64.5999 184.547 65 185.912 65 186.594C65 184.888 65.4004 181.477 66.4004 181.477ZM88 166.127C88 166.127 89 168.686 89 170.221V173.291C88.9999 172.608 87.1999 171.244 84 171.244C81.1853 171.244 81.1965 174.939 81.2039 177.382C81.2071 178.41 81.2095 179.216 81 179.431C80.6813 179.757 79.9562 179.667 79.0838 179.559C77.2191 179.329 74.6813 179.015 74 182.501C73.5465 184.821 70.0102 186.589 70 186.594V182.501C70.0001 180.454 76 174.314 79 171.244C81.4 168.788 86 166.81 88 166.127Z" fill="#7B8868"/>
</g>
<defs>
<clipPath id="clip0_384_308">
<rect width="182" height="209" fill="white"/>
</clipPath>
</defs>
</svg>
