<svg width="62" height="21" viewBox="0 0 62 21" fill="none" xmlns="http://www.w3.org/2000/svg">
<path d="M50.9621 18.3336C50.9621 18.3336 54.2205 20.2887 57.0445 19.2025C61.3976 17.5282 62.4236 10.7649 58.7823 6.6034C57.7637 5.43934 55.1322 2.79118 52.6999 2.04169M50.9621 18.3336C50.9621 18.3336 52.9172 19.2218 55.5239 17.4647C57.7797 15.9441 57.0988 11.5996 52.6999 9.64457C48.7899 7.90676 42.2731 8.55844 38.1458 10.7307C36.0455 11.8361 34.244 13.8205 32.7638 15.5097M50.9621 18.3336C50.0932 17.6819 49.876 16.7696 49.876 15.727M32.7638 15.5097C32.0634 16.3786 31.629 17.2476 30.9773 18.1165C30.9773 15.0753 31.1945 7.76198 36.8424 3.99666C42.4903 0.231338 47.87 0.55335 52.6999 2.04169M32.7638 15.5097C33.8337 13.6995 35.7563 9.39113 40.318 6.60339C45.7487 3.28466 49.7312 2.89322 52.6999 2.04169" stroke="#E1D0B3" stroke-linejoin="round"/>
<path d="M11.0379 18.3336C11.0379 18.3336 7.77947 20.2887 4.95553 19.2025C0.602359 17.5282 -0.423615 10.7649 3.21772 6.6034C4.23626 5.43934 6.86778 2.79118 9.30006 2.04169M11.0379 18.3336C11.0379 18.3336 9.08283 19.2218 6.47611 17.4647C4.22031 15.9441 4.90122 11.5996 9.30006 9.64457C13.2101 7.90676 19.7269 8.55844 23.8542 10.7307C25.9545 11.8361 27.756 13.8205 29.2362 15.5097M11.0379 18.3336C11.9068 17.6819 12.124 16.7696 12.124 15.727M29.2362 15.5097C29.9366 16.3786 30.371 17.2476 31.0227 18.1165C31.0227 15.0753 30.8055 7.76198 25.1576 3.99666C19.5097 0.231338 14.13 0.55335 9.30006 2.04169M29.2362 15.5097C28.1663 13.6995 26.2437 9.39113 21.682 6.60339C16.2513 3.28466 12.2688 2.89322 9.30006 2.04169" stroke="#E1D0B3" stroke-linejoin="round"/>
</svg>
