<svg width="358" height="75" viewBox="0 0 358 75" fill="none" xmlns="http://www.w3.org/2000/svg">
<path d="M179 36.7559C260.1 36.933 338.008 38.644 346.314 40.3072C354.294 41.9053 356.479 43.7975 358 47.5875C358 60.9379 326.634 74.4875 182.427 74.753L179 74.7559L175.573 74.753C31.3656 74.4875 1.49505e-06 58.9228 0 47.5875C1.52086 43.7976 3.70566 41.9053 11.6863 40.3072C19.9929 38.644 97.9011 36.933 179 36.7559Z" fill="#B5DDE0"/>
<path d="M156.205 37.1518V16.9151L165.37 5.47876L176.279 16.9151V37.1518H156.205Z" fill="#916058"/>
<path d="M165.361 5.27607C165.42 5.27355 165.476 5.29642 165.517 5.33872L176.426 16.7751C176.462 16.8128 176.482 16.8629 176.482 16.915V37.1517C176.482 37.2637 176.391 37.3545 176.279 37.3545H156.205C156.093 37.3545 156.002 37.2637 156.002 37.1517V16.915C156.002 16.8689 156.018 16.8242 156.046 16.7882L165.212 5.35187L165.226 5.33563C165.262 5.29974 165.31 5.27827 165.361 5.27607ZM156.407 16.9862V36.9489H176.076V16.9961L165.383 5.78632L156.407 16.9862Z" fill="black"/>
<path d="M176.178 37.1111V16.6716H193.859V37.1111H176.178Z" fill="#8B5B53"/>
<path d="M193.86 16.469C193.972 16.469 194.062 16.5598 194.062 16.6718V37.1112C194.062 37.2232 193.972 37.314 193.86 37.314H176.178C176.066 37.314 175.975 37.2232 175.975 37.1112V16.6718C175.975 16.5598 176.066 16.469 176.178 16.469H193.86ZM176.381 36.9084H193.657V16.8745H176.381V36.9084Z" fill="black"/>
<path d="M178.104 0.206543V4.38365H183.498V0.206543H178.104Z" fill="#8B5B53"/>
<path d="M183.498 0C183.612 0 183.705 0.0924224 183.705 0.206597V4.38363C183.705 4.49781 183.612 4.59057 183.498 4.59057H178.104C177.99 4.59057 177.898 4.49781 177.898 4.38363V0.206597C177.898 0.0924224 177.99 0 178.104 0H183.498ZM178.311 4.17703H183.291V0.413195H178.311V4.17703Z" fill="black"/>
<path d="M164.214 23.6876V19.6322H168.27V23.6876H164.214Z" fill="#E2A453"/>
<path d="M168.269 19.4293C168.381 19.4293 168.472 19.5201 168.472 19.6321V23.6875C168.472 23.7995 168.381 23.8903 168.269 23.8903H164.214C164.102 23.8903 164.011 23.7995 164.011 23.6875V19.6321C164.011 19.5201 164.102 19.4293 164.214 19.4293H168.269ZM164.417 23.4848H168.067V19.8349H164.417V23.4848Z" fill="black"/>
<path d="M164.194 27.7432V23.6877H168.249V27.7432H164.194Z" fill="#E2A453"/>
<path d="M168.249 23.4849C168.361 23.4849 168.452 23.5756 168.452 23.6876V27.7431C168.452 27.8551 168.361 27.9459 168.249 27.9459H164.194C164.082 27.9459 163.991 27.8551 163.991 27.7431V23.6876C163.991 23.5756 164.082 23.4849 164.194 23.4849H168.249ZM164.397 27.5403H168.046V23.8904H164.397V27.5403Z" fill="black"/>
<path d="M184.431 4.34314H164.518L175.914 16.9338H185.992H196.07L184.431 4.34314Z" fill="#8B5B53"/>
<path d="M184.431 4.14038C184.487 4.14038 184.541 4.16397 184.58 4.20549L196.219 16.7962C196.273 16.8554 196.288 16.9413 196.256 17.0152C196.223 17.0889 196.15 17.1367 196.07 17.1367H175.914C175.857 17.1367 175.802 17.1124 175.764 17.07L164.368 4.47923C164.314 4.41979 164.301 4.33422 164.333 4.26094C164.366 4.18764 164.438 4.14038 164.518 4.14038H184.431ZM176.004 16.7311H195.606L184.342 4.54593H164.975L176.004 16.7311Z" fill="black"/>
<path d="M164.478 4.38367L153.812 16.9555H156.164L165.532 5.51919L164.478 4.38367Z" fill="#8B5B53"/>
<path d="M164.473 4.1812C164.531 4.17991 164.587 4.20344 164.626 4.24592L165.681 5.38144C165.75 5.45571 165.753 5.56949 165.689 5.6479L156.321 17.0843C156.282 17.1313 156.225 17.1586 156.164 17.1586H153.812C153.733 17.1586 153.661 17.1127 153.628 17.041C153.595 16.9693 153.606 16.8849 153.657 16.8246L164.323 4.25273L164.338 4.23697C164.374 4.20236 164.423 4.18234 164.473 4.1812ZM154.25 16.753H156.068L165.263 5.52774L164.485 4.68924L154.25 16.753Z" fill="black"/>
<path d="M188.02 19.7539H182.504V35.5701H188.02V19.7539Z" fill="#916058"/>
<path d="M188.02 19.5511C188.132 19.5511 188.222 19.6419 188.222 19.7539V35.5702C188.222 35.6821 188.132 35.7729 188.02 35.7729H182.504C182.392 35.7729 182.302 35.6821 182.302 35.5702V19.7539C182.302 19.6419 182.392 19.5511 182.504 19.5511H188.02ZM182.707 35.3674H187.817V19.9567H182.707V35.3674Z" fill="black"/>
<path d="M187.877 19.916V35.57H187.057V21.1202H183.622V35.57H182.687V19.916H187.877Z" fill="#7D4E47"/>
<path d="M190.311 35.2861H181.064V37.395H190.311V35.2861Z" fill="#9F9687"/>
<path d="M190.311 35.0835C190.423 35.0835 190.514 35.1743 190.514 35.2863V37.3951C190.514 37.5071 190.423 37.5979 190.311 37.5979H181.065C180.953 37.5979 180.862 37.5071 180.862 37.3951V35.2863C180.862 35.1743 180.953 35.0835 181.065 35.0835H190.311ZM181.268 37.1923H190.108V35.489H181.268V37.1923Z" fill="black"/>
<path d="M178.347 31.758L178.347 31.7704C178.34 31.8317 178.288 31.8796 178.226 31.8796C178.163 31.8796 178.111 31.8317 178.104 31.7704L178.104 31.758L178.104 17.9694C178.104 17.9022 178.158 17.8478 178.226 17.8478C178.293 17.8478 178.347 17.9022 178.347 17.9694L178.347 31.758Z" fill="black"/>
<path d="M178.347 34.5157C178.347 34.5829 178.293 34.6374 178.226 34.6374C178.159 34.6374 178.104 34.5829 178.104 34.5157L178.104 32.488C178.104 32.4208 178.159 32.3663 178.226 32.3663C178.293 32.3663 178.347 32.4208 178.347 32.488L178.347 34.5157Z" fill="black"/>
<path d="M180.132 34.5157C180.132 34.5829 180.078 34.6373 180.01 34.6373C179.943 34.6373 179.889 34.5829 179.889 34.5157L179.889 19.5916C179.889 19.5244 179.943 19.47 180.01 19.47C180.078 19.47 180.132 19.5244 180.132 19.5916L180.132 34.5157Z" fill="black"/>
<path d="M180.132 19.1048C180.132 19.172 180.078 19.2265 180.01 19.2265C179.943 19.2265 179.889 19.172 179.889 19.1048V17.8072C179.889 17.74 179.943 17.6855 180.01 17.6855C180.078 17.6855 180.132 17.74 180.132 17.8072V19.1048Z" fill="black"/>
<path d="M190.108 35.5702C190.108 35.6374 190.054 35.6919 189.986 35.6919C189.919 35.6919 189.865 35.6374 189.865 35.5702L189.865 17.7263C189.865 17.6591 189.919 17.6046 189.986 17.6046C190.054 17.6046 190.108 17.6591 190.108 17.7263L190.108 35.5702Z" fill="black"/>
<path d="M191.893 26.6482C191.893 26.7154 191.838 26.7699 191.771 26.7699C191.704 26.7699 191.649 26.7154 191.649 26.6482L191.649 18.3751C191.649 18.3079 191.704 18.2534 191.771 18.2534C191.838 18.2534 191.893 18.3079 191.893 18.3751L191.893 26.6482Z" fill="black"/>
<path d="M191.893 35.5701C191.893 35.6373 191.838 35.6917 191.771 35.6917C191.704 35.6917 191.649 35.6373 191.649 35.5701L191.649 27.297C191.649 27.2298 191.704 27.1753 191.771 27.1753C191.838 27.1753 191.893 27.2298 191.893 27.297L191.893 35.5701Z" fill="black"/>
<path d="M158.273 24.1337L158.272 24.1461C158.266 24.2075 158.214 24.2554 158.151 24.2554C158.088 24.2554 158.036 24.2075 158.03 24.1461L158.029 24.1337L158.029 16.915C158.029 16.8478 158.084 16.7933 158.151 16.7933C158.218 16.7933 158.273 16.8478 158.273 16.915L158.273 24.1337Z" fill="black"/>
<path d="M158.313 36.7867L158.312 36.7991C158.306 36.8605 158.254 36.9084 158.191 36.9084C158.128 36.9084 158.077 36.8605 158.07 36.7991L158.07 36.7867L158.07 25.107C158.07 25.0398 158.124 24.9854 158.191 24.9854C158.259 24.9854 158.313 25.0398 158.313 25.107L158.313 36.7867Z" fill="black"/>
<path d="M159.773 26.8914C159.773 26.9586 159.719 27.0131 159.652 27.0131C159.585 27.0131 159.53 26.9586 159.53 26.8914V14.7251C159.53 14.6579 159.585 14.6034 159.652 14.6034C159.719 14.6034 159.773 14.6579 159.773 14.7251V26.8914Z" fill="black"/>
<path d="M159.773 28.5948L159.773 28.6072C159.767 28.6686 159.715 28.7165 159.652 28.7165C159.589 28.7165 159.537 28.6686 159.531 28.6072L159.53 28.5948V27.7026C159.53 27.6354 159.585 27.5809 159.652 27.5809C159.719 27.5809 159.773 27.6354 159.773 27.7026V28.5948Z" fill="black"/>
<path d="M159.773 36.7868C159.773 36.8539 159.719 36.9084 159.652 36.9084C159.585 36.9084 159.53 36.8539 159.53 36.7868V29.4058C159.53 29.3387 159.585 29.2842 159.652 29.2842C159.719 29.2842 159.773 29.3387 159.773 29.4058V36.7868Z" fill="black"/>
<path d="M161.396 22.025L161.395 22.0374C161.389 22.0988 161.337 22.1467 161.274 22.1467C161.211 22.1467 161.159 22.0988 161.153 22.0374L161.152 22.025V11.9675C161.152 11.9003 161.207 11.8458 161.274 11.8458C161.341 11.8458 161.396 11.9003 161.396 11.9675V22.025Z" fill="black"/>
<path d="M161.396 37.03L161.395 37.0424C161.389 37.1038 161.337 37.1516 161.274 37.1516C161.211 37.1516 161.159 37.1038 161.153 37.0424L161.152 37.03V22.9981C161.152 22.9309 161.207 22.8765 161.274 22.8765C161.341 22.8765 161.396 22.9309 161.396 22.9981V37.03Z" fill="black"/>
<path d="M163.018 31.5146C163.018 31.5818 162.963 31.6363 162.896 31.6363C162.829 31.6363 162.774 31.5818 162.774 31.5146L162.774 10.8319C162.774 10.7647 162.829 10.7102 162.896 10.7102C162.963 10.7102 163.018 10.7647 163.018 10.8319L163.018 31.5146Z" fill="black"/>
<path d="M163.018 35.7323L163.017 35.7448C163.011 35.8061 162.959 35.854 162.896 35.854C162.833 35.854 162.781 35.8061 162.775 35.7448L162.774 35.7323V32.1635C162.774 32.0963 162.829 32.0419 162.896 32.0419C162.963 32.0419 163.018 32.0963 163.018 32.1635V35.7323Z" fill="black"/>
<path d="M164.64 18.01C164.64 18.0772 164.585 18.1317 164.518 18.1317C164.451 18.1317 164.397 18.0772 164.397 18.01V8.64193C164.397 8.57473 164.451 8.52026 164.518 8.52026C164.585 8.52026 164.64 8.57473 164.64 8.64193V18.01Z" fill="black"/>
<path d="M164.64 35.0834C164.64 35.1506 164.585 35.205 164.518 35.205C164.451 35.205 164.397 35.1506 164.397 35.0834V28.838C164.397 28.7708 164.451 28.7163 164.518 28.7163C164.585 28.7163 164.64 28.7708 164.64 28.838V35.0834Z" fill="black"/>
<path d="M166.262 18.3751L166.261 18.3875C166.255 18.4489 166.203 18.4968 166.14 18.4968C166.077 18.4968 166.025 18.4489 166.019 18.3875L166.019 18.3751L166.019 7.58761C166.019 7.52041 166.073 7.46594 166.14 7.46594C166.207 7.46594 166.262 7.52041 166.262 7.58761L166.262 18.3751Z" fill="black"/>
<path d="M166.262 35.2457L166.261 35.2581C166.255 35.3194 166.203 35.3673 166.14 35.3673C166.077 35.3673 166.025 35.3194 166.019 35.2581L166.019 35.2457L166.019 29.0814C166.019 29.0142 166.073 28.9597 166.14 28.9597C166.207 28.9597 166.262 29.0142 166.262 29.0814L166.262 35.2457Z" fill="black"/>
<path d="M167.884 13.9951C167.884 14.0623 167.83 14.1167 167.763 14.1167C167.695 14.1167 167.641 14.0623 167.641 13.9951L167.641 9.45296C167.641 9.38577 167.695 9.3313 167.763 9.3313C167.83 9.3313 167.884 9.38577 167.884 9.45296L167.884 13.9951Z" fill="black"/>
<path d="M167.884 19.5916C167.884 19.6588 167.83 19.7133 167.763 19.7133C167.695 19.7133 167.641 19.6588 167.641 19.5916L167.641 15.0495C167.641 14.9823 167.695 14.9279 167.763 14.9279C167.83 14.9279 167.884 14.9823 167.884 15.0495L167.884 19.5916Z" fill="black"/>
<path d="M167.884 33.2178C167.884 33.285 167.83 33.3395 167.763 33.3395C167.695 33.3395 167.641 33.285 167.641 33.2178L167.641 28.6757C167.641 28.6085 167.695 28.5541 167.763 28.5541C167.83 28.5541 167.884 28.6085 167.884 28.6757L167.884 33.2178Z" fill="black"/>
<path d="M169.506 17.9694C169.506 18.0366 169.452 18.091 169.385 18.091C169.317 18.091 169.263 18.0366 169.263 17.9694L169.263 11.4807C169.263 11.4135 169.317 11.359 169.385 11.359C169.452 11.359 169.506 11.4135 169.506 11.4807L169.506 17.9694Z" fill="black"/>
<path d="M169.506 20.0781L169.506 20.0905C169.499 20.1518 169.448 20.1997 169.385 20.1997C169.322 20.1997 169.27 20.1518 169.264 20.0905L169.263 20.0781L169.263 18.6183C169.263 18.5512 169.318 18.4967 169.385 18.4967C169.452 18.4967 169.506 18.5512 169.506 18.6183L169.506 20.0781Z" fill="black"/>
<path d="M169.506 22.3491L169.506 22.3615C169.499 22.4228 169.448 22.4707 169.385 22.4707C169.322 22.4707 169.27 22.4228 169.264 22.3615L169.263 22.3491L169.263 20.8893C169.263 20.8222 169.318 20.7677 169.385 20.7677C169.452 20.7677 169.506 20.8222 169.506 20.8893L169.506 22.3491Z" fill="black"/>
<path d="M169.506 32.1636C169.506 32.2308 169.452 32.2853 169.385 32.2853C169.317 32.2853 169.263 32.2308 169.263 32.1636L169.263 23.0794C169.263 23.0122 169.317 22.9578 169.385 22.9578C169.452 22.9578 169.506 23.0122 169.506 23.0794L169.506 32.1636Z" fill="black"/>
<path d="M169.506 36.7867L169.506 36.7991C169.499 36.8605 169.448 36.9083 169.385 36.9083C169.322 36.9083 169.27 36.8605 169.264 36.7991L169.263 36.7867V32.8123C169.263 32.7451 169.317 32.6907 169.385 32.6907C169.452 32.6907 169.506 32.7451 169.506 32.8123V36.7867Z" fill="black"/>
<path d="M171.129 25.6747C171.129 25.7419 171.074 25.7964 171.007 25.7964C170.94 25.7964 170.885 25.7419 170.885 25.6747V13.5084C170.885 13.4412 170.94 13.3867 171.007 13.3867C171.074 13.3867 171.129 13.4412 171.129 13.5084V25.6747Z" fill="black"/>
<path d="M171.129 36.7867C171.129 36.8539 171.074 36.9084 171.007 36.9084C170.94 36.9084 170.885 36.8539 170.885 36.7867L170.885 26.3237C170.885 26.2565 170.94 26.202 171.007 26.202C171.074 26.202 171.129 26.2565 171.129 26.3237L171.129 36.7867Z" fill="black"/>
<path d="M172.751 36.3001C172.751 36.3673 172.697 36.4217 172.629 36.4217C172.562 36.4217 172.508 36.3673 172.508 36.3001L172.508 15.2118C172.508 15.1446 172.562 15.0901 172.629 15.0901C172.697 15.0901 172.751 15.1446 172.751 15.2118L172.751 36.3001Z" fill="black"/>
<path d="M174.373 30.7035L174.372 30.7159C174.366 30.7773 174.314 30.8252 174.251 30.8252C174.188 30.8252 174.136 30.7773 174.13 30.7159L174.129 30.7035L174.129 16.915C174.129 16.8478 174.184 16.7933 174.251 16.7933C174.318 16.7933 174.373 16.8478 174.373 16.915L174.373 30.7035Z" fill="black"/>
<path d="M174.373 36.5433C174.373 36.6105 174.318 36.665 174.251 36.665C174.184 36.665 174.129 36.6105 174.129 36.5433L174.129 33.9478C174.129 33.8806 174.184 33.8262 174.251 33.8262C174.318 33.8262 174.373 33.8806 174.373 33.9478L174.373 36.5433Z" fill="black"/>
<path d="M174.373 33.2175C174.373 33.2847 174.318 33.3392 174.251 33.3392C174.184 33.3392 174.13 33.2847 174.13 33.2175V31.3524C174.13 31.2852 174.184 31.2307 174.251 31.2307C174.318 31.2307 174.373 31.2852 174.373 31.3524V33.2175Z" fill="black"/>
<path d="M184.147 5.96533C184.214 5.96533 184.269 6.0198 184.269 6.087C184.269 6.15419 184.214 6.20866 184.147 6.20866H168.25C168.182 6.20866 168.128 6.15419 168.128 6.087C168.128 6.0198 168.182 5.96533 168.25 5.96533H184.147Z" fill="black"/>
<path d="M183.498 7.50647C183.565 7.50647 183.619 7.56094 183.619 7.62813C183.619 7.69533 183.565 7.7498 183.498 7.7498H169.79C169.723 7.7498 169.669 7.69533 169.669 7.62813C169.669 7.56094 169.723 7.50647 169.79 7.50647H183.498Z" fill="black"/>
<path d="M185.768 7.46594L185.781 7.46658C185.842 7.4728 185.89 7.5246 185.89 7.58759C185.89 7.65057 185.842 7.70237 185.781 7.70859L185.768 7.70923H184.147C184.079 7.70923 184.025 7.65477 184.025 7.58759C184.025 7.5204 184.079 7.46594 184.147 7.46594H185.768Z" fill="black"/>
<path d="M174.008 9.04749C174.075 9.04749 174.13 9.10196 174.13 9.16915C174.13 9.23634 174.075 9.29081 174.008 9.29081H170.764C170.697 9.29081 170.642 9.23634 170.642 9.16915C170.642 9.10196 170.697 9.04749 170.764 9.04749H174.008Z" fill="black"/>
<path d="M186.905 9.04749C186.972 9.04749 187.026 9.10196 187.026 9.16915C187.026 9.23634 186.972 9.29081 186.905 9.29081H174.657C174.59 9.29081 174.535 9.23634 174.535 9.16915C174.535 9.10196 174.59 9.04749 174.657 9.04749H186.905Z" fill="black"/>
<path d="M188.77 10.5885C188.837 10.5885 188.892 10.643 188.892 10.7102C188.892 10.7774 188.837 10.8318 188.77 10.8318L181.389 10.8318C181.322 10.8318 181.267 10.7774 181.267 10.7102C181.267 10.643 181.322 10.5885 181.389 10.5885L188.77 10.5885Z" fill="black"/>
<path d="M180.578 10.5885C180.645 10.5885 180.7 10.643 180.7 10.7102C180.7 10.7774 180.645 10.8318 180.578 10.8318L171.818 10.8318C171.751 10.8318 171.697 10.7774 171.697 10.7102C171.697 10.643 171.751 10.5885 171.818 10.5885L180.578 10.5885Z" fill="black"/>
<path d="M174.9 12.1296C174.967 12.1296 175.022 12.1841 175.022 12.2513C175.022 12.3185 174.967 12.3729 174.9 12.3729H173.44C173.373 12.3729 173.319 12.3185 173.319 12.2513C173.319 12.1841 173.373 12.1296 173.44 12.1296H174.9Z" fill="black"/>
<path d="M176.928 12.1296C176.995 12.1296 177.049 12.1841 177.049 12.2513C177.049 12.3185 176.995 12.3729 176.928 12.3729H175.468C175.401 12.3729 175.346 12.3185 175.346 12.2513C175.346 12.1841 175.401 12.1296 175.468 12.1296H176.928Z" fill="black"/>
<path d="M189.986 12.1296L189.999 12.1303C190.06 12.1365 190.108 12.1883 190.108 12.2513C190.108 12.3143 190.06 12.3661 189.999 12.3723L189.986 12.373H177.496C177.428 12.373 177.374 12.3185 177.374 12.2513C177.374 12.1841 177.428 12.1296 177.496 12.1296H189.986Z" fill="black"/>
<path d="M192.095 13.63L192.108 13.6306C192.169 13.6369 192.217 13.6887 192.217 13.7517C192.217 13.8147 192.169 13.8665 192.108 13.8727L192.095 13.8733L174.657 13.8733C174.59 13.8733 174.535 13.8189 174.535 13.7517C174.535 13.6845 174.59 13.63 174.657 13.63L192.095 13.63Z" fill="black"/>
<path d="M192.988 15.2118L193 15.2124C193.061 15.2187 193.109 15.2705 193.109 15.3335C193.109 15.3965 193.061 15.4483 193 15.4545L192.988 15.4551L187.553 15.4551C187.486 15.4551 187.432 15.4006 187.432 15.3335C187.432 15.2663 187.486 15.2118 187.553 15.2118L192.988 15.2118Z" fill="black"/>
<path d="M186.904 15.2118L186.917 15.2124C186.978 15.2187 187.026 15.2705 187.026 15.3335C187.026 15.3964 186.978 15.4483 186.917 15.4545L186.904 15.4551H176.198C176.131 15.4551 176.076 15.4006 176.076 15.3335C176.076 15.2663 176.131 15.2118 176.198 15.2118H186.904Z" fill="black"/>
<path d="M140.105 41.5722C139.293 42.221 138.469 42.7888 138.158 42.9916C158.57 42.951 200.182 42.8699 203.329 42.8699C207.263 42.8699 209.453 43.7621 211.845 43.7621C213.76 43.7621 218.023 43.1673 219.916 42.8699C219.497 42.7617 218.318 42.4806 216.955 42.221C215.252 41.8966 215.495 41.1666 214.279 40.5177C213.062 39.8689 212.819 40.68 211.845 40.1933C210.872 39.7066 211.805 39.0983 210.872 38.49C209.939 37.8817 209.209 38.6117 208.439 38.49C207.668 38.3683 207.628 37.03 206.938 36.6245C206.249 36.219 206.127 37.6384 205.276 37.03C204.424 36.4217 204.424 34.7996 203.329 34.3129C202.234 33.8262 200.896 35.1645 199.395 34.3129C197.895 33.4613 196.759 30.2169 195.056 30.7441C193.353 31.2713 193.718 33.7451 193.028 34.3129C192.339 34.8807 191.244 34.3129 190.068 35.1645C188.892 36.0162 190.27 36.8678 187.675 37.03C185.079 37.1923 184.309 35.1645 182.525 34.3129C180.74 33.4613 179.159 33.7451 177.739 33.7451C176.32 33.7451 175.428 35.6106 174.13 35.6106C172.832 35.6106 172.791 35.1645 171.534 35.1645C170.277 35.1645 170.399 35.7323 169.304 35.6106C168.209 35.489 168.249 32.0013 167.033 31.7985C165.816 31.5957 166.222 33.7451 165.694 33.7451C165.167 33.7451 164.964 32.4474 164.275 32.8935C163.586 33.3396 164.356 35.1645 163.626 35.1645C162.896 35.1645 162.491 34.4751 161.071 34.6373C159.652 34.7996 159.733 36.2595 158.395 36.2595C157.056 36.2595 157.178 34.3129 156.448 33.7451C155.718 33.1774 155.312 33.5829 154.42 33.7451C153.528 33.9073 151.5 32.0013 150.405 32.8935C149.31 33.7857 151.135 34.3129 150.405 35.1645C149.675 36.0162 147.932 34.6373 147.242 35.1645C146.553 35.6918 147.85 36.9489 147.242 36.9489C146.634 36.9489 145.985 36.7056 145.255 36.9489C144.525 37.1923 145.012 39.2605 144.201 39.7878C143.389 40.315 141.118 40.7611 140.105 41.5722Z" fill="#A4C2A8"/>
<path d="M194.996 30.5504C195.495 30.3958 195.948 30.5238 196.353 30.7902C196.75 31.0521 197.116 31.4563 197.46 31.8844C197.633 32.0998 197.804 32.326 197.973 32.5475C198.143 32.7699 198.311 32.9882 198.48 33.1926C198.821 33.6047 199.154 33.9429 199.495 34.1366C200.173 34.5211 200.814 34.4183 201.464 34.2533C201.781 34.1728 202.117 34.0724 202.434 34.0267C202.758 33.98 203.089 33.9846 203.411 34.1276C204.037 34.406 204.337 35.0051 204.578 35.5429C204.704 35.8218 204.812 36.0835 204.943 36.3185C205.073 36.551 205.215 36.7376 205.393 36.8651C205.572 36.9924 205.675 36.9906 205.741 36.9715C205.826 36.9469 205.909 36.8775 206.023 36.7616C206.12 36.662 206.254 36.5096 206.41 36.4244C206.495 36.378 206.594 36.3458 206.707 36.3477C206.82 36.3496 206.931 36.385 207.041 36.4497C207.254 36.5752 207.407 36.7666 207.528 36.9642C207.648 37.1599 207.748 37.383 207.841 37.5758C207.937 37.7766 208.027 37.9473 208.133 38.0751C208.234 38.1985 208.341 38.2692 208.47 38.2897C208.627 38.3145 208.789 38.2971 208.969 38.2577C209.06 38.238 209.151 38.2136 209.248 38.1874C209.344 38.1615 209.446 38.1338 209.549 38.11C209.971 38.0126 210.451 37.9735 210.983 38.3202C211.244 38.4904 211.392 38.6732 211.469 38.8703C211.544 39.0599 211.544 39.2451 211.546 39.3837C211.549 39.5328 211.554 39.6306 211.597 39.7205C211.636 39.8029 211.72 39.9039 211.936 40.0119C212.154 40.1208 212.322 40.1532 212.468 40.1553C212.622 40.1575 212.757 40.1274 212.934 40.0952C213.107 40.0638 213.305 40.0341 213.544 40.0602C213.783 40.0863 214.051 40.1667 214.374 40.3388C215.017 40.6818 215.291 41.0611 215.578 41.3477C215.721 41.4905 215.872 41.618 216.084 41.7299C216.298 41.8425 216.582 41.9435 216.993 42.0218C218.36 42.2822 219.543 42.5644 219.966 42.6736C220.059 42.6976 220.123 42.7837 220.118 42.8797C220.114 42.9757 220.042 43.0553 219.947 43.0702C218.058 43.367 213.778 43.9649 211.845 43.9649C210.628 43.9649 209.461 43.7376 208.132 43.516C206.798 43.2937 205.279 43.0727 203.329 43.0727C200.182 43.0727 158.571 43.1538 138.158 43.1943C138.068 43.1945 137.989 43.1356 137.964 43.0496C137.938 42.9635 137.972 42.8708 138.047 42.8218C138.354 42.6219 139.173 42.0579 139.978 41.4138C140.516 40.9829 141.372 40.6587 142.161 40.3821C142.564 40.2412 142.95 40.1127 143.29 39.9851C143.631 39.8568 143.907 39.7365 144.09 39.6178C144.233 39.5249 144.336 39.3525 144.41 39.0989C144.484 38.8466 144.521 38.5486 144.557 38.2386C144.591 37.9386 144.626 37.6206 144.702 37.3637C144.776 37.1117 144.909 36.8503 145.191 36.7566C145.594 36.6222 145.97 36.6242 146.313 36.6558C146.481 36.6714 146.65 36.6951 146.802 36.7134C146.94 36.73 147.069 36.7428 147.193 36.7456C147.182 36.7076 147.165 36.6598 147.14 36.6007C147.106 36.5178 147.069 36.4363 147.025 36.3341C146.944 36.1442 146.853 35.9103 146.835 35.6818C146.816 35.4413 146.878 35.188 147.119 35.0035C147.36 34.8191 147.671 34.8177 147.955 34.8615C148.243 34.9058 148.567 35.0078 148.863 35.091C149.171 35.1774 149.455 35.2458 149.701 35.2469C149.94 35.248 150.12 35.186 150.251 35.0326C150.325 34.9463 150.359 34.8739 150.372 34.8143C150.386 34.7552 150.382 34.6959 150.364 34.6306C150.323 34.4857 150.223 34.3459 150.099 34.155C149.987 33.9839 149.851 33.7633 149.843 33.5111C149.835 33.2381 149.974 32.9831 150.277 32.7363C150.609 32.466 151.005 32.4166 151.398 32.4722C151.786 32.5272 152.192 32.6873 152.573 32.8611C152.971 33.0426 153.315 33.2256 153.65 33.3685C153.812 33.4375 153.957 33.4905 154.084 33.5215C154.213 33.553 154.311 33.5588 154.384 33.5456C154.595 33.5072 154.779 33.4542 154.953 33.4025C155.123 33.3519 155.294 33.2993 155.462 33.2714C155.633 33.2428 155.81 33.2384 155.998 33.2863C156.186 33.334 156.373 33.4303 156.572 33.5851C156.798 33.7603 156.944 34.0295 157.058 34.2979C157.117 34.4346 157.17 34.579 157.222 34.7204C157.275 34.8634 157.325 35.0033 157.381 35.1385C157.492 35.4114 157.613 35.6421 157.773 35.8043C157.925 35.959 158.117 36.0568 158.395 36.0568C158.688 36.0568 158.893 35.9782 159.063 35.8617C159.24 35.7403 159.383 35.5742 159.547 35.3787C159.872 34.9937 160.252 34.527 161.048 34.4359C161.799 34.3501 162.29 34.4906 162.684 34.6526C162.78 34.692 162.87 34.7327 162.954 34.7697C163.038 34.8073 163.115 34.841 163.191 34.8699C163.341 34.927 163.477 34.9618 163.626 34.9618C163.671 34.9618 163.684 34.95 163.691 34.9428C163.704 34.9294 163.725 34.8974 163.741 34.8267C163.775 34.6799 163.771 34.4677 163.763 34.2023C163.756 33.9518 163.745 33.6616 163.785 33.4056C163.824 33.151 163.92 32.8819 164.165 32.7233C164.387 32.5794 164.604 32.5618 164.8 32.6552C164.974 32.7374 165.106 32.8952 165.207 33.0299C165.322 33.1816 165.401 33.3069 165.497 33.4132C165.583 33.5082 165.641 33.5375 165.683 33.5417C165.685 33.5401 165.686 33.538 165.688 33.5353C165.709 33.5065 165.734 33.4512 165.759 33.3581C165.784 33.2681 165.806 33.1607 165.829 33.0377C165.852 32.9175 165.877 32.7832 165.907 32.6508C165.966 32.3915 166.054 32.101 166.227 31.8888C166.317 31.7791 166.432 31.6877 166.577 31.6338C166.722 31.5801 166.886 31.5685 167.066 31.5985C167.47 31.6659 167.736 31.9999 167.927 32.3696C168.121 32.7463 168.269 33.2235 168.408 33.6758C168.549 34.1382 168.68 34.5738 168.84 34.9034C169.007 35.2451 169.167 35.3915 169.326 35.4092C169.582 35.4376 169.757 35.4247 169.893 35.3943C170.031 35.3638 170.139 35.3137 170.27 35.2505C170.401 35.1877 170.553 35.113 170.754 35.0562C170.957 34.9992 171.204 34.9618 171.534 34.9618C172.195 34.9618 172.544 35.0811 172.882 35.1955C173.201 35.3036 173.512 35.4079 174.13 35.4079C174.404 35.4079 174.666 35.3098 174.936 35.1458C175.209 34.9803 175.474 34.758 175.759 34.5218C176.31 34.0654 176.944 33.5424 177.739 33.5424C179.12 33.5424 180.773 33.2525 182.612 34.1299C183.081 34.3537 183.479 34.6528 183.848 34.9647C184.228 35.286 184.551 35.5956 184.922 35.8934C185.639 36.4675 186.432 36.9046 187.662 36.8277C188.305 36.7875 188.675 36.7056 188.894 36.6054C189.097 36.5129 189.168 36.4068 189.214 36.285C189.313 36.0191 189.294 35.4741 189.949 35.0004C190.584 34.5405 191.198 34.4662 191.716 34.43C191.98 34.4115 192.2 34.4036 192.403 34.3663C192.601 34.3302 192.762 34.2692 192.899 34.1564C193.017 34.0591 193.111 33.8572 193.201 33.5354C193.244 33.3806 193.283 33.2105 193.326 33.0274C193.368 32.8459 193.413 32.6529 193.466 32.4595C193.677 31.6949 194.036 30.8474 194.996 30.5504ZM196.13 31.1289C195.795 30.9087 195.468 30.8288 195.116 30.9378C194.372 31.168 194.062 31.8211 193.857 32.5671C193.806 32.7514 193.763 32.9367 193.721 33.1191C193.679 33.2998 193.638 33.4792 193.592 33.6444C193.503 33.9626 193.384 34.2828 193.157 34.4694C192.949 34.6405 192.715 34.7215 192.477 34.7652C192.244 34.8078 191.988 34.8175 191.744 34.8346C191.248 34.8693 190.727 34.937 190.186 35.3288C189.665 35.7067 189.748 36.0133 189.593 36.4267C189.512 36.6445 189.368 36.835 189.062 36.9744C188.774 37.1062 188.343 37.1915 187.688 37.2324C186.322 37.3178 185.433 36.8221 184.669 36.2099C184.3 35.9147 183.933 35.5677 183.586 35.2744C183.228 34.9717 182.86 34.6979 182.437 34.4959C180.707 33.6701 179.197 33.9479 177.739 33.9479C177.115 33.9479 176.593 34.3576 176.018 34.834C175.74 35.0642 175.45 35.3083 175.147 35.4926C174.84 35.6783 174.505 35.8134 174.13 35.8134C173.45 35.8134 173.091 35.6947 172.752 35.5797C172.431 35.4711 172.131 35.3673 171.534 35.3673C171.236 35.3673 171.026 35.4009 170.864 35.4465C170.701 35.4924 170.579 35.552 170.446 35.616C170.314 35.6795 170.169 35.7486 169.981 35.7902C169.793 35.8321 169.572 35.8445 169.281 35.8122C168.893 35.769 168.648 35.4338 168.476 35.081C168.298 34.7161 168.157 34.2443 168.02 33.7943C167.879 33.3341 167.741 32.8937 167.567 32.5556C167.389 32.2106 167.203 32.0326 166.999 31.9985C166.875 31.9779 166.785 31.9892 166.718 32.0141C166.651 32.039 166.593 32.0822 166.541 32.1454C166.432 32.2792 166.36 32.4881 166.303 32.7408C166.275 32.8644 166.252 32.9893 166.228 33.1138C166.205 33.2355 166.18 33.3585 166.15 33.4668C166.121 33.5721 166.081 33.6832 166.018 33.7711C165.95 33.8662 165.844 33.9479 165.694 33.9479C165.473 33.9479 165.311 33.8112 165.197 33.6855C165.085 33.5624 164.972 33.3911 164.884 33.2742C164.783 33.1403 164.702 33.0573 164.627 33.0216C164.575 32.9971 164.507 32.9846 164.385 33.0637C164.285 33.1282 164.219 33.2545 164.186 33.4675C164.153 33.6792 164.161 33.9289 164.168 34.1903C164.176 34.4369 164.184 34.7089 164.136 34.9181C164.111 35.0256 164.067 35.1396 163.98 35.2278C163.886 35.3221 163.764 35.3673 163.626 35.3673C163.41 35.3673 163.222 35.3159 163.046 35.2488C162.959 35.2156 162.873 35.1778 162.789 35.1402C162.703 35.1021 162.619 35.0643 162.53 35.0277C162.184 34.8855 161.762 34.7624 161.094 34.8388C160.471 34.91 160.182 35.2543 159.857 35.6399C159.698 35.8296 159.521 36.0387 159.293 36.196C159.056 36.3583 158.771 36.4623 158.395 36.4623C158.003 36.4623 157.708 36.3167 157.484 36.0887C157.267 35.8682 157.122 35.5768 157.005 35.292C156.947 35.1484 156.893 35.0006 156.841 34.8601C156.789 34.7179 156.739 34.5829 156.685 34.4572C156.576 34.2009 156.463 34.0138 156.323 33.9052C156.157 33.7762 156.02 33.7102 155.899 33.6793C155.778 33.6487 155.66 33.6494 155.528 33.6714C155.391 33.6942 155.248 33.7379 155.069 33.7913C154.893 33.8434 154.691 33.902 154.456 33.9447C154.306 33.972 154.145 33.9538 153.988 33.9155C153.83 33.8769 153.662 33.8145 153.491 33.7416C153.161 33.6007 152.762 33.3933 152.405 33.2301C152.03 33.0592 151.668 32.9202 151.341 32.8738C151.018 32.828 150.749 32.8749 150.533 33.0507C150.289 33.25 150.246 33.3954 150.249 33.4988C150.252 33.623 150.322 33.7548 150.438 33.9335C150.542 34.0924 150.692 34.2998 150.755 34.5212C150.788 34.639 150.799 34.7676 150.768 34.9038C150.737 35.0395 150.668 35.17 150.559 35.2965C150.326 35.5689 150.014 35.6539 149.699 35.6525C149.392 35.6511 149.059 35.5674 148.754 35.4815C148.436 35.3923 148.15 35.3017 147.894 35.2623C147.635 35.2225 147.469 35.2464 147.365 35.3257C147.262 35.4047 147.228 35.5063 147.239 35.6498C147.251 35.8053 147.317 35.9845 147.398 36.1749C147.436 36.2627 147.481 36.3631 147.515 36.4461C147.55 36.5306 147.584 36.6208 147.601 36.7044C147.616 36.7801 147.628 36.902 147.556 37.008C147.476 37.1251 147.346 37.1517 147.242 37.1517C147.077 37.1517 146.913 37.1353 146.753 37.1161C146.59 37.0964 146.437 37.0745 146.275 37.0596C145.959 37.0304 145.646 37.0324 145.319 37.1414C145.235 37.1692 145.156 37.2576 145.091 37.4784C145.027 37.6942 144.996 37.9719 144.96 38.2852C144.924 38.5886 144.885 38.9218 144.799 39.2131C144.714 39.5031 144.574 39.787 144.311 39.9577C144.088 40.1026 143.776 40.2358 143.432 40.3648C143.087 40.4944 142.689 40.627 142.296 40.7649C141.493 41.0459 140.706 41.3503 140.231 41.7305C139.722 42.1375 139.209 42.5126 138.817 42.7875C159.452 42.7465 200.215 42.6671 203.329 42.6671C205.312 42.6671 206.856 42.8922 208.198 43.116C209.545 43.3405 210.67 43.5593 211.845 43.5593C213.448 43.5593 216.732 43.1359 218.855 42.8251C218.321 42.704 217.646 42.559 216.917 42.4202C216.477 42.3364 216.153 42.2244 215.895 42.0887C215.636 41.9521 215.452 41.7958 215.291 41.6344C214.969 41.3127 214.757 41.0026 214.183 40.6967C213.898 40.5444 213.679 40.4829 213.5 40.4633C213.321 40.4438 213.169 40.4648 213.007 40.4942C212.85 40.5228 212.666 40.5637 212.462 40.5608C212.251 40.5578 212.023 40.5091 211.755 40.3747C211.484 40.2394 211.319 40.0818 211.231 39.8943C211.145 39.7143 211.143 39.5307 211.141 39.3909C211.138 39.2405 211.135 39.1291 211.092 39.0184C211.051 38.9152 210.967 38.7938 210.761 38.6598C210.36 38.3982 210.009 38.42 209.64 38.5051C209.546 38.5269 209.452 38.5524 209.354 38.5788C209.258 38.6049 209.157 38.6318 209.056 38.6539C208.854 38.6981 208.635 38.7264 208.407 38.6903C208.152 38.65 207.964 38.5077 207.82 38.3334C207.679 38.1633 207.571 37.9514 207.475 37.7516C207.375 37.544 207.288 37.3488 207.182 37.1758C207.077 37.0046 206.967 36.8767 206.835 36.7993C206.773 36.7626 206.73 36.7537 206.7 36.7532C206.671 36.7528 206.641 36.7602 206.605 36.7802C206.517 36.8281 206.438 36.9166 206.313 37.0451C206.203 37.1572 206.053 37.3033 205.854 37.3611C205.636 37.4243 205.405 37.3718 205.158 37.1951C204.91 37.0184 204.733 36.774 204.589 36.5162C204.446 36.2607 204.327 35.9723 204.208 35.7089C203.963 35.1618 203.715 34.7065 203.246 34.4982C203.021 34.3979 202.775 34.3873 202.492 34.4281C202.203 34.4698 201.906 34.5595 201.564 34.6463C200.896 34.8158 200.118 34.9564 199.295 34.4892C198.886 34.2572 198.514 33.8703 198.167 33.4511C197.992 33.2399 197.82 33.0158 197.651 32.7935C197.48 32.5701 197.312 32.3489 197.143 32.1385C196.803 31.7149 196.471 31.3537 196.13 31.1289Z" fill="black"/>
<path d="M63 47V48H57V47H63Z" fill="#5B9494"/>
<path d="M30 52.7559V53.7559H23V52.7559H30Z" fill="#5B9494"/>
<path d="M93.5 61C93.7761 61 94 61.2239 94 61.5C94 61.7761 93.7761 62 93.5 62H88.5C88.2239 62 88 61.7761 88 61.5C88 61.2239 88.2239 61 88.5 61H93.5Z" fill="#5B9494"/>
<path d="M131 52V53H125V52H131Z" fill="#5B9494"/>
<path d="M162.5 66C162.776 66 163 66.2239 163 66.5C163 66.7761 162.776 67 162.5 67H157.5C157.224 67 157 66.7761 157 66.5C157 66.2239 157.224 66 157.5 66H162.5Z" fill="#5B9494"/>
<path d="M203 56.7559V57.7559H197V56.7559H203Z" fill="#5B9494"/>
<path d="M241 47V48H235V47H241Z" fill="#5B9494"/>
<path d="M258 63.7559V64.7559H252V63.7559H258Z" fill="#5B9494"/>
<path d="M285 51.7559V52.7559H279V51.7559H285Z" fill="#5B9494"/>
<path d="M340 46.7559V47.7559H334V46.7559H340Z" fill="#5B9494"/>
</svg>
