<svg width="32" height="11" viewBox="0 0 32 11" fill="none" xmlns="http://www.w3.org/2000/svg">
<path d="M25.9812 9.66684C25.9812 9.66684 27.6104 10.6444 29.0224 10.1013C31.199 9.26414 31.712 5.88247 29.8913 3.80171C29.3821 3.21968 28.0663 1.89559 26.8501 1.52085M25.9812 9.66684C25.9812 9.66684 26.9588 10.111 28.2621 9.23238C29.39 8.47209 29.0496 6.29982 26.8501 5.3223C24.8951 4.45339 21.6367 4.77923 19.573 5.86537C18.5229 6.41808 17.6221 7.41026 16.882 8.25486M25.9812 9.66684C25.5468 9.341 25.4382 8.88485 25.4382 8.3635M16.882 8.25486C16.5318 8.68934 16.3146 9.12382 15.9888 9.55825C15.9888 8.03766 16.0974 4.381 18.9213 2.49834C21.7453 0.615668 24.4351 0.776674 26.8501 1.52085M16.882 8.25486C17.417 7.34975 18.3783 5.19558 20.6592 3.80171C23.3745 2.14233 25.3658 1.94661 26.8501 1.52085" stroke="#916058" stroke-linejoin="round"/>
<path d="M6.01901 9.66684C6.01901 9.66684 4.3898 10.6444 2.97783 10.1013C0.801231 9.26414 0.288242 5.88247 2.10892 3.80171C2.61819 3.21968 3.93396 1.89559 5.1501 1.52085M6.01901 9.66684C6.01901 9.66684 5.04149 10.111 3.73812 9.23238C2.61022 8.47209 2.95067 6.29982 5.1501 5.3223C7.10515 4.45339 10.3636 4.77923 12.4272 5.86537C13.4774 6.41808 14.3781 7.41026 15.1182 8.25486M6.01901 9.66684C6.45347 9.341 6.56208 8.88485 6.56208 8.3635M15.1182 8.25486C15.4684 8.68934 15.6856 9.12382 16.0115 9.55825C16.0115 8.03766 15.9029 4.381 13.0789 2.49834C10.2549 0.615668 7.5651 0.776674 5.1501 1.52085M15.1182 8.25486C14.5833 7.34975 13.622 5.19558 11.3411 3.80171C8.62574 2.14233 6.63449 1.94661 5.1501 1.52085" stroke="#916058" stroke-linejoin="round"/>
</svg>
