<svg width="298" height="95" viewBox="0 0 298 95" fill="none" xmlns="http://www.w3.org/2000/svg">
<path d="M5.88927 14.3391H31.2388M0 25.3495H38.1522M18.692 0V94.9965M12.8028 37.8962L5.88927 75.7924M24.0692 37.8962L29.4464 75.7924" stroke="#E1D0B3" stroke-width="3" stroke-linejoin="bevel"/>
<path d="M65.8063 4.50781V13.4697M86.2907 23.712V13.4697H47.1143V23.712M58.1246 23.712H74.7682M47.1143 32.1618H59.917M86.2907 32.1618H73.1039M59.917 32.1618H73.1039M59.917 32.1618C59.917 32.1618 59.917 46.5009 59.917 52.6462C59.917 58.7915 55.308 70.058 55.308 70.058M73.1039 32.1618C73.1039 32.1618 73.1039 69.5459 73.1039 75.1791C73.1039 80.8123 87.571 79.532 87.571 79.532" stroke="#E1D0B3" stroke-width="3" stroke-linejoin="bevel"/>
<path d="M132.125 24.9922H102.422V48.6773M102.422 91.5666V48.6773M102.422 48.6773H113.176V64.6808L107.031 60.84M122.65 7.3244C123.163 16.7985 124.75 37.8974 127.003 46.5009C129.257 55.1043 139.977 72.7039 143.903 80.3002M131.612 17.5666L138.782 19.8711M133.405 48.6773L126.747 73.7708" stroke="#E1D0B3" stroke-width="3" stroke-linejoin="bevel"/>
<path d="M155.682 10.6531V32.886M155.682 32.886H171.553V51.0072M155.682 32.886V51.0072M155.682 51.0072V69.1285H171.553V51.0072M155.682 51.0072H171.553M176.752 16.4398V24.6629M176.752 32.886V24.6629M176.752 24.6629H191.529V79.7881H182.225M182.225 45.982V55.1188" stroke="#E1D0B3" stroke-width="3" stroke-linejoin="bevel"/>
<path d="M214.993 8.58462L210.027 17.0294M203.308 29.551L210.027 17.0294M210.027 17.0294V66.2423M224.925 4.50781L226.97 17.0294M239.239 4.50781L237.194 17.0294M218.79 17.0294H231.79M244.789 17.0294H231.79M218.79 22.5622H244.789M218.79 28.3862H226.97M244.789 28.3862H231.79M231.79 17.0294V28.3862M231.79 28.3862H226.97M226.97 28.3862L223.172 33.3366M219.374 38.287L223.172 33.3366M218.79 41.4902H244.789M223.172 33.3366V66.2423H219.667M219.667 61.0007L227.846 45.8582M232.812 32.463C232.715 37.1222 233.89 50.9283 235.441 56.3415C237.194 62.4567 247.256 86.9325 249.398 89.2621L252.983 86.4455M238.946 35.375L242.744 36.831M240.18 53.6704L231.79 60.3279" stroke="#E1D0B3" stroke-width="3" stroke-linejoin="bevel"/>
<path d="M257.592 18.3348H292.799M278.218 4.50781C279.048 17.7439 281.775 46.627 286.042 56.2704C290.31 65.9138 290.315 63.7273 291.5 65.5H298M260.792 31.8073C261.403 31.8073 263.334 31.8073 265.416 31.8073M270.395 31.8073C269.13 31.8073 267.217 31.8073 265.416 31.8073M260.615 50H265.416M271.322 50H265.416M265.416 31.8073V50M287.465 7.34412L292.799 11.244" stroke="#E1D0B3" stroke-width="3" stroke-linejoin="bevel"/>
</svg>
