<svg width="339" height="45" viewBox="0 0 339 45" fill="none" xmlns="http://www.w3.org/2000/svg">
<mask id="path-1-inside-1_395_9" fill="white">
<path d="M328.894 0C329.182 1.16677 331.135 5.40003 332.517 7C334.244 8.99987 335.971 10.5 338.13 11.5V33.5C335.971 34.5 334.244 36.0001 332.517 38C331.135 39.6 329.182 43.8332 328.894 45H9.23633C8.94834 43.8332 6.99606 39.6001 5.61426 38C3.88696 36 2.15912 34.5 0 33.5V11.5C2.15912 10.5 3.88696 8.99995 5.61426 7C6.99606 5.39989 8.94834 1.16679 9.23633 0H328.894Z"/>
</mask>
<path d="M328.894 0C329.182 1.16677 331.135 5.40003 332.517 7C334.244 8.99987 335.971 10.5 338.13 11.5V33.5C335.971 34.5 334.244 36.0001 332.517 38C331.135 39.6 329.182 43.8332 328.894 45H9.23633C8.94834 43.8332 6.99606 39.6001 5.61426 38C3.88696 36 2.15912 34.5 0 33.5V11.5C2.15912 10.5 3.88696 8.99995 5.61426 7C6.99606 5.39989 8.94834 1.16679 9.23633 0H328.894Z" fill="#E2A453"/>
<path d="M328.894 0L329.864 -0.239603L329.677 -1H328.894V0ZM332.517 7L331.76 7.65363L331.76 7.65364L332.517 7ZM338.13 11.5H339.13V10.8611L338.55 10.5926L338.13 11.5ZM338.13 33.5L338.55 34.4074L339.13 34.1389V33.5H338.13ZM332.517 38L331.76 37.3464L331.76 37.3464L332.517 38ZM328.894 45V46H329.677L329.864 45.2396L328.894 45ZM9.23633 45L8.26546 45.2396L8.45314 46H9.23633V45ZM5.61426 38L6.37111 37.3464L6.37107 37.3464L5.61426 38ZM0 33.5H-1V34.1389L-0.420259 34.4074L0 33.5ZM0 11.5L-0.420259 10.5926L-1 10.8611V11.5H0ZM5.61426 7L6.37107 7.65363L6.37111 7.65359L5.61426 7ZM9.23633 0V-1H8.45314L8.26546 -0.239626L9.23633 0ZM328.894 0L327.923 0.239603C328.096 0.940426 328.702 2.3777 329.399 3.78219C330.099 5.19186 330.98 6.75018 331.76 7.65363L332.517 7L333.273 6.34637C332.672 5.64985 331.885 4.29155 331.191 2.89291C330.494 1.48909 329.979 0.226341 329.864 -0.239603L328.894 0ZM332.517 7L331.76 7.65364C333.542 9.71692 335.378 11.3273 337.71 12.4074L338.13 11.5L338.55 10.5926C336.564 9.67276 334.946 8.28282 333.273 6.34636L332.517 7ZM338.13 11.5H337.13V33.5H338.13H339.13V11.5H338.13ZM338.13 33.5L337.71 32.5926C335.378 33.6727 333.542 35.2831 331.76 37.3464L332.517 38L333.273 38.6536C334.946 36.7172 336.564 35.3272 338.55 34.4074L338.13 33.5ZM332.517 38L331.76 37.3464C330.98 38.2498 330.099 39.8081 329.399 41.2178C328.702 42.6223 328.096 44.0596 327.923 44.7604L328.894 45L329.864 45.2396C329.979 44.7737 330.494 43.5109 331.191 42.1071C331.885 40.7084 332.672 39.3501 333.273 38.6536L332.517 38ZM328.894 45V44H9.23633V45V46H328.894V45ZM9.23633 45L10.2072 44.7604C10.0342 44.0597 9.42823 42.6225 8.73124 41.218C8.03171 39.8083 7.15139 38.25 6.37111 37.3464L5.61426 38L4.85741 38.6536C5.45892 39.3501 6.24564 40.7084 6.9397 42.107C7.63631 43.5108 8.15043 44.7736 8.26546 45.2396L9.23633 45ZM5.61426 38L6.37107 37.3464C4.58888 35.2829 2.75229 33.6727 0.420259 32.5926L0 33.5L-0.420259 34.4074C1.56595 35.3273 3.18505 36.7172 4.85745 38.6536L5.61426 38ZM0 33.5H1V11.5H0H-1V33.5H0ZM0 11.5L0.420259 12.4074C2.75229 11.3273 4.58888 9.71715 6.37107 7.65363L5.61426 7L4.85745 6.34637C3.18505 8.28275 1.56595 9.67269 -0.420259 10.5926L0 11.5ZM5.61426 7L6.37111 7.65359C7.15139 6.75003 8.03171 5.19167 8.73124 3.78202C9.42823 2.37749 10.0342 0.940348 10.2072 0.239626L9.23633 0L8.26546 -0.239626C8.15043 0.226439 7.63631 1.48924 6.9397 2.89298C6.24564 4.29161 5.45892 5.64986 4.85741 6.34641L5.61426 7ZM9.23633 0V1H328.894V0V-1H9.23633V0Z" fill="black" mask="url(#path-1-inside-1_395_9)"/>
<mask id="path-3-inside-2_395_9" fill="white">
<path d="M326.395 3C326.663 4.10148 328.482 8.09786 329.77 9.6084C331.379 11.4964 332.988 12.9124 335 13.8564V31.1436C332.988 32.0876 331.379 33.5046 329.77 35.3926C328.482 36.9035 326.663 40.8986 326.395 42H11.5625C11.2941 40.8984 9.47488 36.9033 8.1875 35.3926C6.57818 33.5045 4.96867 32.0876 2.95703 31.1436V13.8564C4.9686 12.9124 6.57824 11.4963 8.1875 9.6084C9.4749 8.09791 11.2941 4.10165 11.5625 3H326.395Z"/>
</mask>
<path d="M326.395 3C326.663 4.10148 328.482 8.09786 329.77 9.6084C331.379 11.4964 332.988 12.9124 335 13.8564V31.1436C332.988 32.0876 331.379 33.5046 329.77 35.3926C328.482 36.9035 326.663 40.8986 326.395 42H11.5625C11.2941 40.8984 9.47488 36.9033 8.1875 35.3926C6.57818 33.5045 4.96867 32.0876 2.95703 31.1436V13.8564C4.9686 12.9124 6.57824 11.4963 8.1875 9.6084C9.4749 8.09791 11.2941 4.10165 11.5625 3H326.395Z" fill="#917243"/>
<path d="M326.395 3L327.366 2.76334L327.18 2H326.395V3ZM329.77 9.6084L329.008 10.2571L329.008 10.2571L329.77 9.6084ZM335 13.8564H336V13.2211L335.425 12.9512L335 13.8564ZM335 31.1436L335.425 32.0488L336 31.7789V31.1436H335ZM329.77 35.3926L329.008 34.7439L329.008 34.744L329.77 35.3926ZM326.395 42V43H327.18L327.366 42.2367L326.395 42ZM11.5625 42L10.5909 42.2367L10.7769 43H11.5625V42ZM8.1875 35.3926L8.94863 34.744L8.94854 34.7439L8.1875 35.3926ZM2.95703 31.1436H1.95703V31.7789L2.5322 32.0488L2.95703 31.1436ZM2.95703 13.8564L2.5322 12.9512L1.95703 13.2211V13.8564H2.95703ZM8.1875 9.6084L8.94854 10.2571L8.94857 10.2571L8.1875 9.6084ZM11.5625 3V2H10.7769L10.5909 2.76329L11.5625 3ZM326.395 3L325.423 3.23666C325.585 3.90361 326.152 5.26456 326.802 6.59068C327.454 7.92151 328.276 9.39816 329.008 10.2571L329.77 9.6084L330.531 8.95973C329.975 8.3081 329.245 7.03129 328.598 5.71093C327.949 4.38585 327.472 3.19787 327.366 2.76334L326.395 3ZM329.77 9.6084L329.008 10.2571C330.672 12.2085 332.39 13.7362 334.575 14.7617L335 13.8564L335.425 12.9512C333.587 12.0886 332.086 10.7842 330.531 8.9597L329.77 9.6084ZM335 13.8564H334V31.1436H335H336V13.8564H335ZM335 31.1436L334.575 30.2383C332.39 31.2639 330.672 32.7926 329.008 34.7439L329.77 35.3926L330.531 36.0413C332.086 34.2165 333.587 32.9113 335.425 32.0488L335 31.1436ZM329.77 35.3926L329.008 34.744C328.276 35.603 327.454 37.0793 326.802 38.4099C326.152 39.7357 325.585 41.0964 325.423 41.7633L326.395 42L327.366 42.2367C327.472 41.8023 327.949 40.6147 328.598 39.2898C329.245 37.9698 329.975 36.6931 330.531 36.0411L329.77 35.3926ZM326.395 42V41H11.5625V42V43H326.395V42ZM11.5625 42L12.5341 41.7633C12.3716 41.0963 11.8047 39.7356 11.1552 38.4098C10.5033 37.0792 9.68057 35.6029 8.94863 34.744L8.1875 35.3926L7.42637 36.0412C7.98181 36.693 8.71241 37.9696 9.3591 39.2897C10.0081 40.6145 10.485 41.8022 10.5909 42.2367L11.5625 42ZM8.1875 35.3926L8.94854 34.7439C7.28534 32.7926 5.56735 31.2639 3.38186 30.2383L2.95703 31.1436L2.5322 32.0488C4.36999 32.9113 5.87103 34.2165 7.42646 36.0413L8.1875 35.3926ZM2.95703 31.1436H3.95703V13.8564H2.95703H1.95703V31.1436H2.95703ZM2.95703 13.8564L3.38186 14.7617C5.56711 13.7362 7.28522 12.2084 8.94854 10.2571L8.1875 9.6084L7.42646 8.95969C5.87126 10.7842 4.37008 12.0887 2.5322 12.9512L2.95703 13.8564ZM8.1875 9.6084L8.94857 10.2571C9.68061 9.39818 10.5033 7.92158 11.1552 6.59076C11.8047 5.26464 12.3716 3.90371 12.5341 3.23671L11.5625 3L10.5909 2.76329C10.485 3.19794 10.0081 4.38597 9.35907 5.71101C8.71235 7.03136 7.9818 8.30813 7.42643 8.95973L8.1875 9.6084ZM11.5625 3V4H326.395V3V2H11.5625V3Z" fill="black" mask="url(#path-3-inside-2_395_9)"/>
<mask id="path-5-inside-3_395_9" fill="white">
<path d="M324.81 5C325.065 6.03938 326.797 9.80948 328.022 11.2344C329.554 13.0154 331.086 14.3516 333.001 15.2422V29.7578C331.086 30.6484 329.554 31.9846 328.022 33.7656C326.797 35.1905 325.065 38.9606 324.81 40H13.1475C12.892 38.9608 11.1609 35.1909 9.93555 33.7656C8.40382 31.9846 6.87068 30.6484 4.95605 29.7578V15.2422C6.87068 14.3516 8.40382 13.0154 9.93555 11.2344C11.1609 9.80906 12.892 6.03924 13.1475 5H324.81Z"/>
</mask>
<path d="M324.81 5C325.065 6.03938 326.797 9.80948 328.022 11.2344C329.554 13.0154 331.086 14.3516 333.001 15.2422V29.7578C331.086 30.6484 329.554 31.9846 328.022 33.7656C326.797 35.1905 325.065 38.9606 324.81 40H13.1475C12.892 38.9608 11.1609 35.1909 9.93555 33.7656C8.40382 31.9846 6.87068 30.6484 4.95605 29.7578V15.2422C6.87068 14.3516 8.40382 13.0154 9.93555 11.2344C11.1609 9.80906 12.892 6.03924 13.1475 5H324.81Z" fill="#E1D0B3"/>
<path d="M324.81 5L325.781 4.76128L325.594 4H324.81V5ZM328.022 11.2344L327.264 11.8864L327.264 11.8864L328.022 11.2344ZM333.001 15.2422H334.001V14.6044L333.423 14.3355L333.001 15.2422ZM333.001 29.7578L333.423 30.6645L334.001 30.3956V29.7578H333.001ZM328.022 33.7656L327.264 33.1136L327.264 33.1136L328.022 33.7656ZM324.81 40V41H325.594L325.781 40.2387L324.81 40ZM13.1475 40L12.1764 40.2387L12.3635 41H13.1475V40ZM9.93555 33.7656L10.6938 33.1137L10.6937 33.1136L9.93555 33.7656ZM4.95605 29.7578H3.95605V30.3956L4.5343 30.6645L4.95605 29.7578ZM4.95605 15.2422L4.5343 14.3355L3.95605 14.6044V15.2422H4.95605ZM9.93555 11.2344L10.6937 11.8864L10.6938 11.8863L9.93555 11.2344ZM13.1475 5V4H12.3635L12.1764 4.76129L13.1475 5ZM324.81 5L323.838 5.23872C323.995 5.8754 324.538 7.16474 325.156 8.41572C325.777 9.6717 326.563 11.0704 327.264 11.8864L328.022 11.2344L328.781 10.5823C328.257 9.97342 327.564 8.77466 326.949 7.52952C326.331 6.27938 325.88 5.16398 325.781 4.76128L324.81 5ZM328.022 11.2344L327.264 11.8864C328.851 13.7309 330.491 15.1778 332.579 16.1489L333.001 15.2422L333.423 14.3355C331.681 13.5255 330.258 12.2999 328.781 10.5823L328.022 11.2344ZM333.001 15.2422H332.001V29.7578H333.001H334.001V15.2422H333.001ZM333.001 29.7578L332.579 28.8511C330.491 29.8222 328.851 31.2691 327.264 33.1136L328.022 33.7656L328.781 34.4177C330.258 32.7001 331.681 31.4745 333.423 30.6645L333.001 29.7578ZM328.022 33.7656L327.264 33.1136C326.563 33.9296 325.777 35.3283 325.156 36.5843C324.538 37.8353 323.995 39.1246 323.838 39.7613L324.81 40L325.781 40.2387C325.88 39.836 326.331 38.7206 326.949 37.4705C327.564 36.2253 328.257 35.0266 328.781 34.4177L328.022 33.7656ZM324.81 40V39H13.1475V40V41H324.81V40ZM13.1475 40L14.1186 39.7613C13.9621 39.1248 13.4199 37.8356 12.8018 36.5846C12.1812 35.3287 11.3955 33.9299 10.6938 33.1137L9.93555 33.7656L9.17726 34.4175C9.70093 35.0267 10.3935 36.2255 11.0087 37.4706C11.6263 38.7206 12.0774 39.836 12.1764 40.2387L13.1475 40ZM9.93555 33.7656L10.6937 33.1136C9.10728 31.2689 7.46548 29.8222 5.37781 28.8511L4.95605 29.7578L4.5343 30.6645C6.27588 31.4746 7.70037 32.7003 9.17736 34.4177L9.93555 33.7656ZM4.95605 29.7578H5.95605V15.2422H4.95605H3.95605V29.7578H4.95605ZM4.95605 15.2422L5.37781 16.1489C7.46548 15.1778 9.10728 13.7311 10.6937 11.8864L9.93555 11.2344L9.17736 10.5823C7.70037 12.2997 6.27588 13.5254 4.5343 14.3355L4.95605 15.2422ZM9.93555 11.2344L10.6938 11.8863C11.3955 11.0701 12.1812 9.67133 12.8018 8.41538C13.4199 7.1644 13.9621 5.87523 14.1186 5.23871L13.1475 5L12.1764 4.76129C12.0774 5.164 11.6263 6.27937 11.0087 7.52944C10.3935 8.77453 9.70093 9.97333 9.17726 10.5825L9.93555 11.2344ZM13.1475 5V6H324.81V5V4H13.1475V5Z" fill="black" mask="url(#path-5-inside-3_395_9)"/>
</svg>
