<svg width="104" height="70" viewBox="0 0 104 70" fill="none" xmlns="http://www.w3.org/2000/svg">
<path d="M92.1514 0.5C92.4312 1.22991 93.0162 2.40681 93.6943 3.58691C94.5037 4.99541 95.4966 6.50343 96.3467 7.35352C98.2947 9.30155 100.265 10.8014 102.7 11.832V58.167C100.265 59.1976 98.2948 60.6984 96.3467 62.6465C95.4966 63.4966 94.5037 65.0046 93.6943 66.4131C93.0162 67.5932 92.4312 68.7701 92.1514 69.5H11.0488C10.769 68.7701 10.184 67.5932 9.50586 66.4131C8.69645 65.0046 7.7036 63.4966 6.85352 62.6465C4.90542 60.6984 2.93487 59.1976 0.5 58.167V11.832C2.93471 10.8015 4.90551 9.3015 6.85352 7.35352C7.7036 6.50344 8.69645 4.99542 9.50586 3.58691C10.184 2.4068 10.769 1.22993 11.0488 0.5H92.1514Z" fill="#E2A453" stroke="black"/>
<path d="M88.0137 5C88.2741 5.64553 88.7955 6.65598 89.3945 7.66406C90.1244 8.89231 91.0228 10.2123 91.7949 10.959C93.5447 12.6511 95.3158 13.9582 97.5 14.8584V55.1406C95.3157 56.0409 93.5448 57.3488 91.7949 59.041C91.0228 59.7877 90.1244 61.1077 89.3945 62.3359C88.7955 63.344 88.2741 64.3545 88.0137 65H14.9863C14.7259 64.3545 14.2045 63.344 13.6055 62.3359C12.8756 61.1077 11.9772 59.7877 11.2051 59.041C9.4552 57.3489 7.6843 56.0409 5.5 55.1406V14.8584C7.68414 13.9582 9.45529 12.651 11.2051 10.959C11.9772 10.2123 12.8756 8.89231 13.6055 7.66406C14.2045 6.65597 14.7259 5.64554 14.9863 5H88.0137Z" fill="#917243" stroke="black"/>
<path d="M86.4316 7C86.6847 7.60766 87.1814 8.54492 87.749 9.47754C88.4479 10.6258 89.309 11.863 90.0508 12.5635C91.7226 14.142 93.4153 15.3622 95.5 16.2041V53.7949C93.4152 54.6369 91.7227 55.8579 90.0508 57.4365C89.309 58.137 88.4479 59.3742 87.749 60.5225C87.1814 61.4551 86.6847 62.3923 86.4316 63H16.5684C16.3153 62.3923 15.8186 61.4551 15.251 60.5225C14.5521 59.3742 13.691 58.137 12.9492 57.4365C11.2774 55.858 9.5848 54.6368 7.5 53.7949V16.2041C9.58464 15.3622 11.2774 14.142 12.9492 12.5635C13.691 11.863 14.5521 10.6258 15.251 9.47754C15.8186 8.54492 16.3153 7.60767 16.5684 7H86.4316Z" fill="#E1D0B3" stroke="black"/>
</svg>
