<svg width="230" height="95" viewBox="0 0 230 95" fill="none" xmlns="http://www.w3.org/2000/svg">
<path d="M74.8352 30.3776C74.9794 30.519 75.1343 30.6849 75.2815 30.8649C75.5877 31.2395 75.8154 31.6231 75.8831 31.946C75.939 32.2135 75.9788 32.4682 76.0286 32.7429C76.0759 33.0037 76.1322 33.2778 76.218 33.5241C76.3035 33.7691 76.4326 34.0303 76.6536 34.2302C76.8885 34.4425 77.1855 34.5485 77.5266 34.5485C77.8812 34.5485 78.2304 34.3466 78.4993 34.155C78.7935 33.9452 79.1037 33.6645 79.3987 33.3679C79.7644 33.0001 80.1233 32.5871 80.4299 32.2155C80.6432 32.614 80.898 33.0477 81.1711 33.4255C81.3955 33.7358 81.6492 34.0358 81.9172 34.2468C82.1668 34.4431 82.5499 34.6555 82.9768 34.528C83.2628 34.4426 83.5166 34.263 83.7268 34.072C83.9417 33.8767 84.1415 33.6414 84.3186 33.404C84.4904 33.1737 84.6471 32.9306 84.7825 32.7028C85.1847 33.1926 85.7061 33.9369 86.0647 34.7936C86.6512 36.1947 87.4673 36.986 87.884 37.235C88 37.3043 88.1393 37.3236 88.2698 37.2888C88.4003 37.2538 88.5115 37.1675 88.5774 37.0495L89.1458 36.029L90.0647 37.1266C90.2234 37.3162 90.4971 37.3616 90.7083 37.2331C90.9194 37.1046 91.0047 36.841 90.9094 36.613C90.924 36.6479 90.8875 36.5669 90.9329 36.3386C90.975 36.1266 91.0838 35.8151 91.3333 35.4177C91.6436 34.9233 92.0129 34.7026 92.2629 34.61C92.4547 34.9595 92.7004 35.393 92.9622 35.8054C93.1387 36.0834 93.3245 36.3584 93.5051 36.5954C93.6805 36.8254 93.8717 37.0471 94.0598 37.197C94.2455 37.3449 94.4574 37.4911 94.6858 37.571C94.9328 37.6572 95.2194 37.6716 95.4993 37.5231C95.7554 37.3871 95.9382 37.1494 96.0784 36.8854C96.2215 36.6161 96.3482 36.267 96.468 35.8376C96.7034 34.9938 96.922 34.2149 97.1594 33.7106C97.2338 33.5526 97.2967 33.453 97.342 33.3932C97.3698 33.4264 97.4071 33.4744 97.4514 33.5427C97.5301 33.6641 97.6158 33.8205 97.7092 34.0065C97.8976 34.3816 98.0926 34.8297 98.2991 35.2878C98.4997 35.733 98.7137 36.1915 98.927 36.5407C99.033 36.7142 99.1532 36.8851 99.2883 37.0182C99.4124 37.1406 99.6235 37.3053 99.9084 37.3054C100.22 37.3054 100.477 37.1805 100.673 37.0495C100.862 36.9235 101.046 36.7558 101.189 36.6315C101.515 36.3484 101.732 36.2028 101.986 36.2028C101.975 36.2028 102.019 36.203 102.137 36.2692C102.247 36.3308 102.381 36.4273 102.539 36.5583C102.859 36.8225 103.216 37.1742 103.6 37.5446C103.971 37.9029 104.371 38.2811 104.742 38.5505C104.929 38.6854 105.129 38.8089 105.333 38.8874C105.534 38.9646 105.789 39.0174 106.051 38.9391C106.784 38.7202 107.02 38.0566 107.136 37.6745C107.14 37.6601 107.144 37.646 107.148 37.6325C107.294 37.8653 107.442 38.1226 107.648 38.4499C107.868 38.8005 108.13 39.1838 108.426 39.4831C108.713 39.773 109.11 40.0622 109.6 40.0622C110.384 40.0622 110.802 39.6564 111.111 39.3884C111.266 39.2531 111.39 39.154 111.538 39.0817C111.679 39.0133 111.863 38.9597 112.138 38.9597C112.413 38.9597 112.597 39.0131 112.732 39.0798C112.872 39.1491 112.986 39.2455 113.119 39.3727C113.358 39.601 113.743 40.0622 114.446 40.0622H117.676C117.761 40.0622 117.898 40.0901 118.092 40.1608C118.28 40.2293 118.485 40.3235 118.7 40.4265C118.907 40.525 119.133 40.6369 119.331 40.7204C119.511 40.7964 119.756 40.8893 119.984 40.8893C120.359 40.8892 120.591 40.614 120.697 40.4743C120.817 40.3146 120.934 40.1009 121.021 39.9528C121.122 39.7806 121.203 39.6568 121.282 39.5759C121.319 39.5387 121.344 39.522 121.357 39.5153C121.359 39.5143 121.36 39.513 121.362 39.5124C121.376 39.5184 121.43 39.5411 121.53 39.6179C121.661 39.7192 121.814 39.872 121.975 40.0602C122.295 40.4347 122.602 40.892 122.784 41.197C122.872 41.344 123.03 41.4357 123.201 41.4401C123.373 41.4444 123.534 41.3607 123.629 41.2184C123.771 41.0069 124.034 40.6538 124.348 40.3024C124.668 39.9448 125.013 39.6217 125.317 39.4401C125.556 39.2973 125.721 39.1894 125.841 39.111C125.971 39.0266 126.019 38.9971 126.054 38.9802C126.074 38.9704 126.062 38.9597 126.445 38.9597C126.687 38.9597 127.007 39.0617 127.397 39.2048C127.574 39.2701 127.772 39.345 127.948 39.4011C128.117 39.4549 128.323 39.5114 128.521 39.5114C128.715 39.5114 128.948 39.4575 129.174 39.3815C129.411 39.3022 129.677 39.1855 129.948 39.0329C130.487 38.7302 131.079 38.2653 131.483 37.6227C131.659 37.3424 131.791 37.233 131.859 37.1911C132.025 37.4754 132.265 37.8517 132.531 38.1989C132.688 38.4034 132.861 38.6069 133.038 38.778C133.208 38.9423 133.415 39.109 133.643 39.1999C134.023 39.3513 134.357 39.1852 134.563 39.0163C134.767 38.8486 134.937 38.611 135.072 38.3835C135.21 38.1505 135.333 37.8884 135.439 37.6364C135.761 37.8972 136.131 38.1918 136.491 38.4655C136.787 38.6898 137.081 38.9039 137.338 39.0778C137.584 39.2441 137.834 39.398 138.028 39.4753C138.306 39.586 138.563 39.5097 138.746 39.3845C138.907 39.2746 139.032 39.1157 139.125 38.9802C139.304 38.721 139.521 38.306 139.708 37.9929C140.149 37.2552 140.596 36.7546 141.212 36.7546C141.798 36.7547 142.465 37.0535 143.096 37.4919C143.716 37.9228 144.238 38.4432 144.521 38.7809C144.633 38.9145 144.806 38.9799 144.979 38.9538C145.151 38.9276 145.298 38.8139 145.365 38.653C145.477 38.3858 145.669 37.9544 145.876 37.5388C146.091 37.108 146.299 36.7445 146.441 36.5749C146.465 36.546 146.484 36.5292 146.496 36.5202C146.501 36.5165 146.505 36.514 146.508 36.5124C146.515 36.5145 146.529 36.5188 146.547 36.5309C146.57 36.5461 146.588 36.564 146.597 36.5749C146.751 36.7592 147.015 36.8084 147.225 36.6911C147.435 36.5738 147.531 36.3233 147.454 36.0954C147.389 35.9011 147.345 35.6423 147.371 35.4655C147.378 35.4188 147.387 35.3927 147.393 35.3806C147.401 35.3786 147.417 35.3757 147.442 35.3757C147.591 35.3757 147.655 35.4071 147.687 35.4274C147.734 35.457 147.774 35.4994 147.866 35.61C147.947 35.7061 148.079 35.8713 148.278 35.9968C148.491 36.1315 148.745 36.2028 149.057 36.2028C149.506 36.2028 149.815 36.0536 150.032 35.8815C150.09 36.0082 150.151 36.1436 150.218 36.2897C150.304 36.4789 150.4 36.6823 150.494 36.8415C150.541 36.9193 150.599 37.0088 150.669 37.0847C150.713 37.1328 150.876 37.3054 151.134 37.3054C151.341 37.3053 151.479 37.1936 151.546 37.1188C151.611 37.0467 151.649 36.9694 151.67 36.9206C151.714 36.8199 151.742 36.7026 151.763 36.6042C151.806 36.4045 151.847 36.1287 151.887 35.8893C151.93 35.6321 151.976 35.3938 152.033 35.2097C152.062 35.1186 152.088 35.0572 152.109 35.0202C152.112 35.0142 152.115 35.0091 152.117 35.0056C152.259 34.9137 152.399 34.783 152.518 34.6579C152.655 34.514 152.797 34.345 152.933 34.1745C153.002 34.0874 153.068 33.996 153.134 33.9079L154.149 35.9274C154.253 36.1344 154.485 36.2426 154.71 36.1891C154.936 36.1357 155.095 35.9345 155.095 35.7028C155.095 35.5747 155.109 35.4227 155.143 35.28C155.177 35.133 155.225 35.0256 155.273 34.9616C155.313 34.9071 155.339 34.9013 155.357 34.8991C155.39 34.8952 155.502 34.898 155.723 35.03C156.221 35.3274 156.991 36.0005 157.779 36.7595C158.484 37.4391 159.172 38.1555 159.633 38.655V51.4724L65.7971 52.5632V34.9265C66.4018 34.6475 67.4216 34.0986 68.3772 33.3376C69.3281 32.5802 70.565 31.5043 71.2942 30.8591L72.8088 32.2165C72.9139 32.3105 73.0543 32.3552 73.1946 32.3405C73.3349 32.3258 73.4628 32.2531 73.5461 32.1393L74.8352 30.3776Z" fill="#7A987E" stroke="black" stroke-linejoin="round"/>
<path d="M10.0586 8.34729C10.087 8.43089 10.1366 8.50607 10.2031 8.56409L11.4922 9.68713C11.2913 10.0353 11.0818 10.4795 10.9395 10.9586C10.7407 11.628 10.6471 12.4559 11.0049 13.1832C11.1683 13.5152 11.376 13.7782 11.6436 13.9342C11.9219 14.0964 12.2134 14.1116 12.4727 14.0426C12.4773 14.1944 12.4911 14.3479 12.5137 14.4977C12.5972 15.0524 12.8621 15.787 13.6377 15.9762C13.859 16.0302 14.0846 16.0301 14.3008 15.9557C14.5146 15.882 14.6824 15.7484 14.8125 15.5963C15.0586 15.3086 15.2118 14.903 15.3291 14.5094C15.4495 14.1056 15.5551 13.6261 15.667 13.1569C15.7814 12.6771 15.9067 12.189 16.0703 11.7233C16.4189 10.731 16.7751 9.43111 17.083 8.44104C17.1721 8.15438 17.258 7.89427 17.3379 7.66956C17.4068 8.02743 17.4768 8.45205 17.5527 8.90198C17.6531 9.49657 17.764 10.1305 17.8955 10.653C17.9612 10.9138 18.0354 11.1619 18.1221 11.3707C18.2016 11.5623 18.3191 11.7932 18.5068 11.9459C18.5752 12.0015 18.6511 12.1104 18.7197 12.3141C18.7876 12.5156 18.8321 12.7599 18.875 13.0387C18.9153 13.3006 18.9562 13.6112 19.0146 13.8776C19.0715 14.1363 19.1631 14.4471 19.3574 14.6842C19.3596 14.6874 19.3703 14.7042 19.3838 14.7428C19.3993 14.7872 19.4144 14.8488 19.4258 14.9293C19.4488 15.092 19.4529 15.297 19.4404 15.526C19.4155 15.9836 19.3287 16.4739 19.2568 16.7809C19.2074 16.992 19.2998 17.2108 19.4854 17.3229C19.6712 17.4348 19.9086 17.4146 20.0723 17.2721L20.7441 16.6862C20.7384 16.9033 20.7387 17.1233 20.7529 17.3356C20.7756 17.672 20.8303 18.0219 20.9473 18.318C21.0615 18.6071 21.2751 18.9375 21.6709 19.0582C21.9128 19.132 22.1431 19.1852 22.3525 19.1852C22.5837 19.1852 22.8138 19.1197 23 18.9381C23.1615 18.7805 23.2429 18.5786 23.2949 18.4225C23.3474 18.2648 23.398 18.0607 23.4502 17.8698C23.5365 17.5538 23.5088 17.2558 23.458 17.0026C23.4131 16.7789 23.3244 16.4908 23.2803 16.316C23.1795 15.9166 23.1505 15.5853 23.3936 15.1901C23.6432 14.7841 23.934 14.7036 24.3604 14.5035C24.565 14.4075 24.8275 14.2666 25.0234 13.9987C25.224 13.724 25.3105 13.3807 25.3105 12.9625C25.3105 12.2271 25.1873 11.5274 25.1348 11.0153C25.0782 10.4632 25.0979 10.1083 25.249 9.83167C25.3251 9.6924 25.3917 9.64269 25.4326 9.61975C25.4814 9.5924 25.5415 9.57548 25.6543 9.56018C25.7336 9.54943 25.9458 9.53231 26.1201 9.46643C26.3485 9.37998 26.5419 9.21224 26.6543 8.93811C26.7049 8.81457 26.745 8.62921 26.7793 8.45374C26.8169 8.26133 26.8581 8.02208 26.9014 7.75842C26.9887 7.22596 27.0881 6.58476 27.2021 5.95862C27.3167 5.32968 27.4414 4.74155 27.5752 4.31702C27.5792 4.30442 27.584 4.29202 27.5879 4.27991C27.6909 4.55418 27.7983 4.91272 27.9004 5.32288C28.1425 6.29577 28.3471 7.4719 28.4609 8.25842C28.474 8.34839 28.5108 8.43319 28.5684 8.50354C28.8576 8.85631 29.4573 9.75478 29.6172 10.5348C29.7902 11.3791 29.8369 12.869 29.8369 13.524C29.8369 13.6857 29.9152 13.8375 30.0469 13.9313C30.4807 14.24 31.0958 14.7683 31.5283 15.3365C31.7446 15.6207 31.8969 15.892 31.9697 16.1315C32.0407 16.3653 32.0279 16.5384 31.9609 16.6744C31.4482 17.7167 30.7594 18.2987 30.5371 18.4342C30.3459 18.5509 30.2558 18.781 30.3164 18.9967C30.3771 19.2123 30.5739 19.361 30.7979 19.361C30.9843 19.361 31.5828 19.4837 32.0234 20.0211L33.1748 21.4254C33.2893 21.565 33.4706 21.6325 33.6484 21.6012C33.8262 21.5697 33.9734 21.4444 34.0332 21.274C34.2638 20.6176 34.8174 19.0218 35.1875 17.8932C35.435 17.1386 35.9127 15.9015 36.3125 14.8942C36.6256 15.7627 36.9906 16.8733 37.2197 17.8512C37.3321 18.3309 37.4167 18.7778 37.4961 19.1959C37.5745 19.6089 37.649 20.0036 37.7402 20.3561C37.9201 21.0507 38.1928 21.7098 38.8281 22.0973C39.0049 22.205 39.2311 22.2855 39.4805 22.236C39.7333 22.1857 39.9007 22.0235 40.0029 21.8756C40.1875 21.6082 40.2725 21.2228 40.3281 20.9176C40.3585 20.7509 40.3853 20.5755 40.4102 20.4117C40.4355 20.2449 40.4594 20.0886 40.4863 19.9449C40.5134 19.8003 40.5414 19.6816 40.5713 19.5895C40.6009 19.4984 40.6231 19.4639 40.626 19.4596C41.1292 18.8457 41.6235 17.94 41.873 17.027C41.9456 16.7616 41.9774 16.393 42.0049 16.0533C42.0343 15.69 42.0612 15.3163 42.1152 14.9703C42.1705 14.6167 42.2462 14.3491 42.3428 14.1813C42.414 14.0576 42.4672 14.0313 42.5166 14.026C42.5202 14.0297 42.5249 14.0343 42.5303 14.0406C42.5765 14.0957 42.6392 14.2061 42.7021 14.3942C42.8269 14.7674 42.9089 15.299 42.9658 15.8893C43.0222 16.4736 43.0509 17.0739 43.0801 17.5817C43.0945 17.8317 43.1087 18.0637 43.1279 18.2526C43.1448 18.418 43.1708 18.6222 43.2314 18.7701C43.4383 19.2744 43.9043 19.4199 44.0615 19.4918C44.1597 19.5367 44.2101 19.5681 44.2471 19.6051C44.2789 19.637 44.3256 19.6978 44.3633 19.8356C44.4392 20.1133 44.3658 20.4722 44.2715 20.8942C44.2338 21.0628 44.1776 21.3008 44.1836 21.4967C44.1867 21.5976 44.207 21.7736 44.3311 21.9303C44.476 22.1133 44.6797 22.1705 44.8457 22.1705C45.0943 22.1705 45.3225 22.1786 45.4902 22.2604C45.5598 22.2944 45.6091 22.3376 45.6455 22.399C45.6836 22.4634 45.7275 22.5812 45.7275 22.7936C45.7275 23.2269 45.5507 23.6226 45.3447 24.0533C45.2501 24.2513 45.1366 24.482 45.0693 24.7008C45.0012 24.9224 44.9519 25.2149 45.0732 25.5114C45.209 25.8427 45.4245 26.203 45.7676 26.4821C46.1191 26.7679 46.5772 26.9459 47.1484 26.9459C47.3756 26.9459 47.5844 26.8722 47.7529 26.7252C47.9099 26.5882 48.0008 26.415 48.0566 26.2633C48.1628 25.9748 48.1949 25.6119 48.2217 25.3346C48.252 25.0199 48.278 24.7709 48.3379 24.5817C48.3928 24.4081 48.4404 24.3969 48.4453 24.3961C48.8575 24.2704 49.1575 23.9042 49.3691 23.5826C49.5965 23.2372 49.8037 22.8116 49.9912 22.4069C50.1855 21.9876 50.3555 21.5964 50.5264 21.2604C50.5931 21.1291 50.6538 21.0209 50.707 20.9332C50.7237 20.9841 50.7413 21.0416 50.7588 21.1061C50.8983 21.621 50.988 22.3289 51.0254 22.8307C51.0339 22.9445 51.0812 23.0521 51.1592 23.1354C51.4592 23.4556 51.9086 23.9637 52.2803 24.442C52.4667 24.682 52.6262 24.9049 52.7363 25.0875C52.7916 25.1791 52.8286 25.2517 52.8506 25.3043C52.8546 25.3138 52.857 25.3221 52.8594 25.3287C52.8509 25.3474 52.8326 25.3837 52.79 25.4391C52.7081 25.5457 52.592 25.6603 52.4414 25.8073C52.3042 25.9411 52.1319 26.1077 51.998 26.2819C51.8688 26.4502 51.7148 26.7002 51.7148 27.0074C51.7148 27.2955 51.8515 27.5718 51.9922 27.7838C52.1433 28.0114 52.3478 28.2383 52.5771 28.4381C53.0174 28.8216 53.6499 29.1929 54.2871 29.193C54.5975 29.193 54.8256 29.0232 54.9727 28.8629C55.1186 28.7037 55.2348 28.5017 55.3301 28.3073C55.5153 27.9292 55.7022 27.4028 55.873 26.986C56.0604 26.5289 56.2419 26.1657 56.4395 25.9479C56.5326 25.8452 56.6076 25.7986 56.6641 25.7799C56.7121 25.764 56.7791 25.757 56.8867 25.7946C57.5521 26.0266 57.9787 26.4881 58.2178 26.9547C58.3379 27.1892 58.4069 27.4181 58.4346 27.6071C58.4639 27.808 58.4404 27.9167 58.4307 27.941C58.3164 28.2198 58.1732 28.6069 58.3438 29.0231C58.498 29.3993 58.8645 29.6821 59.3242 29.9625C59.7036 30.194 60.0454 30.6076 60.4482 31.0612C60.6348 31.2712 60.84 31.4944 61.0537 31.6647C61.262 31.8306 61.5453 32.0015 61.8867 32.0016C62.348 32.0016 62.6077 31.6594 62.7383 31.4069C62.8744 31.1435 62.9647 30.807 63.0371 30.4889C63.0745 30.3246 63.1091 30.1524 63.1436 29.983C63.1784 29.8117 63.2133 29.6425 63.25 29.4762C63.3242 29.1402 63.4028 28.8407 63.501 28.6012C63.5622 28.4519 63.6291 28.3087 63.6963 28.1715C63.784 28.7322 63.9453 29.373 64.2041 30.0797C64.8316 31.7933 66.0384 33.9307 68.1934 36.3307C70.3669 38.7514 74.3218 41.4763 78.332 43.8834C81.4833 45.7749 84.7038 47.4885 87.1934 48.7311L0.668945 50.0944V9.62952C0.706193 9.41176 0.737664 9.1498 0.769531 8.90491C0.805352 8.62966 0.844547 8.36032 0.898438 8.1217C0.95119 7.88819 1.01063 7.72409 1.06934 7.62463C1.15247 7.72809 1.25363 7.89319 1.36914 8.12463C1.60752 8.60233 1.85776 9.25318 2.11914 9.94397C2.37523 10.6208 2.64258 11.3352 2.9043 11.8961C3.03499 12.1762 3.17308 12.439 3.31934 12.6471C3.44964 12.8325 3.65171 13.0723 3.93848 13.1598C4.12198 13.2156 4.32426 13.1993 4.50195 13.0875C4.65736 12.9897 4.74792 12.8478 4.80078 12.7389C4.90494 12.5242 4.95587 12.245 4.9873 11.9811C5.05219 11.4363 5.05917 10.6919 5.07324 9.98792C5.08779 9.26055 5.10924 8.56822 5.19238 8.06116C5.23388 7.80817 5.28401 7.64593 5.33008 7.55823C5.50052 7.54794 5.66758 7.51027 5.81934 7.42639C6.0044 7.324 6.13154 7.17532 6.21387 7.01233C6.3611 6.72048 6.36914 6.36624 6.36914 6.11487C6.36913 5.81713 6.35471 5.57948 6.37988 5.33752C6.40388 5.10705 6.45855 4.95522 6.54297 4.85217C6.72944 4.62471 6.90368 4.27883 7.05859 3.91663C7.21907 3.54141 7.37925 3.10044 7.5293 2.65002C7.62996 2.34784 7.72501 2.03728 7.81543 1.73596L10.0586 8.34729Z" fill="#A4C2A8" stroke="black" stroke-linejoin="round"/>
<path d="M225.904 11.929C226.003 12.2346 226.119 12.5347 226.252 12.7835C226.323 12.9164 226.405 13.048 226.502 13.1605C226.595 13.2698 226.724 13.3872 226.893 13.4564C226.967 13.4864 227.102 13.5689 227.295 13.7151C227.478 13.8546 227.686 14.0307 227.899 14.222C228.181 14.4751 228.461 14.7484 228.695 14.9827C228.513 15.2179 228.326 15.5012 228.193 15.804C227.987 16.2744 227.841 16.9587 228.299 17.5198C228.563 17.844 228.758 18.1274 228.948 18.3851C229.059 18.5357 229.188 18.7001 229.332 18.8401V50.1038H143.523C146.04 49.0044 149.432 47.0832 152.289 44.22C155.713 40.7884 159.26 36.4507 161.252 33.8821C161.275 34.4381 161.342 35.0145 161.474 35.5296C161.607 36.0482 161.822 36.5685 162.185 36.93C162.58 37.3228 163.113 37.4893 163.738 37.3362C164.497 37.1503 165.006 36.5984 165.368 35.9808C165.728 35.3665 165.986 34.6152 166.214 33.9183C166.449 33.1973 166.652 32.5393 166.905 32.0169C167.164 31.4834 167.412 31.2298 167.661 31.1536C167.832 31.1014 168.081 31.1331 168.435 31.348C168.785 31.5599 169.166 31.9089 169.551 32.346C170.316 33.2171 171.017 34.346 171.426 35.1194C171.518 35.2943 171.705 35.3987 171.902 35.3851C172.099 35.3713 172.27 35.2427 172.338 35.0569L172.835 33.6829L173.474 35.0921C173.562 35.2848 173.761 35.4019 173.971 35.3841C174.182 35.3661 174.359 35.2169 174.413 35.012L175.639 30.3128C175.851 31.4181 176.127 32.5604 176.467 33.4984C176.759 34.3072 177.132 35.0659 177.623 35.4739C177.885 35.6922 178.219 35.8409 178.604 35.7913C178.976 35.7434 179.296 35.5228 179.569 35.222C180.556 34.1336 181.423 32.2504 182.102 30.4066C182.404 29.586 182.673 28.7576 182.904 27.9866C183.011 28.6196 183.145 29.2639 183.31 29.8626C183.518 30.6118 183.783 31.3245 184.124 31.8607C184.454 32.3808 184.939 32.8597 185.614 32.8597C187.539 32.8596 188.418 31.5341 188.616 30.8069C188.674 30.5926 188.585 30.3654 188.395 30.2493C188.319 30.2027 187.836 29.7433 188.158 28.5618C188.266 28.1652 188.363 27.9608 188.437 27.8499C188.5 27.7568 188.554 27.7188 188.631 27.6771C188.691 27.6442 188.917 27.5435 189.094 27.4163C189.303 27.2666 189.504 27.0558 189.706 26.7269C189.804 26.5671 189.881 26.4097 189.922 26.2552C189.964 26.0949 189.974 25.9042 189.887 25.7171C189.803 25.5347 189.662 25.4323 189.565 25.3763C189.476 25.3248 189.371 25.2848 189.325 25.2659C189.281 25.248 189.254 25.2342 189.238 25.2259C189.237 25.1865 189.244 25.0987 189.297 24.9368C189.358 24.7499 189.408 24.6545 189.436 24.6097C189.498 24.62 189.776 24.6854 190.047 24.5716C190.345 24.4459 190.527 24.1709 190.659 23.848C190.792 23.5223 190.847 23.2457 190.823 22.9857C190.799 22.7309 190.699 22.5375 190.649 22.431C190.598 22.3223 190.572 22.2572 190.565 22.1614C190.557 22.0579 190.57 21.8794 190.672 21.5687C190.698 21.4894 190.725 21.4132 190.751 21.3392C190.808 21.781 190.886 22.2562 190.99 22.7454C191.271 24.0739 191.746 25.5445 192.526 26.7396C193.258 27.8605 193.699 28.4544 193.959 28.7347C194.024 28.8055 194.093 28.8728 194.163 28.9251C194.198 28.9511 194.247 28.984 194.306 29.0101C194.361 29.0337 194.469 29.0715 194.604 29.053C194.766 29.0309 194.9 28.9375 194.979 28.8109C195.045 28.7054 195.058 28.6025 195.061 28.5501C195.063 28.5218 195.062 28.4942 195.06 28.4681L196.67 23.2923C197.054 23.6284 197.485 24.2686 197.485 25.3431C197.485 27.1836 197.797 29.1649 197.954 29.9339C197.99 30.1116 198.12 30.2561 198.293 30.3109C198.466 30.3656 198.655 30.322 198.787 30.1976L201.765 27.3909C201.897 27.2668 201.951 27.081 201.907 26.9056C201.863 26.7303 201.728 26.5927 201.553 26.5452C201.27 26.4679 200.911 26.2857 200.709 26.0296C200.615 25.9104 200.559 25.7821 200.549 25.638C200.538 25.4927 200.569 25.2905 200.716 25.0208C201.115 24.2878 201.489 24.0661 201.811 23.8841C201.974 23.7921 202.21 23.6688 202.401 23.4788C202.614 23.2673 202.755 22.9982 202.829 22.637C202.981 21.8921 202.634 21.4288 202.58 21.2786C202.542 21.1751 202.451 20.9226 203 19.9818C203.286 19.4908 203.52 19.0745 203.712 18.7288C203.763 18.9733 203.819 19.2258 203.881 19.4769C204.078 20.2856 204.341 21.1518 204.662 21.6751C205.089 22.3733 205.452 23.2522 205.65 23.7933C205.455 24.0183 205.275 24.352 205.275 24.7816C205.275 25.0606 205.274 26.0805 205.425 27.0023C205.498 27.455 205.617 27.9396 205.823 28.304C205.927 28.4887 206.074 28.6782 206.284 28.805C206.509 28.9413 206.771 28.9823 207.04 28.9163C207.509 28.8013 207.818 28.4633 208.024 28.1155C208.229 27.7697 208.372 27.3509 208.488 26.9593C208.615 26.5321 208.699 26.184 208.815 25.8196C208.928 25.4653 209.034 25.2293 209.141 25.098C209.271 24.9386 209.344 24.9157 209.361 24.9114C209.38 24.9067 209.421 24.9011 209.54 24.9407C209.6 24.9608 209.666 24.9866 209.751 25.0218C209.831 25.0551 209.93 25.0966 210.034 25.1341C210.247 25.2107 210.507 25.2815 210.815 25.2816C210.943 25.2816 211.086 25.2548 211.219 25.1722C211.355 25.0879 211.445 24.969 211.498 24.8489C211.593 24.6344 211.583 24.3954 211.563 24.221C211.521 23.8545 211.375 23.3739 211.237 22.9183C211.092 22.4385 210.942 21.9475 210.855 21.4915C210.765 21.022 210.759 20.6712 210.833 20.4466C210.926 20.162 211.045 19.986 211.163 19.8675C211.283 19.7472 211.422 19.6638 211.589 19.5911C211.673 19.5541 211.761 19.5221 211.858 19.4866C211.95 19.4529 212.059 19.414 212.161 19.3714C212.365 19.2863 212.614 19.1593 212.806 18.9232C213.047 18.6283 213.063 18.25 213.048 17.97C213.031 17.6747 212.966 17.3302 212.912 17.014C212.795 16.3348 212.709 15.6814 212.894 15.1136C213.103 14.474 213.485 13.6618 213.84 12.973C213.91 13.2504 213.984 13.5391 214.062 13.8216C214.271 14.5777 214.513 15.3622 214.729 15.7591C214.85 15.9808 214.808 16.2711 214.683 16.7659C214.63 16.9772 214.559 17.2457 214.541 17.4964C214.522 17.757 214.553 18.082 214.781 18.3616C214.958 18.5784 215.184 18.722 215.384 18.8265C215.568 18.9233 215.808 19.0245 215.958 19.095C216.321 19.266 216.468 19.3934 216.519 19.5804C216.554 19.7072 216.558 19.8482 216.537 20.0325C216.514 20.2328 216.471 20.421 216.423 20.6966C216.33 21.2238 216.261 21.8786 216.526 22.6917C216.729 23.3123 216.729 23.9964 216.76 24.6302C216.773 24.918 216.796 25.2427 216.883 25.4993C216.928 25.6338 217.005 25.793 217.146 25.9202C217.3 26.0586 217.49 26.1243 217.689 26.1243C218.009 26.1241 218.22 25.9143 218.33 25.7757C218.45 25.6234 218.548 25.4306 218.631 25.2396C218.798 24.854 218.956 24.3421 219.111 23.8421C219.27 23.328 219.429 22.8132 219.603 22.3743C219.725 22.0664 219.843 21.8368 219.947 21.68C219.95 21.6893 219.954 21.6985 219.958 21.7083C220.004 21.8452 220.049 22.003 220.1 22.1829C220.196 22.5167 220.319 22.9521 220.511 23.2806C220.61 23.4491 220.75 23.6326 220.955 23.7562C221.177 23.8904 221.435 23.9302 221.703 23.8646C222.344 23.7073 222.835 23.1802 223.168 22.7034C223.513 22.2082 223.762 21.6604 223.888 21.2982C223.937 21.1601 223.922 21.0075 223.848 20.8812C223.674 20.582 223.429 20.0716 223.272 19.5394C223.108 18.9819 223.077 18.517 223.192 18.2347C223.346 17.8571 223.598 17.7173 223.892 17.597C224.014 17.5473 224.247 17.4658 224.408 17.3675C224.502 17.3098 224.613 17.2246 224.699 17.096C224.79 16.9601 224.833 16.8049 224.833 16.6429C224.833 16.4735 224.782 16.3243 224.729 16.2103C224.676 16.0949 224.608 15.9854 224.544 15.89C224.394 15.668 224.284 15.5353 224.158 15.3294C224.045 15.1456 223.978 14.9869 223.959 14.8411C223.942 14.7101 223.959 14.5613 224.072 14.3773C224.544 13.6071 224.907 13.7686 224.831 13.7376C224.963 13.7917 225.114 13.7864 225.242 13.723C225.37 13.6595 225.465 13.5437 225.503 13.4056L225.904 11.929Z" fill="#A4C2A8" stroke="black" stroke-linejoin="round"/>
<path d="M229.831 47.476C232.116 75.2682 178.42 95 115 95C51.5804 95 -2.11623 74.035 0.168742 47.476C0.168745 47.285 0.171119 47.0942 0.176553 46.9037H229.823C229.829 47.0942 229.831 47.285 229.831 47.476Z" fill="#B5DDE0"/>
<path d="M146.155 54.46V55.5952H129.326V54.46H146.155Z" fill="#5B9494"/>
<path d="M77.5555 58.0029V59.1381H60.7266V58.0029H77.5555Z" fill="#5B9494"/>
<path d="M117.547 70.3352V71.4704H100.718V70.3352H117.547Z" fill="#5B9494"/>
<path d="M173.534 80.2011V81.3364H156.705V80.2011H173.534Z" fill="#5B9494"/>
</svg>
