<svg width="255" height="163" viewBox="0 0 255 163" fill="none" xmlns="http://www.w3.org/2000/svg">
<path d="M0.0108475 116.178C-0.725583 108.294 36.2187 107.595 54.7829 108.231H191.483C211.735 109.502 255 108.549 255 118.085C255 127.622 183.198 125.397 183.198 135.251C183.198 145.105 218.639 140.337 218.639 145.105C218.639 149.874 202.028 151.989 191.483 153.688C163.867 158.139 95.5934 162.907 54.7829 161.953C67.517 159.304 92.9852 152.226 92.9852 145.105C92.9852 136.205 21.6434 147.013 21.6434 138.112C21.6434 129.211 54.7829 134.615 54.7829 126.032C54.7829 117.449 0.931386 126.032 0.0108475 116.178Z" fill="#B5DDE0"/>
<path d="M95.7667 123.178V124.099H81.0381V123.178H95.7667Z" fill="#5B9494"/>
<path d="M134.665 130.742V131.662H119.937V130.742H134.665Z" fill="#5B9494"/>
<path d="M169.241 142.627V143.548H154.513V142.627H169.241Z" fill="#5B9494"/>
<path d="M124.941 148.03V148.95H110.212V148.03H124.941Z" fill="#5B9494"/>
<path d="M183.288 124.258V125.179H168.559V124.258H183.288Z" fill="#5B9494"/>
<path d="M71.7812 99.2578V45.1917L96.2681 14.6373L125.414 45.1917V99.2578H71.7812Z" fill="#916058"/>
<path d="M96.2448 14.096C96.4009 14.0893 96.5522 14.1504 96.66 14.2634L125.806 44.8178C125.902 44.9186 125.956 45.0525 125.956 45.1917V99.2578C125.956 99.557 125.713 99.7995 125.414 99.7995H71.7812C71.482 99.7995 71.2395 99.557 71.2395 99.2578V45.1917C71.2395 45.0686 71.2814 44.949 71.3584 44.8529L95.8453 14.2985L95.8842 14.2552C95.9797 14.1593 96.1082 14.1019 96.2448 14.096ZM72.323 45.382V98.7161H124.872V45.4084L96.3034 15.4593L72.323 45.382Z" fill="black"/>
<path d="M125.143 99.1495V44.5416H172.383V99.1495H125.143Z" fill="#8B5B53"/>
<path d="M172.383 43.9999C172.682 43.9999 172.925 44.2425 172.925 44.5417V99.1495C172.925 99.4487 172.682 99.6913 172.383 99.6913H125.143C124.844 99.6913 124.601 99.4487 124.601 99.1495V44.5417C124.601 44.2425 124.844 43.9999 125.143 43.9999H172.383ZM125.685 98.6078H171.841V45.0834H125.685V98.6078Z" fill="black"/>
<path d="M130.29 0.551941V11.7119H144.7V0.551941H130.29Z" fill="#8B5B53"/>
<path d="M144.7 0C145.005 0 145.252 0.246924 145.252 0.551964V11.7117C145.252 12.0167 145.005 12.2646 144.7 12.2646H130.29C129.985 12.2646 129.738 12.0167 129.738 11.7117V0.551964C129.738 0.246924 129.985 0 130.29 0H144.7ZM130.842 11.1597H144.148V1.10393H130.842V11.1597Z" fill="black"/>
<path d="M93.1804 63.2859V52.451H104.015V63.2859H93.1804Z" fill="#E2A453"/>
<path d="M104.015 51.9092C104.314 51.9092 104.557 52.1518 104.557 52.451V63.2859C104.557 63.5851 104.314 63.8276 104.015 63.8276H93.1804C92.8812 63.8276 92.6387 63.5851 92.6387 63.2859V52.451C92.6387 52.1518 92.8812 51.9092 93.1804 51.9092H104.015ZM93.7222 62.7441H103.474V52.9927H93.7222V62.7441Z" fill="black"/>
<path d="M93.1262 74.1209V63.286H103.961V74.1209H93.1262Z" fill="#E2A453"/>
<path d="M103.961 62.7441C104.26 62.7441 104.503 62.9867 104.503 63.2859V74.1208C104.503 74.42 104.26 74.6625 103.961 74.6625H93.126C92.8268 74.6625 92.5842 74.42 92.5842 74.1208V63.2859C92.5842 62.9867 92.8268 62.7441 93.126 62.7441H103.961ZM93.6677 73.579H103.419V63.8276H93.6677V73.579Z" fill="black"/>
<path d="M147.192 11.6035H93.9929L124.439 45.242H151.364H178.288L147.192 11.6035Z" fill="#8B5B53"/>
<path d="M147.192 11.0618C147.343 11.0618 147.487 11.1249 147.59 11.2358L178.686 44.8743C178.832 45.0324 178.87 45.262 178.784 45.4592C178.698 45.6563 178.503 45.7838 178.288 45.7838H124.438C124.285 45.7838 124.14 45.7191 124.037 45.6056L93.5908 11.9671C93.447 11.8083 93.4104 11.5797 93.4972 11.3839C93.5841 11.1881 93.7782 11.0618 93.9924 11.0618H147.192ZM124.679 44.7003H177.049L146.955 12.1453H95.2135L124.679 44.7003Z" fill="black"/>
<path d="M93.8844 11.7119L65.3887 45.3001H71.6729L96.7015 14.7457L93.8844 11.7119Z" fill="#8B5B53"/>
<path d="M93.8723 11.1704C94.0271 11.1669 94.176 11.2298 94.2814 11.3433L97.0985 14.377C97.2827 14.5755 97.2921 14.8794 97.1205 15.0889L72.0919 45.6433C71.989 45.7689 71.8353 45.8418 71.6729 45.8418H65.3887C65.1776 45.8418 64.9858 45.7192 64.8971 45.5277C64.8084 45.3362 64.839 45.1105 64.9756 44.9496L93.4713 11.3615L93.5109 11.3193C93.6081 11.2269 93.7369 11.1734 93.8723 11.1704ZM66.5587 44.7583H71.4164L95.9828 14.7679L93.9026 12.5277L66.5587 44.7583Z" fill="black"/>
<path d="M156.781 52.7761H142.045V95.0322H156.781V52.7761Z" fill="#916058"/>
<path d="M156.781 52.2344C157.08 52.2344 157.322 52.4769 157.322 52.7761V95.0322C157.322 95.3314 157.08 95.5739 156.781 95.5739H142.045C141.746 95.5739 141.503 95.3314 141.503 95.0322V52.7761C141.503 52.4769 141.746 52.2344 142.045 52.2344H156.781ZM142.587 94.4904H156.239V53.3179H142.587V94.4904Z" fill="black"/>
<path d="M156.402 53.2094V95.0321H154.209V56.4267H145.031V95.0321H142.533V53.2094H156.402Z" fill="#7D4E47"/>
<path d="M162.903 94.2737H138.199V99.9078H162.903V94.2737Z" fill="#9F9687"/>
<path d="M162.903 93.732C163.202 93.732 163.445 93.9745 163.445 94.2737V99.9079C163.445 100.207 163.202 100.45 162.903 100.45H138.199C137.9 100.45 137.657 100.207 137.657 99.9079V94.2737C137.657 93.9745 137.9 93.732 138.199 93.732H162.903ZM138.741 99.3661H162.361V94.8155H138.741V99.3661Z" fill="black"/>
<path d="M130.94 84.8474L130.938 84.8807C130.921 85.0446 130.783 85.1725 130.615 85.1725C130.446 85.1725 130.308 85.0446 130.291 84.8807L130.29 84.8474L130.29 48.0088C130.29 47.8293 130.435 47.6838 130.615 47.6838C130.794 47.6838 130.94 47.8293 130.94 48.0088L130.94 84.8474Z" fill="black"/>
<path d="M130.94 92.2151C130.94 92.3946 130.794 92.5401 130.615 92.5401C130.435 92.5401 130.29 92.3946 130.29 92.2151L130.29 86.7976C130.29 86.6181 130.435 86.4726 130.615 86.4726C130.794 86.4726 130.94 86.6181 130.94 86.7976L130.94 92.2151Z" fill="black"/>
<path d="M135.707 92.2151C135.707 92.3946 135.562 92.5402 135.382 92.5402C135.203 92.5402 135.057 92.3946 135.057 92.2151L135.057 52.3427C135.057 52.1632 135.203 52.0177 135.382 52.0177C135.562 52.0177 135.707 52.1632 135.707 52.3427L135.707 92.2151Z" fill="black"/>
<path d="M135.707 51.0425C135.707 51.222 135.562 51.3676 135.382 51.3676C135.203 51.3676 135.057 51.222 135.057 51.0425V47.5754C135.057 47.3958 135.203 47.2503 135.382 47.2503C135.562 47.2503 135.707 47.3958 135.707 47.5754V51.0425Z" fill="black"/>
<path d="M162.361 95.0322C162.361 95.2117 162.215 95.3572 162.036 95.3572C161.856 95.3572 161.711 95.2117 161.711 95.0322L161.711 47.3587C161.711 47.1792 161.856 47.0336 162.036 47.0336C162.215 47.0336 162.361 47.1792 162.361 47.3587L162.361 95.0322Z" fill="black"/>
<path d="M167.128 71.1954C167.128 71.3749 166.983 71.5204 166.803 71.5204C166.624 71.5204 166.478 71.3749 166.478 71.1954L166.478 49.0922C166.478 48.9127 166.624 48.7672 166.803 48.7672C166.983 48.7672 167.128 48.9127 167.128 49.0922L167.128 71.1954Z" fill="black"/>
<path d="M167.128 95.0322C167.128 95.2117 166.983 95.3572 166.803 95.3572C166.624 95.3572 166.478 95.2117 166.478 95.0322L166.478 72.929C166.478 72.7495 166.624 72.6039 166.803 72.6039C166.983 72.6039 167.128 72.7495 167.128 72.929L167.128 95.0322Z" fill="black"/>
<path d="M77.3069 64.4778L77.3052 64.5111C77.2885 64.675 77.1501 64.8029 76.9818 64.8029C76.8135 64.8029 76.6751 64.675 76.6585 64.5111L76.6568 64.4778L76.6568 45.1917C76.6568 45.0122 76.8023 44.8667 76.9818 44.8667C77.1614 44.8667 77.3069 45.0122 77.3069 45.1917L77.3069 64.4778Z" fill="black"/>
<path d="M77.4146 98.2826L77.4129 98.3159C77.3962 98.4798 77.2578 98.6077 77.0895 98.6077C76.9212 98.6077 76.7828 98.4798 76.7662 98.3159L76.7645 98.2826L76.7645 67.0782C76.7645 66.8986 76.91 66.7531 77.0895 66.7531C77.269 66.7531 77.4146 66.8986 77.4146 67.0782L77.4146 98.2826Z" fill="black"/>
<path d="M81.3159 71.8455C81.3159 72.025 81.1704 72.1705 80.9909 72.1705C80.8114 72.1705 80.6658 72.025 80.6658 71.8455V39.3408C80.6658 39.1613 80.8114 39.0157 80.9909 39.0157C81.1704 39.0157 81.3159 39.1613 81.3159 39.3408V71.8455Z" fill="black"/>
<path d="M81.3159 76.3962L81.3142 76.4294C81.2976 76.5933 81.1592 76.7212 80.9909 76.7212C80.8226 76.7212 80.6842 76.5933 80.6675 76.4294L80.6658 76.3962V74.0125C80.6658 73.833 80.8114 73.6874 80.9909 73.6874C81.1704 73.6874 81.3159 73.833 81.3159 74.0125V76.3962Z" fill="black"/>
<path d="M81.3159 98.2826C81.3159 98.4622 81.1704 98.6077 80.9909 98.6077C80.8114 98.6077 80.6658 98.4622 80.6658 98.2826V78.5631C80.6658 78.3836 80.8114 78.2381 80.9909 78.2381C81.1704 78.2381 81.3159 78.3836 81.3159 78.5631V98.2826Z" fill="black"/>
<path d="M85.6501 58.8436L85.6485 58.8769C85.6318 59.0408 85.4934 59.1687 85.3251 59.1687C85.1568 59.1687 85.0184 59.0408 85.0017 58.8769L85.0001 58.8436V31.9731C85.0001 31.7936 85.1456 31.6481 85.3251 31.6481C85.5046 31.6481 85.6501 31.7936 85.6501 31.9731V58.8436Z" fill="black"/>
<path d="M85.6501 98.9327L85.6485 98.9659C85.6318 99.1298 85.4934 99.2578 85.3251 99.2578C85.1568 99.2578 85.0184 99.1298 85.0017 98.9659L85.0001 98.9327V61.444C85.0001 61.2645 85.1456 61.119 85.3251 61.119C85.5046 61.119 85.6501 61.2645 85.6501 61.444V98.9327Z" fill="black"/>
<path d="M89.9836 84.1972C89.9836 84.3768 89.8381 84.5223 89.6586 84.5223C89.4791 84.5223 89.3335 84.3768 89.3335 84.1972L89.3335 28.9393C89.3335 28.7598 89.4791 28.6143 89.6586 28.6143C89.8381 28.6143 89.9836 28.7598 89.9836 28.9393L89.9836 84.1972Z" fill="black"/>
<path d="M89.9836 95.4656L89.9819 95.4988C89.9653 95.6627 89.8269 95.7906 89.6586 95.7906C89.4903 95.7906 89.3519 95.6627 89.3352 95.4988L89.3335 95.4656V85.9309C89.3335 85.7514 89.4791 85.6058 89.6586 85.6058C89.8381 85.6058 89.9836 85.7514 89.9836 85.9309V95.4656Z" fill="black"/>
<path d="M94.3176 48.1171C94.3176 48.2966 94.1721 48.4422 93.9926 48.4422C93.8131 48.4422 93.6675 48.2966 93.6675 48.1171V23.0885C93.6675 22.909 93.8131 22.7635 93.9926 22.7635C94.1721 22.7635 94.3176 22.909 94.3176 23.0885V48.1171Z" fill="black"/>
<path d="M94.3176 93.732C94.3176 93.9115 94.1721 94.057 93.9926 94.057C93.8131 94.057 93.6675 93.9115 93.6675 93.732V77.0462C93.6675 76.8667 93.8131 76.7212 93.9926 76.7212C94.1721 76.7212 94.3176 76.8667 94.3176 77.0462V93.732Z" fill="black"/>
<path d="M98.6519 49.0923L98.6502 49.1255C98.6335 49.2894 98.4951 49.4173 98.3268 49.4173C98.1585 49.4173 98.0201 49.2894 98.0035 49.1255L98.0018 49.0923L98.0018 20.2715C98.0018 20.0919 98.1473 19.9464 98.3268 19.9464C98.5063 19.9464 98.6519 20.0919 98.6519 20.2715L98.6519 49.0923Z" fill="black"/>
<path d="M98.6519 94.1655L98.6502 94.1987C98.6335 94.3626 98.4951 94.4905 98.3268 94.4905C98.1585 94.4905 98.0201 94.3626 98.0035 94.1987L98.0018 94.1655L98.0018 77.6964C98.0018 77.5169 98.1473 77.3714 98.3268 77.3714C98.5063 77.3714 98.6519 77.5169 98.6519 77.6964L98.6519 94.1655Z" fill="black"/>
<path d="M102.986 37.3906C102.986 37.5701 102.84 37.7156 102.661 37.7156C102.481 37.7156 102.336 37.5701 102.336 37.3906L102.336 25.2555C102.336 25.076 102.481 24.9305 102.661 24.9305C102.84 24.9305 102.986 25.076 102.986 25.2555L102.986 37.3906Z" fill="black"/>
<path d="M102.986 52.3427C102.986 52.5222 102.84 52.6677 102.661 52.6677C102.481 52.6677 102.336 52.5222 102.336 52.3427L102.336 40.2076C102.336 40.0281 102.481 39.8826 102.661 39.8826C102.84 39.8826 102.986 40.0281 102.986 40.2076L102.986 52.3427Z" fill="black"/>
<path d="M102.986 88.748C102.986 88.9275 102.84 89.0731 102.661 89.0731C102.481 89.0731 102.336 88.9275 102.336 88.748L102.336 76.6129C102.336 76.4334 102.481 76.2879 102.661 76.2879C102.84 76.2879 102.986 76.4334 102.986 76.6129L102.986 88.748Z" fill="black"/>
<path d="M107.32 48.0088C107.32 48.1883 107.174 48.3338 106.995 48.3338C106.815 48.3338 106.669 48.1883 106.669 48.0088L106.669 30.6729C106.669 30.4934 106.815 30.3479 106.995 30.3479C107.174 30.3479 107.32 30.4934 107.32 30.6729L107.32 48.0088Z" fill="black"/>
<path d="M107.32 53.6429L107.318 53.6761C107.301 53.84 107.163 53.9679 106.995 53.9679C106.826 53.9679 106.688 53.84 106.671 53.6761L106.669 53.6429L106.669 49.7423C106.669 49.5628 106.815 49.4173 106.995 49.4173C107.174 49.4173 107.32 49.5628 107.32 49.7423L107.32 53.6429Z" fill="black"/>
<path d="M107.32 59.7104L107.318 59.7436C107.301 59.9075 107.163 60.0355 106.995 60.0355C106.826 60.0355 106.688 59.9075 106.671 59.7436L106.669 59.7104L106.669 55.8098C106.669 55.6303 106.815 55.4848 106.995 55.4848C107.174 55.4848 107.32 55.6303 107.32 55.8098L107.32 59.7104Z" fill="black"/>
<path d="M107.32 85.9309C107.32 86.1104 107.174 86.2559 106.995 86.2559C106.815 86.2559 106.669 86.1104 106.669 85.9309L106.669 61.6607C106.669 61.4812 106.815 61.3357 106.995 61.3357C107.174 61.3357 107.32 61.4812 107.32 61.6607L107.32 85.9309Z" fill="black"/>
<path d="M107.32 98.2826L107.318 98.3158C107.301 98.4797 107.163 98.6076 106.995 98.6076C106.826 98.6076 106.688 98.4797 106.671 98.3158L106.669 98.2826V87.6644C106.669 87.4849 106.815 87.3394 106.995 87.3394C107.174 87.3394 107.32 87.4849 107.32 87.6644V98.2826Z" fill="black"/>
<path d="M111.654 68.595C111.654 68.7745 111.508 68.9201 111.329 68.9201C111.149 68.9201 111.003 68.7745 111.003 68.595V36.0904C111.003 35.9108 111.149 35.7653 111.329 35.7653C111.508 35.7653 111.654 35.9108 111.654 36.0904V68.595Z" fill="black"/>
<path d="M111.654 98.2826C111.654 98.4621 111.508 98.6076 111.329 98.6076C111.149 98.6076 111.003 98.4621 111.003 98.2826L111.003 70.3286C111.003 70.1491 111.149 70.0035 111.329 70.0035C111.508 70.0035 111.654 70.1491 111.654 70.3286L111.654 98.2826Z" fill="black"/>
<path d="M115.988 96.9824C115.988 97.1619 115.842 97.3074 115.663 97.3074C115.483 97.3074 115.338 97.1619 115.338 96.9824L115.338 40.641C115.338 40.4614 115.483 40.3159 115.663 40.3159C115.842 40.3159 115.988 40.4614 115.988 40.641L115.988 96.9824Z" fill="black"/>
<path d="M120.322 82.0304L120.32 82.0636C120.303 82.2275 120.165 82.3554 119.996 82.3554C119.828 82.3554 119.69 82.2275 119.673 82.0636L119.671 82.0304L119.671 45.1917C119.671 45.0122 119.817 44.8667 119.996 44.8667C120.176 44.8667 120.322 45.0122 120.322 45.1917L120.322 82.0304Z" fill="black"/>
<path d="M120.322 97.6325C120.322 97.8121 120.176 97.9576 119.996 97.9576C119.817 97.9576 119.671 97.8121 119.671 97.6325L119.671 90.6982C119.671 90.5187 119.817 90.3732 119.996 90.3732C120.176 90.3732 120.322 90.5187 120.322 90.6982L120.322 97.6325Z" fill="black"/>
<path d="M120.322 88.748C120.322 88.9275 120.176 89.073 119.996 89.073C119.817 89.073 119.671 88.9275 119.671 88.748V83.764C119.671 83.5844 119.817 83.4389 119.996 83.4389C120.176 83.4389 120.322 83.5844 120.322 83.764V88.748Z" fill="black"/>
<path d="M146.434 15.9375C146.613 15.9375 146.759 16.083 146.759 16.2625C146.759 16.4421 146.613 16.5876 146.434 16.5876H103.961C103.782 16.5876 103.636 16.4421 103.636 16.2625C103.636 16.083 103.782 15.9375 103.961 15.9375H146.434Z" fill="black"/>
<path d="M144.7 20.0547C144.879 20.0547 145.025 20.2003 145.025 20.3798C145.025 20.5593 144.879 20.7048 144.7 20.7048H108.078C107.898 20.7048 107.753 20.5593 107.753 20.3798C107.753 20.2003 107.898 20.0547 108.078 20.0547H144.7Z" fill="black"/>
<path d="M150.768 19.9464L150.801 19.9481C150.965 19.9647 151.093 20.1032 151.093 20.2715C151.093 20.4398 150.965 20.5782 150.801 20.5948L150.768 20.5965H146.434C146.254 20.5965 146.109 20.451 146.109 20.2715C146.109 20.0919 146.254 19.9464 146.434 19.9464H150.768Z" fill="black"/>
<path d="M119.346 24.172C119.526 24.172 119.672 24.3175 119.672 24.497C119.672 24.6766 119.526 24.8221 119.346 24.8221H110.679C110.499 24.8221 110.354 24.6766 110.354 24.497C110.354 24.3175 110.499 24.172 110.679 24.172H119.346Z" fill="black"/>
<path d="M153.802 24.172C153.981 24.172 154.127 24.3175 154.127 24.497C154.127 24.6766 153.981 24.8221 153.802 24.8221H121.08C120.901 24.8221 120.755 24.6766 120.755 24.497C120.755 24.3175 120.901 24.172 121.08 24.172H153.802Z" fill="black"/>
<path d="M158.786 28.2893C158.965 28.2893 159.111 28.4348 159.111 28.6144C159.111 28.7939 158.965 28.9394 158.786 28.9394L139.066 28.9394C138.886 28.9394 138.741 28.7939 138.741 28.6144C138.741 28.4348 138.886 28.2893 139.066 28.2893L158.786 28.2893Z" fill="black"/>
<path d="M136.899 28.2893C137.079 28.2893 137.224 28.4348 137.224 28.6144C137.224 28.7939 137.079 28.9394 136.899 28.9394L113.496 28.9394C113.316 28.9394 113.171 28.7939 113.171 28.6144C113.171 28.4348 113.316 28.2893 113.496 28.2893L136.899 28.2893Z" fill="black"/>
<path d="M121.73 32.4066C121.91 32.4066 122.055 32.5521 122.055 32.7317C122.055 32.9112 121.91 33.0567 121.73 33.0567H117.829C117.65 33.0567 117.504 32.9112 117.504 32.7317C117.504 32.5521 117.65 32.4066 117.829 32.4066H121.73Z" fill="black"/>
<path d="M127.148 32.4066C127.327 32.4066 127.473 32.5521 127.473 32.7317C127.473 32.9112 127.327 33.0567 127.148 33.0567H123.247C123.068 33.0567 122.922 32.9112 122.922 32.7317C122.922 32.5521 123.068 32.4066 123.247 32.4066H127.148Z" fill="black"/>
<path d="M162.036 32.4066L162.069 32.4083C162.233 32.425 162.361 32.5634 162.361 32.7317C162.361 32.9 162.233 33.0384 162.069 33.055L162.036 33.0567H128.664C128.485 33.0567 128.339 32.9112 128.339 32.7317C128.339 32.5521 128.485 32.4066 128.664 32.4066H162.036Z" fill="black"/>
<path d="M167.67 36.4155L167.704 36.4172C167.868 36.4338 167.995 36.5722 167.995 36.7405C167.995 36.9088 167.868 37.0472 167.704 37.0639L167.67 37.0656L121.08 37.0656C120.901 37.0656 120.755 36.92 120.755 36.7405C120.755 36.561 120.901 36.4155 121.08 36.4155L167.67 36.4155Z" fill="black"/>
<path d="M170.054 40.6411L170.087 40.6427C170.251 40.6594 170.379 40.7978 170.379 40.9661C170.379 41.1344 170.251 41.2728 170.087 41.2895L170.054 41.2911L155.535 41.2911C155.355 41.2911 155.21 41.1456 155.21 40.9661C155.21 40.7866 155.355 40.6411 155.535 40.6411L170.054 40.6411Z" fill="black"/>
<path d="M153.801 40.6411L153.834 40.6427C153.998 40.6594 154.126 40.7978 154.126 40.9661C154.126 41.1344 153.998 41.2728 153.834 41.2895L153.801 41.2911H125.197C125.018 41.2911 124.872 41.1456 124.872 40.9661C124.872 40.7866 125.018 40.6411 125.197 40.6411H153.801Z" fill="black"/>
<path d="M28.7669 111.068C26.5999 112.801 24.3968 114.318 23.5662 114.86C78.1018 114.752 189.275 114.535 197.683 114.535C208.193 114.535 214.043 116.919 220.436 116.919C225.55 116.919 236.941 115.33 241.997 114.535C240.878 114.246 237.729 113.495 234.088 112.801C229.537 111.935 230.187 109.984 226.937 108.251C223.687 106.517 223.036 108.684 220.436 107.384C217.836 106.084 220.328 104.459 217.836 102.833C215.344 101.208 213.393 103.158 211.335 102.833C209.276 102.508 209.168 98.9328 207.326 97.8493C205.484 96.7658 205.159 100.558 202.884 98.9328C200.608 97.3075 200.608 92.9736 197.683 91.6734C194.757 90.3732 191.182 93.9487 187.173 91.6734C183.164 89.3981 180.13 80.7302 175.58 82.1387C171.029 83.5472 172.004 90.1565 170.162 91.6734C168.32 93.1903 165.395 91.6734 162.253 93.9487C159.111 96.2241 162.794 98.4994 155.86 98.9328C148.926 99.3662 146.867 93.9487 142.1 91.6734C137.332 89.3981 133.107 90.1565 129.315 90.1565C125.522 90.1565 123.139 95.1406 119.672 95.1406C116.204 95.1406 116.096 93.9487 112.737 93.9487C109.378 93.9487 109.704 95.4656 106.778 95.1406C103.853 94.8155 103.961 85.4975 100.711 84.9558C97.4601 84.414 98.5436 90.1565 97.135 90.1565C95.7265 90.1565 95.1848 86.6894 93.3428 87.8812C91.5009 89.073 93.5595 93.9487 91.6092 93.9487C89.659 93.9487 88.5755 92.1068 84.7833 92.5402C80.9911 92.9736 81.2078 96.8741 77.6322 96.8741C74.0567 96.8741 74.3818 91.6734 72.4315 90.1565C70.4812 88.6396 69.3977 89.7231 67.0141 90.1565C64.6304 90.5899 59.2129 85.4975 56.2875 87.8812C53.3621 90.2649 58.2378 91.6734 56.2875 93.9487C54.3372 96.2241 49.6782 92.5402 47.8363 93.9487C45.9944 95.3573 49.4615 98.7161 47.8363 98.7161C46.2111 98.7161 44.4775 98.066 42.5272 98.7161C40.5769 99.3662 41.8771 104.892 39.7101 106.301C37.5432 107.709 31.4756 108.901 28.7669 111.068Z" fill="#A4C2A8"/>
<path d="M175.419 81.6211C176.754 81.208 177.964 81.5501 179.045 82.2618C180.107 82.9615 181.083 84.0414 182.002 85.1851C182.464 85.7606 182.922 86.3649 183.374 86.9566C183.827 87.551 184.275 88.1341 184.727 88.6802C185.639 89.7813 186.528 90.6847 187.44 91.2023C189.25 92.2295 190.964 91.955 192.701 91.514C193.548 91.2989 194.446 91.0308 195.293 90.9086C196.157 90.7839 197.043 90.7962 197.903 91.1784C199.576 91.922 200.377 93.5228 201.021 94.9594C201.356 95.7046 201.645 96.4037 201.995 97.0316C202.342 97.6529 202.722 98.1513 203.198 98.4919C203.675 98.8322 203.952 98.8273 204.128 98.7764C204.354 98.7106 204.577 98.5253 204.88 98.2154C205.14 97.9493 205.499 97.5423 205.915 97.3147C206.142 97.1906 206.406 97.1046 206.709 97.1097C207.01 97.1147 207.307 97.2094 207.601 97.3822C208.17 97.7174 208.579 98.2288 208.902 98.7567C209.222 99.2797 209.489 99.8756 209.737 100.391C209.995 100.927 210.235 101.383 210.517 101.725C210.789 102.055 211.073 102.243 211.419 102.298C211.838 102.364 212.271 102.318 212.753 102.213C212.994 102.16 213.239 102.095 213.498 102.025C213.754 101.956 214.025 101.882 214.301 101.818C215.428 101.558 216.711 101.453 218.132 102.38C218.829 102.834 219.225 103.323 219.432 103.849C219.631 104.356 219.63 104.851 219.637 105.221C219.644 105.619 219.659 105.881 219.773 106.121C219.877 106.341 220.101 106.611 220.678 106.899C221.26 107.19 221.709 107.277 222.099 107.282C222.51 107.288 222.872 107.208 223.346 107.122C223.807 107.038 224.337 106.959 224.974 107.028C225.613 107.098 226.33 107.313 227.192 107.773C228.91 108.689 229.642 109.703 230.408 110.468C230.789 110.85 231.193 111.19 231.76 111.489C232.332 111.79 233.09 112.06 234.189 112.269C237.842 112.965 241.002 113.719 242.133 114.01C242.382 114.075 242.551 114.305 242.539 114.561C242.526 114.818 242.335 115.03 242.081 115.07C237.036 115.863 225.6 117.46 220.436 117.46C217.183 117.46 214.067 116.853 210.514 116.261C206.95 115.667 202.894 115.077 197.683 115.077C189.276 115.077 78.1034 115.293 23.5672 115.402C23.3273 115.402 23.1157 115.245 23.0471 115.015C22.9785 114.785 23.0693 114.537 23.2703 114.406C24.0891 113.872 26.2775 112.366 28.4285 110.645C29.8675 109.494 32.1535 108.627 34.2627 107.888C35.3373 107.512 36.3681 107.169 37.2767 106.828C38.1899 106.485 38.9268 106.164 39.4149 105.846C39.7967 105.598 40.0715 105.138 40.2705 104.46C40.4685 103.786 40.566 102.99 40.6618 102.162C40.7545 101.36 40.8471 100.51 41.0495 99.8241C41.248 99.1509 41.6042 98.4526 42.3558 98.202C43.4324 97.8432 44.4386 97.8484 45.3534 97.9328C45.8033 97.9744 46.2537 98.0377 46.6601 98.0867C47.0282 98.131 47.3731 98.1652 47.7055 98.1726C47.676 98.0712 47.6294 97.9436 47.5642 97.7856C47.4727 97.564 47.3732 97.3464 47.2567 97.0733C47.0403 96.5661 46.7961 95.941 46.7477 95.3306C46.6969 94.688 46.8625 94.0113 47.5072 93.5183C48.1514 93.0257 48.9814 93.022 49.7419 93.139C50.5109 93.2573 51.3767 93.5298 52.1679 93.7521C52.9896 93.983 53.7479 94.1658 54.4058 94.1688C55.0448 94.1717 55.5248 94.0061 55.8761 93.5961C56.0739 93.3655 56.163 93.1723 56.1991 93.0129C56.2348 92.855 56.2261 92.6965 56.1773 92.5222C56.0688 92.1351 55.8007 91.7614 55.4681 91.2514C55.17 90.7943 54.8065 90.205 54.7861 89.5312C54.764 88.8018 55.136 88.1205 55.9453 87.4611C56.8316 86.739 57.8888 86.6069 58.9385 86.7556C59.9763 86.9025 61.0613 87.3302 62.0789 87.7946C63.1413 88.2794 64.0613 88.7683 64.9565 89.1502C65.3886 89.3346 65.7763 89.476 66.117 89.5591C66.4614 89.643 66.7234 89.6586 66.9171 89.6234C67.4818 89.5207 67.9723 89.3793 68.4376 89.241C68.8924 89.1059 69.3492 88.9653 69.7962 88.8908C70.2555 88.8142 70.7269 88.8026 71.2308 88.9306C71.7324 89.058 72.2324 89.3152 72.7642 89.7288C73.3662 90.1971 73.7557 90.9162 74.0622 91.6332C74.2184 91.9984 74.3612 92.3842 74.4999 92.7619C74.6401 93.144 74.776 93.5178 74.9237 93.8791C75.222 94.6081 75.5454 95.2245 75.9717 95.6579C76.3781 96.0712 76.8912 96.3324 77.6322 96.3324C78.415 96.3324 78.9652 96.1226 79.4179 95.8114C79.8899 95.4869 80.2721 95.0433 80.7121 94.5207C81.5783 93.4921 82.594 92.2452 84.7217 92.002C86.7285 91.7727 88.0402 92.1482 89.0929 92.5808C89.3491 92.6861 89.5906 92.795 89.8126 92.8938C90.0381 92.9941 90.2439 93.0843 90.4462 93.1615C90.8465 93.3141 91.2113 93.407 91.6093 93.407C91.728 93.407 91.7636 93.3754 91.7826 93.3562C91.8178 93.3205 91.8724 93.2349 91.9161 93.0461C92.0069 92.6537 91.9962 92.087 91.9751 91.378C91.9553 90.7086 91.9281 89.9331 92.0338 89.2493C92.1388 88.5691 92.3938 87.85 93.0485 87.4264C93.6427 87.0419 94.2209 86.995 94.7465 87.2444C95.2093 87.464 95.5621 87.8855 95.8338 88.2456C96.1397 88.6509 96.3514 88.9856 96.6087 89.2696C96.8387 89.5234 96.9933 89.6017 97.1054 89.6131C97.109 89.6085 97.1139 89.6031 97.1192 89.5957C97.1742 89.5188 97.2399 89.371 97.309 89.1225C97.3758 88.882 97.4333 88.5951 97.4961 88.2665C97.5574 87.9453 97.6233 87.5866 97.7039 87.2328C97.8616 86.54 98.0959 85.7639 98.559 85.197C98.7985 84.9038 99.1046 84.6595 99.4935 84.5156C99.8815 84.372 100.318 84.3411 100.8 84.4214C101.879 84.6014 102.59 85.4936 103.1 86.4815C103.619 87.4878 104.015 88.7628 104.384 89.9711C104.762 91.2066 105.111 92.3705 105.54 93.251C105.985 94.1639 106.413 94.5549 106.838 94.6022C107.523 94.6783 107.99 94.6436 108.353 94.5626C108.72 94.4809 109.009 94.3472 109.36 94.1783C109.709 94.0106 110.115 93.8108 110.654 93.6592C111.196 93.5068 111.855 93.407 112.737 93.407C114.503 93.407 115.434 93.7257 116.338 94.0314C117.191 94.3202 118.021 94.5988 119.672 94.5988C120.404 94.5988 121.104 94.3367 121.827 93.8985C122.556 93.4564 123.264 92.8626 124.025 92.2314C125.497 91.0121 127.19 89.6147 129.315 89.6147C133.005 89.6147 137.421 88.8402 142.333 91.1845C143.586 91.7824 144.649 92.5814 145.636 93.4148C146.652 94.2733 147.513 95.1002 148.506 95.896C150.42 97.4297 152.539 98.5975 155.826 98.3921C157.542 98.2848 158.531 98.0658 159.118 97.7983C159.66 97.5509 159.85 97.2676 159.971 96.942C160.236 96.2318 160.187 94.7757 161.935 93.51C163.632 92.2814 165.274 92.083 166.657 91.9861C167.361 91.9369 167.95 91.9155 168.494 91.816C169.02 91.7195 169.452 91.5567 169.818 91.2552C170.133 90.9954 170.384 90.4559 170.624 89.5961C170.739 89.1825 170.845 88.7281 170.958 88.2388C171.071 87.754 171.191 87.2383 171.333 86.7217C171.895 84.6789 172.856 82.4145 175.419 81.6211ZM178.449 83.1667C177.556 82.5783 176.681 82.3649 175.74 82.6561C173.753 83.2712 172.926 85.0159 172.377 87.0091C172.242 87.5014 172.127 87.9965 172.014 88.4839C171.902 88.9667 171.791 89.446 171.668 89.8873C171.43 90.7374 171.112 91.5929 170.506 92.0915C169.952 92.5485 169.327 92.7649 168.689 92.8817C168.067 92.9955 167.383 93.0216 166.733 93.0671C165.407 93.1599 164.016 93.3407 162.57 94.3874C161.176 95.397 161.398 96.2162 160.986 97.3208C160.769 97.9027 160.383 98.4117 159.567 98.784C158.796 99.1361 157.645 99.364 155.894 99.4734C152.247 99.7014 149.869 98.3771 147.829 96.7416C146.844 95.9529 145.864 95.0259 144.936 94.2422C143.979 93.4334 142.997 92.702 141.866 92.1622C137.244 89.9559 133.209 90.6982 129.315 90.6982C127.647 90.6982 126.253 91.7929 124.717 93.0656C123.975 93.6805 123.2 94.3327 122.389 94.825C121.571 95.3214 120.673 95.6823 119.672 95.6823C117.855 95.6823 116.898 95.365 115.99 95.0578C115.133 94.7676 114.331 94.4904 112.737 94.4904C111.94 94.4904 111.381 94.5802 110.947 94.7021C110.511 94.8247 110.185 94.9839 109.83 95.1547C109.477 95.3244 109.089 95.5089 108.589 95.6203C108.086 95.7323 107.496 95.7653 106.718 95.6789C105.681 95.5636 105.025 94.6679 104.566 93.7254C104.091 92.7505 103.716 91.4901 103.348 90.2877C102.972 89.0582 102.603 87.8818 102.137 86.9784C101.661 86.0566 101.167 85.581 100.621 85.4901C100.291 85.435 100.05 85.465 99.8694 85.5318C99.6899 85.5982 99.5363 85.7135 99.3983 85.8824C99.1064 86.2398 98.914 86.7981 98.7603 87.4732C98.6851 87.8033 98.624 88.1371 98.5605 88.4697C98.4984 88.7949 98.4331 89.1235 98.3527 89.4129C98.2745 89.6942 98.1684 89.9909 98.0004 90.2259C97.8188 90.4798 97.5341 90.6982 97.135 90.6982C96.545 90.6982 96.1102 90.333 95.8059 89.9971C95.5079 89.6683 95.205 89.2107 94.9691 88.8982C94.6991 88.5405 94.483 88.3187 94.2822 88.2233C94.1442 88.1579 93.9639 88.1246 93.6372 88.3359C93.3709 88.5082 93.1925 88.8455 93.1045 89.4148C93.0172 89.9803 93.0375 90.6473 93.0582 91.3458C93.0778 92.0046 93.101 92.7313 92.9716 93.2904C92.9053 93.5773 92.7864 93.8819 92.5537 94.1176C92.3048 94.3696 91.978 94.4904 91.6093 94.4904C91.032 94.4904 90.53 94.353 90.0602 94.1739C89.8274 94.0851 89.5973 93.984 89.372 93.8837C89.1433 93.7819 88.9192 93.6809 88.6811 93.583C87.7564 93.203 86.6302 92.8743 84.8449 93.0783C83.1804 93.2685 82.4083 94.1886 81.5408 95.2186C81.1141 95.7253 80.643 96.284 80.0316 96.7044C79.4008 97.138 78.6372 97.4159 77.6322 97.4159C76.5856 97.4159 75.7985 97.027 75.1993 96.4177C74.62 95.8286 74.2323 95.0499 73.9211 94.2892C73.7641 93.9056 73.6206 93.5107 73.4828 93.1352C73.3434 92.7554 73.2094 92.3946 73.0659 92.0589C72.7732 91.3742 72.4719 90.8744 72.0988 90.5842C71.6555 90.2394 71.2887 90.0631 70.9641 89.9806C70.6419 89.8988 70.3277 89.9006 69.9744 89.9595C69.6088 90.0204 69.2258 90.1371 68.7462 90.2797C68.277 90.4191 67.7381 90.5755 67.111 90.6896C66.7088 90.7627 66.2801 90.7139 65.8605 90.6117C65.4373 90.5085 64.9878 90.3418 64.5311 90.147C63.6487 89.7705 62.5846 89.2164 61.629 88.7803C60.6286 88.3238 59.6618 87.9524 58.7865 87.8285C57.9232 87.7062 57.2062 87.8315 56.6297 88.3012C55.9765 88.8335 55.8608 89.2221 55.8691 89.4984C55.8792 89.8301 56.0642 90.1823 56.3756 90.6597C56.6524 91.0843 57.0548 91.6383 57.2205 92.2297C57.3088 92.5446 57.3382 92.8882 57.2559 93.252C57.1739 93.6146 56.9887 93.9631 56.6989 94.3013C56.0752 95.029 55.2413 95.2561 54.4007 95.2523C53.5791 95.2485 52.6917 95.025 51.8746 94.7954C51.0272 94.5573 50.2609 94.315 49.5773 94.2098C48.8853 94.1034 48.4422 94.1675 48.1654 94.3791C47.8892 94.5904 47.7975 94.8617 47.8278 95.2451C47.8608 95.6605 48.0364 96.1393 48.2534 96.6479C48.3536 96.8826 48.4741 97.1509 48.5655 97.3725C48.6587 97.5983 48.7492 97.8394 48.7941 98.0626C48.8348 98.2649 48.868 98.5905 48.6754 98.8737C48.4625 99.1867 48.113 99.2578 47.8363 99.2578C47.3964 99.2578 46.9572 99.214 46.5306 99.1626C46.094 99.11 45.6843 99.0514 45.2539 99.0117C44.4081 98.9336 43.5723 98.9389 42.6986 99.2301C42.4751 99.3046 42.2625 99.5408 42.0885 100.131C41.9185 100.707 41.8349 101.449 41.7381 102.286C41.6443 103.097 41.5386 103.987 41.31 104.765C41.0824 105.54 40.707 106.298 40.0054 106.755C39.41 107.142 38.5758 107.497 37.6572 107.842C36.7342 108.188 35.6723 108.543 34.6207 108.911C32.4772 109.662 30.375 110.475 29.1053 111.491C27.7461 112.578 26.3733 113.58 25.3275 114.315C80.4576 114.205 189.364 113.993 197.683 113.993C202.981 113.993 207.105 114.595 210.692 115.192C214.291 115.792 217.296 116.377 220.436 116.377C224.718 116.377 233.493 115.246 239.164 114.415C237.738 114.092 235.933 113.704 233.987 113.334C232.81 113.11 231.944 112.81 231.255 112.448C230.563 112.083 230.073 111.665 229.642 111.234C228.782 110.375 228.214 109.546 226.682 108.729C225.919 108.322 225.335 108.158 224.857 108.105C224.377 108.053 223.972 108.109 223.54 108.188C223.12 108.264 222.628 108.374 222.084 108.366C221.52 108.358 220.912 108.228 220.194 107.869C219.471 107.507 219.031 107.086 218.794 106.585C218.566 106.104 218.56 105.614 218.553 105.24C218.546 104.838 218.539 104.541 218.423 104.245C218.315 103.969 218.089 103.645 217.54 103.287C216.468 102.588 215.53 102.646 214.545 102.874C214.292 102.932 214.042 103 213.78 103.071C213.523 103.14 213.254 103.212 212.984 103.271C212.444 103.389 211.86 103.465 211.25 103.368C210.567 103.261 210.066 102.881 209.681 102.415C209.306 101.96 209.017 101.394 208.761 100.861C208.494 100.306 208.26 99.7844 207.978 99.3221C207.698 98.8647 207.402 98.5229 207.051 98.3163C206.885 98.2183 206.769 98.1944 206.69 98.1931C206.613 98.1919 206.533 98.2117 206.434 98.2653C206.201 98.3932 205.99 98.6295 205.654 98.973C205.362 99.2725 204.961 99.6628 204.429 99.8171C203.847 99.9861 203.23 99.8458 202.569 99.3736C201.908 98.9015 201.434 98.2487 201.049 97.5598C200.669 96.8773 200.348 96.1069 200.033 95.4029C199.377 93.9412 198.715 92.725 197.463 92.1683C196.86 91.9005 196.202 91.8721 195.448 91.9811C194.676 92.0925 193.881 92.3323 192.967 92.5641C191.183 93.017 189.104 93.3925 186.905 92.1444C185.813 91.5244 184.82 90.491 183.893 89.371C183.426 88.8065 182.966 88.2079 182.512 87.6139C182.057 87.0171 181.609 86.4262 181.157 85.864C180.248 84.7324 179.361 83.7672 178.449 83.1667Z" fill="black"/>
</svg>
