<svg width="113" height="101" viewBox="0 0 113 101" fill="none" xmlns="http://www.w3.org/2000/svg">
<path d="M87.6563 1C91.2815 1.00007 94.1107 4.1366 93.7121 7.73975C90.125 40.1552 84.8164 74.7048 81.8489 92.5012C81.3596 95.4343 78.817 97.5673 75.8433 97.5673H18.9051C15.9316 97.5671 13.39 95.4341 12.9007 92.5012C9.93318 74.7048 4.62465 40.1552 1.03751 7.73975C0.638929 4.13655 3.46803 1 7.09326 1H87.6563Z" fill="#B5DDE0" fill-opacity="0.6" stroke="black"/>
<path d="M87.9595 1.62C89.1209 1.68289 90.1795 2.10444 91.0327 2.77039C87.3519 34.5556 78.4773 67.7204 75.7612 85.1024C74.9531 90.8438 74.9532 90.2333 70.064 90.2333H24.8364C19.947 90.2333 19.9463 90.8438 19.1382 85.1024C16.4192 67.7013 7.52743 34.4829 3.854 2.66589C4.7577 2.0049 5.87468 1.61141 7.09229 1.61121H87.6558L87.9595 1.62Z" fill="#F5F5F5" fill-opacity="0.49"/>
<path d="M85.6411 36.4487C81.8149 56.1573 77.5109 73.9046 75.7612 85.1021C74.9531 90.8434 74.9532 90.2329 70.064 90.2329H24.8364C19.9471 90.2329 19.9463 90.8434 19.1382 85.1021C17.3885 73.9045 13.0847 56.1572 9.2583 36.4487H85.6411Z" fill="#5C797B"/>
<path d="M91.978 89.4085C87.031 85.617 84.0408 84.9864 83.638 84.5267C84.9616 86.3466 88.2645 90.5493 90.8878 92.8014C93.511 95.0536 98.1537 96.4573 100.147 96.8777C99.0731 95.6518 95.9356 92.4417 91.978 89.4085Z" fill="#A4C2A8"/>
<path d="M96.7634 88.3787C92.8259 88.3363 89.2092 86.5578 87.893 85.6739C89.7771 87.5153 94.6163 91.3074 98.9 91.7449C103.184 92.1823 106.436 89.2166 107.526 87.679C105.579 87.9299 100.701 88.421 96.7634 88.3787Z" fill="#A4C2A8"/>
<path d="M103.466 72.8424C98.1774 74.2257 90.7651 81.5323 90.3054 81.9351C92.8155 81.0902 98.2386 79.8603 101.343 78.7658C104.031 77.8176 109.715 74.4099 112.148 72.5493C111.017 72.1859 107.697 71.7357 103.466 72.8424Z" fill="#A4C2A8"/>
<path d="M93.0025 73.8841C90.4281 76.1396 85.7625 80.769 83.7514 82.8018C86.4527 81.2477 92.4989 77.5756 95.0732 75.3202C97.6476 73.0647 101.394 69.2407 102.945 67.6107C100.704 68.7621 95.5768 71.6286 93.0025 73.8841Z" fill="#A4C2A8"/>
<path d="M79.7196 71.7077C77.1452 73.9632 73.5156 80.3935 72.0226 83.3268C74.4934 80.8912 79.9979 75.3643 82.25 72.741C84.5022 70.1178 88.7808 65.6649 90.6386 63.7664C88.0716 65.4737 82.2939 69.4523 79.7196 71.7077Z" fill="#A4C2A8"/>
<path d="M84.8374 72.9117C79.3665 77.0549 77.0822 83.2275 76.6239 85.796L87.6568 76.1296C90.5989 73.552 96.3139 67.4614 98.8036 64.7384C96.4278 65.7365 90.3084 68.7685 84.8374 72.9117Z" fill="#A4C2A8"/>
<path d="M97.2053 82.3907C94.1232 81.8408 89.5583 82.319 87.6612 82.6268C89.4824 83.4689 91.7064 84.7707 95.2526 85.7267C98.7987 86.6827 102.363 85.1855 104.854 84.6282C103.588 84.1115 100.287 82.9407 97.2053 82.3907Z" fill="#A4C2A8"/>
<path d="M83.621 90.1406C77.1832 87.3905 75.6715 87.2708 75.7204 87.5548C76.8657 89.1117 80.0844 93.0304 83.7965 96.2501C87.5086 99.4697 92.0789 99.3548 93.9 98.8949C93.1561 97.1227 90.0589 92.8907 83.621 90.1406Z" fill="#A4C2A8"/>
<path d="M87.893 85.6739C89.2092 86.5578 92.8259 88.3363 96.7634 88.3787C100.701 88.421 105.579 87.9299 107.526 87.679C106.436 89.2166 103.184 92.1823 98.9 91.7449C94.6163 91.3074 89.7771 87.5153 87.893 85.6739ZM87.893 85.6739L84.8518 84.6966C84.6182 84.6216 84.3764 84.5755 84.1316 84.5593L81.0503 84.3559M90.3054 81.9351C90.7651 81.5323 98.1774 74.2257 103.466 72.8424C107.697 71.7357 111.017 72.1859 112.148 72.5493C109.715 74.4099 104.031 77.8176 101.343 78.7658C98.2386 79.8603 92.8155 81.0902 90.3054 81.9351ZM90.3054 81.9351L81.0503 84.3559M81.0503 84.3559L87.8889 79.1769M81.0503 84.3559L70.1678 89.5566M70.1678 89.5566L48.4028 99.9581M70.1678 89.5566C70.1163 88.8795 70.2198 87.0191 71.0465 84.9948C71.8731 82.9704 72.9992 81.6588 73.4589 81.256M91.978 89.4085C87.031 85.617 84.0408 84.9864 83.638 84.5267C84.9616 86.3466 88.2645 90.5493 90.8878 92.8014C93.511 95.0536 98.1537 96.4573 100.147 96.8777C99.0731 95.6518 95.9356 92.4417 91.978 89.4085ZM93.0025 73.8841C90.4281 76.1396 85.7625 80.769 83.7514 82.8018C86.4527 81.2477 92.4989 77.5756 95.0732 75.3202C97.6476 73.0647 101.394 69.2407 102.945 67.6107C100.704 68.7621 95.5768 71.6286 93.0025 73.8841ZM79.7196 71.7077C77.1452 73.9632 73.5156 80.3935 72.0226 83.3268C74.4934 80.8912 79.9979 75.3643 82.25 72.741C84.5022 70.1178 88.7808 65.6649 90.6386 63.7664C88.0716 65.4737 82.2939 69.4523 79.7196 71.7077ZM84.8374 72.9117C79.3665 77.0549 77.0822 83.2275 76.6239 85.796L87.6568 76.1296C90.5989 73.552 96.3139 67.4614 98.8036 64.7384C96.4278 65.7365 90.3084 68.7685 84.8374 72.9117ZM97.2053 82.3907C94.1232 81.8408 89.5583 82.319 87.6612 82.6268C89.4824 83.4689 91.7064 84.7707 95.2526 85.7267C98.7987 86.6827 102.363 85.1855 104.854 84.6282C103.588 84.1115 100.287 82.9407 97.2053 82.3907ZM83.621 90.1406C77.1832 87.3905 75.6715 87.2708 75.7204 87.5548C76.8657 89.1117 80.0844 93.0304 83.7965 96.2501C87.5086 99.4697 92.0789 99.3548 93.9 98.8949C93.1561 97.1227 90.0589 92.8907 83.621 90.1406Z" stroke="black" stroke-linecap="round" stroke-linejoin="round"/>
</svg>
