<svg width="169" height="157" viewBox="0 0 169 157" fill="none" xmlns="http://www.w3.org/2000/svg">
<path d="M24.2526 110.732C20.3951 113.297 23.2449 122.001 26.5728 126.071C31.9161 132.604 40.3556 138.826 44.3243 135.964C48.2931 133.102 46.9044 127.613 41.7565 119.827C36.6087 112.041 28.1101 108.168 24.2526 110.732Z" fill="#C1D0CC" stroke="black" stroke-linejoin="round"/>
<path d="M51.0665 89.6484C49.6244 95.2934 16.3158 126.688 19.7894 132.707L24.9999 136.032C32.7473 137.07 49.7545 123.755 71.6494 126.688C93.5442 129.622 103.179 148.563 117 149.057C124.292 149.317 124.738 136.614 130.506 132.707C135.67 129.208 142.723 136.21 148.456 130.529C155.511 123.539 157.588 104.598 155.73 96.7124C153.872 88.8263 145.258 85.2963 145.458 81.2498C145.657 77.2034 147.721 74.5947 146.887 70.5796C146.054 66.5645 137.376 68.6266 135.757 65.3548C134.138 62.083 137.392 58.276 133.91 56.1124C132.065 54.9658 126.795 60.59 123.076 56.3581C118.8 51.4924 124.193 48.022 124.773 43.6872C125.354 39.3524 123.11 40.7489 123.713 36.2474C124.316 31.7459 127.585 34.2204 127.074 26.5149C126.563 18.8093 121 5.99769 106.844 12.4337C99 16.0001 93.2284 32.1633 84.1354 33.4908C78.4502 34.3208 76.8688 31.1611 71.3028 33.2989C66.0612 35.3121 67.3675 40.918 66.6286 43.8739C65.8897 46.8297 63.5662 47.5367 63.0301 51.538C62.494 55.5394 64.3931 58.0001 62.9135 61.3659C61.4339 64.7316 55.8555 66.6997 53.5235 71.309C51.1915 75.9183 52.869 82.5922 51.0665 89.6484Z" fill="#A4C2A8" stroke="black" stroke-linejoin="round"/>
<path d="M23.842 111.138C22.9834 111.886 22.3298 112.684 21.9502 113.536C21.7091 114.876 21.8201 116.412 22.1526 117.959C22.8169 121.048 24.3992 124.327 26.1249 126.437C28.8274 129.742 32.3196 132.978 35.6602 135.034C37.329 136.06 38.9901 136.811 40.5156 137.112C41.841 137.374 43.0305 136.604 44.1046 136.032L17.1538 155.614C17.0774 155.669 16.9878 155.703 16.8949 155.716C14.866 155.994 10.4326 155.134 5.28788 149.93C0.226424 144.81 0.630847 139.306 1.6006 136.895L1.69558 136.672L1.73176 136.604C1.74537 136.583 1.76169 136.562 1.77812 136.542L23.4892 111.338C23.5792 111.23 23.7051 111.16 23.842 111.138Z" fill="#C1D0CC" stroke="black" stroke-linejoin="round"/>
</svg>
