<svg width="117" height="78" viewBox="0 0 117 78" fill="none" xmlns="http://www.w3.org/2000/svg">
<path d="M80.2175 38.7374C80.2174 36.6204 79.2914 34.2107 77.9174 31.9854C76.6335 29.9062 75.1333 28.2683 74.1468 27.4669L73.9569 27.3185L73.8604 27.242C72.8879 26.4301 72.7107 24.9866 73.4782 23.9597C74.2458 22.9329 75.6765 22.6993 76.7257 23.4084L76.8261 23.4794L77.1234 23.7114C78.631 24.9285 80.4772 27.0198 81.9829 29.4583C83.5843 32.0516 84.9999 35.3584 85 38.7374C85 42.1241 83.5097 45.5575 81.93 48.3266C80.3175 51.1532 78.4188 53.6124 77.2744 55.0794C76.4605 56.1228 74.958 56.3067 73.918 55.4902C72.878 54.6736 72.6947 53.1662 73.5085 52.1228C74.6433 50.668 76.3532 48.4436 77.7796 45.9432C79.2388 43.3852 80.2175 40.8472 80.2175 38.7374Z" fill="#E2A453" stroke="black" stroke-linecap="round" stroke-linejoin="round"/>
<path d="M36.7825 38.7374C36.7826 36.6204 37.7086 34.2107 39.0826 31.9854C40.3665 29.9062 41.8667 28.2683 42.8532 27.4669L43.0431 27.3185L43.1396 27.242C44.1121 26.4301 44.2893 24.9866 43.5218 23.9597C42.7542 22.9329 41.3235 22.6993 40.2743 23.4084L40.1739 23.4794L39.8766 23.7114C38.369 24.9285 36.5228 27.0198 35.0171 29.4583C33.4157 32.0516 32.0001 35.3584 32 38.7374C32 42.1241 33.4903 45.5575 35.07 48.3266C36.6825 51.1532 38.5812 53.6124 39.7256 55.0794C40.5395 56.1228 42.042 56.3067 43.082 55.4902C44.122 54.6736 44.3053 53.1662 43.4915 52.1228C42.3567 50.668 40.6468 48.4436 39.2204 45.9432C37.7612 43.3852 36.7825 40.8472 36.7825 38.7374Z" fill="#E2A453" stroke="black" stroke-linecap="round" stroke-linejoin="round"/>
<path d="M84.5575 12.8413C85.3696 11.8692 86.7838 11.7231 87.7695 12.489L87.8642 12.5666L88.2826 12.9328C90.4421 14.848 93.5368 17.9999 96.1307 22.086C98.8969 26.4434 101.177 31.9985 100.989 38.315C100.587 51.8081 91.8383 60.7882 88.1238 65.1717L88.0429 65.2625C87.1865 66.1755 85.7661 66.2547 84.8149 65.4223C83.8334 64.5632 83.7229 63.0582 84.5682 62.0606L86.2032 60.1547C90.2956 55.3746 95.9993 48.2344 96.2995 38.1707C96.4499 33.1261 94.6308 28.519 92.188 24.671C89.8985 21.0645 87.1344 18.2435 85.2028 16.5297L84.8279 16.2015L84.7385 16.12C83.8339 15.2564 83.7454 13.8139 84.5575 12.8413Z" fill="#E2A453" stroke="black" stroke-linecap="round" stroke-linejoin="round"/>
<path d="M33.4097 12.8413C32.5499 11.8692 31.0524 11.7231 30.0088 12.489L29.9085 12.5666L29.4654 12.9328C27.179 14.848 23.9022 17.9999 21.1557 22.086C18.2269 26.4434 15.8121 31.9985 16.0115 38.315C16.4376 51.8081 25.7006 60.7882 29.6336 65.1717L29.7193 65.2625C30.6261 66.1755 32.13 66.2547 33.1372 65.4223C34.1764 64.5632 34.2933 63.0582 33.3983 62.0606L31.6672 60.1547C27.334 55.3746 21.2948 48.2344 20.977 38.1707C20.8177 33.1261 22.7439 28.519 25.3304 24.671C27.7545 21.0645 30.6812 18.2435 32.7264 16.5297L33.1234 16.2015L33.218 16.12C34.1759 15.2564 34.2695 13.8139 33.4097 12.8413Z" fill="#E2A453" stroke="black" stroke-linecap="round" stroke-linejoin="round"/>
<path d="M111.191 38.4345C111.191 30.9731 108.57 23.8713 105.155 17.9662C101.737 12.0555 97.6151 7.50583 94.846 5.17996C93.8347 4.33045 93.7128 2.83297 94.5736 1.83488C95.4343 0.836883 96.9517 0.716598 97.963 1.56604C101.179 4.26688 105.652 9.24988 109.332 15.6138C113.016 21.9837 116 29.8995 116 38.4345C116 57.9317 103.634 70.8477 98.1047 76.3049C97.1656 77.2317 95.6434 77.2317 94.7043 76.3049C93.7653 75.3781 93.7652 73.8758 94.7043 72.949C100.126 67.5986 111.191 55.8837 111.191 38.4345Z" fill="#E2A453" stroke="black" stroke-linecap="round" stroke-linejoin="round"/>
<path d="M5.80944 38.4345C5.80946 30.9731 8.42963 23.8713 11.8447 17.9662C15.2632 12.0555 19.3849 7.50583 22.154 5.17996C23.1653 4.33045 23.2872 2.83297 22.4264 1.83488C21.5657 0.836883 20.0483 0.716598 19.037 1.56604C15.8214 4.26688 11.3483 9.24988 7.66778 15.6138C3.9839 21.9837 1.00002 29.8995 1 38.4345C1 57.9317 13.3657 70.8477 18.8953 76.3049C19.8344 77.2317 21.3566 77.2317 22.2957 76.3049C23.2347 75.3781 23.2348 73.8758 22.2957 72.949C16.8743 67.5986 5.80944 55.8837 5.80944 38.4345Z" fill="#E2A453" stroke="black" stroke-linecap="round" stroke-linejoin="round"/>
<circle cx="59.5" cy="38.5" r="7" fill="#E2A453" stroke="black"/>
</svg>
