<svg width="119" height="179" viewBox="0 0 119 179" fill="none" xmlns="http://www.w3.org/2000/svg">
<path d="M7.21167 67.0656L3.45304 51.9025C4.77663 54.7934 8.08854 62.2774 10.7475 69.0863C14.0711 77.5974 13.6349 77.0618 14.6121 81.0042C15.5894 84.9466 18.674 85.1477 19.2754 87.5738C19.8768 89.9999 17.3183 91.9217 18.1452 95.2576C18.9721 98.5935 23.2152 99.795 23.5159 101.008C23.8166 102.221 21.9508 102.04 21.8152 102.717C21.6796 103.395 23.3347 103.95 23.7858 105.77C24.2368 107.589 23.018 107.569 23.3938 109.086C23.7697 110.602 25.1993 110.248 25.4999 111.461C25.8006 112.674 24.0852 113.099 24.0999 114.383C24.1147 115.667 26.1913 115.474 26.5671 116.99C26.943 118.507 25.1523 118.629 25.3779 119.538C25.6034 120.448 26.8222 120.468 27.1229 121.681C27.4236 122.894 25.7081 123.319 26.0088 124.532C26.3095 125.745 26.8813 125.604 28.28 128.798C29.399 131.353 31.9421 150.101 33.0737 159.155C31.7954 156.039 28.8687 148.803 27.3889 144.792C25.5391 139.778 22.4396 138.293 21.2368 133.441C20.0341 128.589 20.2301 126.93 20.1106 122.775C19.991 118.62 16.846 119.4 15.8836 116.741C14.9211 114.083 17.0433 111.626 16.8782 109.735C16.713 107.845 14.6216 106.754 14.0954 104.631C13.5692 102.508 15.5558 100.728 15.1048 98.9083C14.6538 97.0887 12.3665 97.6557 11.9906 96.1394C11.6147 94.6231 12.6081 93.733 13.3007 91.63C13.9932 89.5269 9.40517 83.2606 7.93127 79.7632C6.45737 76.2657 8.41443 71.9179 7.21167 67.0656Z" fill="#3C4831" stroke="black" stroke-linejoin="round"/>
<path d="M55.6819 17.7397C55.0868 10.5099 56.0305 4.07735 56.5767 1.76479C57.4507 6.22037 59.423 16.914 60.3194 24.0441C61.44 32.9567 64.8254 36.1684 66.8219 47.6792C68.8184 59.19 66.5616 56.8426 66.0567 59.6916C65.5518 62.5406 70.0654 67.2356 70.4408 68.3491C70.7411 69.24 68.2196 72.1101 66.9214 73.4338C67.4651 73.5976 68.8786 74.1475 70.183 75.0361C71.8135 76.1468 73.1912 78.9915 73.8162 81.4665C74.4413 83.9415 72.0581 82.4611 73.056 88.526C74.0539 94.591 74.8091 92.4844 77.3131 98.6697C79.817 104.855 76.0554 101.149 75.675 104.988C75.2946 108.828 78.9316 111.543 79.0555 113.153C79.1794 114.762 78.5518 114.764 79.175 119.096C79.7982 123.428 82.3058 125.899 82.8064 127.384C83.3069 128.869 80.9193 131.722 80.2887 134.819C79.658 137.916 80.1572 140.639 80.156 141.877C80.1547 143.115 77.8873 151.292 78.0099 154.14C78.1325 156.988 78.8814 161.072 78.3746 165.778C77.9692 169.543 77.9467 175.272 77.9861 177.666C76.818 174.408 74.2567 166.976 73.3568 163.313C72.2318 158.734 71.608 155.021 70.1096 147.472C68.6111 139.922 67.234 136.458 66.609 133.983C65.9839 131.508 66.3619 130.145 66.365 127.05C66.3681 123.954 64.737 123.462 64.7389 121.605C64.7408 119.748 65.9984 117.269 65.7494 115.288C65.5003 113.307 62.9908 112.694 62.2387 111.705C61.4867 110.716 62.9933 110.218 63.1209 108.112C63.2486 106.007 62.4953 106.256 60.9912 104.279C59.4871 102.301 61.8734 100.686 62.0004 99.1997C62.1274 97.7136 59.4921 97.3481 58.8664 95.4922C58.2407 93.6363 59.4965 93.0143 59.875 91.0323C60.2535 89.0503 59.3757 88.3094 57.998 85.4646C56.6203 82.6199 58.7538 82.7389 58.7551 81.5007C58.7563 80.2624 55.8689 81.0119 54.9917 79.6519C54.1145 78.2918 57.8842 73.9495 58.3872 72.9578C58.8902 71.9661 56.1292 71.8486 56.6322 70.8569C57.1352 69.8651 59.3964 67.8789 59.5247 65.1545C59.653 62.4302 55.1381 58.9734 54.2616 56.9943C53.385 55.0151 56.4008 51.5413 57.1578 47.5773C57.9149 43.6133 56.0323 43.6176 55.0318 40.029C54.0314 36.4405 56.4258 26.777 55.6819 17.7397Z" fill="#3C4831" stroke="black" stroke-linejoin="round"/>
<path d="M109.503 32.6345C110.171 28.0779 110.954 20.7607 111.262 17.6717C111.677 24.3048 112.778 39.7029 113.863 48.2305C115.22 58.89 113.698 55.7928 112.952 57.917C112.207 60.0412 114.961 63.5168 114.804 64.9914C114.648 66.466 112.407 66.3317 112.447 67.5898C112.487 68.8479 115.804 70.8351 116.317 74.1763C116.831 77.5175 114.589 77.3832 114.92 81.3603C115.25 85.3374 117.531 86.7298 117.781 88.1908C118.031 89.6517 116 89.7202 115.424 90.7892C114.848 91.8581 115.267 92.2638 116.03 97.0659C116.793 101.868 117.673 103.937 117.557 106.67C117.44 109.403 115.529 113.246 113.007 123.406C110.988 131.535 110.513 138.744 110.528 141.332C109.744 138 108.009 128.655 107.342 117.93C106.508 104.524 107.124 104.713 106.624 101.791C106.224 99.4538 107.312 97.8498 107.905 97.34C107.481 96.7945 106.499 95.3303 105.964 93.837C105.428 92.3437 106.238 91.7987 106.709 91.7128C106.63 91.3656 106.3 90.3412 105.607 89.0212C104.914 87.7011 106.181 85.7832 106.902 84.9893C106.631 84.9984 105.916 84.6866 105.223 83.3666C104.53 82.0466 105.685 80.8321 106.348 80.3899C106.06 79.8399 105.43 78.3638 105.219 76.8596C104.956 74.9793 105.951 74.316 105.688 72.4357C105.425 70.5554 104.246 71.8546 104.01 70.8131C103.82 69.9798 105.624 68.3097 106.55 67.5788L105.894 66.1315C106.684 65.4052 108.206 63.4087 107.974 61.2335C107.684 58.5145 105.863 58.7858 105.39 56.7027C104.917 54.6196 105.952 55.2144 107.274 52.0212C108.596 48.828 107.703 46.3392 107.23 44.2561C106.757 42.173 108.668 38.3302 109.503 32.6345Z" fill="#3C4831" stroke="black" stroke-linejoin="round"/>
</svg>
