<svg width="128" height="97" viewBox="0 0 128 97" fill="none" xmlns="http://www.w3.org/2000/svg">
<circle cx="63.8092" cy="78.8092" r="17.3092" fill="#5C797B" stroke="black"/>
<path d="M104.091 46C104.123 46 104.156 46.0031 104.187 46.0094L104.28 46.0375C107.778 47.5088 114.686 52.0073 120.137 58.1438C122.865 61.2161 124.463 63.7511 125.438 65.6742C126.408 67.5894 126.764 68.916 126.976 69.4703C127.022 69.5923 127.001 69.727 126.918 69.832C126.834 69.9372 126.699 69.9999 126.555 70H1.44503C1.30123 70 1.16599 69.9372 1.08241 69.832C0.999115 69.727 0.977564 69.5923 1.02415 69.4703C1.23614 68.9159 1.59236 67.5893 2.56246 65.6742C3.53663 63.7511 5.13477 61.2162 7.86349 58.1438C13.3137 52.0072 20.2224 47.5087 23.7205 46.0375L23.8127 46.0094C23.8442 46.0031 23.8767 46 23.9092 46H104.091Z" fill="#776462" stroke="black" stroke-linejoin="round"/>
<path d="M33 39.728C33 37.5189 34.7909 35.728 37 35.728H91.3324C93.5415 35.728 95.3324 37.5189 95.3324 39.728V46.4136H33V39.728Z" fill="#776462" stroke="black"/>
<path d="M44 29.0425C44 26.8333 45.7909 25.0425 48 25.0425H79.1803C81.3895 25.0425 83.1803 26.8333 83.1803 29.0425V34.728C83.1803 35.2803 82.7326 35.728 82.1803 35.728H45C44.4477 35.728 44 35.2803 44 34.728V29.0425Z" fill="#776462" stroke="black"/>
<path d="M62.0984 70V78.0142C62.0984 78.0566 62.092 78.0987 62.0801 78.1394L59.8539 85.7083L59 85.4579L61.2079 77.9507V70H62.0984Z" fill="black"/>
<path d="M66.1055 70V78.0142C66.1055 78.0566 66.1118 78.0987 66.1238 78.1394L68.3499 85.7083L69.2039 85.4579L66.996 77.9507V70H66.1055Z" fill="black"/>
<path d="M62.6715 5.45231V1H60.4453V5.45231H62.6715Z" fill="#D9D9D9" stroke="black" stroke-linejoin="round"/>
<path d="M60 7.25305V12.1505H62.2262V7.25305C62.2262 7.25305 62.6714 6.36259 64.0071 6.36259H66.2333V3.69118C65.788 3.69116 64.4524 3.24593 62.6714 3.69118C60.1528 4.3208 60 6.36259 60 7.25305Z" fill="#D9D9D9" stroke="black" stroke-linejoin="round"/>
<path d="M60 13.4863V18.3838H62.2262V13.4863C62.2262 13.4863 62.6714 12.5958 64.0071 12.5958H66.2333V9.92442C65.788 9.92441 64.4524 9.47917 62.6714 9.92442C60.1528 10.554 60 12.5958 60 13.4863Z" fill="#D9D9D9" stroke="black" stroke-linejoin="round"/>
<path d="M68.4593 25.0425V20.5902H66.2332V25.0425H68.4593Z" fill="#D9D9D9" stroke="black" stroke-linejoin="round"/>
<path d="M60 19.8976V24.7951H62.2262V19.8976C62.2262 19.8976 62.6714 19.0071 64.0071 19.0071H66.2333V16.3357C65.788 16.3357 64.4524 15.8905 62.6714 16.3357C60.1528 16.9654 60 19.0071 60 19.8976Z" fill="#D9D9D9" stroke="black" stroke-linejoin="round"/>
<path d="M68.9045 18.5421V13.6446H66.6784V18.5421C66.6784 18.5421 66.2332 19.4325 64.8975 19.4325H62.6713V22.1039C63.1165 22.1039 64.4521 22.5492 66.2332 22.1039C68.7517 21.4743 68.9045 19.4325 68.9045 18.5421Z" fill="#D9D9D9" stroke="black" stroke-linejoin="round"/>
<path d="M68.9045 12.1307V7.23325H66.6784V12.1307C66.6784 12.1307 66.2332 13.0212 64.8975 13.0212H62.6713V15.6926C63.1165 15.6926 64.4521 16.1379 66.2332 15.6926C68.7517 15.063 68.9045 13.0212 68.9045 12.1307Z" fill="#D9D9D9" stroke="black" stroke-linejoin="round"/>
<path d="M68.9045 5.89749V1H66.6784V5.89749C66.6784 5.89749 66.2332 6.78796 64.8975 6.78796H62.6713V9.45937C63.1165 9.45938 64.4521 9.90461 66.2332 9.45937C68.7517 8.82974 68.9045 6.78796 68.9045 5.89749Z" fill="#D9D9D9" stroke="black" stroke-linejoin="round"/>
</svg>
