<svg width="64" height="76" viewBox="0 0 64 76" fill="none" xmlns="http://www.w3.org/2000/svg">
<path d="M45.3291 1.78735C47.9094 1.79187 50.3394 1.8211 52.1797 1.89966C53.097 1.93882 53.8872 1.99141 54.4834 2.06177C54.7791 2.09666 55.052 2.13876 55.2783 2.19263C55.3909 2.21944 55.5139 2.25388 55.6318 2.30103C55.7067 2.33095 55.8294 2.38535 55.9561 2.47876L56.083 2.58618L56.0869 2.59009C56.8211 3.31798 57.1176 4.33129 57.1162 5.35474C57.1148 6.38225 56.8185 7.49753 56.2764 8.57251C55.5708 9.97151 54.4135 10.7931 53.8076 11.3938C53.4771 11.7215 53.2248 12.0373 53.0459 12.4329C52.8674 12.8276 52.7355 13.3608 52.7354 14.1487C52.7354 16.645 54.4842 18.4874 56.7646 20.2961C57.8286 21.14 59.1036 22.0478 60.0791 22.8821C61.0681 23.7279 62.0136 24.7058 62.4102 25.884H62.4111C62.5749 26.3712 62.6785 27.1224 62.7549 27.9836C62.8341 28.8763 62.8908 29.9875 62.9297 31.2542C63.0076 33.7891 63.015 36.9912 62.9795 40.4065C62.9084 47.24 62.6648 54.9654 62.4619 59.9944C62.4572 61.0989 62.2598 62.8645 61.6904 64.7356C61.115 66.6267 60.1367 68.7047 58.5195 70.3079C57.5761 71.2431 56.1808 71.9066 54.583 72.4006C52.9712 72.899 51.0522 73.2534 48.9619 73.511C46.0528 74.0183 41.6092 74.2141 34.2881 74.2141C33.5586 74.2141 32.8084 74.2103 32.0664 74.2092C31.3261 74.2103 30.5766 74.2141 29.8486 74.2141C22.5244 74.2141 18.0808 74.0188 15.1719 73.511C13.0833 73.2534 11.1657 72.8985 9.55469 72.4006C7.95653 71.9067 6.56076 71.2433 5.61719 70.3079C4.00034 68.7047 3.02281 66.6266 2.44727 64.7356C1.87783 62.8645 1.67952 61.0989 1.6748 59.9944C1.4719 54.9654 1.22829 47.24 1.15723 40.4065C1.12171 36.9912 1.12917 33.7891 1.20703 31.2542C1.24594 29.9875 1.30265 28.8763 1.38184 27.9836C1.45823 27.1224 1.5618 26.3712 1.72559 25.884C2.12194 24.7058 3.06777 23.7279 4.05664 22.8821C5.03219 22.0477 6.30805 21.14 7.37207 20.2961C9.65252 18.4875 11.4014 16.645 11.4014 14.1487C11.4013 13.3608 11.2693 12.8276 11.0908 12.4329C10.9119 12.0373 10.6596 11.7215 10.3291 11.3938C9.72321 10.7931 8.56596 9.97149 7.86035 8.57251C7.31835 7.49761 7.02197 6.38225 7.02051 5.35474C7.01911 4.33136 7.31559 3.318 8.0498 2.59009L8.16895 2.48657C8.28873 2.3956 8.40569 2.34091 8.48145 2.30884C8.59686 2.25998 8.71572 2.22326 8.82422 2.19556C9.0417 2.14005 9.30077 2.09704 9.57715 2.06177C10.1345 1.99066 10.8683 1.9389 11.7158 1.89966C13.417 1.82091 15.661 1.79182 18.0547 1.78735C22.7774 1.77855 28.3654 1.86841 31.3193 1.86841C34.2782 1.86841 40.2298 1.77844 45.3291 1.78735Z" fill="#E9E9E9" fill-opacity="0.6" stroke="black" stroke-width="2"/>
<path d="M52.8684 17.7522C55.2263 21.3328 60.5225 23.4086 61.4629 26.2031C62.4356 29.0962 61.8682 49.9093 61.4629 59.9544C61.4629 61.9635 60.7333 66.7049 57.8152 69.5978C56.2645 71.1348 52.9562 72.0136 48.8244 72.5216C46.0138 73.0163 41.6463 73.2137 34.2876 73.2137C33.5571 73.2137 32.8155 73.2105 32.0669 73.2094C31.3196 73.2105 30.5783 73.2137 29.8489 73.2137C22.4919 73.2137 18.1261 73.0161 15.3155 72.5216C11.1829 72.0136 7.87202 71.1351 6.32127 69.5978C3.40368 66.7048 2.67356 61.9633 2.67353 59.9544C2.26823 49.9094 1.70089 29.0967 2.67353 26.2031C3.61355 23.4085 8.91004 21.3328 11.268 17.7522H52.8684Z" fill="#B9C0AF" fill-opacity="0.8"/>
<path d="M51.9592 12.4864C51.8179 12.9437 51.7357 13.4855 51.7356 14.1491C51.7357 18.2069 55.5931 20.6265 58.4852 22.8777C58.4826 22.8713 58.4809 22.8644 58.4783 22.8579C59.7988 23.9143 61.1193 24.795 61.5595 26.5332C62.3043 29.4749 61.8676 50.0729 61.4624 60.0472C61.4623 62.0422 60.7319 66.7509 57.8138 69.6235C56.2628 71.1494 52.955 72.0214 48.8238 72.5259C46.0132 73.017 41.6453 73.2136 34.287 73.2136C33.5567 73.2136 32.8147 73.2104 32.0664 73.2093C31.3191 73.2104 30.5776 73.2136 29.8483 73.2136C22.4915 73.2136 18.1255 73.0169 15.315 72.5259C11.1827 72.0214 7.87152 71.1499 6.32069 69.6235C3.40328 66.7508 2.67298 62.042 2.67294 60.0472C2.26765 50.0726 1.60411 29.407 2.57666 26.5332C3.01689 24.795 4.14293 24.0135 5.65785 22.8579C5.65566 22.8634 5.65402 22.8695 5.65183 22.8751C8.54394 20.6247 12.4005 18.206 12.4005 14.1491C12.4005 13.704 12.3634 13.3138 12.2965 12.967C13.1642 14.329 14.0027 17.7889 12.7006 20.3932C11.8452 22.1037 7.08851 25.235 6.09802 26.5556C5.64656 27.1575 5.34506 27.7244 5.11022 28.2217C5.0835 29.1661 5.06981 30.1982 5.06981 31.2934C5.06982 33.7267 5.20278 40.0011 5.06981 46.4458C5.16555 50.6205 5.11488 55.2373 5.65785 58.1008C6.32095 61.5974 6.32096 62.5106 9.3503 65.4393C10.7186 66.7621 13.6394 67.5193 17.2854 67.9565C19.7653 68.382 23.6183 68.5514 30.1097 68.5514C30.7531 68.5514 31.4071 68.5489 32.0664 68.548C32.7267 68.5489 33.382 68.5514 34.0265 68.5514C40.5189 68.5514 44.3726 68.3822 46.8525 67.9565C50.4981 67.5193 53.4176 66.762 54.7859 65.4393C57.3605 62.9497 58.4783 59.8297 58.4783 58.1008C58.6201 54.6731 58.9724 49.4994 59.0655 44.6971C59.1586 39.8947 59.0655 34.2022 59.0655 29.5448C59.0655 28.8651 59.0577 28.2558 59.0474 27.7076C58.8178 27.2284 58.5249 26.6876 58.0957 26.1154C57.1054 24.7949 52.3486 21.6636 51.4932 19.953C50.1727 17.312 51.053 13.7906 51.9334 12.4701L51.9592 12.4864Z" fill="#9BA193" fill-opacity="0.7"/>
<circle cx="32.0042" cy="50.3248" r="11.4444" fill="white" stroke="black"/>
<circle cx="32.0043" cy="50.3248" r="7.28282" fill="#58644C" stroke="black"/>
<path d="M31.8742 50.0195C32.1398 48.3088 32.4053 46.5981 32.671 44.8874C32.6857 44.7924 32.7005 44.6974 32.7153 44.6023C32.7164 44.6985 32.7175 44.7947 32.7186 44.8909C32.7383 46.622 32.7579 48.3531 32.7776 50.0842C32.7787 50.1803 32.7799 50.2764 32.781 50.3725C32.4639 50.3499 32.1469 50.3275 31.8298 50.3048C31.8446 50.2098 31.8594 50.1145 31.8742 50.0195Z" fill="#29331F"/>
<path d="M31.8881 49.819C32.6737 48.3996 33.4592 46.9801 34.2447 45.5607C34.2884 45.4818 34.3321 45.4029 34.3757 45.324C34.3466 45.4093 34.3175 45.4947 34.2884 45.58C33.7644 47.1154 33.2404 48.6508 32.7164 50.1862C32.6873 50.2714 32.6582 50.3567 32.6291 50.4419C32.3385 50.3131 32.0477 50.1845 31.7571 50.0557C31.8007 49.9768 31.8444 49.8979 31.8881 49.819Z" fill="#29331F"/>
<path d="M32.3447 49.5198C33.2461 48.5544 34.1475 47.5891 35.0488 46.6237C35.0989 46.5701 35.1489 46.5164 35.199 46.4627C35.1617 46.5259 35.1242 46.589 35.0869 46.6522C34.4146 47.789 33.7425 48.926 33.0702 50.0628C33.0329 50.126 32.9954 50.1891 32.9581 50.2523L32.1946 49.6808C32.2447 49.6272 32.2947 49.5734 32.3447 49.5198Z" fill="#29331F"/>
<path d="M32.3674 49.5404C33.4487 48.9855 34.5301 48.4307 35.6113 47.8758C35.6713 47.845 35.7314 47.814 35.7915 47.7832C35.7403 47.8272 35.689 47.8712 35.6378 47.9152C34.7163 48.7075 33.7948 49.5 32.8732 50.2923C32.822 50.3363 32.7708 50.3803 32.7196 50.4243L32.1873 49.6329C32.2473 49.6021 32.3074 49.5712 32.3674 49.5404Z" fill="#29331F"/>
<path d="M32.6686 49.4442C33.9893 49.2014 35.3101 48.9588 36.6307 48.7161C36.7041 48.7026 36.7774 48.689 36.8507 48.6756C36.7819 48.7043 36.713 48.7329 36.6443 48.7616C35.405 49.2786 34.1657 49.7959 32.9265 50.3129C32.8576 50.3416 32.7887 50.3703 32.7199 50.399L32.4485 49.4847C32.5219 49.4713 32.5953 49.4577 32.6686 49.4442Z" fill="#29331F"/>
<path d="M32.8826 49.6226C34.1781 49.6939 35.4735 49.7654 36.7689 49.8367C36.8408 49.8407 36.9128 49.8446 36.9848 49.8485C36.9137 49.8604 36.8426 49.8723 36.7715 49.8842C35.492 50.0985 34.2124 50.3131 32.9329 50.5274C32.8618 50.5393 32.7907 50.5512 32.7196 50.5631L32.6667 49.6108C32.7387 49.6148 32.8107 49.6187 32.8826 49.6226Z" fill="#29331F"/>
<path d="M32.8904 49.8543C34.0953 50.6555 35.3001 51.4569 36.505 52.2581C36.5719 52.3026 36.639 52.347 36.7059 52.3916C36.6315 52.3611 36.5571 52.3305 36.4827 52.3C35.1437 51.7516 33.8047 51.2033 32.4657 50.6548C32.3913 50.6244 32.3169 50.5938 32.2425 50.5633L32.6895 49.7208C32.7564 49.7653 32.8234 49.8098 32.8904 49.8543Z" fill="#29331F"/>
<path d="M31.9441 49.7534C33.0028 51.1427 34.0614 52.5322 35.1201 53.9215C35.1789 53.9986 35.2378 54.0758 35.2966 54.1529C35.226 54.0864 35.1554 54.0198 35.0848 53.9532C33.8135 52.7554 32.542 51.5577 31.2707 50.3599C31.2001 50.2934 31.1295 50.2267 31.0589 50.1602L31.7676 49.522C31.8264 49.5991 31.8853 49.6763 31.9441 49.7534Z" fill="#29331F"/>
<path d="M33.2349 50.559C34.3661 51.5683 35.4973 52.5779 36.6285 53.5872C36.6914 53.6433 36.7543 53.6993 36.8171 53.7553C36.7448 53.7121 36.6726 53.6687 36.6004 53.6255C35.2997 52.8466 33.9988 52.0679 32.6981 51.2891C32.6258 51.2458 32.5537 51.2025 32.4814 51.1592L33.0464 50.3909C33.1092 50.4469 33.1721 50.5029 33.2349 50.559Z" fill="#29331F"/>
<path d="M32.4797 50.3746C33.1303 51.9134 33.7808 53.4524 34.4315 54.9913C34.4676 55.0768 34.5039 55.1623 34.54 55.2478C34.4898 55.1697 34.4397 55.0915 34.3894 55.0134C33.4858 53.6081 32.5819 52.2029 31.6783 50.7976C31.6281 50.7196 31.5779 50.6414 31.5277 50.5633L32.3711 50.118C32.4072 50.2035 32.4435 50.2891 32.4797 50.3746Z" fill="#29331F"/>
<path d="M32.3691 50.2585C31.9303 51.7232 31.4912 53.1878 31.0524 54.6525C31.028 54.7338 31.0037 54.8153 30.9794 54.8967C30.9882 54.8122 30.9971 54.7276 31.0058 54.6432C31.1641 53.1224 31.3222 51.6016 31.4805 50.0808C31.4893 49.9963 31.4982 49.9117 31.507 49.8272L32.4421 50.0143C32.4178 50.0957 32.3935 50.1771 32.3691 50.2585Z" fill="#29331F"/>
<path d="M32.3516 50.5239C32.2973 52.0519 32.2428 53.58 32.1884 55.108C32.1854 55.1929 32.1825 55.2779 32.1795 55.3628C32.1666 55.2788 32.1539 55.1947 32.141 55.1108C31.9097 53.5994 31.6783 52.088 31.447 50.5766C31.4341 50.4926 31.4214 50.4086 31.4085 50.3246L32.3606 50.2692C32.3576 50.3541 32.3547 50.439 32.3516 50.5239Z" fill="#29331F"/>
<path d="M31.7327 51.1814C30.5067 52.1213 29.2805 53.0612 28.0544 54.0011C27.9863 54.0533 27.9182 54.1056 27.8501 54.1578C27.9074 54.094 27.9648 54.0301 28.0221 53.9662C29.0538 52.8163 30.0855 51.6662 31.1172 50.5163C31.1745 50.4525 31.2319 50.3886 31.2892 50.3248L31.937 51.0247C31.8689 51.0769 31.8009 51.1292 31.7327 51.1814Z" fill="#29331F"/>
<path d="M32.4665 50.3478C30.7174 50.8564 28.9681 51.3648 27.219 51.8734C27.1218 51.9016 27.0246 51.93 26.9274 51.9582C27.019 51.9151 27.1106 51.8721 27.2022 51.8289C28.8501 51.0527 30.498 50.2764 32.146 49.5002C32.2375 49.4571 32.3291 49.414 32.4207 49.3709L32.7581 50.2629C32.6609 50.2912 32.5637 50.3195 32.4665 50.3478Z" fill="#29331F"/>
<path d="M31.6921 50.3791C30.323 49.5243 28.9538 48.6694 27.5847 47.8146C27.5086 47.7671 27.4324 47.7197 27.3564 47.6722C27.4396 47.7055 27.5229 47.7389 27.6061 47.7722C29.1047 48.3718 30.6034 48.9713 32.102 49.5709C32.1853 49.6042 32.2685 49.6376 32.3518 49.6709L31.9204 50.5215C31.8443 50.474 31.7682 50.4266 31.6921 50.3791Z" fill="#29331F"/>
<path d="M32.6208 50.8797C30.8879 50.1829 29.1551 49.486 27.4222 48.7892C27.326 48.7505 27.2296 48.7119 27.1334 48.6732C27.2344 48.6968 27.3355 48.7204 27.4365 48.7439C29.2555 49.1679 31.0745 49.5916 32.8935 50.0155C32.9945 50.039 33.0956 50.0627 33.1966 50.0862L32.9097 50.9957C32.8134 50.957 32.7171 50.9184 32.6208 50.8797Z" fill="#29331F"/>
<path d="M31.581 50.1307C30.7626 48.6965 29.9443 47.2622 29.1259 45.828C29.0804 45.7483 29.0349 45.6687 28.9895 45.5891C29.048 45.6597 29.1064 45.7304 29.1649 45.801C30.2186 47.0723 31.2725 48.3437 32.3262 49.615C32.3847 49.6857 32.4433 49.7565 32.5018 49.8271L31.7175 50.3698C31.6721 50.2901 31.6265 50.2104 31.581 50.1307Z" fill="#29331F"/>
<path d="M31.3322 49.8018C31.1724 48.573 31.0128 47.344 30.8531 46.1151C30.8442 46.0469 30.8352 45.9784 30.8263 45.9102C30.8506 45.9746 30.8749 46.0392 30.8992 46.1036C31.3365 47.2631 31.774 48.4226 32.2113 49.582C32.2356 49.6464 32.2598 49.7109 32.2841 49.7753L31.3589 50.0066C31.35 49.9383 31.341 49.8701 31.3322 49.8018Z" fill="#29331F"/>
<path d="M31.4804 49.704C31.6082 48.4714 31.7362 47.2388 31.864 46.0062C31.8711 45.9377 31.8781 45.869 31.8852 45.8005C31.894 45.8688 31.9027 45.9373 31.9115 46.0056C32.0698 47.2346 32.2283 48.4637 32.3866 49.6928C32.3954 49.7611 32.4041 49.8293 32.4129 49.8976L31.4592 49.9094C31.4663 49.841 31.4733 49.7725 31.4804 49.704Z" fill="#29331F"/>
<path d="M33.0678 49.8651C34.1041 50.1776 35.1404 50.4903 36.1767 50.8028C36.2343 50.8201 36.2919 50.8374 36.3494 50.8548C36.2893 50.8531 36.2292 50.8513 36.1691 50.8497C35.0871 50.8196 34.0051 50.7897 32.9231 50.7597C32.863 50.758 32.8029 50.7563 32.7428 50.7546L32.895 49.8131C32.9526 49.8305 33.0102 49.8477 33.0678 49.8651Z" fill="#29331F"/>
<path d="M32.6049 50.7989C32.724 51.945 32.8429 53.0913 32.962 54.2374C32.9686 54.301 32.9753 54.3646 32.982 54.4283C32.9599 54.3682 32.9379 54.3081 32.9158 54.2481C32.518 53.1667 32.1199 52.0852 31.7221 51.0038C31.7 50.9437 31.678 50.8837 31.6559 50.8236L32.585 50.608C32.5916 50.6717 32.5983 50.7353 32.6049 50.7989Z" fill="#29331F"/>
<path d="M31.7855 51.5082C31.0977 52.4518 30.4096 53.3953 29.7218 54.3389C29.6835 54.3914 29.6454 54.4439 29.6071 54.4963C29.6315 54.4362 29.6559 54.376 29.6802 54.3159C30.118 53.2333 30.5556 52.1507 30.9934 51.0681C31.0177 51.008 31.0421 50.9478 31.0665 50.8877L31.9001 51.3508C31.8619 51.4033 31.8237 51.4558 31.7855 51.5082Z" fill="#29331F"/>
<path d="M32.5409 50.7079C31.053 50.4023 29.5651 50.0968 28.0773 49.7912C27.9947 49.7742 27.912 49.7574 27.8294 49.7404C27.9138 49.7416 27.9982 49.7426 28.0826 49.7438C29.6013 49.7649 31.1199 49.786 32.6386 49.8072C32.7229 49.8083 32.8074 49.8096 32.8917 49.8107C32.8574 50.1268 32.8232 50.4429 32.7889 50.7589C32.7063 50.7419 32.6235 50.7248 32.5409 50.7079Z" fill="#29331F"/>
<path d="M31.4206 50.8233C30.0239 50.7596 28.627 50.6959 27.2303 50.6322C27.1528 50.6287 27.0751 50.6253 26.9975 50.6217C27.0742 50.6094 27.1508 50.5969 27.2275 50.5846L31.3689 49.9188C31.4456 49.9065 31.5224 49.8942 31.5991 49.8819C31.6172 50.1993 31.6351 50.5167 31.6532 50.8341C31.5756 50.8305 31.4981 50.8269 31.4206 50.8233Z" fill="#29331F"/>
<path d="M31.5889 50.9911C30.4424 51.5122 29.2958 52.0331 28.1494 52.5542C28.0857 52.5831 28.0219 52.6122 27.9582 52.6411C28.0138 52.5986 28.0694 52.556 28.1249 52.5134C29.1242 51.747 30.1234 50.9805 31.1227 50.2141C31.1782 50.1715 31.2338 50.129 31.2894 50.0864L31.78 50.9042C31.7163 50.9331 31.6526 50.9622 31.5889 50.9911Z" fill="#29331F"/>
<path d="M31.174 50.1289C30.5058 49.2254 29.8374 48.3219 29.1692 47.4184C29.1321 47.3682 29.095 47.3181 29.0579 47.2679C29.1064 47.3071 29.1551 47.3462 29.2036 47.3853C30.0783 48.0908 30.9531 48.7963 31.8278 49.5018C31.8764 49.541 31.9251 49.5801 31.9737 49.6193C31.7442 49.8394 31.5146 50.0595 31.2852 50.2795C31.2481 50.2294 31.2111 50.1791 31.174 50.1289Z" fill="#29331F"/>
<circle cx="32.0041" cy="50.3248" r="2.08081" fill="black"/>
</svg>
