<svg width="51" height="79" viewBox="0 0 51 79" fill="none" xmlns="http://www.w3.org/2000/svg">
<path d="M26.0967 1C28.4369 1 31.9578 1.119 35.4336 2.04297C38.9072 2.96643 42.3945 4.7102 44.5898 8.00293C47.4329 12.2675 48.9526 15.5244 49.6328 20.3799C50.3067 25.1909 50.1551 31.5699 49.7119 42.0635L49.6992 43.5898C49.5704 51.017 48.4886 55.4685 46.8789 58.6387C45.1714 62.0012 42.8624 63.9039 40.6914 66.292C39.2454 67.8827 36.8185 70.924 34.1738 73.5176C32.8443 74.8214 31.4349 76.039 30.0293 76.9326C28.6311 77.8215 27.1877 78.4217 25.8008 78.4219C24.5356 78.4218 23.2111 77.7985 21.9326 76.9014C20.6433 75.9966 19.3372 74.7673 18.0977 73.457C16.8561 72.1446 15.6669 70.736 14.6152 69.4658C13.5572 68.188 12.6481 67.064 11.9463 66.292C9.77094 63.8992 7.25351 61.7477 5.24707 58.2588C3.22608 54.7444 1.71507 49.8814 1.38086 41.9727C0.936941 31.4665 0.784679 25.0818 1.45898 20.2676C2.13918 15.4122 3.65894 12.1552 6.50195 7.89062C8.84957 4.36939 12.409 2.65426 16.0195 1.81641C19.6224 0.980347 23.3328 1.00504 26.0312 1H26.0967ZM13.9463 24.0225C10.0185 24.0226 6.83409 27.2069 6.83398 31.1348C6.83398 35.0627 10.0184 38.2469 13.9463 38.2471C17.8742 38.247 21.0586 35.0627 21.0586 31.1348C21.0585 27.2069 17.8742 24.0225 13.9463 24.0225ZM38.9883 24.3193C35.3059 24.3193 32.3206 27.304 32.3203 30.9863C32.3203 34.6688 35.3058 37.6543 38.9883 37.6543C42.6707 37.6542 45.6562 34.6688 45.6562 30.9863C45.656 27.3041 42.6705 24.3195 38.9883 24.3193Z" fill="white"/>
<path d="M26.0967 1V0.5V1ZM35.4336 2.04297L35.5621 1.55975L35.562 1.55975L35.4336 2.04297ZM44.5898 8.00293L45.0059 7.72558L45.0059 7.72556L44.5898 8.00293ZM49.6328 20.3799L50.128 20.3105L50.128 20.3105L49.6328 20.3799ZM49.7119 42.0635L49.2124 42.0424C49.2121 42.048 49.212 42.0537 49.2119 42.0593L49.7119 42.0635ZM49.6992 43.5898L50.1992 43.5985L50.1992 43.594L49.6992 43.5898ZM46.8789 58.6387L47.3247 58.8651L47.3247 58.865L46.8789 58.6387ZM40.6914 66.292L40.3214 65.9557L40.3214 65.9557L40.6914 66.292ZM34.1738 73.5176L34.5239 73.8746H34.5239L34.1738 73.5176ZM30.0293 76.9326L30.2975 77.3546L30.2975 77.3546L30.0293 76.9326ZM25.8008 78.4219L25.8008 78.9219H25.8008L25.8008 78.4219ZM21.9326 76.9014L21.6454 77.3106L21.6454 77.3107L21.9326 76.9014ZM18.0977 73.457L17.7344 73.8006H17.7344L18.0977 73.457ZM14.6152 69.4658L14.2301 69.7847H14.2301L14.6152 69.4658ZM11.9463 66.292L12.3163 65.9557L12.3163 65.9557L11.9463 66.292ZM5.24707 58.2588L4.81363 58.508L4.81364 58.5081L5.24707 58.2588ZM1.38086 41.9727L0.881305 41.9938L0.881305 41.9938L1.38086 41.9727ZM1.45898 20.2676L0.96382 20.1982L0.963818 20.1982L1.45898 20.2676ZM6.50195 7.89062L6.08593 7.61327L6.08593 7.61328L6.50195 7.89062ZM16.0195 1.81641L15.9065 1.32935L15.9065 1.32935L16.0195 1.81641ZM26.0312 1V0.499999L26.0303 0.500001L26.0312 1ZM13.9463 24.0225L13.9463 23.5225H13.9463L13.9463 24.0225ZM6.83398 31.1348L6.33398 31.1348V31.1348H6.83398ZM13.9463 38.2471L13.9463 38.7471H13.9463L13.9463 38.2471ZM21.0586 31.1348H21.5586V31.1348L21.0586 31.1348ZM38.9883 24.3193L38.9883 23.8193H38.9883V24.3193ZM32.3203 30.9863L31.8203 30.9863V30.9863H32.3203ZM38.9883 37.6543V38.1543H38.9883L38.9883 37.6543ZM45.6562 30.9863H46.1562V30.9863L45.6562 30.9863ZM26.0967 1V1.5C28.4243 1.5 31.8932 1.61918 35.3051 2.52619L35.4336 2.04297L35.562 1.55975C32.0225 0.618817 28.4494 0.5 26.0967 0.5V1ZM35.4336 2.04297L35.3051 2.52618C38.717 3.43323 42.0725 5.1285 44.1738 8.2803L44.5898 8.00293L45.0059 7.72556C42.7166 4.2919 39.0974 2.49964 35.5621 1.55975L35.4336 2.04297ZM44.5898 8.00293L44.1738 8.28028C46.989 12.503 48.4708 15.6894 49.1376 20.4493L49.6328 20.3799L50.128 20.3105C49.4344 15.3594 47.8768 12.032 45.0059 7.72558L44.5898 8.00293ZM49.6328 20.3799L49.1376 20.4492C49.8039 25.206 49.6562 31.5353 49.2124 42.0424L49.7119 42.0635L50.2115 42.0846C50.6541 31.6045 50.8095 25.1759 50.128 20.3105L49.6328 20.3799ZM49.7119 42.0635L49.2119 42.0593L49.1992 43.5857L49.6992 43.5898L50.1992 43.594L50.2119 42.0676L49.7119 42.0635ZM49.6992 43.5898L49.1993 43.5812C49.0712 50.9673 47.9957 55.335 46.4331 58.4123L46.8789 58.6387L47.3247 58.865C48.9816 55.6021 50.0696 51.0668 50.1991 43.5985L49.6992 43.5898ZM46.8789 58.6387L46.4331 58.4123C44.7661 61.695 42.5432 63.5118 40.3214 65.9557L40.6914 66.292L41.0614 66.6283C43.1817 64.296 45.5767 62.3074 47.3247 58.8651L46.8789 58.6387ZM40.6914 66.292L40.3214 65.9557C38.8401 67.5852 36.4584 70.5768 33.8237 73.1606L34.1738 73.5176L34.5239 73.8746C37.1785 71.2712 39.6506 68.1802 41.0614 66.6283L40.6914 66.292ZM34.1738 73.5176L33.8237 73.1606C32.5062 74.4527 31.125 75.6435 29.761 76.5107L30.0293 76.9326L30.2975 77.3546C31.7447 76.4345 33.1824 75.1902 34.5239 73.8746L34.1738 73.5176ZM30.0293 76.9326L29.7611 76.5107C28.3972 77.3776 27.05 77.9217 25.8007 77.9219L25.8008 78.4219L25.8008 78.9219C27.3253 78.9217 28.8649 78.2653 30.2975 77.3546L30.0293 76.9326ZM25.8008 78.4219L25.8008 77.9219C24.69 77.9219 23.4697 77.3691 22.2198 76.4921L21.9326 76.9014L21.6454 77.3107C22.9525 78.2278 24.3811 78.9218 25.8008 78.9219L25.8008 78.4219ZM21.9326 76.9014L22.2198 76.4921C20.9701 75.6151 19.6904 74.4132 18.4609 73.1134L18.0977 73.457L17.7344 73.8006C18.9839 75.1215 20.3165 76.3781 21.6454 77.3106L21.9326 76.9014ZM18.0977 73.457L18.4609 73.1134C17.2313 71.8135 16.0507 70.4155 15.0004 69.1469L14.6152 69.4658L14.2301 69.7847C15.2832 71.0565 16.481 72.4756 17.7344 73.8006L18.0977 73.457ZM14.6152 69.4658L15.0004 69.1469C13.9499 67.8783 13.0284 66.739 12.3163 65.9557L11.9463 66.292L11.5763 66.6283C12.2679 67.389 13.1645 68.4977 14.2301 69.7847L14.6152 69.4658ZM11.9463 66.292L12.3163 65.9557C10.0943 63.5116 7.65093 61.4358 5.68051 58.0095L5.24707 58.2588L4.81364 58.5081C6.85609 62.0595 9.44755 64.2867 11.5763 66.6283L11.9463 66.292ZM5.24707 58.2588L5.68051 58.0095C3.71012 54.5831 2.21226 49.8042 1.88041 41.9515L1.38086 41.9727L0.881305 41.9938C1.21789 49.9586 2.74205 54.9057 4.81363 58.508L5.24707 58.2588ZM1.38086 41.9727L1.88041 41.9515C1.43592 31.4319 1.28745 25.0969 1.95415 20.3369L1.45898 20.2676L0.963818 20.1982C0.281906 25.0668 0.437959 31.5012 0.881305 41.9938L1.38086 41.9727ZM1.45898 20.2676L1.95415 20.3369C2.62095 15.5771 4.10285 12.3907 6.91798 8.16797L6.50195 7.89062L6.08593 7.61328C3.21504 11.9196 1.6574 15.2472 0.96382 20.1982L1.45898 20.2676ZM6.50195 7.89062L6.91797 8.16798C9.17019 4.78982 12.5944 3.12454 16.1326 2.30346L16.0195 1.81641L15.9065 1.32935C12.2237 2.18399 8.52894 3.94895 6.08593 7.61327L6.50195 7.89062ZM16.0195 1.81641L16.1326 2.30346C19.6707 1.48243 23.3233 1.50506 26.0322 1.5L26.0312 1L26.0303 0.500001C23.3422 0.505019 19.5741 0.478266 15.9065 1.32935L16.0195 1.81641ZM26.0312 1V1.5H26.0967V1V0.5H26.0312V1ZM13.9463 24.0225L13.9463 23.5225C9.74234 23.5226 6.33409 26.9308 6.33398 31.1348L6.83398 31.1348L7.33398 31.1348C7.33408 27.4831 10.2946 24.5226 13.9463 24.5225L13.9463 24.0225ZM6.83398 31.1348H6.33398C6.33398 35.3388 9.74229 38.7469 13.9463 38.7471L13.9463 38.2471L13.9463 37.7471C10.2945 37.7469 7.33398 34.7865 7.33398 31.1348H6.83398ZM13.9463 38.2471L13.9463 38.7471C18.1504 38.747 21.5586 35.3389 21.5586 31.1348H21.0586H20.5586C20.5586 34.7866 17.5981 37.747 13.9463 37.7471L13.9463 38.2471ZM21.0586 31.1348L21.5586 31.1348C21.5585 26.9307 18.1503 23.5225 13.9463 23.5225L13.9463 24.0225L13.9463 24.5225C17.598 24.5225 20.5585 27.483 20.5586 31.1348L21.0586 31.1348ZM38.9883 24.3193V23.8193C35.0298 23.8193 31.8206 27.0278 31.8203 30.9863L32.3203 30.9863L32.8203 30.9864C32.8205 27.5802 35.582 24.8193 38.9883 24.8193V24.3193ZM32.3203 30.9863H31.8203C31.8203 34.945 35.0296 38.1543 38.9883 38.1543V37.6543V37.1543C35.5819 37.1543 32.8203 34.3927 32.8203 30.9863H32.3203ZM38.9883 37.6543L38.9883 38.1543C42.9468 38.1542 46.1562 34.9449 46.1562 30.9863H45.6562H45.1562C45.1562 34.3926 42.3946 37.1542 38.9883 37.1543L38.9883 37.6543ZM45.6562 30.9863L46.1562 30.9863C46.156 27.0279 42.9466 23.8195 38.9883 23.8193L38.9883 24.3193L38.9883 24.8193C42.3945 24.8195 45.156 27.5803 45.1562 30.9864L45.6562 30.9863Z" fill="black"/>
<path d="M27.8563 20.0139C27.9355 20.6062 28.0139 21.2087 28.0893 21.8065C28.3923 24.1971 28.6395 26.585 28.8539 28.9682C29.038 30.9449 29.2396 32.94 29.6144 34.8384C29.9828 36.6483 30.5439 38.4376 31.0964 40.2566C31.3703 41.1691 31.6477 42.0867 31.8491 43.0568C31.9995 44.0113 32.3318 45.1068 31.5794 46.2758C30.1103 47.5596 28.7754 47.2687 27.4291 47.4137C26.0888 47.4566 24.7593 47.4013 23.4374 47.2988C22.8313 47.251 22.226 47.1919 21.627 47.118C21.6434 46.9335 21.6597 46.7491 21.6762 46.5646C22.2692 46.5967 22.8696 46.6155 23.469 46.6245C25.9476 46.6072 29.1655 46.713 30.6898 45.6287C31.3299 42.815 28.8567 38.8258 28.2096 35.1365C27.7803 33.1182 27.5663 31.1098 27.3782 29.1019C27.1611 26.6873 27.11 24.2662 27.2011 21.845C27.2243 21.2395 27.2566 20.6296 27.3006 20.0301C27.4858 20.0247 27.6712 20.0194 27.8563 20.0139Z" fill="#919191"/>
<path d="M10.4101 41.5516C11.478 41.5527 12.5101 41.6875 13.5061 41.9556C13.5452 41.9662 13.5845 41.9766 13.6236 41.9872C13.8897 42.0592 14.2387 42.3812 14.3309 42.6409C15.5246 46.0049 16.5449 49.4306 17.3919 52.9181C17.4531 53.17 17.5134 53.4223 17.5728 53.6749C17.3285 53.7619 17.0843 53.8489 16.84 53.9359C16.7263 53.7027 16.6135 53.4692 16.5017 53.2353C15.0308 50.1595 13.7166 47.0278 12.5586 43.8405C11.7079 43.5775 10.8838 43.2153 10.0866 42.7535C9.8556 42.6197 9.62686 42.4777 9.40039 42.3272C9.4678 42.0768 9.53498 41.8263 9.60239 41.576C9.87384 41.5595 10.1432 41.5514 10.4101 41.5516Z" fill="#D9D9D9"/>
<path d="M38.7576 40.9143C39.8464 40.9143 40.9352 41.0527 42.024 41.3293C42.2962 41.3985 42.5685 41.4761 42.8407 41.5626V42.3405C42.5685 42.4269 42.2962 42.5046 42.024 42.5737C41.1871 42.7863 40.3501 42.9167 39.5132 42.9659C38.6735 46.3877 37.6779 49.7726 36.5251 53.12C36.4361 53.3787 36.346 53.6372 36.2551 53.8954C36.0028 53.8354 35.7503 53.7753 35.498 53.7153C35.5329 53.4439 35.569 53.1726 35.6057 52.9016C36.1171 49.1287 36.8093 45.3988 37.6827 41.7119C37.7876 41.2691 38.2368 40.9146 38.6919 40.9143C38.7138 40.9143 38.7357 40.9143 38.7576 40.9143Z" fill="#D9D9D9"/>
<path d="M35.8761 57.9542C36.449 57.9542 36.9133 58.4186 36.9133 58.9914C36.9133 59.5643 36.449 60.0286 35.8761 60.0286H18.6881C18.1153 60.0286 17.6509 59.5643 17.6509 58.9914C17.6509 58.4186 18.1153 57.9542 18.6881 57.9542H35.8761Z" fill="black"/>
</svg>
