<svg width="62" height="86" viewBox="0 0 62 86" fill="none" xmlns="http://www.w3.org/2000/svg">
<path d="M9.49247 22.5736L8.19805 3.15736M21.1422 15.2386L22.0051 1.86294M46.1676 25.1624L41.8528 1.86294M34.0863 32.0659L31.929 1.86294M19.8478 32.9289L16.396 3.15736M59.5432 26.8883L48.3249 1M0.863037 34.2233C0.863037 33.1878 3.45187 13.0812 4.74628 3.15736" stroke="black"/>
<path d="M29.583 29.6971C29.583 31.0292 28.5037 32.109 27.1723 32.109C25.841 32.109 24.7617 31.0292 24.7617 29.6971C24.7617 28.365 25.841 27.2852 27.1723 27.2852C28.5037 27.2852 29.583 28.365 29.583 29.6971Z" fill="#916058"/>
<path d="M28.8357 29.6974C28.8357 28.7779 28.0905 28.0329 27.1725 28.0328C26.2544 28.0328 25.5093 28.7778 25.5093 29.6974C25.5095 30.6168 26.2545 31.3613 27.1725 31.3613V32.1089L27.0484 32.106C25.8158 32.0435 24.8273 31.0547 24.7646 29.8215L24.7617 29.6974C24.7617 28.3653 25.8411 27.2852 27.1725 27.2852L27.2966 27.2881C28.5702 27.3528 29.5833 28.407 29.5833 29.6974L29.5796 29.8215C29.5149 31.0957 28.4621 32.1088 27.1725 32.1089V31.3613C28.0904 31.3612 28.8355 30.6168 28.8357 29.6974Z" fill="black"/>
<path d="M26.3774 18.5542C25.7924 16.8557 22.0304 12.9398 18.0628 15.6361C14.0013 18.1886 16.0788 23.2056 17.3998 24.4229C18.4316 25.3736 21.146 27.4291 21.9487 28.2625C22.5908 28.929 23.445 29.7503 23.7919 30.0778L28.9928 26.6779C28.8321 26.2287 28.4223 25.1169 28.0693 24.2614C27.6281 23.1917 26.8343 19.8807 26.3774 18.5542Z" fill="#916058"/>
<path d="M18.2485 15.5145C22.1471 13.0615 25.8012 16.8824 26.3772 18.5543C26.834 19.8808 27.6281 23.1914 28.0694 24.2613L28.3399 24.9366C28.6116 25.6314 28.8727 26.341 28.9933 26.6779L23.7921 30.078L22.9809 29.2973C22.6438 28.9678 22.2695 28.5957 21.9486 28.2625C21.1958 27.4812 18.7634 25.626 17.6121 24.6138L17.4 24.4228C16.0996 23.2243 14.0661 18.3443 17.8769 15.7574L18.2485 15.5145ZM18.3019 16.3728C16.6988 17.459 16.3067 18.9895 16.4567 20.454C16.5355 21.2222 16.7656 21.9628 17.0527 22.5799C17.3451 23.2082 17.6726 23.6573 17.907 23.8733C18.4005 24.328 19.3098 25.0584 20.2312 25.8063C21.1212 26.5286 22.0457 27.2859 22.487 27.7439C22.928 28.2017 23.476 28.7351 23.8817 29.1262L28.0855 26.3782C27.89 25.8496 27.6207 25.134 27.3783 24.5464C27.1358 23.9584 26.8131 22.8078 26.5085 21.7028C26.1931 20.5585 25.8896 19.4323 25.6711 18.7978C25.5673 18.4964 25.2866 18.0167 24.8285 17.4969C24.3784 16.9862 23.7924 16.4783 23.1202 16.098C21.839 15.373 20.2798 15.1179 18.6417 16.1507L18.3019 16.3728Z" fill="black"/>
<path d="M31.7522 58.5492C33.0835 58.5492 34.1628 57.4699 34.1628 56.1385C34.1628 54.8072 33.0835 53.7279 31.7522 53.7279C30.4208 53.7279 29.3416 54.8072 29.3416 56.1385C29.3416 57.4699 30.4208 58.5492 31.7522 58.5492Z" fill="#916058"/>
<path d="M31.7523 57.8018C30.8339 57.8018 30.0892 57.0571 30.0892 56.1387C30.0892 55.2202 30.8339 54.4755 31.7523 54.4755C32.6707 54.4756 33.4155 55.2203 33.4155 56.1387H34.1631L34.1595 56.0146C34.097 54.782 33.109 53.7934 31.8764 53.7308L31.7523 53.7279C30.421 53.7279 29.3416 54.8073 29.3416 56.1387L29.3445 56.2628C29.4091 57.5364 30.4626 58.5495 31.7523 58.5495L31.8764 58.5458C33.15 58.4811 34.163 57.4283 34.1631 56.1387H33.4155C33.4154 57.057 32.6707 57.8018 31.7523 57.8018Z" fill="black"/>
<path d="M36.634 34.5185C36.634 35.8499 35.5547 36.9292 34.2234 36.9292C32.892 36.9292 31.8127 35.8499 31.8127 34.5185C31.8127 33.1872 32.892 32.1079 34.2234 32.1079C35.5547 32.1079 36.634 33.1872 36.634 34.5185Z" fill="#916058"/>
<path d="M35.8867 34.5187C35.8867 33.6003 35.1419 32.8556 34.2235 32.8555C33.3051 32.8555 32.5604 33.6002 32.5604 34.5187C32.5604 35.4371 33.3051 36.1818 34.2235 36.1818V36.9295L34.0994 36.9258C32.8668 36.8634 31.8782 35.8753 31.8157 34.6428L31.8127 34.5187C31.8127 33.1873 32.8922 32.1079 34.2235 32.1079L34.3476 32.1108C35.6213 32.1755 36.6343 33.229 36.6343 34.5187L36.6307 34.6428C36.566 35.9164 35.5131 36.9294 34.2235 36.9295V36.1818C35.1419 36.1818 35.8866 35.437 35.8867 34.5187Z" fill="black"/>
<path d="M23.7971 58.5158C25.1169 58.691 26.3289 57.7632 26.5041 56.4435C26.6794 55.1237 25.7516 53.9117 24.4319 53.7364C23.1121 53.5612 21.9001 54.489 21.7249 55.8087C21.5496 57.1285 22.4774 58.3405 23.7971 58.5158Z" fill="#916058"/>
<path d="M23.8957 57.7749C22.9853 57.654 22.3451 56.8177 22.466 55.9073C22.5869 54.9968 23.4231 54.3567 24.3336 54.4776C25.244 54.5986 25.8842 55.4348 25.7633 56.3452L26.5044 56.4437L26.5172 56.3201C26.6175 55.0901 25.7683 53.98 24.5547 53.7557L24.432 53.7365C23.1123 53.5612 21.9001 54.4891 21.7248 55.8089L21.7114 55.9323C21.6078 57.2033 22.5188 58.3463 23.7972 58.5161L23.9208 58.5288C25.1917 58.6323 26.3346 57.722 26.5044 56.4437L25.7633 56.3452C25.6423 57.2556 24.806 57.8958 23.8957 57.7749Z" fill="black"/>
<path d="M17.8762 35.1361C17.8762 36.4674 18.9555 37.5467 20.2869 37.5467C21.6182 37.5467 22.6975 36.4674 22.6975 35.1361C22.6975 33.8047 21.6182 32.7255 20.2869 32.7255C18.9555 32.7255 17.8762 33.8047 17.8762 35.1361Z" fill="#916058"/>
<path d="M18.6236 35.1362C18.6236 34.2178 19.3683 33.4732 20.2867 33.4731C21.2052 33.4731 21.9499 34.2178 21.9499 35.1362C21.9498 36.0546 21.2051 36.7994 20.2867 36.7994V37.547L20.4108 37.5434C21.6434 37.4809 22.632 36.4929 22.6946 35.2604L22.6975 35.1362C22.6975 33.8049 21.6181 32.7255 20.2867 32.7255L20.1626 32.7284C18.889 32.793 17.876 33.8466 17.876 35.1362L17.8796 35.2604C17.9443 36.5339 18.9971 37.5469 20.2867 37.547V36.7994C19.3684 36.7993 18.6237 36.0546 18.6236 35.1362Z" fill="black"/>
<path d="M31.8877 73.0279C32.9528 73.0279 33.8162 72.1645 33.8162 71.0994C33.8162 70.0343 32.9528 69.1709 31.8877 69.1709C30.8226 69.1709 29.9592 70.0343 29.9592 71.0994C29.9592 72.1645 30.8226 73.0279 31.8877 73.0279Z" fill="#916058"/>
<path d="M31.8874 72.2803C31.2353 72.2801 30.7068 71.7511 30.7068 71.099C30.707 70.4471 31.2355 69.9187 31.8874 69.9185C32.5394 69.9185 33.0685 70.447 33.0686 71.099H33.8162L33.806 70.9019C33.7071 69.9296 32.8858 69.1709 31.8874 69.1709C30.8226 69.1711 29.9594 70.0342 29.9592 71.099C29.9592 72.164 30.8225 73.0277 31.8874 73.0279L32.0852 73.0177C33.0575 72.9188 33.8162 72.0974 33.8162 71.099H33.0686C33.0686 71.7512 32.5395 72.2803 31.8874 72.2803Z" fill="black"/>
<path d="M48.3328 26.6238C48.3328 27.6889 47.4694 28.5523 46.4043 28.5523C45.3393 28.5523 44.4758 27.6889 44.4758 26.6238C44.4758 25.5587 45.3393 24.6953 46.4043 24.6953C47.4694 24.6953 48.3328 25.5587 48.3328 26.6238Z" fill="#916058"/>
<path d="M47.5852 26.6235C47.5851 25.9714 47.056 25.4429 46.404 25.4429C45.7521 25.4431 45.2236 25.9715 45.2234 26.6235C45.2234 27.2755 45.7519 27.8045 46.404 27.8047V28.5523L46.2068 28.5421C45.2345 28.4432 44.4758 27.6218 44.4758 26.6235C44.476 25.5586 45.3392 24.6955 46.404 24.6953C47.4689 24.6953 48.3327 25.5585 48.3328 26.6235L48.3226 26.8213C48.2237 27.7936 47.4023 28.5523 46.404 28.5523V27.8047C47.0561 27.8047 47.5852 27.2756 47.5852 26.6235Z" fill="black"/>
<path d="M22.0255 72.8863C23.0813 73.0265 24.0509 72.2843 24.1911 71.2285C24.3313 70.1727 23.5891 69.2031 22.5333 69.0629C21.4775 68.9226 20.5079 69.6649 20.3677 70.7207C20.2275 71.7765 20.9697 72.7461 22.0255 72.8863Z" fill="#916058"/>
<path d="M22.1236 72.1452C21.4772 72.0591 21.023 71.4651 21.1088 70.8187C21.1948 70.1725 21.7882 69.7182 22.4345 69.8039C23.0809 69.8898 23.5357 70.4833 23.4501 71.1297L24.1912 71.2281L24.207 71.0314C24.237 70.0545 23.5226 69.1943 22.5329 69.0628C21.4774 68.9228 20.5081 69.6648 20.3677 70.7203C20.2275 71.776 20.9695 72.7459 22.0251 72.8862L22.2226 72.9022C23.1994 72.9321 24.0597 72.2178 24.1912 71.2281L23.4501 71.1297C23.3642 71.7762 22.7701 72.231 22.1236 72.1452Z" fill="black"/>
<path d="M7.72161 24.7705C7.72161 25.8356 8.58503 26.699 9.65011 26.699C10.7152 26.699 11.5786 25.8356 11.5786 24.7705C11.5786 23.7055 10.7152 22.842 9.65011 22.842C8.58503 22.842 7.72161 23.7055 7.72161 24.7705Z" fill="#916058"/>
<path d="M8.46921 24.7702C8.46938 24.1182 8.99841 23.5896 9.65048 23.5896C10.3024 23.5898 10.8308 24.1183 10.831 24.7702C10.831 25.4222 10.3025 25.9513 9.65048 25.9514V26.699L9.8476 26.6888C10.8199 26.5899 11.5786 25.7686 11.5786 24.7702C11.5784 23.7054 10.7153 22.8422 9.65048 22.842C8.58552 22.842 7.72178 23.7053 7.72161 24.7702L7.73183 24.968C7.83076 25.9403 8.65211 26.699 9.65048 26.699V25.9514C8.99831 25.9514 8.46921 25.4223 8.46921 24.7702Z" fill="black"/>
<path d="M31.8877 85.9999C32.9528 85.9999 33.8162 85.1365 33.8162 84.0714C33.8162 83.0064 32.9528 82.1429 31.8877 82.1429C30.8226 82.1429 29.9592 83.0064 29.9592 84.0714C29.9592 85.1365 30.8226 85.9999 31.8877 85.9999Z" fill="#916058"/>
<path d="M31.8874 85.2523C31.2353 85.2522 30.7068 84.7231 30.7068 84.0711C30.707 83.4192 31.2355 82.8907 31.8874 82.8905C32.5394 82.8905 33.0685 83.4191 33.0686 84.0711H33.8162L33.806 83.874C33.7071 82.9017 32.8858 82.1429 31.8874 82.1429C30.8226 82.1431 29.9594 83.0063 29.9592 84.0711C29.9592 85.136 30.8225 85.9998 31.8874 85.9999L32.0852 85.9897C33.0575 85.8908 33.8162 85.0694 33.8162 84.0711H33.0686C33.0686 84.7233 32.5395 85.2523 31.8874 85.2523Z" fill="black"/>
<path d="M61.3048 28.4768C61.3048 29.5419 60.4413 30.4053 59.3763 30.4053C58.3112 30.4053 57.4478 29.5419 57.4478 28.4768C57.4478 27.4118 58.3112 26.5483 59.3763 26.5483C60.4413 26.5483 61.3048 27.4118 61.3048 28.4768Z" fill="#916058"/>
<path d="M60.5572 28.4765C60.557 27.8245 60.028 27.2959 59.3759 27.2959C58.724 27.2961 58.1955 27.8246 58.1954 28.4765C58.1954 29.1285 58.7239 29.6576 59.3759 29.6577V30.4053L59.1788 30.3951C58.2065 30.2962 57.4478 29.4749 57.4478 28.4765C57.4479 27.4117 58.3111 26.5485 59.3759 26.5483C60.4408 26.5483 61.3046 27.4116 61.3048 28.4765L61.2945 28.6743C61.1956 29.6466 60.3743 30.4053 59.3759 30.4053V29.6577C60.0281 29.6577 60.5572 29.1286 60.5572 28.4765Z" fill="black"/>
<path d="M20.3177 85.7454C21.3735 85.8856 22.3431 85.1434 22.4833 84.0876C22.6236 83.0318 21.8813 82.0622 20.8255 81.922C19.7697 81.7818 18.8001 82.524 18.6599 83.5798C18.5197 84.6356 19.2619 85.6052 20.3177 85.7454Z" fill="#916058"/>
<path d="M20.4158 85.0043C19.7695 84.9183 19.3152 84.3243 19.4011 83.6779C19.4871 83.0317 20.0805 82.5774 20.7267 82.663C21.3731 82.7489 21.828 83.3425 21.7423 83.9888L22.4834 84.0872L22.4992 83.8905C22.5292 82.9136 21.8149 82.0534 20.8252 81.9219C19.7696 81.7819 18.8003 82.5239 18.66 83.5794C18.5198 84.6351 19.2618 85.605 20.3174 85.7454L20.5148 85.7613C21.4917 85.7912 22.352 85.0769 22.4834 84.0872L21.7423 83.9888C21.6564 84.6353 21.0623 85.0901 20.4158 85.0043Z" fill="black"/>
<path d="M0.000172138 35.2718C0.000172138 36.3368 0.863592 37.2003 1.92867 37.2003C2.99376 37.2003 3.85718 36.3368 3.85718 35.2718C3.85718 34.2067 2.99376 33.3433 1.92867 33.3433C0.863592 33.3433 0.000172138 34.2067 0.000172138 35.2718Z" fill="#916058"/>
<path d="M0.747773 35.2714C0.747944 34.6194 1.27698 34.0909 1.92904 34.0909C2.58096 34.091 3.10941 34.6195 3.10958 35.2714C3.10958 35.9235 2.58106 36.4525 1.92904 36.4527V37.2003L2.12616 37.19C3.09846 37.0912 3.85718 36.2698 3.85718 35.2714C3.85701 34.2066 2.99384 33.3434 1.92904 33.3433C0.864089 33.3433 0.0003438 34.2065 0.000172138 35.2714L0.0103931 35.4693C0.109322 36.4415 0.930677 37.2003 1.92904 37.2003V36.4527C1.27687 36.4527 0.747773 35.9236 0.747773 35.2714Z" fill="black"/>
<path d="M30.4649 57.9315C30.4649 57.9315 29.033 61.3885 29.033 63.7998C29.033 66.2112 30.4649 69.6681 30.4649 69.6681H33.1698C33.1698 69.6681 34.2836 66.1646 34.2836 63.7998C34.2836 61.435 33.1698 57.9315 33.1698 57.9315H30.4649Z" fill="#916058"/>
<path d="M29.0373 64.0286C29.1207 66.4088 30.4483 69.6282 30.4647 69.6678H33.1697C33.1807 69.633 34.2838 66.153 34.2838 63.8H33.5362C33.5362 64.8908 33.2754 66.2872 32.9996 67.4476C32.8635 68.02 32.7271 68.5213 32.625 68.8786C32.621 68.8927 32.6166 68.9065 32.6126 68.9202H30.9765C30.9656 68.8913 30.9537 68.8616 30.9422 68.8304C30.8117 68.4787 30.6378 67.9845 30.4639 67.4184C30.1103 66.2668 29.7806 64.8887 29.7806 63.8C29.7806 62.7112 30.1102 61.3326 30.4639 60.1809C30.6378 59.6149 30.8117 59.1213 30.9422 58.7697C30.9538 58.7383 30.9656 58.7081 30.9765 58.6791H32.6119C32.6159 58.693 32.6209 58.7071 32.625 58.7215C32.7271 59.0787 32.8635 59.5794 32.9996 60.1517C33.2754 61.3123 33.5362 62.7092 33.5362 63.8H34.2838L34.2802 63.5752C34.2149 61.2197 33.1697 57.9315 33.1697 57.9315H30.4647C30.4562 57.9521 29.033 61.3959 29.033 63.8L29.0373 64.0286Z" fill="black"/>
<path d="M35.1026 32.5838C35.1026 32.5838 37.1189 29.4317 39.0967 28.0523C41.0745 26.6729 44.7292 25.8698 44.7292 25.8698L46.2765 28.0884C46.2765 28.0884 44.04 31.0061 42.1004 32.3589C40.1607 33.7117 36.65 34.8024 36.65 34.8024L35.1026 32.5838Z" fill="#916058"/>
<path d="M39.2868 27.925C41.2869 26.6318 44.6869 25.879 44.7288 25.8698L46.2762 28.0885C46.2539 28.1175 44.0306 31.0129 42.1007 32.359L41.673 31.7458C42.5676 31.1218 43.5638 30.1091 44.3578 29.219C44.7495 28.78 45.0826 28.3813 45.3173 28.0932C45.3265 28.0818 45.3353 28.0703 45.3443 28.0592L44.4083 26.7172C44.3785 26.7249 44.3472 26.7321 44.315 26.7405C43.9519 26.8346 43.4471 26.9747 42.8833 27.156C41.7365 27.5247 40.4175 28.0426 39.5246 28.6654C38.6315 29.2882 37.6894 30.3473 36.9471 31.2962C36.5823 31.7626 36.2769 32.1876 36.0631 32.4958C36.044 32.5233 36.026 32.5502 36.0085 32.5757L36.944 33.9171C36.9577 33.9124 36.9721 33.9085 36.9863 33.9037C37.3377 33.783 37.8264 33.6085 38.3736 33.3927C39.4833 32.955 40.7782 32.3698 41.673 31.7458L42.1007 32.359L41.9141 32.4846C39.9448 33.7786 36.6499 34.8023 36.6499 34.8023L35.1025 32.5836C35.1145 32.5649 37.125 29.4275 39.0969 28.0522L39.2868 27.925Z" fill="black"/>
<path d="M22.6024 57.7339C22.6024 57.7339 20.7277 60.9723 20.4103 63.3626C20.0928 65.753 21.0572 69.3684 21.0572 69.3684L23.7385 69.7245C23.7385 69.7245 25.3038 66.3981 25.6151 64.0539C25.9265 61.7097 25.2837 58.0901 25.2837 58.0901L22.6024 57.7339Z" fill="#916058"/>
<path d="M20.3845 63.59C20.1538 65.9605 21.0459 69.3266 21.057 69.368L23.7384 69.7242C23.754 69.6911 25.3055 66.3866 25.6154 64.0542L24.8743 63.9557C24.7306 65.037 24.2883 66.3869 23.8621 67.5009C23.6518 68.0504 23.4507 68.5294 23.3024 68.8701C23.2965 68.8836 23.2903 68.8967 23.2846 68.9097L21.6627 68.6943C21.6558 68.6643 21.6479 68.6332 21.6405 68.6008C21.5575 68.235 21.4502 67.7222 21.3524 67.1381C21.1534 65.95 21.008 64.5405 21.1513 63.4613C21.2947 62.382 21.803 61.0587 22.3052 59.9637C22.5521 59.4254 22.7894 58.9591 22.9651 58.6276C22.9808 58.5981 22.9964 58.5697 23.011 58.5424L24.6322 58.7577C24.6343 58.772 24.6375 58.7866 24.6397 58.8014C24.6938 59.169 24.7631 59.6833 24.8226 60.2685C24.9433 61.4553 25.0179 62.8743 24.8743 63.9557L25.6154 64.0542L25.6414 63.8308C25.8868 61.4872 25.2836 58.09 25.2836 58.09L22.6021 57.7339C22.591 57.7531 20.7268 60.9796 20.4102 63.3628L20.3845 63.59Z" fill="black"/>
<path d="M20.0079 33.0123C20.0079 33.0123 18.544 29.5687 16.8232 27.8795C15.1024 26.1903 11.6322 24.7905 11.6322 24.7905L9.7374 26.7208C9.7374 26.7208 11.4574 29.9699 13.145 31.6265C14.8326 33.2831 18.1131 34.9425 18.1131 34.9425L20.0079 33.0123Z" fill="#916058"/>
<path d="M16.6569 27.7224C14.8998 26.1145 11.6723 24.8066 11.6326 24.7906L9.73771 26.721C9.75482 26.7533 11.4656 29.9782 13.1447 31.6265L13.6684 31.093C12.89 30.3289 12.0762 29.1646 11.4413 28.1549C11.1281 27.6568 10.8659 27.2083 10.6825 26.8852C10.6752 26.8724 10.6685 26.8595 10.6615 26.8471L11.8076 25.6795C11.8358 25.692 11.8654 25.7044 11.8957 25.718C12.2381 25.8712 12.7126 26.0933 13.2384 26.3658C14.3079 26.9201 15.5223 27.6503 16.2993 28.4129C17.0763 29.1756 17.8292 30.3766 18.4033 31.4358C18.6854 31.9564 18.9159 32.4262 19.0754 32.7657C19.0896 32.7959 19.1029 32.8255 19.116 32.8536L17.9704 34.0207C17.9576 34.0138 17.9441 34.0075 17.9309 34.0004C17.6045 33.823 17.1516 33.5696 16.6479 33.2658C15.6264 32.6496 14.4469 31.8572 13.6684 31.093L13.1447 31.6265L13.3077 31.7815C15.0344 33.3849 18.1131 34.9425 18.1131 34.9425L20.008 33.0121C19.9993 32.9916 18.5387 29.5635 16.823 27.8794L16.6569 27.7224Z" fill="black"/>
<path d="M30.4649 72.2594C30.4649 72.2594 29.033 75.3525 29.033 77.51C29.033 79.6675 30.4649 82.7606 30.4649 82.7606H33.1698C33.1698 82.7606 34.2836 79.6259 34.2836 77.51C34.2836 75.3941 33.1698 72.2594 33.1698 72.2594H30.4649Z" fill="#916058"/>
<path d="M29.0373 77.7147C29.1208 79.8456 30.4497 82.728 30.4647 82.7604H33.1697C33.1787 82.735 34.2837 79.6175 34.2838 77.5103H33.5362C33.5361 78.4659 33.2793 79.7 33.004 80.7366C32.8686 81.2461 32.7332 81.6925 32.6316 82.0106C32.6314 82.0113 32.6311 82.012 32.6309 82.0128H30.9553C30.9478 81.9947 30.9398 81.9763 30.9319 81.9573C30.8021 81.6443 30.6287 81.2049 30.4559 80.7015C30.1028 79.6728 29.7806 78.4585 29.7806 77.5103C29.7806 76.5619 30.1028 75.3471 30.4559 74.3183C30.6287 73.8148 30.8022 73.3754 30.9319 73.0625C30.9398 73.0435 30.9478 73.0251 30.9553 73.007H32.6301C32.6305 73.008 32.6313 73.009 32.6316 73.0099C32.7332 73.328 32.8686 73.7738 33.004 74.2832C33.2793 75.3199 33.5362 76.5545 33.5362 77.5103H34.2838L34.2802 77.3087C34.2148 75.2012 33.1697 72.2594 33.1697 72.2594H30.4647C30.4554 72.2796 29.033 75.3598 29.033 77.5103L29.0373 77.7147Z" fill="black"/>
<path d="M47.9615 25.1759C47.9615 25.1759 51.266 24.3408 53.3863 24.7398C55.5066 25.1389 58.2815 27.1183 58.2815 27.1183L57.7812 29.7765C57.7812 29.7765 54.4945 30.2912 52.4152 29.8998C50.3358 29.5085 47.4612 27.8341 47.4612 27.8341L47.9615 25.1759Z" fill="#916058"/>
<path d="M53.5867 24.782C55.6653 25.2581 58.2522 27.0973 58.2813 27.118L57.781 29.7763C57.7544 29.7805 54.4863 30.2898 52.4154 29.9001L52.5536 29.1654C53.4928 29.3421 54.7531 29.318 55.8227 29.2391C56.3485 29.2003 56.8122 29.1498 57.1436 29.1088C57.1444 29.1087 57.1451 29.1086 57.1459 29.1085L57.4558 27.4619C57.4395 27.4511 57.4228 27.4399 57.4056 27.4286C57.1221 27.2432 56.7224 26.9915 56.2596 26.7286C55.3139 26.1913 54.1801 25.6501 53.2483 25.4746C52.3163 25.2992 51.0629 25.3911 49.9865 25.5479C49.4598 25.6246 48.9959 25.7138 48.6643 25.7834C48.6442 25.7877 48.6246 25.7921 48.6055 25.7961L48.2957 27.4421C48.2966 27.4426 48.2974 27.4436 48.2983 27.4441C48.5921 27.6027 49.0051 27.8183 49.4807 28.0455C50.4486 28.5079 51.6144 28.9886 52.5536 29.1654L52.4154 29.9001L52.218 29.8593C50.1589 29.4053 47.4612 27.834 47.4612 27.834L47.9615 25.1757C47.983 25.1703 51.2732 24.3421 53.3866 24.7399L53.5867 24.782Z" fill="black"/>
<path d="M20.7159 71.9373C20.7159 71.9373 18.8892 74.8149 18.6051 76.9537C18.3211 79.0924 19.3333 82.3471 19.3333 82.3471L22.0147 82.7032C22.0147 82.7032 23.5314 79.7424 23.81 77.6449C24.0886 75.5475 23.3972 72.2934 23.3972 72.2934L20.7159 71.9373Z" fill="#916058"/>
<path d="M18.5825 77.1572C18.3847 79.2805 19.3225 82.3128 19.3331 82.3468L22.0146 82.703C22.0269 82.679 23.5327 79.7341 23.8102 77.6452L23.0691 77.5468C22.9432 78.4942 22.5262 79.6837 22.1167 80.6749C21.9155 81.1622 21.7225 81.5869 21.5799 81.8889C21.5796 81.8896 21.5792 81.8902 21.5789 81.8909L19.9179 81.6703C19.9128 81.6515 19.9074 81.6321 19.902 81.6122C19.8146 81.2849 19.7005 80.8265 19.5955 80.3047C19.3809 79.2385 19.2214 77.9923 19.3462 77.0524C19.471 76.1123 19.9504 74.9505 20.4359 73.9771C20.6735 73.5008 20.9032 73.088 21.0731 72.7949C21.0834 72.7771 21.0937 72.7599 21.1036 72.743L22.7638 72.9635C22.764 72.9645 22.7647 72.9656 22.7649 72.9666C22.8237 73.2953 22.8993 73.755 22.9664 74.2778C23.1029 75.3417 23.1949 76.5994 23.0691 77.5468L23.8102 77.6452L23.8331 77.445C24.0458 75.3472 23.3971 72.2934 23.3971 72.2934L20.7156 71.9373C20.7037 71.956 18.8882 74.8222 18.6051 76.9539L18.5825 77.1572Z" fill="black"/>
<path d="M7.63422 24.9182C7.63422 24.9182 4.65888 26.5811 3.39203 28.3275C2.12517 30.0739 1.46807 33.4184 1.46807 33.4184L3.65752 35.0067C3.65752 35.0067 6.39973 33.1233 7.64214 31.4106C8.88454 29.6979 9.82367 26.5065 9.82367 26.5065L7.63422 24.9182Z" fill="#916058"/>
<path d="M3.27538 28.4958C2.09171 30.2696 1.47489 33.3831 1.46799 33.4181L3.65756 35.0065C3.67976 34.9912 6.40478 33.1166 7.64219 31.4109L7.03703 30.9719C6.47584 31.7455 5.5433 32.5936 4.71177 33.271C4.30302 33.6039 3.93132 33.8857 3.66229 34.0836C3.66167 34.084 3.66103 34.0845 3.66041 34.0849L2.30412 33.101C2.3086 33.082 2.31301 33.0624 2.31779 33.0424C2.39648 32.7129 2.5141 32.2554 2.66984 31.7464C2.98806 30.7064 3.4403 29.5343 3.99704 28.7667C4.55387 27.9991 5.52801 27.2049 6.41798 26.5795C6.85345 26.2735 7.25185 26.0196 7.54066 25.8425C7.5582 25.8318 7.57545 25.8215 7.59215 25.8113L8.94786 26.7948C8.94754 26.7957 8.94764 26.797 8.94733 26.798C8.84277 27.1151 8.69065 27.5555 8.50107 28.0473C8.11526 29.0481 7.59824 30.1983 7.03703 30.9719L7.64219 31.4109L7.75756 31.2457C8.94217 29.5014 9.82358 26.5064 9.82358 26.5064L7.63401 24.9181C7.61461 24.9289 4.65458 26.587 3.39187 28.3277L3.27538 28.4958Z" fill="black"/>
<path d="M32.1441 32.9819C31.5941 32.1585 29.1378 31.8568 27.3368 31.9514C25.5359 32.0461 24.1257 31.8947 22.7386 32.9819C20.7815 34.5159 19.0183 48.886 20.6322 51.8652C22.6683 55.6239 25.7874 55.7824 27.6504 56.0257C29.8452 56.0257 30.8544 55.71 32.7711 54.3395L32.8044 54.3212C37.1603 51.2483 33.2936 34.7032 32.1441 32.9819Z" fill="#916058"/>
<path d="M27.317 31.5784C28.2425 31.5298 29.3364 31.5826 30.2768 31.7551C30.7467 31.8413 31.1907 31.9595 31.5603 32.1165C31.9208 32.2696 32.2572 32.4787 32.4547 32.7743C32.6299 33.0366 32.8296 33.5288 33.0359 34.1491C33.247 34.7838 33.4779 35.5932 33.7076 36.5204C34.167 38.3749 34.6251 40.7156 34.91 43.1001C35.1946 45.4813 35.3089 47.9241 35.0721 49.9754C34.8383 52.0002 34.2497 53.7592 33.0198 54.6268L33.003 54.6385L32.984 54.6487L32.9694 54.656C32.0077 55.3424 31.245 55.7861 30.4309 56.052C29.6103 56.3199 28.7641 56.3995 27.6507 56.3995H27.6258L27.6018 56.3966C26.6915 56.2777 25.3848 56.172 24.0593 55.6073C22.7173 55.0355 21.3633 53.999 20.3037 52.043C20.071 51.6133 19.914 51.0121 19.8094 50.3171C19.7038 49.6145 19.647 48.7852 19.6313 47.88C19.5999 46.0692 19.7319 43.9286 19.9752 41.8384C20.2184 39.7485 20.5744 37.6975 20.9951 36.067C21.2053 35.2526 21.4339 34.5342 21.6763 33.9651C21.9116 33.4125 22.1832 32.9419 22.5079 32.6874C24.013 31.5077 25.5874 31.6693 27.317 31.5784ZM30.1425 32.4903C29.267 32.3297 28.2319 32.2785 27.3564 32.3246C25.4844 32.423 24.2382 32.2814 22.9693 33.2759C22.8047 33.4049 22.5934 33.7195 22.364 34.2579C22.1418 34.7798 21.9238 35.459 21.7186 36.2539C21.3088 37.8423 20.9582 39.8579 20.7177 41.9246C20.4772 43.991 20.3482 46.0975 20.3789 47.8669C20.3943 48.7518 20.4498 49.5465 20.549 50.2061C20.6493 50.8729 20.7901 51.3724 20.9608 51.6875C21.9372 53.4898 23.1607 54.4117 24.3528 54.9196C25.5508 55.43 26.725 55.5283 27.6733 55.6511C28.7421 55.65 29.492 55.5716 30.1987 55.3409C30.9118 55.108 31.6077 54.7121 32.554 54.0354L32.5715 54.0223L32.5912 54.0121L32.6 54.007C33.541 53.3345 34.0994 51.8772 34.3289 49.89C34.5562 47.921 34.4488 45.5433 34.1675 43.1891C33.8866 40.8382 33.4346 38.5278 32.9818 36.7C32.7554 35.7861 32.5296 34.9964 32.3262 34.3849C32.1181 33.7593 31.9456 33.3579 31.8334 33.1897C31.756 33.0738 31.5791 32.9363 31.2683 32.8042C30.9665 32.6761 30.5804 32.5706 30.1425 32.4903Z" fill="black"/>
</svg>
