<svg width="116" height="70" viewBox="0 0 116 70" fill="none" xmlns="http://www.w3.org/2000/svg">
<path d="M1 3.81553C1 2.26056 2.23642 1 3.76163 1H93.2384C94.7636 1 96 2.26056 96 3.81553V56.1845C96 57.7394 94.7636 59 93.2384 59H3.76163C2.23642 59 1 57.7394 1 56.1845V3.81553Z" fill="#7B8868"/>
<path d="M93.2384 58.4369V59H3.76163V58.4369H93.2384ZM95.4477 56.1845V3.81553C95.4477 2.57155 94.4585 1.56311 93.2384 1.56311H3.76163C2.54146 1.56311 1.55233 2.57155 1.55233 3.81553V56.1845C1.55233 57.4284 2.54146 58.4369 3.76163 58.4369V59C2.284 59 1.07762 57.8169 1.00378 56.3291L1 56.1845V3.81553C1 2.26056 2.23642 1 3.76163 1H93.2384L93.3802 1.00385C94.8395 1.07913 96 2.30907 96 3.81553V56.1845L95.9962 56.3291C95.9248 57.7689 94.7925 58.9233 93.3802 58.9962L93.2384 59V58.4369C94.4585 58.4369 95.4477 57.4284 95.4477 56.1845Z" fill="black"/>
<path d="M93.2384 58.4369V59M93.2384 58.4369H3.76163M93.2384 58.4369C94.4585 58.4369 95.4477 57.4284 95.4477 56.1845V3.81553C95.4477 2.57155 94.4585 1.56311 93.2384 1.56311H3.76163C2.54146 1.56311 1.55233 2.57155 1.55233 3.81553V56.1845C1.55233 57.4284 2.54146 58.4369 3.76163 58.4369M93.2384 59H3.76163M93.2384 59L93.3802 58.9962C94.7925 58.9233 95.9248 57.7689 95.9962 56.3291L96 56.1845V3.81553C96 2.30907 94.8395 1.07913 93.3802 1.00385L93.2384 1H3.76163C2.23642 1 1 2.26056 1 3.81553V56.1845L1.00378 56.3291C1.07762 57.8169 2.284 59 3.76163 59M3.76163 59V58.4369" stroke="black"/>
<path d="M84.1241 6.03931L90.0002 12.0072V42.0393H7.00024V12.0072L12.8763 6.03931H84.1241Z" fill="#58644C"/>
<path d="M83.8587 5.8877L89.7752 11.8437L89.8562 11.9248V41.8877H6.8562V11.9248L6.93726 11.8437L12.8537 5.8877H83.8587ZM7.39868 12.1563V41.3339H89.3137V12.1563L83.6357 6.44154H13.0768L7.39868 12.1563Z" fill="black"/>
<path d="M20.4102 24.3821C20.4102 20.5037 23.5542 17.3596 27.4326 17.3596H69.0055C72.8839 17.3596 76.028 20.5037 76.028 24.3821C76.028 28.2605 72.8839 31.4045 69.0055 31.4045H27.4326C23.5542 31.4045 20.4102 28.2605 20.4102 24.3821Z" fill="#354343"/>
<path d="M69.0055 30.8427V31.4045H27.4326V30.8427H69.0055ZM75.4662 24.3821C75.4662 20.814 72.5737 17.9214 69.0055 17.9214H27.4326C23.8645 17.9214 20.972 20.814 20.972 24.3821C20.972 27.9502 23.8645 30.8427 27.4326 30.8427V31.4045L27.2516 31.4023C23.4568 31.3063 20.4102 28.1999 20.4102 24.3821C20.4102 20.5642 23.4568 17.4578 27.2516 17.3618L27.4326 17.3596H69.0055C72.8839 17.3596 76.028 20.5037 76.028 24.3821C76.028 28.2605 72.8839 31.4045 69.0055 31.4045V30.8427C72.5737 30.8427 75.4662 27.9502 75.4662 24.3821Z" fill="black"/>
<path d="M33.3314 24.3821C33.3314 27.3297 30.9419 29.7192 27.9943 29.7192C25.0467 29.7192 22.6572 27.3297 22.6572 24.3821C22.6572 21.4345 25.0467 19.045 27.9943 19.045C30.9419 19.045 33.3314 21.4345 33.3314 24.3821Z" fill="#916058"/>
<path d="M32.7696 24.3821C32.7696 21.7448 30.6316 19.6068 27.9943 19.6068C25.357 19.6068 23.219 21.7448 23.219 24.3821C23.219 27.0194 25.357 29.1574 27.9943 29.1574V29.7192C25.0467 29.7192 22.6572 27.3297 22.6572 24.3821C22.6572 21.4345 25.0467 19.045 27.9943 19.045C30.9419 19.045 33.3314 21.4345 33.3314 24.3821C33.3314 27.3297 30.9419 29.7192 27.9943 29.7192V29.1574C30.6316 29.1574 32.7696 27.0194 32.7696 24.3821Z" fill="black"/>
<path d="M74.3426 24.3821C74.3426 27.3297 71.9531 29.7192 69.0055 29.7192C66.0579 29.7192 63.6685 27.3297 63.6685 24.3821C63.6685 21.4345 66.0579 19.045 69.0055 19.045C71.9531 19.045 74.3426 21.4345 74.3426 24.3821Z" fill="#916058"/>
<path d="M73.7808 24.3821C73.7808 21.7448 71.6428 19.6068 69.0055 19.6068C66.3682 19.6068 64.2303 21.7448 64.2303 24.3821C64.2303 27.0194 66.3682 29.1574 69.0055 29.1574V29.7192C66.0579 29.7192 63.6685 27.3297 63.6685 24.3821C63.6685 21.4345 66.0579 19.045 69.0055 19.045C71.9531 19.045 74.3426 21.4345 74.3426 24.3821C74.3426 27.3297 71.9531 29.7192 69.0055 29.7192V29.1574C71.6428 29.1574 73.7808 27.0194 73.7808 24.3821Z" fill="black"/>
<path d="M41.1968 22.4157C41.1968 20.8643 42.4544 19.6067 44.0058 19.6067H52.9945C54.5459 19.6067 55.8035 20.8643 55.8035 22.4157V26.91C55.8035 28.4614 54.5459 29.719 52.9945 29.719H44.0058C42.4544 29.719 41.1968 28.4614 41.1968 26.91V22.4157Z" fill="#7B8868"/>
<path d="M52.9945 29.1572V29.719H44.0058V29.1572H52.9945ZM55.2417 26.91V22.4157C55.2417 21.1746 54.2356 20.1685 52.9945 20.1685H44.0058C42.7647 20.1685 41.7586 21.1746 41.7586 22.4157V26.91C41.7586 28.1511 42.7647 29.1572 44.0058 29.1572V29.719C42.5028 29.719 41.2757 28.5386 41.2006 27.0543L41.1968 26.91V22.4157C41.1968 20.8643 42.4544 19.6067 44.0058 19.6067H52.9945L53.1388 19.6105C54.6231 19.6856 55.8035 20.9127 55.8035 22.4157V26.91L55.7996 27.0543C55.727 28.4908 54.5753 29.6425 53.1388 29.7152L52.9945 29.719V29.1572C54.2356 29.1572 55.2417 28.1511 55.2417 26.91Z" fill="black"/>
<path d="M85.0166 58.9325H13.6685L19.0047 45.4493H79.6803L85.0166 58.9325Z" fill="#58644C"/>
<path d="M85.0166 58.9325H13.6685L19.005 45.4493H79.6801L85.0166 58.9325ZM14.4952 58.3707H84.1898L79.2982 46.0111H19.3868L14.4952 58.3707Z" fill="black"/>
<path d="M36.1406 51.0674C36.1406 52.3085 35.1345 53.3146 33.8934 53.3146C32.6523 53.3146 31.6462 52.3085 31.6462 51.0674C31.6462 49.8263 32.6523 48.8202 33.8934 48.8202C35.1345 48.8202 36.1406 49.8263 36.1406 51.0674Z" fill="#354343"/>
<path d="M35.5788 51.0674C35.5788 50.1366 34.8242 49.382 33.8934 49.382C32.9626 49.382 32.208 50.1366 32.208 51.0674C32.208 51.9982 32.9626 52.7528 33.8934 52.7528V53.3146C32.6523 53.3146 31.6462 52.3085 31.6462 51.0674C31.6462 49.8263 32.6523 48.8202 33.8934 48.8202C35.1345 48.8202 36.1406 49.8263 36.1406 51.0674C36.1406 52.3085 35.1345 53.3146 33.8934 53.3146V52.7528C34.8242 52.7528 35.5788 51.9982 35.5788 51.0674Z" fill="black"/>
<path d="M64.2302 51.0674C64.2302 52.3085 63.2241 53.3146 61.983 53.3146C60.7419 53.3146 59.7358 52.3085 59.7358 51.0674C59.7358 49.8263 60.7419 48.8202 61.983 48.8202C63.2241 48.8202 64.2302 49.8263 64.2302 51.0674Z" fill="#354343"/>
<path d="M63.6684 51.0674C63.6684 50.1366 62.9138 49.382 61.983 49.382C61.0522 49.382 60.2976 50.1366 60.2976 51.0674C60.2976 51.9982 61.0522 52.7528 61.983 52.7528V53.3146C60.7419 53.3146 59.7358 52.3085 59.7358 51.0674C59.7358 49.8263 60.7419 48.8202 61.983 48.8202C63.2241 48.8202 64.2302 49.8263 64.2302 51.0674C64.2302 52.3085 63.2241 53.3146 61.983 53.3146V52.7528C62.9138 52.7528 63.6684 51.9982 63.6684 51.0674Z" fill="black"/>
<path d="M27.1516 53.8763C27.1516 55.1174 26.1455 56.1235 24.9044 56.1235C23.6633 56.1235 22.6572 55.1174 22.6572 53.8763C22.6572 52.6352 23.6633 51.6292 24.9044 51.6292C26.1455 51.6292 27.1516 52.6352 27.1516 53.8763Z" fill="#354343"/>
<path d="M26.5898 53.8763C26.5898 52.9455 25.8352 52.1909 24.9044 52.1909C23.9736 52.1909 23.219 52.9455 23.219 53.8763C23.219 54.8072 23.9736 55.5617 24.9044 55.5617V56.1235C23.6633 56.1235 22.6572 55.1174 22.6572 53.8763C22.6572 52.6352 23.6633 51.6292 24.9044 51.6292C26.1455 51.6292 27.1516 52.6352 27.1516 53.8763C27.1516 55.1174 26.1455 56.1235 24.9044 56.1235V55.5617C25.8352 55.5617 26.5898 54.8072 26.5898 53.8763Z" fill="black"/>
<path d="M73.781 53.8763C73.781 55.1174 72.7749 56.1235 71.5338 56.1235C70.2927 56.1235 69.2866 55.1174 69.2866 53.8763C69.2866 52.6352 70.2927 51.6292 71.5338 51.6292C72.7749 51.6292 73.781 52.6352 73.781 53.8763Z" fill="#354343"/>
<path d="M73.2192 53.8763C73.2192 52.9455 72.4646 52.1909 71.5338 52.1909C70.603 52.1909 69.8484 52.9455 69.8484 53.8763C69.8484 54.8072 70.603 55.5617 71.5338 55.5617V56.1235C70.2927 56.1235 69.2866 55.1174 69.2866 53.8763C69.2866 52.6352 70.2927 51.6292 71.5338 51.6292C72.7749 51.6292 73.781 52.6352 73.781 53.8763C73.781 55.1174 72.7749 56.1235 71.5338 56.1235V55.5617C72.4646 55.5617 73.2192 54.8072 73.2192 53.8763Z" fill="black"/>
<path d="M41.7583 51.6292H55.2414V58.9325H41.7583V51.6292Z" fill="#7B8868"/>
<path d="M55.2414 51.6292V58.9325H41.7583V51.6292H55.2414ZM42.3201 58.3707H54.6796V52.1909H42.3201V58.3707Z" fill="black"/>
<path d="M69.0063 20.1686C69.6306 20.1686 70.2233 20.3 70.7575 20.534L70.0196 21.3509L71.2403 22.3856L72.0863 21.448C72.6827 22.0539 73.0911 22.8352 73.2197 23.7039H72.0468V25.2747H73.1407C72.9784 25.9188 72.6585 26.5028 72.2251 26.9886L71.1305 26.0609L70.0629 27.2432L70.9254 27.9745C70.3487 28.2574 69.6969 28.4172 69.0063 28.4172C68.3184 28.4172 67.6687 28.259 67.0937 27.9783L67.8914 27.0956L66.6713 26.0609L65.8094 27.0144C65.3641 26.5236 65.0365 25.9302 64.8712 25.2747H65.9652V23.7039H64.7922C64.9125 22.8907 65.2779 22.1538 65.8132 21.5659L66.7799 22.3856L67.8481 21.2033L67.1267 20.5916C67.6934 20.321 68.3317 20.1686 69.0063 20.1686Z" fill="#E1D0B3"/>
<path d="M71.485 23.1421H72.5032C72.3972 22.8432 72.2506 22.5619 72.0698 22.3038L71.2924 23.1663L69.2142 21.4046L69.6026 20.9745L69.7551 20.805C69.5775 20.7695 69.3954 20.7457 69.2092 20.7359L69.0063 20.7304C68.7462 20.7304 68.493 20.7575 68.2486 20.8066L68.6535 21.1495L66.832 23.1663L65.8944 22.3713C65.735 22.6106 65.6049 22.8692 65.5082 23.1421H66.527V25.3822L66.6197 25.2802L68.6968 27.0418L68.3084 27.4725L68.0681 27.738C68.3674 27.8136 68.6814 27.8554 69.0063 27.8554V28.4172C68.3184 28.4172 67.6687 28.259 67.0937 27.9783L67.8914 27.0956L66.6713 26.0609L65.8094 27.0144C65.3641 26.5236 65.0365 25.9302 64.8712 25.2747H65.9652V23.7039H64.7922C64.9125 22.8907 65.2779 22.1538 65.8132 21.5659L66.7799 22.3856L67.8481 21.2033L67.1267 20.5916C67.6934 20.321 68.3317 20.1686 69.0063 20.1686C69.6306 20.1686 70.2233 20.3 70.7575 20.534L70.0196 21.3509L71.2403 22.3856L72.0863 21.448C72.6827 22.0539 73.0911 22.8352 73.2197 23.7039H72.0468V25.2747H73.1407C72.9784 25.9188 72.6585 26.5028 72.2251 26.9886L71.1305 26.0609L70.0629 27.2432L70.9254 27.9745C70.3487 28.2574 69.6969 28.4172 69.0063 28.4172V27.8554C69.2842 27.8554 69.5541 27.8242 69.8138 27.7682L69.2575 27.2969L71.0784 25.2802L71.485 25.6247V23.1421ZM72.1373 26.1777C72.2089 26.0676 72.2747 25.954 72.3337 25.8365H71.7346L72.1373 26.1777ZM65.6777 25.8365C65.729 25.9389 65.7841 26.0392 65.8451 26.136L66.1166 25.8365H65.6777Z" fill="black"/>
<path d="M27.995 20.1686C28.6194 20.1686 29.2121 20.3 29.7463 20.534L29.0083 21.3509L30.229 22.3856L31.075 21.448C31.6714 22.0539 32.08 22.8352 32.2085 23.7039H31.0355V25.2747H32.1295C31.9671 25.9188 31.6479 26.5029 31.2144 26.9886L30.1199 26.0603L29.0517 27.2426L29.9147 27.9739C29.3379 28.2569 28.6859 28.4172 27.995 28.4172C27.3072 28.4172 26.6575 28.2589 26.0825 27.9783L26.8802 27.0956L25.6601 26.0609L24.7976 27.0149C24.3522 26.5242 24.0248 25.9302 23.8595 25.2747H24.954V23.7039H23.781C23.9013 22.8906 24.2667 22.1538 24.802 21.5659L25.7692 22.3856L26.8369 21.2033L26.1154 20.5916C26.6822 20.321 27.3204 20.1686 27.995 20.1686Z" fill="#E1D0B3"/>
<path d="M30.4737 23.1421H31.492C31.3859 22.8432 31.2394 22.5619 31.0586 22.3038L30.2812 23.1663L28.203 21.4046L28.5914 20.9745L28.7439 20.805C28.5663 20.7695 28.3841 20.7457 28.198 20.7359L27.995 20.7304C27.735 20.7304 27.4818 20.7575 27.2374 20.8066L27.6423 21.1495L25.8214 23.1663L24.8838 22.3713C24.7242 22.6107 24.5937 22.8691 24.497 23.1421H25.5158V25.3822L25.6085 25.2802L27.6856 27.0418L27.2972 27.4725L27.0569 27.738C27.3562 27.8136 27.6702 27.8554 27.995 27.8554V28.4172C27.3072 28.4172 26.6575 28.2589 26.0825 27.9783L26.8802 27.0956L25.6601 26.0609L24.7976 27.0149C24.3522 26.5242 24.0248 25.9302 23.8595 25.2747H24.954V23.7039H23.781C23.9013 22.8906 24.2667 22.1538 24.802 21.5659L25.7692 22.3856L26.8369 21.2033L26.1154 20.5916C26.6822 20.321 27.3204 20.1686 27.995 20.1686C28.6194 20.1686 29.2121 20.3 29.7463 20.534L29.0083 21.3509L30.229 22.3856L31.075 21.448C31.6714 22.0539 32.08 22.8352 32.2085 23.7039H31.0355V25.2747H32.1295C31.9671 25.9188 31.6479 26.5029 31.2144 26.9886L30.1199 26.0603L29.0517 27.2426L29.9147 27.9739C29.3379 28.2569 28.6859 28.4172 27.995 28.4172V27.8554C28.2729 27.8554 28.5429 27.8242 28.8026 27.7682L28.6885 27.6711L28.2463 27.2964L30.0677 25.2796L30.4737 25.6236V23.1421ZM31.1266 26.1777C31.1982 26.0676 31.2641 25.954 31.323 25.8365H30.7245L31.1266 26.1777ZM24.6659 25.8365C24.7173 25.939 24.7722 26.0396 24.8333 26.1366L25.1054 25.8365H24.6659Z" fill="black"/>
<path d="M99.3984 63.5743C96.7593 64.4541 94.4972 62.8203 92.6121 61.6892L91.104 62.8203C92.2351 63.9514 95.2621 65.6984 97.8904 65.4594C102.038 65.0824 102.792 63.9514 103.923 61.6892C105.054 59.4271 104.3 56.788 103.546 54.9029C102.792 53.0178 100.152 51.8867 100.152 51.8867L99.3984 53.7718C99.3984 53.7718 100.152 53.7718 101.661 55.2799C103.169 56.788 102.792 58.6731 102.415 60.1812C102.038 61.6892 101.284 62.946 99.3984 63.5743Z" fill="#575757"/>
<path d="M100.045 51.6272C100.115 51.5982 100.194 51.5985 100.263 51.6283L100.153 51.8867L100.263 51.6289H100.264C100.264 51.6291 100.265 51.6296 100.266 51.6299C100.268 51.6306 100.27 51.6315 100.273 51.6327C100.278 51.6352 100.287 51.639 100.297 51.6437C100.318 51.6531 100.349 51.6668 100.387 51.6848C100.464 51.7209 100.573 51.7742 100.707 51.8439C100.973 51.9833 101.337 52.1891 101.725 52.4562C102.493 52.9841 103.398 53.7775 103.806 54.7983C104.561 56.6858 105.365 59.4326 104.174 61.8147C103.61 62.9429 103.113 63.8514 102.202 64.509C101.292 65.1661 100.006 65.549 97.9158 65.739C96.5358 65.8645 95.0717 65.4689 93.8214 64.9101C92.5707 64.3511 91.5003 63.6138 90.9054 63.0189C90.8479 62.9614 90.818 62.8817 90.8237 62.8006C90.8295 62.7194 90.8705 62.6443 90.9356 62.5954L92.4438 61.4647L92.4795 61.4416C92.5656 61.3954 92.6709 61.3969 92.7565 61.4482C93.7154 62.0235 94.7224 62.6957 95.8244 63.1243C96.9152 63.5484 98.0708 63.7211 99.3099 63.3081C100.207 63.0091 100.819 62.5664 101.254 62.0309C101.69 61.4922 101.959 60.8431 102.142 60.1129C102.521 58.5947 102.848 56.8643 101.462 55.4786C100.724 54.7405 100.182 54.3838 99.8382 54.2118C99.6666 54.126 99.5445 54.0863 99.4717 54.0681C99.4353 54.059 99.4109 54.0548 99.3988 54.0532C99.3937 54.0526 99.3907 54.0527 99.39 54.0527H99.3982C99.3051 54.0526 99.2184 54.0063 99.1661 53.9293C99.1139 53.8521 99.103 53.7541 99.1376 53.6676L99.892 51.7825L99.9178 51.7325C99.9484 51.6858 99.9926 51.6489 100.045 51.6272ZM99.779 53.5759C99.8675 53.6075 99.9712 53.6501 100.089 53.7093C100.5 53.9143 101.089 54.3114 101.859 55.0814C103.49 56.7117 103.062 58.7516 102.687 60.2495C102.493 61.0272 102.196 61.7609 101.69 62.3847C101.182 63.0116 100.475 63.5114 99.4871 63.8408C98.0872 64.3074 96.7922 64.1031 95.6209 63.6477C94.5275 63.2225 93.5162 62.5674 92.6281 62.0281L91.5413 62.8434C92.1109 63.3414 93.0076 63.9311 94.0502 64.3971C95.2531 64.9348 96.6166 65.2929 97.8648 65.1794C99.9217 64.9925 101.086 64.6219 101.873 64.0537C102.659 63.486 103.105 62.6973 103.671 61.5634C104.742 59.4214 104.038 56.89 103.285 55.0073C102.939 54.1432 102.147 53.4281 101.407 52.9192C101.042 52.668 100.698 52.4737 100.447 52.3421C100.394 52.3147 100.345 52.2915 100.301 52.2697L99.779 53.5759Z" fill="black"/>
<path d="M76.4 36.0519C73.3603 36.052 72.3784 36.931 71.8757 38.3134C71.8757 38.3134 72.0014 39.0677 73.0068 39.0677C73.7428 39.0677 75.1252 38.3135 76.4 38.3134C77.9081 38.3133 78.8506 38.9734 79.7932 39.0677C80.7357 39.162 81.6783 38.6905 81.6783 38.6905C81.1756 37.5594 79.0391 36.0518 76.4 36.0519Z" fill="#575757"/>
<path d="M76.4001 35.771C77.7725 35.771 79.0134 36.1628 79.9777 36.702C80.9328 37.2362 81.6498 37.9345 81.9352 38.5767C81.996 38.7139 81.9383 38.8744 81.804 38.9415V38.9421L81.8024 38.9426C81.8017 38.943 81.8008 38.9437 81.7997 38.9443C81.7972 38.9455 81.7935 38.9472 81.7892 38.9492C81.7808 38.9533 81.7687 38.9587 81.7536 38.9657C81.723 38.9797 81.6792 38.9993 81.6241 39.0222C81.514 39.0678 81.3578 39.1272 81.1704 39.1835C80.7992 39.2949 80.2878 39.3992 79.7653 39.347C79.2544 39.2958 78.7371 39.0903 78.222 38.9223C77.6917 38.7493 77.111 38.5942 76.4001 38.5942C75.8107 38.5943 75.1838 38.7698 74.5863 38.9585C74.2946 39.0507 74.0032 39.1478 73.7441 39.2202C73.4871 39.2921 73.2318 39.3486 73.0073 39.3486C72.4236 39.3486 72.0606 39.1246 71.8486 38.8702C71.7468 38.7479 71.6855 38.6259 71.6495 38.5333C71.6314 38.4868 71.6194 38.4468 71.6116 38.417C71.6077 38.4021 71.6049 38.3894 71.6028 38.3797C71.6018 38.375 71.6013 38.371 71.6006 38.3677L71.599 38.3611V38.36C71.599 38.3598 71.599 38.3595 71.8761 38.3133L71.599 38.3594C71.5911 38.3118 71.5956 38.2627 71.6122 38.2173C71.8788 37.4842 72.2851 36.8555 73.0474 36.4206C73.797 35.993 74.8595 35.7711 76.4001 35.771ZM76.4001 36.3328C74.9013 36.3329 73.9529 36.5508 73.3261 36.9083C72.7386 37.2434 72.4067 37.7177 72.1723 38.3265C72.1727 38.3274 72.1731 38.3283 72.1734 38.3293C72.1924 38.3781 72.2253 38.4447 72.2804 38.5109C72.3827 38.6336 72.5858 38.7868 73.0073 38.7868C73.1508 38.7868 73.344 38.7488 73.5927 38.6793C73.8397 38.6103 74.112 38.5189 74.4173 38.4225C75.0135 38.2342 75.7149 38.0325 76.4001 38.0324C77.1971 38.0324 77.8424 38.2074 78.396 38.388C78.9647 38.5735 79.3899 38.7453 79.8213 38.7885C80.2413 38.8305 80.6728 38.746 81.0085 38.6453C81.1115 38.6144 81.2036 38.5813 81.2818 38.552C80.9959 38.1134 80.4528 37.611 79.7033 37.1919C78.8139 36.6946 77.6666 36.3328 76.4001 36.3328Z" fill="black"/>
<path d="M88.0878 37.5598C85.9765 36.3534 83.6892 37.0571 82.8095 37.5598L81.6785 39.445C82.5582 39.1937 84.8454 38.9926 86.9567 40.199C89.0681 41.4055 89.3445 43.4666 89.2189 44.3463L91.858 42.8382C91.481 41.5814 90.1991 38.7663 88.0878 37.5598Z" fill="#575757"/>
<path d="M82.6705 37.3162C83.5991 36.7856 85.9975 36.0424 88.227 37.3162C89.3391 37.9517 90.2176 38.9999 90.8615 40.0314C91.5068 41.0652 91.9318 42.1063 92.1272 42.7575C92.1647 42.8827 92.1111 43.0174 91.9977 43.0823L89.3582 44.5905C89.2651 44.6437 89.1496 44.6392 89.0609 44.579C88.9722 44.5187 88.9257 44.413 88.9407 44.3069C89.0546 43.5098 88.8039 41.5779 86.8175 40.4429C84.7878 39.283 82.5825 39.4793 81.7559 39.7154C81.645 39.7471 81.526 39.7075 81.4558 39.6161C81.3856 39.5246 81.3784 39.3995 81.4377 39.3006L82.569 37.4155L82.5893 37.3859C82.6115 37.3578 82.6391 37.3341 82.6705 37.3162ZM87.9483 37.804C86.0022 36.692 83.883 37.2998 83.0106 37.771L82.2469 39.0433C83.3943 38.8817 85.3042 38.9311 87.0962 39.9551C88.9808 41.032 89.4894 42.7573 89.5212 43.8493L91.5209 42.7071C91.3158 42.0961 90.9354 41.2101 90.3853 40.3288C89.7662 39.3369 88.9474 38.3749 87.9483 37.804Z" fill="black"/>
<path d="M85.4487 32.2817C83.0358 31.6785 79.9191 29.0142 78.6624 27.7575L80.9245 27.0034C81.3015 27.2548 82.5834 28.0591 84.6947 29.2655C87.3338 30.7736 89.2189 30.7736 92.2351 32.2817C94.648 33.4882 96.508 37.0573 97.1363 38.691L93.7432 41.3302C93.4918 40.4505 92.8383 38.314 92.2351 36.8059C91.481 34.9208 88.4649 33.0357 85.4487 32.2817Z" fill="#575757"/>
<path d="M80.8985 26.7236C80.9619 26.7177 81.0261 26.7337 81.0801 26.7697C81.4496 27.016 82.7252 27.8169 84.8338 29.0218C86.1263 29.7604 87.234 30.1298 88.4093 30.5058C89.5858 30.8823 90.8305 31.2655 92.3605 32.0305C93.6315 32.666 94.7331 33.9077 95.5875 35.1686C96.4458 36.4354 97.0775 37.7557 97.3986 38.5904C97.4428 38.7059 97.4062 38.8365 97.3086 38.9125L93.9153 41.5519C93.8417 41.6091 93.7444 41.6259 93.6558 41.5969C93.5672 41.5679 93.4987 41.4968 93.4731 41.4071C93.2225 40.53 92.5721 38.4045 91.9743 36.91C91.6287 36.0464 90.7428 35.1437 89.5367 34.355C88.3383 33.5715 86.8588 32.924 85.3803 32.5544C84.1198 32.2393 82.7018 31.3957 81.457 30.4921C80.2061 29.5841 79.1015 28.5936 78.4637 27.9558C78.395 27.887 78.3668 27.7877 78.3891 27.693C78.4115 27.5983 78.4811 27.5219 78.5734 27.4911L80.8354 26.7368L80.8985 26.7236ZM79.1895 27.8774C79.8272 28.4828 80.7562 29.2892 81.7868 30.0373C83.0177 30.9308 84.3645 31.721 85.5169 32.0091C87.0545 32.3935 88.5917 33.0656 89.8439 33.8843C91.0882 34.6978 92.0874 35.6801 92.496 36.7015C93.0266 38.028 93.5913 39.8307 93.895 40.8557L96.7962 38.5992C96.4696 37.7962 95.8901 36.6167 95.1223 35.4836C94.2864 34.25 93.2511 33.104 92.1092 32.533C90.6233 31.7901 89.4178 31.4188 88.2381 31.0413C87.057 30.6634 85.9018 30.2791 84.5551 29.5095C82.6188 28.4031 81.3762 27.631 80.8854 27.3123L79.1895 27.8774Z" fill="black"/>
<path d="M85.4486 41.3302C83.6389 39.5205 80.1703 40.5761 78.6622 41.3302L77.9082 40.1991C78.4109 39.4451 80.3965 38.0124 84.3175 38.314C88.2386 38.6157 89.2188 42.2099 89.2188 43.9693L86.9567 45.8544C87.208 45.1004 87.2583 43.1399 85.4486 41.3302Z" fill="#575757"/>
<path d="M77.6746 40.0434C78.2509 39.179 80.3524 37.7271 84.3394 38.0338C86.3975 38.1921 87.6982 39.2221 88.4755 40.4444C89.245 41.6547 89.4998 43.0481 89.4998 43.9694C89.4998 44.0527 89.4628 44.1316 89.3988 44.185L87.1368 46.0701C87.0404 46.1505 86.902 46.1573 86.7983 46.0865C86.6947 46.0158 86.6505 45.8847 86.6902 45.7656C86.9094 45.108 86.9811 43.2602 85.2501 41.5291C84.433 40.712 83.2184 40.5197 81.9715 40.648C80.7304 40.7757 79.5186 41.2158 78.7878 41.5812C78.6611 41.6445 78.507 41.6036 78.4284 41.4857L77.6746 40.355C77.6117 40.2607 77.6117 40.1377 77.6746 40.0434ZM84.296 38.5939C80.7095 38.3181 78.8412 39.5228 78.2529 40.2102L78.7614 40.9722C79.5472 40.6094 80.7116 40.2132 81.9139 40.0895C83.2304 39.954 84.6548 40.139 85.6473 41.1313C87.0892 42.5733 87.4116 44.1231 87.3579 45.1539L88.9358 43.8394C88.9127 43.0024 88.667 41.7922 88.0015 40.7456C87.3083 39.6557 86.1587 38.7372 84.296 38.5939Z" fill="black"/>
<path d="M105.808 50.7556C107.014 47.7395 104.3 44.7233 102.792 43.5923V40.9531C104.677 41.8328 108.824 44.7233 108.07 50.7556C107.358 56.45 101.158 56.411 97.8904 55.6569L99.7755 53.7718C101.284 54.0232 104.601 53.7718 105.808 50.7556Z" fill="#575757"/>
<path d="M102.641 40.7162C102.722 40.6648 102.823 40.6581 102.91 40.6987C104.845 41.6014 109.125 44.5817 108.349 50.7907C108.164 52.267 107.621 53.3886 106.844 54.2213C106.07 55.0517 105.078 55.5796 104.019 55.8941C101.908 56.5207 99.4875 56.3139 97.8273 55.9308C97.7278 55.9079 97.6487 55.8326 97.6205 55.7344C97.5924 55.6363 97.6196 55.5306 97.6918 55.4584L99.5769 53.5734L99.6296 53.5317C99.6865 53.4971 99.7546 53.4837 99.8216 53.4949C100.537 53.6142 101.695 53.6142 102.812 53.2239C103.921 52.8363 104.98 52.0689 105.547 50.6514C106.107 49.2514 105.766 47.8358 105.073 46.6052C104.38 45.3735 103.353 44.3644 102.623 43.8171C102.552 43.764 102.511 43.6805 102.511 43.5921V40.9532C102.511 40.8572 102.56 40.7678 102.641 40.7162ZM103.073 43.4539C103.84 44.0529 104.858 45.0783 105.562 46.3293C106.302 47.6434 106.715 49.2439 106.069 50.8598C105.429 52.4584 104.226 53.3251 102.998 53.7544C101.849 54.1559 100.669 54.1792 99.8737 54.0704L98.4566 55.4875C100.021 55.7833 102.073 55.8852 103.858 55.3553C104.847 55.062 105.743 54.5786 106.433 53.8383C107.121 53.1004 107.62 52.0917 107.791 50.721C108.473 45.2611 105.03 42.4572 103.073 41.4086V43.4539Z" fill="black"/>
<path d="M101.283 43.9693C101.887 42.4612 100.278 40.8275 99.3983 40.1991L101.283 39.4451C101.912 39.9478 103.168 41.5564 103.168 43.9693C103.168 46.3822 99.1469 53.7718 97.1361 57.165L94.874 55.2799C96.7591 52.1381 100.68 45.4774 101.283 43.9693Z" fill="#575757"/>
<path d="M102.887 43.9691C102.887 41.8049 101.832 40.3268 101.228 39.7693L99.9539 40.279C100.349 40.6159 100.793 41.0753 101.133 41.6017C101.591 42.3095 101.896 43.196 101.544 44.0738C101.233 44.8512 100.089 46.9147 98.8029 49.152C97.5658 51.304 96.1818 53.6427 95.2385 55.2176L97.0616 56.7368C98.0592 55.0374 99.4695 52.5016 100.654 50.0764C101.28 48.7938 101.842 47.5465 102.246 46.473C102.654 45.3881 102.887 44.5162 102.887 43.9691ZM103.449 43.9691C103.449 44.6284 103.18 45.5858 102.772 46.6711C102.359 47.7677 101.789 49.0323 101.159 50.3227C99.8979 52.9044 98.3863 55.6072 97.3781 57.3084C97.3362 57.3792 97.265 57.4278 97.1839 57.4417C97.1028 57.4557 97.0195 57.4335 96.9562 57.3808L94.6942 55.4958C94.5879 55.4071 94.5621 55.254 94.6333 55.1353C95.5753 53.5654 97.0261 51.1166 98.3163 48.8722C99.6128 46.6167 100.73 44.5956 101.023 43.8648C101.275 43.2346 101.077 42.5499 100.661 41.9068C100.248 41.268 99.6539 40.7267 99.2352 40.4277C99.1517 40.368 99.1072 40.2674 99.1195 40.1654C99.1318 40.0635 99.1987 39.9764 99.2939 39.9383L101.179 39.1845C101.273 39.1469 101.38 39.1625 101.459 39.2256C102.145 39.7748 103.449 41.4606 103.449 43.9691Z" fill="black"/>
<path d="M80.9236 34.1668C77.0026 33.5636 78.6623 29.3913 78.2853 28.1345L76.3994 29.2656C76.5251 30.5223 75.6461 34.9209 80.5466 36.0519C84.6049 36.9886 89.5951 32.6588 93.3653 33.0358C96.3815 33.3374 97.8896 36.429 98.2666 37.937L100.529 37.183C99.7747 35.5493 97.4371 32.0555 94.1194 31.1507C89.9721 30.0196 84.8446 34.7701 80.9236 34.1668Z" fill="#575757"/>
<path d="M78.1409 27.8935C78.2152 27.8489 78.3059 27.8414 78.3867 27.8727C78.4675 27.904 78.5297 27.9707 78.5546 28.0537C78.614 28.252 78.6287 28.489 78.627 28.7318C78.6253 28.9779 78.6058 29.2555 78.5853 29.5421C78.5436 30.1242 78.4966 30.7584 78.5551 31.3685C78.6135 31.977 78.7749 32.5331 79.1284 32.9694C79.4775 33.4001 80.0402 33.7464 80.9663 33.8889C81.8851 34.0303 82.893 33.8605 83.9728 33.523C85.0531 33.1853 86.175 32.6902 87.3271 32.2019C88.4715 31.7168 89.6427 31.2394 90.7923 30.9565C91.9432 30.6733 93.0935 30.5798 94.1932 30.8797C95.9222 31.3512 97.3793 32.4913 98.4923 33.7035C99.6064 34.9168 100.395 36.2231 100.784 37.0649C100.817 37.1375 100.818 37.221 100.787 37.2943C100.755 37.3676 100.693 37.4243 100.618 37.4495L98.3557 38.2033C98.2815 38.2281 98.1999 38.2207 98.1313 38.183C98.0628 38.1454 98.0131 38.0806 97.9941 38.0047C97.8139 37.284 97.3585 36.1724 96.5864 35.2095C95.8162 34.2491 94.7479 33.4561 93.3374 33.3151C92.4508 33.2264 91.4749 33.4137 90.428 33.7474C89.3808 34.0811 88.2914 34.551 87.1713 35.0131C86.0584 35.4722 84.9186 35.9215 83.7984 36.1954C82.6772 36.4695 81.5565 36.573 80.4835 36.3254C79.2164 36.0329 78.304 35.5244 77.6532 34.8924C77.0028 34.2608 76.6276 33.5199 76.4127 32.7845C76.1985 32.0514 76.1428 31.3204 76.1307 30.7025C76.1247 30.3938 76.1294 30.1088 76.1318 29.8686C76.1343 29.6228 76.1342 29.4326 76.1203 29.2936C76.1095 29.1854 76.162 29.0807 76.2553 29.0248L78.1409 27.8935ZM76.6903 29.4181C76.6956 29.5558 76.6953 29.7108 76.6936 29.8741C76.6912 30.1193 76.6867 30.3934 76.6925 30.6915C76.7041 31.2871 76.7577 31.9621 76.952 32.6271C77.1457 33.2898 77.478 33.9392 78.0449 34.4897C78.6113 35.0396 79.4269 35.5048 80.6097 35.7779C81.5659 35.9986 82.5913 35.9125 83.665 35.65C84.7395 35.3873 85.8438 34.9532 86.9568 34.4941C88.0628 34.0379 89.1817 33.5547 90.2574 33.2119C91.3333 32.869 92.3949 32.6562 93.3933 32.756C94.9989 32.9166 96.1926 33.8206 97.0247 34.8584C97.7576 35.7724 98.2233 36.8055 98.4577 37.5768L100.135 37.0172C99.7338 36.2276 99.0308 35.1201 98.0786 34.0831C97.005 32.9139 95.6344 31.8551 94.0457 31.4217C93.0718 31.1562 92.0261 31.2319 90.9267 31.5024C89.826 31.7732 88.6926 32.2335 87.5466 32.7192C86.4083 33.2017 85.2537 33.711 84.1402 34.059C83.0263 34.4071 81.9229 34.6043 80.8813 34.4441C79.8471 34.285 79.1466 33.8838 78.6923 33.3233C78.2425 32.7683 78.06 32.0894 77.9961 31.4223C77.9323 30.7569 77.9842 30.0745 78.0251 29.5021C78.0459 29.2116 78.0636 28.9522 78.0652 28.7274C78.0655 28.6807 78.0641 28.6365 78.063 28.5947L76.6903 29.4181Z" fill="black"/>
<path d="M108.07 59.0502C112.293 57.8437 107.819 54.0232 105.054 52.2638H108.07C108.447 52.5151 109.955 53.244 111.463 55.657C113.348 58.6731 111.463 62.4433 106.185 62.0663C102.875 61.8299 98.393 59.5529 96.7593 57.9191L97.8903 55.657C99.5241 57.2907 103.847 60.2566 108.07 59.0502Z" fill="#575757"/>
<path d="M108.07 51.9828C108.125 51.9828 108.179 51.9992 108.226 52.03C108.388 52.1386 108.895 52.4063 109.523 52.9347C110.157 53.4681 110.931 54.2756 111.701 55.5077C112.695 57.0979 112.709 58.9183 111.74 60.2956C110.772 61.6719 108.87 62.5396 106.165 62.3464C104.463 62.2249 102.48 61.5823 100.726 60.7718C98.9734 59.9624 97.4108 58.9678 96.5606 58.1176C96.4751 58.0321 96.4538 57.9015 96.5079 57.7933L97.6392 55.5313L97.6759 55.4754C97.7187 55.4248 97.7787 55.3902 97.8455 55.3794C97.9345 55.365 98.0253 55.3946 98.0891 55.4584C98.8839 56.2532 100.345 57.3821 102.122 58.1615C103.9 58.9409 105.966 59.3587 107.992 58.7798C109.01 58.4891 109.399 58.0713 109.496 57.6633C109.598 57.2308 109.409 56.6731 108.952 56.0262C108.049 54.7465 106.278 53.3754 104.903 52.5007C104.798 52.4337 104.749 52.3051 104.784 52.1852C104.819 52.0654 104.929 51.9829 105.053 51.9828H108.07ZM105.979 52.5446C107.222 53.4132 108.615 54.5732 109.412 55.7019C109.891 56.3807 110.202 57.1147 110.042 57.7928C109.876 58.4953 109.241 59.0076 108.147 59.3202C105.951 59.9476 103.744 59.4863 101.897 58.6761C100.238 57.9488 98.8456 56.9302 97.9711 56.1227L97.1026 57.8592C97.9171 58.6153 99.3374 59.5115 100.961 60.2616C102.683 61.0572 104.597 61.6714 106.205 61.7862C108.778 61.97 110.458 61.141 111.28 59.9725C112.102 58.8049 112.116 57.2316 111.225 55.8056C110.487 54.625 109.752 53.8618 109.161 53.3648C108.627 52.9156 108.222 52.6893 107.99 52.5446H105.979Z" fill="black"/>
<path fill-rule="evenodd" clip-rule="evenodd" d="M100.529 33.0357C100.529 34.8453 98.2671 37.3085 97.1361 38.3139L101.283 36.8059C102.289 34.9208 103.772 30.6227 101.66 28.5114C99.0212 25.8723 94.1199 24.7412 88.4647 27.3804C88.0878 27.5562 87.7377 27.7539 87.4119 27.9699C86.5506 27.3715 85.1078 26.0364 82.8094 25.8723C77.5311 25.4953 75.2689 26.2493 71.8757 30.3965C68.4826 34.5437 68.8596 39.8222 74.1379 41.7071C78.6625 43.3229 83.5202 39.9515 84.6944 36.4288C86.2025 31.9046 89.2187 28.1344 94.1199 27.7574C99.0212 27.3803 100.529 30.7735 100.529 33.0357ZM78.6621 28.5114C82.2816 27.305 84.6937 28.6371 85.5734 29.6425C84.1873 31.33 83.4682 33.4133 82.8619 35.1696C82.2769 36.8643 81.3412 37.7468 80.5473 38.3139C77.9085 40.1991 74.1379 40.5761 72.6298 37.1829C71.5256 34.6985 74.1379 30.0195 78.6621 28.5114Z" fill="#575757"/>
<path d="M76.5313 26.1771C78.242 25.4929 80.18 25.4031 82.829 25.5923C85.0854 25.7534 86.5658 27.0041 87.4222 27.6299C87.7119 27.4475 88.0188 27.2781 88.3455 27.1257C94.0863 24.4466 99.1205 25.5746 101.859 28.3129C103.01 29.4641 103.155 31.1815 102.918 32.7842C102.68 34.3976 102.045 35.9744 101.531 36.9379C101.498 36.999 101.444 37.0459 101.379 37.0696L97.2316 38.5778C97.105 38.6237 96.9638 38.5733 96.8948 38.4576C96.8258 38.3418 96.8484 38.1933 96.9491 38.1037C97.5026 37.6118 98.3365 36.7592 99.0295 35.8105C99.7325 34.8482 100.248 33.8437 100.248 33.0355C100.248 31.959 99.8877 30.6178 98.9549 29.5961C98.0317 28.585 96.5184 27.8546 94.1412 28.0375C89.4024 28.402 86.4518 32.0437 84.9605 36.5177C84.3475 38.3564 82.786 40.1306 80.8095 41.2397C78.8288 42.3512 76.3985 42.8126 74.0433 41.9716C71.3193 40.9988 69.8256 39.1312 69.4776 36.9445C69.1321 34.7727 69.9243 32.3378 71.6578 30.2188C73.3664 28.1306 74.8172 26.8627 76.5313 26.1771ZM85.2008 29.6587C84.2785 28.7621 82.0544 27.6769 78.7505 28.7781C76.5544 29.5102 74.8197 31.0137 73.7706 32.6339C72.7119 34.2691 72.3907 35.9541 72.8862 37.069C73.5958 38.6654 74.8206 39.3595 76.1824 39.4473C77.5633 39.5364 79.1029 39.0001 80.3838 38.0851C81.1429 37.5427 82.0345 36.7042 82.5959 35.0781C82.683 34.8257 82.7733 34.5654 82.8674 34.2995C82.9341 34.1112 83.0031 33.92 83.0748 33.7268C83.1364 33.5607 83.2002 33.3932 83.2663 33.2248C83.2852 33.1765 83.3046 33.1283 83.3239 33.0799C83.3598 32.9901 83.3967 32.9002 83.4342 32.81C83.4574 32.754 83.4805 32.6977 83.5044 32.6416C83.5578 32.5161 83.6123 32.3903 83.669 32.2647L83.7035 32.1879C83.8023 31.9716 83.9068 31.7558 84.0168 31.541C84.0205 31.5339 84.0241 31.5268 84.0278 31.5196C84.1436 31.2944 84.2664 31.0708 84.3965 30.8498C84.401 30.842 84.4051 30.8339 84.4096 30.8262L84.4777 30.7121C84.5862 30.533 84.7001 30.356 84.8195 30.1815C84.8429 30.1472 84.8669 30.1131 84.8908 30.0789C84.9479 29.9974 85.0066 29.9167 85.0663 29.8364C85.1106 29.777 85.155 29.7174 85.2008 29.6587ZM100.81 33.0355C100.81 34.037 100.194 35.1688 99.4832 36.1418C99.0939 36.6748 98.6624 37.1765 98.2576 37.6067L101.082 36.5796C101.565 35.6512 102.143 34.1866 102.362 32.7025C102.591 31.1573 102.422 29.6702 101.462 28.7101C98.9216 26.1701 94.1527 25.0356 88.5831 27.6348C88.2234 27.8026 87.8895 27.9912 87.5785 28.1966L87.5001 28.3392H87.4995C87.4989 28.3389 87.5001 28.339 87.4995 28.3387C87.4987 28.3382 87.4981 28.3383 87.4968 28.3376C87.4946 28.3364 87.4969 28.3378 87.4946 28.3365C87.4935 28.3359 87.4936 28.3355 87.4924 28.3348C87.4912 28.3342 87.4903 28.3336 87.4896 28.3332L87.4842 28.3305C87.4829 28.3298 87.484 28.3302 87.4825 28.3294C87.4783 28.3271 87.4825 28.3296 87.4781 28.3272H87.4776L87.477 28.3266L87.4737 28.325C87.4728 28.3245 87.4719 28.3238 87.471 28.3233H87.4704L87.4693 28.3222H87.4688C87.4635 28.3193 87.4687 28.3219 87.4633 28.3189C87.4629 28.3187 87.4578 28.316 87.4573 28.3156L87.4556 28.3151L87.4551 28.3145L87.4507 28.3124C87.4457 28.3096 87.4527 28.3131 87.4474 28.3102C87.4436 28.3081 87.4483 28.3108 87.4441 28.3085C87.4413 28.307 87.4399 28.3063 87.437 28.3047L87.4359 28.3041L87.4353 28.3036C87.4318 28.3017 87.4269 28.2991 87.4331 28.3025C87.4294 28.3004 87.433 28.3023 87.4293 28.3003L87.4287 28.2997C87.3877 28.3282 87.3476 28.356 87.3086 28.3837C86.6833 28.836 86.1543 29.3609 85.7 29.9319C85.6643 29.9768 85.6295 30.0225 85.5947 30.068C85.5803 30.0867 85.5655 30.1051 85.5513 30.1239C85.5435 30.1343 85.536 30.1448 85.5283 30.1552C85.4648 30.2401 85.4028 30.3259 85.3423 30.4125C85.1742 30.653 85.0181 30.9 84.871 31.151C84.8265 31.227 84.7827 31.3035 84.7399 31.3803C84.7236 31.4096 84.7066 31.4386 84.6905 31.4681C84.6395 31.5615 84.5894 31.6552 84.5408 31.7495C84.5226 31.7847 84.5049 31.8201 84.487 31.8554C84.4572 31.9143 84.4281 31.9735 84.3992 32.0326C84.3757 32.0806 84.3519 32.1283 84.329 32.1764C84.211 32.424 84.1 32.6734 83.9949 32.923C83.9373 33.0597 83.8823 33.1968 83.8281 33.3334C83.6758 33.7166 83.5353 34.0983 83.4023 34.4729C83.3076 34.7401 83.2159 35.0036 83.1269 35.2613C82.5183 37.0243 81.5388 37.9507 80.7102 38.5426C79.3524 39.5127 77.6872 40.1075 76.1462 40.008C74.586 39.9074 73.1712 39.0934 72.3727 37.2967C71.7642 35.9273 72.1971 34.0305 73.2993 32.3283C74.4113 30.611 76.2453 29.0209 78.5733 28.2449C82.0332 27.0917 84.4633 28.1852 85.5574 29.2225C86.0199 28.6803 86.3956 28.347 86.9278 27.9651C86.0361 27.3039 84.7403 26.2918 82.789 26.1524C80.1599 25.9646 78.3279 26.0636 76.7398 26.6988C75.155 27.3327 73.7775 28.5154 72.0929 30.5744C70.4334 32.6026 69.718 34.8807 70.0323 36.8562C70.3442 38.8165 71.6778 40.5306 74.232 41.4427C76.4013 42.2174 78.6619 41.8007 80.5347 40.7498C82.4117 39.6965 83.8664 38.0237 84.4277 36.3399C85.9526 31.7655 89.0344 27.867 94.0979 27.4773C96.6219 27.2832 98.3135 28.0609 99.3697 29.2176C100.416 30.3637 100.81 31.85 100.81 33.0355Z" fill="black"/>
<path d="M105.808 36.4289C99.1721 35.8257 92.7376 40.7018 90.3499 43.2152L94.8741 43.5922C95.3768 42.0842 98.2673 39.1434 105.808 39.445C115.233 39.822 114.102 48.1165 111.84 49.6246C110.03 50.831 103.294 48.6192 100.152 47.3624L100.906 50.3786C104.3 52.0124 111.689 54.2996 114.102 50.3786C117.118 45.4773 114.102 37.1829 105.808 36.4289Z" fill="#575757"/>
<path d="M96.3542 38.4054C99.1177 36.9333 102.441 35.8405 105.833 36.1489C114.331 36.9215 117.469 45.4432 114.342 50.5257C113.043 52.6354 110.435 53.0288 107.841 52.7406C105.227 52.4501 102.5 51.4574 100.785 50.6316C100.71 50.5954 100.654 50.5277 100.634 50.4467L99.8802 47.4304C99.8547 47.3281 99.8886 47.2199 99.968 47.1506C100.047 47.0814 100.159 47.0627 100.257 47.1017C101.819 47.7268 104.276 48.5891 106.562 49.1443C107.706 49.4221 108.798 49.6206 109.709 49.6765C110.639 49.7335 111.315 49.6367 111.685 49.3906C112.172 49.0658 112.639 48.3378 112.907 47.3755C113.172 46.4229 113.228 45.2838 112.935 44.1825C112.644 43.0852 112.008 42.0234 110.881 41.2106C109.752 40.3962 108.112 39.8186 105.797 39.726C98.3149 39.4267 95.5862 42.3445 95.1406 43.681C95.0997 43.8039 94.9801 43.8827 94.851 43.872L90.3264 43.4951C90.2188 43.486 90.1262 43.416 90.0878 43.3151C90.0493 43.2141 90.072 43.0999 90.1465 43.0216C91.3599 41.7443 93.5895 39.8782 96.3542 38.4054ZM105.782 36.7085C102.539 36.4137 99.3276 37.458 96.6181 38.9014C94.2049 40.187 92.2102 41.7792 90.9733 42.9854L94.6886 43.2948C95.4219 41.5907 98.5263 38.8725 105.819 39.1642C108.216 39.2601 109.97 39.8607 111.209 40.7547C112.451 41.6501 113.157 42.827 113.479 44.0387C113.799 45.2465 113.737 46.4874 113.448 47.5258C113.162 48.5544 112.64 49.4287 111.996 49.8581C111.46 50.2152 110.616 50.2948 109.675 50.2372C108.716 50.1784 107.589 49.9716 106.43 49.6902C104.346 49.1841 102.131 48.4278 100.557 47.8215L101.146 50.1806C102.83 50.9767 105.429 51.9077 107.903 52.1826C110.455 52.4662 112.748 52.0425 113.863 50.2311C116.768 45.5111 113.873 37.4441 105.782 36.7085Z" fill="black"/>
<path d="M69.9911 51.8867C72.1016 54.7006 76.7774 54.5258 79.0395 53.3948L79.7937 51.8867C78.16 52.138 75.0433 53.0177 72.6303 51.5097C70.2174 50.0016 70.1169 45.8544 70.7452 44.3463L71.8762 40.5761L70.3682 39.068L68.483 44.3463C68.106 46.2314 67.7289 48.8705 69.9911 51.8867Z" fill="#575757"/>
<path d="M70.3063 38.7938C70.4003 38.7727 70.4988 38.8014 70.5669 38.8695L72.0745 40.3777C72.1476 40.4508 72.175 40.558 72.1453 40.6569L71.014 44.4271C71.0113 44.4364 71.0084 44.4456 71.0047 44.4546C70.7173 45.1443 70.5815 46.5002 70.8237 47.8797C71.0656 49.2577 71.6698 50.5786 72.779 51.2718C73.9172 51.9832 75.2342 52.1392 76.4905 52.0778C77.7568 52.0158 78.9036 51.7396 79.751 51.6092C79.8548 51.5933 79.959 51.6363 80.0209 51.7212C80.0828 51.806 80.092 51.9185 80.045 52.0125L79.2907 53.5207C79.2635 53.575 79.2193 53.6191 79.165 53.6463C77.9806 54.2385 76.1921 54.5706 74.4315 54.3996C72.6697 54.2284 70.8855 53.5473 69.7665 52.0553C67.4322 48.943 67.8247 46.2037 68.2073 44.2911C68.2099 44.2778 68.2137 44.2648 68.2182 44.2521L70.1033 38.9738C70.1357 38.8831 70.2124 38.8149 70.3063 38.7938ZM68.7548 44.42C68.3846 46.2759 68.033 48.808 70.2158 51.7184C71.2072 53.0402 72.8165 53.6783 74.4858 53.8405C76.1144 53.9987 77.7518 53.6967 78.8315 53.1822L79.2934 52.2583C78.5373 52.3961 77.5512 52.5879 76.5179 52.6385C75.2042 52.7027 73.7563 52.5446 72.4816 51.748C71.178 50.9333 70.5251 49.4263 70.2707 47.9768C70.0178 46.5364 70.1434 45.0725 70.4802 44.2516L71.5588 40.6564L70.483 39.5805L68.7548 44.42Z" fill="black"/>
<path d="M88.4649 56.7879C86.3535 59.8041 82.0555 60.3068 80.1704 60.1811V62.0662C81.0501 62.1919 83.9374 62.856 87.3338 61.3122C91.481 59.4271 94.3715 50.3786 95.6282 45.4773L94.1202 44.7233C93.1148 47.4881 90.5762 53.7718 88.4649 56.7879Z" fill="#575757"/>
<path d="M94.0161 44.4622C94.0905 44.4326 94.1743 44.4363 94.2459 44.4721L95.7536 45.2259C95.8719 45.2851 95.9329 45.4193 95.9001 45.5474C95.2699 48.0052 94.2286 51.5098 92.8211 54.641C92.1174 56.2065 91.3187 57.6868 90.4291 58.8983C89.5418 60.1067 88.5489 61.0684 87.4501 61.568C83.9687 63.1504 81.0007 62.4686 80.1308 62.3443C79.9924 62.3245 79.8894 62.2059 79.8894 62.0661V60.181C79.8895 60.1034 79.9216 60.0289 79.9783 59.9758C80.035 59.9228 80.1114 59.8955 80.189 59.9007C81.1002 59.9614 82.6112 59.8702 84.1495 59.3943C85.6879 58.9184 87.2268 58.0667 88.2346 56.627C90.3218 53.6453 92.8494 47.3952 93.8559 44.6274L93.8822 44.5742C93.9136 44.5241 93.9602 44.4845 94.0161 44.4622ZM94.2745 45.1146C93.2046 48.0092 90.7573 54.0028 88.6949 56.949C87.5914 58.5255 85.9255 59.4334 84.3157 59.9314C82.8619 60.3812 81.4319 60.5028 80.4512 60.4745V61.8264C81.5386 62.0031 84.1634 62.4448 87.2174 61.0566C88.1921 60.6136 89.1157 59.7373 89.976 58.5659C90.834 57.3974 91.6143 55.9554 92.3087 54.4105C93.6565 51.4121 94.6664 48.0548 95.2977 45.6259L94.2745 45.1146Z" fill="black"/>
<path d="M76.5898 58.3708C76.8914 56.8627 77.5317 56.9137 78.2857 56.411L78.6625 54.5259C78.2855 54.6516 76.897 54.9803 75.4662 56.411C74.3367 57.5404 75.1853 59.2135 74.9044 60.3371C74.6236 61.4607 73.7179 61.6123 73.781 62.0225L75.2692 63.427C75.7471 62.8652 75.7471 62.8652 76.3089 61.7416C76.8707 60.618 76.4413 59.1137 76.5898 58.3708Z" fill="#575757"/>
<path d="M78.5738 54.2592C78.6687 54.2277 78.7731 54.249 78.8481 54.3151C78.9231 54.3813 78.9576 54.4826 78.9381 54.5807L78.5612 56.4658C78.5466 56.5388 78.5035 56.6033 78.4416 56.6446C78.2379 56.7804 78.0409 56.8794 77.8754 56.9661C77.7052 57.0553 77.5676 57.1316 77.4458 57.2311C77.2195 57.4161 77.0079 57.7134 76.8654 58.426C76.8354 58.5758 76.8323 58.7795 76.8429 59.0416C76.8526 59.2821 76.8761 59.6073 76.8851 59.9046C76.9039 60.5221 76.8737 61.2392 76.5598 61.867C76.2818 62.4229 76.1346 62.7182 75.9963 62.9423C75.8533 63.1742 75.7195 63.3307 75.4828 63.6089C75.4329 63.6675 75.3611 63.7029 75.2842 63.7071C75.2074 63.7113 75.1322 63.6842 75.0763 63.6314L73.5879 62.2269C73.5424 62.184 73.5129 62.1269 73.5034 62.0651C73.4687 61.8395 73.5784 61.6702 73.6811 61.556C73.7742 61.4525 73.9188 61.3351 74.0251 61.2388C74.2582 61.0278 74.5105 60.7547 74.6319 60.2689C74.6911 60.0321 74.6933 59.7529 74.6714 59.4273C74.6605 59.2656 74.6444 59.0995 74.6281 58.9247C74.6119 58.7518 74.5956 58.5717 74.5864 58.3904C74.5494 57.6674 74.6162 56.8634 75.2672 56.2123C76.7508 54.7289 78.2016 54.3833 78.5738 54.2592ZM78.2929 54.9389C77.6931 55.1462 76.6934 55.5812 75.665 56.6095C75.1867 57.0878 75.113 57.6851 75.1476 58.3618C75.1562 58.5303 75.171 58.7001 75.1871 58.8726C75.2031 59.0433 75.2206 59.2186 75.2321 59.3894C75.255 59.7287 75.2579 60.0799 75.1767 60.4049C75.0173 61.0426 74.6762 61.407 74.402 61.6553C74.2547 61.7886 74.167 61.8563 74.0992 61.9318C74.0983 61.9327 74.0973 61.9336 74.0964 61.9345L75.2442 63.0175C75.3615 62.8758 75.4381 62.7774 75.5185 62.6472C75.6401 62.45 75.774 62.1833 76.0578 61.6158C76.3055 61.1201 76.3416 60.5233 76.3233 59.9221C76.3138 59.6102 76.2931 59.3496 76.2816 59.0641C76.271 58.8002 76.2697 58.5373 76.314 58.3157C76.4731 57.5203 76.7326 57.0883 77.0903 56.796C77.2605 56.657 77.4436 56.5582 77.6148 56.4685C77.7583 56.3933 77.8945 56.3231 78.0339 56.2375L78.2929 54.9389Z" fill="black"/>
<path d="M72.6301 48.4934C74.138 47.7395 77.4057 47.8651 78.6624 48.4934L79.7936 50.3785C78.0342 50.0015 74.0629 49.6999 72.2532 51.5096C70.4435 53.3193 71.1218 59.0501 73.0069 61.3122C74.892 63.5743 77.5312 64.7054 80.5476 65.0823L82.0557 66.5904C80.6733 66.716 78.6624 66.9675 75.6464 65.8363C72.8833 64.8001 69.9911 61.6891 69.2369 58.2959C68.0637 53.0176 69.9963 49.8104 72.6301 48.4934Z" fill="#575757"/>
<path d="M75.7442 47.6943C76.8467 47.7092 77.955 47.8765 78.6541 48.1799L78.788 48.2424L78.8225 48.2627C78.8551 48.2853 78.8826 48.3146 78.9032 48.3488L80.0345 50.2339C80.092 50.3299 80.0875 50.4512 80.0224 50.5423C79.9573 50.6332 79.8443 50.6765 79.7349 50.6531C78.8765 50.4691 77.4705 50.3031 76.0624 50.4046C74.6438 50.5068 73.2837 50.8763 72.4518 51.7081C72.055 52.1049 71.774 52.7407 71.6179 53.5405C71.4628 54.3354 71.4364 55.2646 71.5241 56.2156C71.7005 58.1289 72.3313 60.0627 73.2227 61.1325C74.9927 63.2564 77.4553 64.3624 80.3055 64.7666L80.5825 64.8039L80.6281 64.8132C80.6725 64.8265 80.7134 64.8508 80.7466 64.884L82.2542 66.3916C82.3313 66.4687 82.3571 66.5837 82.32 66.6862C82.2829 66.7886 82.1898 66.8601 82.0814 66.87C80.69 66.9965 78.6257 67.2541 75.5478 66.0997C74.1142 65.5621 72.6636 64.4937 71.4769 63.1349C70.2895 61.7752 69.3517 60.1078 68.9626 58.3569C67.7674 52.9796 69.7327 49.6284 72.5045 48.2424C73.3191 47.8351 74.5674 47.6784 75.7442 47.6943ZM75.7365 48.2561C74.5884 48.2406 73.4491 48.3983 72.7558 48.745C70.2602 49.9928 68.36 53.056 69.5112 58.2351C69.8762 59.8774 70.762 61.462 71.8999 62.7652C73.0387 64.0692 74.4159 65.075 75.7453 65.5736C78.2948 66.5298 80.1022 66.4772 81.4324 66.3647L80.4157 65.3481C77.3905 64.953 74.714 63.7992 72.7914 61.4924C71.7978 60.2999 71.1467 58.2372 70.9651 56.2672C70.8737 55.2766 70.8989 54.2922 71.0666 53.433C71.2333 52.5786 71.5466 51.8189 72.0546 51.3109C73.0324 50.3332 74.5632 49.949 76.0223 49.8439C77.1912 49.7597 78.3533 49.8531 79.2335 49.9914L78.4654 48.7115C77.8786 48.445 76.8395 48.271 75.7365 48.2561Z" fill="black"/>
<path d="M65.0897 54.5259C68.1059 58.1453 75.3949 57.0393 78.2854 56.0339L78.6624 54.1488C77.9083 54.5258 75.6462 55.2799 72.6301 55.2799C68.86 55.2799 66.5977 54.1488 66.2207 51.5096C65.8437 48.8705 67.7288 44.7233 72.6301 44.3462C76.5512 44.0446 79.2908 48.9962 80.1705 51.5096L80.9245 50.3786C80.5475 47.7395 78.3608 42.3858 72.6301 42.0842C65.4668 41.7072 61.3195 50.0017 65.0897 54.5259Z" fill="#575757"/>
<path d="M72.645 41.8036C75.6073 41.9596 77.6574 43.4257 79.0075 45.1837C80.3519 46.9343 81.0084 48.9803 81.2026 50.3392C81.2123 50.4075 81.1964 50.4771 81.1581 50.5345L80.4043 51.6658C80.3452 51.7544 80.2406 51.802 80.1349 51.7887C80.0294 51.7752 79.9402 51.7031 79.9051 51.6027C79.4736 50.3699 78.584 48.536 77.3265 47.054C76.0647 45.567 74.4793 44.4857 72.6516 44.6263C67.9353 44.9891 66.1413 48.9675 66.4987 51.4699C66.6751 52.7043 67.284 53.5708 68.2911 54.1401C69.3143 54.7184 70.7664 54.9992 72.6302 54.9992C75.6059 54.9992 77.8246 54.2537 78.5368 53.8976C78.6327 53.8497 78.7478 53.8605 78.833 53.9256C78.9181 53.9906 78.9587 54.0986 78.9378 54.2037L78.5609 56.0888C78.5414 56.1864 78.4716 56.2668 78.3777 56.2995C76.9035 56.8122 74.3252 57.3462 71.7288 57.2952C69.1437 57.2445 66.4616 56.6112 64.8737 54.7057C62.8947 52.3308 63.0131 48.9938 64.5149 46.3292C66.0207 43.6577 68.9422 41.6087 72.645 41.8036ZM72.6154 42.3648C69.1548 42.1827 66.4204 44.0927 65.0043 46.6052C63.5843 49.1246 63.5144 52.1971 65.3055 54.3464C66.7337 56.0601 69.2045 56.6837 71.7403 56.7334C74.1779 56.7812 76.6028 56.2952 78.0419 55.8183L78.2822 54.6174C77.2213 55.025 75.1891 55.561 72.6302 55.561C70.724 55.561 69.1594 55.2759 68.0146 54.6289C66.8539 53.9728 66.1431 52.9542 65.9424 51.5495C65.5459 48.7736 67.5221 44.4575 72.6083 44.0661C74.7016 43.9051 76.4468 45.1491 77.755 46.6908C78.8998 48.04 79.7453 49.6572 80.2403 50.8982L80.6292 50.3139C80.428 49.0337 79.8036 47.1428 78.562 45.5261C77.2919 43.8722 75.3836 42.5106 72.6154 42.3648Z" fill="black"/>
<path fill-rule="evenodd" clip-rule="evenodd" d="M99.7753 46.6084C102.512 50.16 99.1319 56.6623 96.8698 59.8042C97.5267 64.7636 94.874 69.2297 88.4647 69.6067C81.0883 69.6067 78.2852 62.4433 78.2852 57.165C78.2852 53.3948 80.5473 47.7394 86.2026 44.7233C91.8579 41.7072 96.8698 42.8383 99.7753 46.6084ZM98.6442 48.8706C97.5132 46.2315 93.7431 44.7233 91.104 45.1003C89.2189 45.3696 84.977 47.3932 82.4324 51.5097C83.0587 51.1931 83.9431 51.0958 84.8889 50.9918C85.4446 50.9307 86.0215 50.8673 86.5796 50.7557C88.4647 50.3786 92.8337 50.7557 95.6281 56.034C95.8279 56.4114 96.0042 56.7888 96.1575 57.165C96.3476 56.8194 96.5539 56.4618 96.7652 56.0954C98.0911 53.7969 99.6198 51.1468 98.6442 48.8706ZM81.2785 53.6949C82.8982 53.0584 86.5246 52.0614 88.8419 52.6407C91.858 53.3948 95.2512 57.165 95.2512 60.5581C95.2512 63.9513 92.2349 66.5906 88.8419 67.3446C84.4253 68.326 80.5474 64.3283 80.1704 57.919C80.1018 56.752 80.6258 55.1383 81.2785 53.6949Z" fill="#575757"/>
<path d="M94.9702 60.5584C94.9702 58.9498 94.1623 57.2204 92.9628 55.7902C91.7633 54.3601 90.2084 53.2718 88.774 52.9132C87.6745 52.6383 86.2364 52.7342 84.8496 52.9884C83.5298 53.2303 82.2884 53.61 81.4882 53.9155C80.8607 55.3251 80.388 56.8355 80.4507 57.9024C80.6363 61.0573 81.6825 63.5916 83.1966 65.2113C84.7058 66.8255 86.6813 67.5372 88.7811 67.0706C92.1002 66.333 94.9701 63.7709 94.9702 60.5584ZM95.3208 46.1091C93.9471 45.468 92.4001 45.1989 91.1441 45.3783C90.2539 45.5055 88.7607 46.0585 87.1692 47.0977C85.768 48.0128 84.3061 49.2954 83.1248 50.9722C83.6603 50.8429 84.2628 50.7781 84.8584 50.7126C85.4162 50.6513 85.9806 50.5888 86.5246 50.48C88.4796 50.089 92.8743 50.4839 95.741 55.6525L95.8765 55.9027L96.0252 56.1918C96.0822 56.3061 96.1359 56.421 96.1887 56.5353C96.2976 56.3441 96.4096 56.1502 96.5223 55.9548C97.1881 54.8006 97.887 53.5874 98.3026 52.3832C98.7174 51.1811 98.8348 50.0285 98.386 48.9812C97.8564 47.7456 96.6956 46.7507 95.3208 46.1091ZM78.0044 57.1651C78.0044 53.3037 80.313 47.5459 86.0703 44.4753C88.941 42.9443 91.6703 42.4549 94.0655 42.8437C96.4627 43.2328 98.504 44.4983 99.9978 46.4366C101.455 48.3273 101.257 50.9619 100.465 53.4454C99.6823 55.8972 98.2926 58.2896 97.1614 59.8775C97.4686 62.3754 96.9558 64.768 95.5391 66.596C95.2218 67.0055 94.86 67.3846 94.4545 67.7295C92.9658 69.0689 90.9297 69.8877 88.4651 69.8878C84.6692 69.8878 82.0414 68.0374 80.3745 65.5202C78.7149 63.014 78.0044 59.8465 78.0044 57.1651ZM78.5662 57.1651C78.5662 59.7619 79.257 62.8152 80.843 65.2102C82.4197 67.5912 84.8781 69.3211 88.4514 69.3254C90.891 69.1814 92.7531 68.4353 94.0831 67.3076C94.7797 66.6798 95.3463 65.9311 95.7696 65.0966C97.0385 62.5946 97.0385 59.2982 95.38 56.1655C92.6532 51.0149 88.4191 50.674 86.6349 51.0309C86.0626 51.1453 85.4734 51.2103 84.9199 51.2712C83.9938 51.373 83.1961 51.4645 82.6288 51.7271C82.3713 52.149 82.0927 52.6522 81.824 53.1974C82.6207 52.9262 83.6583 52.6351 84.7481 52.4353C86.1588 52.1768 87.6924 52.064 88.91 52.3684C90.4917 52.7638 92.1418 53.9375 93.3929 55.4292C94.644 56.9209 95.532 58.7738 95.532 60.5584C95.5319 64.1319 92.3698 66.8483 88.9029 67.6187C86.5863 68.1334 84.4144 67.3368 82.7862 65.5953C81.1631 63.8592 80.0815 61.1897 79.89 57.9354C79.8174 56.6997 80.3636 55.0398 81.0147 53.5962L80.9802 53.5123C81.0093 53.5002 81.0394 53.488 81.0701 53.4755C81.434 52.6826 81.8336 51.9448 82.1937 51.3622C83.4916 49.2626 85.2201 47.6992 86.862 46.627C88.499 45.558 90.0695 44.9642 91.0645 44.822C92.4475 44.6245 94.1046 44.9216 95.5583 45.6C97.0111 46.278 98.3013 47.3566 98.9028 48.7601C99.4293 49.9889 99.2707 51.3 98.8337 52.5665C98.3973 53.8308 97.6688 55.0917 97.0089 56.2357C96.8201 56.5631 96.6369 56.8811 96.4658 57.1892C96.7127 57.8215 96.8989 58.4564 97.0265 59.0875C98.0654 57.5503 99.2423 55.429 99.9298 53.2747C100.709 50.8338 100.833 48.441 99.5529 46.7801C98.1413 44.9484 96.2238 43.7633 93.975 43.3983C91.7241 43.0331 89.1193 43.4862 86.3348 44.9712C80.7817 47.933 78.5662 53.4861 78.5662 57.1651Z" fill="black"/>
<path d="M86.2027 63.5744C83.1145 61.8097 84.1668 57.0896 80.5474 56.788L80.9244 54.5259C84.3176 54.9029 84.3176 56.034 85.8257 59.4272C86.7786 61.5713 89.4996 63.5744 91.481 59.4272C92.1098 58.1109 92.235 55.2799 91.481 53.3948C90.4146 50.7289 89.5959 49.6246 86.5797 47.3625C84.1668 45.5528 80.5474 43.0896 79.0393 42.0842L80.9244 41.3302C83.4379 42.7126 89.1434 46.2315 91.858 49.2476C93.8195 51.4271 95.0299 57.8863 92.9891 61.3123C91.4995 63.8128 88.8418 65.0825 86.2027 63.5744Z" fill="#575757"/>
<path d="M80.88 41.0525C80.9411 41.0427 81.0046 41.0533 81.0599 41.0837C82.3242 41.7791 84.3868 43.0095 86.4749 44.4447C88.5591 45.8772 90.6869 47.5262 92.0671 49.0597C93.1033 50.2112 93.9071 52.4374 94.2029 54.777C94.499 57.12 94.2968 59.6654 93.2302 61.456C92.46 62.7489 91.3777 63.7412 90.1255 64.2096C88.8657 64.6807 87.4543 64.6131 86.0634 63.8184C84.4152 62.8765 83.8743 61.1381 83.3137 59.7366C83.0261 59.0177 82.7368 58.3865 82.3146 57.9146C81.9038 57.4555 81.357 57.1375 80.5239 57.0681C80.4458 57.0615 80.374 57.0224 80.3258 56.9605C80.2776 56.8986 80.2575 56.8191 80.2704 56.7416L80.6473 54.4796L80.6616 54.4264C80.706 54.3086 80.826 54.2321 80.9557 54.2465C82.6808 54.4382 83.6188 54.8295 84.3001 55.668C84.6304 56.0744 84.8898 56.5734 85.1571 57.1674C85.2912 57.4654 85.4295 57.7928 85.5801 58.1483C85.731 58.5047 85.8953 58.8915 86.0826 59.313C86.5416 60.3457 87.4067 61.2915 88.3331 61.5131C88.7819 61.6204 89.2578 61.5623 89.7409 61.2437C90.2321 60.9196 90.7452 60.3157 91.2277 59.3059C91.5175 58.6991 91.7033 57.7079 91.7187 56.6204C91.734 55.5368 91.5791 54.3972 91.22 53.4992C90.691 52.1767 90.232 51.2634 89.5423 50.4028C88.8499 49.5389 87.914 48.7143 86.4112 47.5872C84.0048 45.7824 80.3906 43.3224 78.8835 42.3176C78.7968 42.2597 78.7493 42.1585 78.7601 42.0548C78.7709 41.9512 78.8383 41.862 78.9351 41.8233L80.8202 41.0695L80.88 41.0525ZM79.6362 42.1475C81.3277 43.2839 84.5402 45.4819 86.7481 47.1379C88.2614 48.2728 89.2431 49.1314 89.9806 50.0516C90.7208 50.9751 91.2044 51.9469 91.7417 53.2902C92.1366 54.2773 92.2965 55.4959 92.2805 56.6281C92.2645 57.7562 92.0736 58.8389 91.7346 59.5484C91.2264 60.612 90.6562 61.313 90.0503 61.7128C89.4362 62.1179 88.8007 62.2025 88.2025 62.0595C87.035 61.7803 86.0631 60.6526 85.5691 59.5413C85.3795 59.1146 85.2137 58.7236 85.0627 58.3672C84.9114 58.0099 84.7757 57.6889 84.6447 57.3978C84.3818 56.8137 84.1463 56.3699 83.864 56.0224C83.3495 55.3892 82.6429 55.0306 81.157 54.8368L80.8723 56.5447C81.6898 56.6738 82.2808 57.0342 82.7332 57.5399C83.2281 58.0929 83.5471 58.8088 83.8349 59.5281C84.425 61.0032 84.9023 62.5073 86.3421 63.3301C87.5903 64.0434 88.8274 64.0952 89.9285 63.6834C91.0371 63.2688 92.0286 62.3761 92.7479 61.1685C93.7221 59.5332 93.9346 57.1356 93.6455 54.8478C93.3559 52.5566 92.5742 50.4635 91.649 49.4355C90.3146 47.9529 88.2322 46.3342 86.1567 44.9077C84.1474 43.5267 82.1611 42.3379 80.9036 41.6406L79.6362 42.1475Z" fill="black"/>
<path d="M47.0953 64.2696C45.6909 62.5842 45.9718 60.337 44.2864 58.6516H46.8145C48.219 60.0561 47.9381 62.3033 49.0616 63.4269C51.3262 65.6917 54.3986 66.2359 56.3649 66.2359L59.1739 67.6404C58.9131 67.536 55.7668 67.9484 52.9941 67.3595C50.2214 66.7705 48.4935 65.9474 47.0953 64.2696Z" fill="#575757"/>
<path d="M46.8146 58.3707C46.8891 58.3707 46.9605 58.4003 47.0132 58.453C47.7736 59.2134 48.0693 60.1952 48.314 61.0689C48.5676 61.9746 48.7624 62.7303 49.2604 63.2283C51.3145 65.2826 54.0673 65.8815 55.9915 65.9484L56.3651 65.955L56.4293 65.9627C56.4505 65.9676 56.4712 65.9748 56.4908 65.9846L59.2997 67.3891C59.4344 67.4565 59.492 67.6182 59.4303 67.7556C59.3686 67.8929 59.2096 67.9568 59.0699 67.901C59.0974 67.912 59.1082 67.9092 59.071 67.9065C59.0433 67.9044 59.0027 67.9031 58.9475 67.9032C58.8373 67.9033 58.6873 67.9084 58.4993 67.9158C58.1263 67.9305 57.6174 67.9541 57.0301 67.9624C55.8568 67.9789 54.3524 67.9352 52.9356 67.6343C50.1308 67.0386 48.334 66.1944 46.8799 64.4495C46.1356 63.5564 45.8401 62.514 45.5292 61.5467C45.2139 60.566 44.8788 59.6411 44.0879 58.8502C44.0076 58.7699 43.9835 58.6491 44.027 58.5441C44.0705 58.4392 44.1729 58.3707 44.2865 58.3707H46.8146ZM44.9059 58.9325C45.5052 59.7086 45.8019 60.5604 46.0635 61.3745C46.3846 62.3733 46.651 63.2975 47.3111 64.0896C48.6532 65.7002 50.3123 66.5026 53.0525 67.0846C54.4085 67.3726 55.8642 67.4169 57.0224 67.4006C57.3868 67.3955 57.7201 67.3839 58.011 67.3726L56.296 66.5151C54.2879 66.5025 51.1745 65.937 48.8632 63.6255C48.2376 62.9999 48.011 62.0702 47.773 61.2203C47.5364 60.3752 47.2815 59.5655 46.6939 58.9325H44.9059Z" fill="black"/>
<path fill-rule="evenodd" clip-rule="evenodd" d="M62.4424 67.9213C68.341 67.6404 71.5335 66.4232 73.7807 64.8314L72.3762 63.7078C72.3762 63.7078 71.15 64.5505 68.9043 65.1121C66.6614 65.6729 64.8172 66.0257 63.297 66.0801C66.1011 65.2103 68.7536 60.0561 60.757 60.0562C54.2902 60.0562 53.4639 68.3489 62.4424 67.9213ZM61.155 65.9714L63.25 66.0817C60.7636 66.1635 59.2056 65.6441 58.5098 65.1121C57.3862 64.2529 57.1059 61.4606 61.8811 61.7415C66.6564 62.0224 63.1206 65.3442 61.155 65.9714Z" fill="#575757"/>
<path d="M60.7567 59.7751C62.7786 59.7751 64.1711 60.0996 65.0656 60.6338C65.9765 61.1776 66.3663 61.9385 66.3582 62.7449C66.3502 63.53 65.9663 64.3169 65.4211 64.9542C65.1918 65.2223 64.9288 65.469 64.6454 65.6828C65.8499 65.5297 67.2362 65.2395 68.8358 64.8395C69.9383 64.5639 70.7888 64.2196 71.3612 63.9458C71.6472 63.809 71.8637 63.6898 72.0074 63.6057C72.0793 63.5636 72.1331 63.5303 72.1682 63.508C72.1856 63.497 72.1984 63.4887 72.2066 63.4833C72.2106 63.4806 72.2136 63.4785 72.2154 63.4773C72.2161 63.4768 72.2167 63.4764 72.217 63.4762C72.319 63.4061 72.455 63.4109 72.5517 63.4883L73.9562 64.6119C74.0251 64.667 74.0641 64.7514 74.0615 64.8395C74.0589 64.9277 74.015 65.0097 73.943 65.0606C71.6392 66.6925 68.3895 67.919 62.4558 68.2015C60.1712 68.3103 58.4748 67.8667 57.3267 67.107C56.1742 66.3445 55.5859 65.2691 55.5272 64.1636C55.4093 61.9448 57.4038 59.7752 60.7567 59.7751ZM60.7567 60.3369C57.6431 60.337 55.9911 62.3136 56.0879 64.134C56.1365 65.0482 56.6209 65.9664 57.6366 66.6385C58.6567 67.3135 60.2243 67.7458 62.4289 67.6408C68.0221 67.3745 71.1325 66.2625 73.3088 64.8138L72.3553 64.0512C72.3353 64.0631 72.3143 64.0771 72.2911 64.0907C72.1348 64.1821 71.9046 64.3088 71.6036 64.4528C71.0015 64.7408 70.1156 65.0985 68.9724 65.3843C66.7367 65.9434 64.8765 66.301 63.3303 66.3592C63.3106 66.3624 63.2905 66.3652 63.2705 66.3642L63.2469 66.3625C60.7369 66.4433 59.1068 65.9221 58.3389 65.335C57.6923 64.8404 57.2736 63.7875 57.7321 62.8733C58.1976 61.9452 59.4802 61.3189 61.8973 61.4611C63.1021 61.532 63.8822 61.7958 64.2718 62.25C64.6945 62.7431 64.5813 63.3493 64.2904 63.8646C63.998 64.3828 63.488 64.8929 62.9386 65.3092C62.7278 65.4689 62.5069 65.6173 62.2852 65.7497L63.2469 65.8002C63.8786 65.5957 64.5136 65.1513 64.9943 64.5894C65.4851 64.0157 65.7902 63.3509 65.7964 62.7388C65.8023 62.148 65.5307 61.5657 64.7776 61.116C64.0081 60.6566 62.7331 60.3369 60.7567 60.3369ZM61.8644 62.0218C59.5067 61.8831 58.542 62.5125 58.2346 63.1251C57.9205 63.7514 58.2033 64.5243 58.6801 64.8889C59.0918 65.2037 59.8801 65.5351 61.0771 65.7009C61.5287 65.5553 62.0868 65.2499 62.5995 64.8615C63.1165 64.4698 63.5607 64.0143 63.801 63.5887C64.0429 63.1601 64.0413 62.8438 63.8455 62.6154C63.6163 62.3482 63.0472 62.0914 61.8644 62.0218Z" fill="black"/>
</svg>
