<svg width="47" height="47" viewBox="0 0 47 47" fill="none" xmlns="http://www.w3.org/2000/svg">
<path d="M45.8978 16.3725C45.9632 16.5378 45.9731 16.7926 46.027 16.9926C46.2481 17.8338 46.2766 18.1554 46.4093 18.9279C46.6741 20.0611 46.9537 23.5035 46.4536 23.5C46.4536 23.5 46.4536 23.5 46.4536 23.5C46.4492 23.5 46.4447 23.4997 46.4402 23.499C46.3548 23.4866 46.2592 23.2001 46.1611 23.1598C46.0628 23.1197 45.439 23.1578 45.3924 22.7707C45.3398 22.2107 45.3722 20.8424 45.3144 20.5417C45.2821 20.3371 45.1887 20.0944 45.1348 19.8349C44.9576 19.0042 44.8988 18.5554 44.5563 17.8573C44.5563 17.5412 44.5494 17.2247 44.5354 16.9068C44.381 16.5333 44.2801 15.9257 44.1856 15.6972C44.1097 15.5106 44.0069 15.4245 43.9261 15.2324C43.8351 15.0177 43.76 14.6572 43.5717 14.2735C43.2602 13.6466 43.0481 13.6132 42.8371 13.2554C42.6172 12.885 42.3628 12.2552 42.016 11.8206C41.9634 11.7721 41.9107 11.7239 41.8578 11.676C41.8494 11.7402 41.8407 11.8042 41.8317 11.8681C41.6673 11.647 41.6739 11.5013 41.5331 11.2901C41.3664 11.0419 41.2116 10.965 41.0951 10.8027C40.9996 10.6698 40.9198 10.452 40.7866 10.285C40.5924 10.0422 40.5593 10.1545 40.4424 10.0349C40.402 9.98135 39.5698 9.08054 39.517 9.03608C39.1606 8.65123 39.2211 8.53051 38.9341 8.22134C38.1334 7.3667 37.1481 6.66421 36.2584 6.06285C35.861 5.79324 35.4521 5.50514 35.0587 5.23149C35.8814 5.36175 34.5818 4.24298 34.849 5.01742C34.4306 4.67512 34.0302 4.60794 33.5964 4.3508C33.3146 4.18563 33.1439 4.01706 32.7194 3.81861C31.9622 3.46324 31.0462 3.33505 30.9445 2.90944C30.0019 2.63569 29.2092 2.28847 28.7886 2.51809C28.5442 2.47456 27.955 2.14441 27.6808 2.06711C27.4294 1.9673 25.3897 1.6066 25.0487 1.6042C24.709 1.57372 24.1193 1.54519 23.8322 1.57121C23.7158 1.58091 23.6103 1.62318 23.5 1.66276C23.2685 1.74594 23.0221 1.81482 22.5827 1.56582C21.842 1.63269 21.5822 1.64372 20.8884 1.67536C20.7631 1.682 20.7418 1.62595 20.6691 1.63512C20.5188 1.65429 20.2725 1.73145 20.0069 1.7793C19.5711 1.85802 19.3013 1.78792 19.3845 1.9626C19.1063 2.04749 18.8274 2.13843 18.5528 2.23437C18.4458 2.22196 18.3385 2.21033 18.231 2.19949C18.09 2.27494 17.9497 2.35194 17.8103 2.4304C17.9144 2.11607 16.9042 2.57318 17.2906 2.62383C16.7388 2.72905 16.1888 2.85636 15.6417 3.00604C15.6008 2.68158 14.4769 3.44353 14.6541 3.55772C14.5954 3.58354 14.5368 3.60961 14.4783 3.63594C13.9335 3.79479 13.4982 4.0842 12.8726 4.36809C12.2472 4.6581 12.291 4.60587 12.0367 4.59155C11.9013 4.68335 11.767 4.77657 11.6339 4.87117C11.1402 5.66541 10.8656 5.00514 9.87396 6.13707C9.35026 6.22922 8.54052 7.08696 8.05165 7.67905C7.99398 7.74759 8.02613 7.78247 7.95248 7.87624C7.76998 8.10221 7.22029 8.59896 7.35204 8.68533C7.14751 8.84256 6.94527 9.00379 6.74529 9.16917C6.63056 9.34602 6.51852 9.5243 6.40942 9.70362C6.4473 9.73287 6.48517 9.76214 6.52304 9.79142C6.13195 10.012 5.78526 10.5788 5.56818 10.8216C5.52452 10.8699 5.46203 10.8428 5.33234 10.9986C5.17977 11.1806 4.95394 11.5574 4.78777 11.7854C4.79157 11.9169 4.79659 12.048 4.8029 12.1785C4.58068 12.6241 4.3291 12.6822 4.17282 12.9338C4.14027 12.9767 3.70867 13.8426 3.69419 13.8939C3.54394 14.2948 3.72217 14.2451 3.22083 15.3612C3.13382 15.561 3.0173 15.7057 2.9462 15.8907C2.81363 16.2149 2.61519 17.2573 2.71287 17.3679C2.44316 17.7265 2.23495 18.8381 2.13439 19.1567C2.10202 19.2522 2.00289 19.2551 1.92687 19.5562C1.86328 19.8009 1.83865 20.4517 1.78935 20.765C1.73449 21.0981 1.64392 21.2126 1.62339 21.362C1.60451 21.504 1.65692 21.641 1.64184 21.8354C1.59389 22.4448 1.47419 22.9891 1.47171 23.4777C1.47167 23.4851 1.47165 23.4926 1.47167 23.5C1.47309 24.1962 1.69101 24.795 1.82243 25.3576C1.82219 25.5015 1.7945 25.6447 1.80985 25.7953C1.99008 27.6547 2.45428 29.721 3.10984 31.4838C3.37758 32.3101 4.15492 34.3677 4.27179 33.6475C4.45299 33.8891 5.44582 35.846 5.71495 36.1759C5.95619 36.5177 6.21877 36.7343 6.42232 36.9902C7.04176 37.7577 7.46123 38.3246 8.36769 39.119C8.60299 39.323 8.90949 39.48 9.04474 39.6025C9.20742 39.7506 9.32779 39.9741 9.54415 40.163C10.0545 40.6192 11.0972 41.3537 11.6423 41.717C11.7409 41.7847 11.7338 41.8732 11.8663 41.9858C12.3815 42.427 13.0512 42.7812 13.0534 42.4985C13.7339 43.0343 14.5105 43.2603 15.2411 43.5533C16.7708 44.2252 19.7392 45.0003 21.2055 44.9986C22.1219 45.0151 22.0999 44.9197 23.4408 45.0375C23.4606 45.039 23.4803 45.0404 23.5 45.0419C23.7802 45.0626 24.0629 45.0847 24.4014 45.0948C25.2502 45.1207 26.0631 45.2411 26.6701 44.9004C27.6176 44.8251 28.3404 44.6175 29.0764 44.6449C29.1443 44.5743 29.2115 44.5034 29.278 44.4322C29.3898 44.4001 29.5012 44.3671 29.6122 44.3333C29.6606 44.3698 29.7092 44.4061 29.758 44.4423C30.5697 44.2183 31.4937 43.6592 32.1342 43.3776C33.2406 42.9615 35.9011 41.4698 36.8041 40.7857C37.298 40.445 37.2523 40.342 37.654 40.286C37.7472 40.1878 37.8395 40.0888 37.9307 39.9891C37.963 39.8985 37.9947 39.8079 38.0255 39.7172C38.5951 39.2072 39.2889 38.6133 39.7756 38.0656C40.6805 37.0786 41.7436 35.3822 42.4603 34.2573C42.6449 33.9772 42.9283 33.6528 43.0757 33.3571C43.2886 32.9255 43.1954 32.7537 43.4375 32.2004C43.868 31.257 44.6547 29.4601 44.8465 28.4803C44.9087 28.1923 44.8785 28.0443 44.9127 27.8447C45.0518 27.0078 45.1558 26.3139 45.1394 25.4966C45.3646 24.6424 45.547 24.7199 45.7621 24.4562C45.9245 24.2573 46.2857 23.6089 46.4159 23.5114C46.509 23.4447 46.6279 23.6942 46.7306 23.6011C46.7998 24.7192 46.6724 25.1907 46.4372 26.0689C46.2601 27.7217 45.9033 29.3561 45.3735 30.933C45.2719 31.0583 45.1693 31.182 45.0658 31.304C45.0656 31.3039 45.0655 31.3039 45.0654 31.3038C44.7873 31.8769 44.8162 32.1761 44.7131 32.5061C43.8938 35.788 39.4764 40.8946 36.3058 42.6955C35.6749 43.1565 33.4654 44.4377 32.9228 44.5417C32.7864 44.5768 32.7165 44.5135 32.5802 44.5685C31.396 45.1354 30.1586 45.6015 28.8855 45.9583C27.1284 46.2884 25.3188 46.5201 23.5 46.5478C22.5523 46.5625 21.6115 46.5229 20.68 46.4166C13.2971 45.6237 6.522 40.9948 3.08849 34.5164C2.41143 33.277 1.65741 31.6351 1.30084 30.2924C1.15187 29.7339 1.21761 29.4666 0.942788 28.7567C0.977296 28.7405 1.01182 28.7244 1.04635 28.7083C0.856674 28.0751 0.692071 27.6787 0.570904 26.9438C0.456038 26.3316 0.311494 24.6757 0.326693 24.127C0.327194 23.8404 0.398778 23.946 0.395469 23.6791C0.394935 23.626 0.393245 23.5659 0.390847 23.5C0.369769 22.9984 0.325054 22.1723 0.372991 21.6136C0.413761 21.0449 0.61738 20.0979 0.682531 19.6647C0.898426 18.103 1.24328 16.3897 1.90774 14.8289C2.0885 14.3981 2.41842 13.8863 2.47815 13.7546C2.59362 13.4948 2.55221 13.3805 2.62703 13.2027C3.00027 12.2957 3.86854 11.0338 4.42375 10.2606C6.20036 7.70951 8.61164 5.36968 11.2608 3.75562C12.9035 2.68522 15.9233 1.40264 17.7042 1.06472C18.0837 0.983455 18.006 1.1019 18.3221 1.02783C18.673 0.947722 18.8531 0.846011 19.0167 0.808182C20.0473 0.545738 22.2671 0.256853 23.5 0.322688C23.6252 0.326684 23.7398 0.33267 23.8416 0.340251C24.0524 0.356113 24.2023 0.436036 24.3273 0.440113C24.3907 0.442386 24.5353 0.396106 24.7351 0.401339C26.5011 0.459495 27.7823 0.693557 29.452 1.14317C32.649 1.99652 36.181 3.73625 38.7557 6.10003C39.3193 6.6101 39.5813 7.08484 39.6577 7.15704C39.8243 7.31888 40.0023 7.35215 40.3457 7.67959C41.4986 8.76424 42.6856 10.5426 43.4709 11.8153C43.8694 12.4385 44.4515 13.29 44.7752 13.9507C45.0484 14.474 45.4911 15.7876 45.618 16.0187C45.7005 16.158 45.8266 16.1941 45.8978 16.3725ZM32.2987 3.53524C32.4596 3.41174 31.4523 3.14603 31.7738 3.38066C31.8458 3.43161 32.2576 3.56511 32.2987 3.53524ZM1.91503 28.3247C1.96125 28.3046 2.0075 28.2846 2.05376 28.2647C2.00432 28.1365 1.95583 28.0067 1.90882 27.8776C1.89468 27.958 1.88126 28.0399 1.86816 28.1213C1.88347 28.1893 1.8991 28.257 1.91503 28.3247Z" fill="#916058" fill-opacity="0.6"/>
<path d="M43.7532 17.055C43.8134 17.2041 43.8164 17.4364 43.8648 17.6172C44.0633 18.3781 44.0849 18.6698 44.2024 19.3684C44.4381 20.3927 44.6989 23.5039 44.2036 23.5C44.2036 23.5 44.2036 23.5 44.2036 23.5C44.1992 23.5 44.1947 23.4997 44.1902 23.4991C44.1047 23.4879 44.0094 23.2297 43.9113 23.1936C43.8131 23.1576 43.189 23.1926 43.1436 22.8456C43.0917 22.3436 43.1372 21.1142 43.0846 20.844C43.055 20.6604 42.9655 20.4434 42.916 20.2107C42.7537 19.4659 42.7051 19.0619 42.3824 18.4398C42.3905 18.1542 42.3925 17.8679 42.3878 17.5799C42.2455 17.2458 42.1653 16.6966 42.0799 16.4915C42.0112 16.3241 41.9127 16.2492 41.8399 16.0768C41.7579 15.8843 41.697 15.5577 41.5269 15.2135C41.2455 14.6511 41.0397 14.6289 40.8485 14.3089C40.6493 13.9779 40.4291 13.408 40.1128 13.0212C40.064 12.9787 40.015 12.9365 39.966 12.8946C39.9548 12.9545 39.9434 13.0142 39.9317 13.0738C39.7826 12.8767 39.7959 12.7412 39.6698 12.5517C39.5205 12.3291 39.3748 12.265 39.2705 12.1195C39.185 12.0004 39.1188 11.8011 38.999 11.6516C38.8244 11.4343 38.7871 11.541 38.6809 11.435C38.6441 11.3873 37.8944 10.5838 37.8471 10.5441C37.5276 10.1996 37.5915 10.0822 37.3351 9.80426C36.6194 9.03575 35.7289 8.41406 34.9296 7.87878C34.5726 7.63872 34.2068 7.38005 33.8555 7.13306C34.6118 7.22132 33.4594 6.19496 33.6714 6.93503C33.3003 6.62168 32.9342 6.57397 32.5467 6.34147C32.295 6.19207 32.1453 6.03434 31.7647 5.8566C31.0853 5.53824 30.2575 5.44335 30.1793 5.02596C29.3317 4.78675 28.6239 4.46194 28.2386 4.70039C28.0193 4.66343 27.4956 4.34795 27.25 4.27592C27.0252 4.18392 25.1963 3.85136 24.89 3.84869C24.5852 3.82083 24.0558 3.79469 23.7982 3.82095C23.6936 3.83083 23.599 3.87318 23.5 3.91276C23.2922 3.9959 23.072 4.06464 22.6767 3.81389C22.012 3.87717 21.779 3.8859 21.1557 3.90965C21.0431 3.91477 21.0233 3.85852 20.958 3.86675C20.823 3.88396 20.6025 3.95761 20.3642 4.0011C19.9731 4.07262 19.7285 3.99734 19.8069 4.17303C19.5578 4.25238 19.3082 4.33714 19.0627 4.42636C18.9659 4.41158 18.8688 4.39752 18.7714 4.38418C18.6459 4.45582 18.5209 4.52884 18.397 4.60315C18.4832 4.29413 17.5808 4.72026 17.9322 4.78103C17.4358 4.8698 16.9405 4.97851 16.4475 5.10746C16.3994 4.7867 15.4002 5.49694 15.5667 5.61495C15.514 5.63809 15.4615 5.66145 15.409 5.68504C14.9167 5.81985 14.5293 6.08566 13.9654 6.33534C13.4016 6.59061 13.4393 6.5411 13.2033 6.51584C13.0821 6.59901 12.962 6.68344 12.8429 6.7691C12.4217 7.51526 12.1361 6.86572 11.2631 7.90715C10.7773 7.97034 10.0572 8.75183 9.62358 9.28889C9.57239 9.35107 9.60465 9.38586 9.53958 9.47112C9.37829 9.67652 8.88016 10.1183 9.01 10.2064C8.82311 10.3444 8.63817 10.4861 8.45517 10.6317C8.35431 10.7924 8.2559 10.9542 8.1602 11.117C8.19801 11.1463 8.23582 11.1757 8.27362 11.205C7.90971 11.3924 7.6035 11.9052 7.40548 12.1207C7.36563 12.1635 7.30402 12.1353 7.18605 12.2742C7.04724 12.4364 6.8461 12.7759 6.6951 12.9795C6.70483 13.1016 6.71571 13.2232 6.72781 13.3442C6.53203 13.7459 6.2891 13.7881 6.1474 14.0133C6.11794 14.0518 5.7317 14.8298 5.71909 14.876C5.58719 15.2375 5.76247 15.1999 5.30948 16.1995C5.23084 16.3784 5.12083 16.5061 5.05681 16.6721C4.93741 16.963 4.77202 17.9023 4.87151 18.0046C4.61491 18.3217 4.43425 19.3202 4.33974 19.6049C4.30937 19.6903 4.21085 19.691 4.14059 19.9608C4.08184 20.1802 4.06747 20.7653 4.02195 21.0462C3.97132 21.3448 3.88189 21.4468 3.86289 21.5808C3.8454 21.7082 3.89902 21.8317 3.88545 22.0062C3.8422 22.553 3.72413 23.0412 3.72171 23.48C3.72167 23.4867 3.72165 23.4933 3.72167 23.5C3.72305 24.1252 3.93789 24.662 4.06435 25.1656C4.06286 25.2947 4.03382 25.4235 4.04755 25.5586C4.20858 27.2262 4.62126 29.08 5.20552 30.6633C5.44363 31.4046 6.11805 33.2643 6.26206 32.5971C6.43125 32.8097 7.30585 34.5734 7.54731 34.8698C7.76351 35.1766 8.00538 35.3661 8.18795 35.5954C8.74353 36.2832 9.11562 36.7957 9.93331 37.5031C10.1456 37.6847 10.4267 37.8183 10.5478 37.9282C10.6935 38.0609 10.7953 38.2682 10.9889 38.4381C11.4456 38.8481 12.3822 39.5041 12.8699 39.8311C12.9582 39.892 12.9474 39.9782 13.0649 40.0813C13.5219 40.4854 14.1236 40.8027 14.1378 40.5266C14.7408 41.0198 15.4434 41.2106 16.0982 41.4723C17.4693 42.0728 20.1291 42.7734 21.4442 42.7611C22.2661 42.7691 22.2464 42.672 23.447 42.7875C23.4647 42.789 23.4823 42.7904 23.5 42.7919C23.751 42.8126 24.0043 42.8352 24.3076 42.8467C25.068 42.8762 25.8 43.0053 26.3405 42.6744C27.1906 42.6135 27.837 42.4229 28.5025 42.4687C28.5621 42.4003 28.621 42.3316 28.6792 42.2627C28.7794 42.2338 28.8792 42.2042 28.9787 42.1737C29.0235 42.2113 29.0685 42.2487 29.1137 42.2859C29.8425 42.0862 30.6638 41.5654 31.2375 41.3134C32.2289 40.9408 34.6173 39.611 35.4317 39.0026C35.8769 38.6998 35.8289 38.5993 36.2035 38.5659C36.2862 38.4766 36.368 38.3866 36.4489 38.296C36.4747 38.211 36.4999 38.1261 36.5243 38.0412C37.0348 37.5839 37.6624 37.0566 38.099 36.5651C38.9108 35.6793 39.853 34.1508 40.5031 33.1468C40.6704 32.8967 40.9335 32.6104 41.0657 32.3449C41.2566 31.9575 41.1581 31.7963 41.3748 31.3002C41.7601 30.4547 42.4841 28.849 42.6549 27.9691C42.7103 27.7105 42.6771 27.5764 42.7071 27.3972C42.8292 26.6462 42.923 26.0236 42.8988 25.29C43.1166 24.5254 43.3006 24.5957 43.5141 24.3597C43.6753 24.1817 44.0355 23.5984 44.1659 23.5103C44.259 23.4501 44.378 23.6753 44.4806 23.5913C44.5511 24.6012 44.4273 25.0274 44.201 25.8184C44.0417 27.3101 43.7203 28.7854 43.2425 30.2089C43.1457 30.3203 43.048 30.43 42.9494 30.5381C42.9493 30.5381 42.9492 30.5381 42.9491 30.538C42.6924 31.0525 42.7316 31.3275 42.6414 31.6266C41.9296 34.6021 37.9185 39.2035 35.057 40.8236C34.4875 41.2388 32.4964 42.4018 32.003 42.4877C31.879 42.5173 31.8126 42.4524 31.6894 42.5017C30.6234 43.0176 29.5085 43.4429 28.3606 43.7698C26.7729 44.0594 25.1413 44.27 23.5 44.2978C22.6448 44.3125 21.7958 44.2785 20.9549 44.1832C14.2911 43.4735 8.16776 39.299 5.06893 33.4476C4.45799 32.3285 3.77116 30.8478 3.45294 29.6339C3.31998 29.1289 3.39239 28.8844 3.13455 28.2459C3.16923 28.2305 3.20393 28.2151 3.23863 28.1997C3.0632 27.6293 2.90648 27.273 2.79624 26.6094C2.69184 26.0568 2.56078 24.5616 2.57589 24.0661C2.57703 23.8073 2.64842 23.9025 2.6454 23.6617C2.64491 23.6138 2.64324 23.5595 2.64085 23.5C2.62004 23.0473 2.57236 22.3012 2.61566 21.7966C2.65248 21.283 2.84406 20.429 2.90174 20.0378C3.0926 18.6276 3.39305 17.0766 3.99623 15.6676C4.16036 15.2787 4.46629 14.8201 4.51997 14.7011C4.62376 14.4663 4.57871 14.3595 4.64532 14.1983C4.97764 13.3764 5.77079 12.2413 6.2724 11.5435C7.87773 9.24062 10.0528 7.12484 12.4464 5.6683C13.9303 4.70249 16.6574 3.54263 18.2672 3.24372C18.6102 3.17168 18.5422 3.2877 18.8275 3.22085C19.1441 3.14857 19.3053 3.05057 19.4529 3.01592C20.3824 2.77583 22.3868 2.50941 23.5 2.57269C23.613 2.57668 23.7165 2.58257 23.8084 2.59001C23.9987 2.60557 24.1338 2.68504 24.2466 2.68869C24.3038 2.69074 24.4345 2.64397 24.6149 2.64818C26.2094 2.69616 27.3662 2.91043 28.8729 3.31797C31.7575 4.09116 34.9507 5.65375 37.2724 7.79188C37.7805 8.25327 38.0068 8.6921 38.0758 8.75708C38.2263 8.90285 38.3938 8.92596 38.7056 9.21988C39.7523 10.1938 40.8157 11.8056 41.5285 12.9517C41.8903 13.5129 42.4269 14.2763 42.7219 14.8722C42.9708 15.3442 43.3663 16.5328 43.4861 16.7399C43.5637 16.8647 43.6876 16.8941 43.7532 17.055ZM31.3911 5.59466C31.5426 5.46754 30.633 5.24275 30.9178 5.4621C30.9815 5.50978 31.3523 5.62568 31.3911 5.59466ZM4.11132 27.8338C4.15776 27.8147 4.20421 27.7956 4.25069 27.7766C4.20425 27.662 4.15867 27.5459 4.11439 27.4305C4.09872 27.5033 4.0837 27.5774 4.06897 27.6512C4.08281 27.7122 4.09693 27.7731 4.11132 27.8338Z" fill="#916058" fill-opacity="0.6"/>
<path d="M35.157 33.9257C35.2641 33.9346 35.3986 34.0274 35.5254 34.0564C36.0529 34.1782 36.222 34.2592 36.6979 34.3867C37.3795 34.5593 39.5039 34.9954 39.3679 35.437C39.3679 35.437 39.3679 35.437 39.3679 35.437C39.3668 35.4413 39.3654 35.4455 39.3639 35.4498C39.3346 35.5307 39.14 35.5758 39.0898 35.6631C39.0395 35.7504 38.8997 36.3613 38.6496 36.3331C38.279 36.2837 37.4787 35.9291 37.2762 35.8919C37.1416 35.8663 36.9761 35.8876 36.8073 35.8608C36.2624 35.7749 35.9882 35.6751 35.4727 35.7277C35.2954 35.6083 35.1081 35.4875 34.9344 35.37C34.6759 35.3572 34.3091 35.1765 34.1509 35.1524C34.0212 35.1325 33.9342 35.1816 33.8028 35.1597C33.6548 35.1355 33.4404 35.0242 33.1663 34.9839C32.7143 34.9173 32.6097 35.0695 32.3393 35.0419C32.0611 35.0136 31.64 34.8446 31.2807 34.8405C31.2333 34.8508 31.1859 34.8611 31.1384 34.8715C31.1627 34.9183 31.187 34.9652 31.2113 35.0121C31.0305 34.9995 30.969 34.9014 30.8055 34.8707C30.613 34.8345 30.5 34.8971 30.3697 34.8736C30.2642 34.8544 30.1324 34.7648 29.9943 34.7445C29.7929 34.7145 29.8203 34.815 29.7092 34.8133C29.6653 34.8124 28.8572 34.7221 28.8131 34.715C28.4707 34.6581 28.4633 34.5258 28.1921 34.4661C27.4401 34.3011 26.6444 34.2637 25.9359 34.1731C25.6199 34.1327 25.2945 34.0645 24.9856 33.9852C25.5382 33.7538 24.499 33.2958 24.8091 33.8801C24.4756 33.7419 24.2051 33.8317 23.8784 33.7439C23.668 33.687 23.5343 33.5878 23.2311 33.529C22.6925 33.4252 22.0576 33.4999 21.9813 33.1076C21.3334 33.0367 20.8194 32.7841 20.5201 33.0487C20.3503 33.0306 19.9755 32.7447 19.8012 32.6757C19.6389 32.6152 18.3396 32.198 18.1237 32.1304C17.9075 32.0675 17.5349 31.9583 17.3498 31.9345C17.1144 31.9034 16.8504 32.1781 16.5649 31.6789C16.1002 31.5681 15.9171 31.4968 15.5074 31.3091C15.4328 31.2747 15.4434 31.2164 15.3987 31.2008C15.3098 31.17 15.1283 31.1518 14.959 31.0954C14.6791 31.002 14.5715 30.8274 14.5338 31.0144C14.3472 30.9764 14.1492 30.9317 13.9554 30.8856C13.9054 30.8257 13.8563 30.7657 13.8079 30.7058C13.6971 30.7017 13.5869 30.6969 13.4771 30.6914C13.703 30.497 12.9595 30.3319 13.1127 30.5743C12.788 30.3599 12.4757 30.1379 12.1664 29.8978C12.3655 29.6642 11.4664 29.4331 11.4346 29.6041C11.3972 29.579 11.3602 29.5537 11.3235 29.5283C11.055 29.2431 10.7113 29.0705 10.3866 28.6858C10.0689 28.293 10.142 28.307 10.146 28.0982C10.0644 28.0137 9.98641 27.9271 9.91236 27.8382C9.57947 27.7057 9.56431 27.5305 9.55422 27.3327C9.54803 27.1244 9.5192 26.9044 9.25993 26.4116C9.33411 26.2461 9.33638 26.0165 9.338 25.75C9.33487 25.3927 9.37184 24.9728 9.47837 24.6533C9.49966 24.5885 9.45679 24.5668 9.48647 24.4793C9.55238 24.2516 9.95407 23.8586 9.83101 23.7771C9.99226 23.6642 10.1648 23.562 10.3302 23.4803C10.4273 23.3616 10.5293 23.2484 10.6334 23.1404C10.6051 23.1018 10.5768 23.0633 10.5485 23.0247C10.895 22.9747 11.2521 22.6967 11.4707 22.6287C11.5143 22.615 11.5526 22.6687 11.6858 22.6221C11.832 22.5721 12.1017 22.4258 12.2777 22.3738C12.3153 22.2781 12.3548 22.1822 12.3961 22.0862C12.702 21.9192 12.8744 22.0626 13.0675 22.0074C13.1006 21.9954 13.7052 21.7729 13.7353 21.7611C13.9905 21.6459 13.8698 21.5039 14.6621 21.3079C14.8057 21.2732 14.9298 21.2973 15.0571 21.2644C15.2835 21.2043 15.9186 20.9044 15.9443 20.7757C16.2499 20.8504 16.9589 20.6137 17.1842 20.6049C17.2517 20.6024 17.2874 20.6915 17.4889 20.6645C17.6526 20.6426 18.0476 20.4719 18.2527 20.4376C18.4713 20.4011 18.567 20.4611 18.6638 20.4445C18.7556 20.4287 18.8248 20.3467 18.9489 20.3185C19.3379 20.2313 19.7091 20.2525 20.0151 20.1837C20.4566 20.0846 20.8023 19.8077 21.1496 19.6378C21.2436 19.6281 21.3425 19.6465 21.438 19.6239C22.6194 19.346 23.9486 19.038 25.1101 18.7179C25.1362 18.7108 25.1643 18.7036 25.1941 18.6962C25.7913 18.5495 27.0574 18.3739 26.5912 18.09C26.7596 17.9593 28.1641 17.6861 28.4207 17.5967C28.6772 17.5115 28.8503 17.3683 29.05 17.2952C29.6443 17.0749 30.0865 16.97 30.7502 16.6022C30.9216 16.5063 31.0671 16.3352 31.1696 16.2857C31.2937 16.2263 31.4619 16.2405 31.621 16.1609C32.002 15.9783 32.6197 15.5365 32.8957 15.2982C32.9475 15.2562 33.0177 15.2984 33.1058 15.2482C33.4535 15.0558 33.6864 14.6976 33.4375 14.6185C33.8108 14.33 33.8442 13.8852 33.895 13.4925C33.9142 13.3513 33.9282 13.1866 33.9285 13C33.9968 12.0302 33.3371 11.1977 32.6657 11.0049C32.1866 10.8544 32.1821 10.9555 31.4525 10.6574C31.2832 10.5937 31.1164 10.5279 30.903 10.4623C30.4046 10.3094 29.9287 10.0476 29.4937 10.2571C28.9021 10.1387 28.4127 10.1602 27.9697 9.92952C27.914 9.97835 27.8566 10.0272 27.8025 10.0763C27.7282 10.075 27.6535 10.0738 27.5782 10.0727C27.5562 10.0234 27.5341 9.97411 27.5119 9.92482C26.9718 9.89547 26.2821 10.0877 25.8216 10.0847C25.701 10.0839 25.5494 10.0813 25.375 10.0775C24.4545 10.0574 22.93 9.99364 22.3106 9.93837C21.9216 9.90353 21.8957 10.0077 21.6742 9.7936C21.5872 9.80849 21.4998 9.82338 21.4122 9.83827C21.3574 9.88515 21.3024 9.93202 21.2474 9.9789C20.7463 9.98077 20.1503 9.90796 19.6719 9.90871C18.8006 9.91021 17.4917 10.0392 16.617 9.95448C16.3997 9.93312 16.1212 9.83645 15.9089 9.83754C15.5956 9.83904 15.5189 9.99946 15.1233 10.0025C14.4407 10.0073 13.1629 9.82097 12.5178 9.83522C12.3312 9.83935 12.2351 9.89904 12.103 9.90541C11.5461 9.93278 11.0956 9.92792 10.5602 10.0202C9.98672 9.86643 10.0454 9.66801 9.85622 9.46779C9.73349 9.31667 9.31145 8.96647 9.25168 8.83412C9.21274 8.74114 9.36037 8.62153 9.30527 8.51918C9.99718 8.43744 10.2782 8.52742 10.8374 8.6714C11.8661 8.66566 12.8929 8.65993 13.9248 8.65419C14.0215 8.71006 14.1103 8.76592 14.2042 8.82179C14.2042 8.82191 14.2042 8.82204 14.2042 8.82216C14.6008 8.88663 14.766 8.74276 14.9795 8.7101C17.0189 8.39739 21.0325 8.64214 23.2779 8.67738C23.6694 8.68352 24.7996 8.63418 25.375 8.66586C25.5049 8.67288 25.6065 8.68408 25.6669 8.70068C25.753 8.72454 25.7766 8.81076 25.8676 8.8149C26.688 8.76746 27.5141 8.7291 28.3424 8.71699C30.0306 8.96096 31.8459 8.91088 33.5692 9.82695C34.6838 10.3862 35.4287 11.7903 35.3771 13C35.4999 15.1341 33.6708 16.7832 32.103 17.5418C30.4811 18.3804 28.8082 18.909 27.158 19.4347C26.6772 19.5854 26.1275 19.7791 25.5901 19.958C25.1925 20.0902 24.7963 20.2084 24.4407 20.2909C24.0874 20.3725 23.9088 20.2786 23.4784 20.4996C23.4641 20.4649 23.4498 20.4301 23.4355 20.3953C23.0499 20.5433 22.8155 20.6908 22.3705 20.8102C21.9956 20.9118 21.0009 21.154 20.6653 21.2167C20.4912 21.2499 20.5397 21.1672 20.3793 21.2047C20.1051 21.2696 19.5404 21.4981 19.1607 21.5855C18.8192 21.6639 18.2246 21.7194 17.9639 21.7929C17.0274 22.0558 16.0366 22.4194 15.0523 22.67C14.7771 22.7395 14.4111 22.7579 14.3261 22.7878C14.1642 22.8446 14.1444 22.9435 14.041 22.9895C13.5076 23.2217 12.6417 23.4439 12.1581 23.6909C11.1585 24.1745 10.3069 24.9147 10.3529 25.75C10.3541 26.307 10.5675 26.8218 10.9269 27.2861C11.5022 28.1181 13.1972 29.056 14.1583 29.5186C14.3631 29.6222 14.2695 29.6867 14.4512 29.7622C14.6545 29.8458 14.7922 29.8296 14.8848 29.8601C15.5501 30.0908 17.045 30.5056 17.6838 30.7497C17.8013 30.7967 17.8695 30.8941 17.9431 30.9144C17.9803 30.9248 18.078 30.8988 18.197 30.926C19.2517 31.1649 20.0018 31.3773 21.037 31.6307C23.0067 32.1112 25.3494 32.4577 27.4498 32.8877C27.9078 32.9816 28.1966 33.1842 28.2622 33.1944C28.4051 33.2168 28.5138 33.1345 28.806 33.1612C29.7755 33.2508 31.0521 33.5842 31.9698 33.6988C32.4296 33.7565 33.0631 33.7428 33.5183 33.7992C33.8758 33.8423 34.7061 34.0521 34.8738 34.0286C34.9756 34.0142 35.0406 33.9165 35.157 33.9257ZM22.9246 33.3818C23.0221 33.2252 22.3291 33.2298 22.5594 33.3721C22.6112 33.4042 22.8992 33.4226 22.9246 33.3818ZM23.0871 19.5232C23.0686 19.4769 23.0502 19.4306 23.0318 19.3843C22.9523 19.4264 22.8727 19.4683 22.7928 19.5102C22.848 19.5267 22.9032 19.5431 22.9585 19.5595C23.0014 19.5474 23.0443 19.5354 23.0871 19.5232ZM22.6726 11.6265C22.6927 11.6145 22.7211 11.6793 22.7448 11.6828C22.8442 11.6977 22.881 11.7427 22.9709 11.7682C23.1043 11.8061 23.5 11.7208 23.5 12.1714C23.5 12.1714 23.5 12.1714 23.5 12.1714C23.5 12.1758 23.5 12.1803 23.4999 12.1848C23.4985 12.2707 23.4648 12.3644 23.4598 12.4614C23.4549 12.5586 23.4586 13.1855 23.4108 13.2207C23.3415 13.2672 23.1752 13.1064 23.1382 13.1135C23.113 13.1185 23.0819 13.1754 23.0495 13.1856C22.9453 13.2182 22.8908 13.1765 22.7969 13.3313C22.7594 13.2497 22.7218 13.1681 22.6843 13.0866C22.6353 13.1244 22.561 13.0168 22.5313 13.0227C22.5068 13.0276 22.4925 13.0921 22.4671 13.0951C22.4385 13.0988 22.3947 13.0292 22.3428 13.0397C22.2577 13.0566 22.2425 13.2249 22.1914 13.2462C22.1385 13.2683 22.0561 13.1769 21.9885 13.2361C21.9801 13.2546 21.9716 13.2731 21.9631 13.2916C21.9692 13.3335 21.9753 13.3754 21.9813 13.4173C21.9473 13.4367 21.9326 13.3509 21.9014 13.3494C21.8646 13.3475 21.8458 13.4289 21.821 13.4285C21.8007 13.4281 21.7732 13.3629 21.7469 13.367C21.7086 13.3726 21.717 13.4668 21.6963 13.4844C21.6881 13.4912 21.5359 13.5432 21.5273 13.544C21.462 13.5477 21.4563 13.4188 21.4042 13.4075C21.2598 13.3767 21.1115 13.4809 20.9779 13.5203C20.9182 13.5379 20.856 13.5304 20.7965 13.5098C20.8902 13.1798 20.6828 12.9231 20.7604 13.4393C20.6942 13.3659 20.6472 13.5053 20.5845 13.4817C20.5439 13.4663 20.5158 13.3947 20.4579 13.3966C20.355 13.4004 20.2426 13.6039 20.213 13.2361C20.0923 13.3009 19.9877 13.1675 19.9442 13.4922C19.9131 13.512 19.8333 13.3186 19.7984 13.2924C19.7654 13.2676 19.5121 13.1803 19.4706 13.1754C19.4292 13.1706 19.3567 13.1653 19.3217 13.1937C19.2779 13.229 19.2473 13.5657 19.1692 13.172C19.0784 13.2039 19.0461 13.1926 18.9616 13.1469C18.9464 13.1386 18.9446 13.0801 18.9357 13.0801C18.9173 13.0801 18.886 13.1233 18.8532 13.1286C18.7992 13.1372 18.7684 13.0142 18.7744 13.202C18.7388 13.2335 18.7032 13.265 18.6676 13.2965C18.6551 13.2603 18.6426 13.224 18.6301 13.1878C18.6111 13.2273 18.5921 13.2668 18.573 13.3063C18.5954 13.0345 18.4614 13.1949 18.5049 13.3508C18.4359 13.2946 18.3669 13.2384 18.2979 13.1821C18.3075 12.8732 18.1464 13.1465 18.1599 13.3145C18.152 13.3142 18.1441 13.314 18.1363 13.3137C18.0671 13.2316 18.0036 13.2988 17.9194 13.2437C17.8351 13.1886 17.843 13.1585 17.8174 13.0164C17.7976 13.0245 17.7778 13.0326 17.7579 13.0408C17.6539 13.4304 17.6723 12.7559 17.4941 13.0547C17.4372 12.8099 17.2969 12.9385 17.2039 13.0127C17.193 13.0213 17.1929 13.0689 17.1784 13.0835C17.1432 13.1188 17.0533 13.0577 17.0563 13.211C17.0252 13.1666 16.9941 13.1222 16.9629 13.0779C16.9375 13.1058 16.912 13.1336 16.8866 13.1615C16.8867 13.2094 16.8868 13.2572 16.887 13.3051C16.8357 13.142 16.7552 13.2047 16.7155 13.1657C16.7076 13.1578 16.7059 13.0918 16.6813 13.0737C16.6526 13.0524 16.5991 13.0719 16.5648 13.0513C16.5515 13.1244 16.5382 13.1975 16.5249 13.2706C16.4637 13.3103 16.4422 13.1173 16.4063 13.1023C16.3998 13.0997 16.2818 13.1136 16.2754 13.1177C16.2233 13.1504 16.2381 13.3148 16.0875 13.2796C16.0607 13.2732 16.039 13.2163 16.0148 13.214C15.972 13.2099 15.8429 13.3389 15.8328 13.4581C15.7809 13.3089 15.6419 13.3699 15.601 13.3268C15.5886 13.3135 15.5858 13.2185 15.5479 13.1983C15.5171 13.1818 15.4378 13.2579 15.3988 13.2451C15.3573 13.2313 15.3426 13.1514 15.324 13.1458C15.3064 13.1405 15.2903 13.205 15.2664 13.2046C15.1917 13.2024 15.1242 13.0986 15.0652 13.0967C14.9799 13.0937 14.9046 13.2845 14.8332 13.3693C14.8155 13.3569 14.7981 13.3159 14.7795 13.3156C14.5498 13.3096 14.2906 13.2744 14.0602 13.2335C13.9532 13.2148 13.6872 12.9557 13.7582 13.388C13.7211 13.4637 13.4508 13.2894 13.3994 13.2868C13.348 13.2842 13.3072 13.3617 13.2668 13.3628C13.1449 13.3662 13.059 13.3103 12.9106 13.3778C12.8723 13.3955 12.8312 13.4873 12.8085 13.4862C12.7812 13.4847 12.7518 13.3959 12.7164 13.3903C12.6319 13.3775 12.4746 13.4067 12.3936 13.3914C12.3788 13.3884 12.3736 13.3104 12.3525 13.286C12.2701 13.1908 12.1778 13.1991 12.1941 13.448C12.0885 13.3067 11.9909 13.4356 11.893 13.4435C11.6862 13.4596 11.3093 13.4015 11.1291 13.5061C11.0155 13.5721 11.0184 13.6838 10.8511 13.5874C10.8139 13.5661 10.777 13.5372 10.7319 13.5117C10.6263 13.4517 10.5295 13.2455 10.449 13.494C10.3317 13.4296 10.2383 13.4753 10.1513 13.2627C10.1411 13.3137 10.1308 13.3647 10.1206 13.4157C10.1062 13.4169 10.0918 13.4182 10.0774 13.4195C10.073 13.3708 10.0685 13.3222 10.064 13.2736C9.961 13.2605 9.83033 13.4603 9.74315 13.4589C9.59699 13.4566 9.22051 13.379 9.08191 13.3134C9.00833 13.2785 9.00437 13.3827 8.96224 13.1686C8.94578 13.1835 8.92933 13.1984 8.91287 13.2133C8.90257 13.2601 8.89227 13.307 8.88197 13.3539C8.78756 13.3558 8.67559 13.283 8.58566 13.2837C8.42178 13.2852 8.1757 13.4142 8.01113 13.3295C7.96986 13.3081 7.91828 13.2114 7.87788 13.2125C7.81907 13.214 7.80477 13.3745 7.73014 13.3775C7.60151 13.3823 7.36197 13.196 7.24039 13.2102C7.20428 13.2143 7.18743 13.274 7.1625 13.2804C7.05795 13.3078 6.97211 13.3029 6.87185 13.3952C6.76421 13.2414 6.77351 13.043 6.74015 12.8428C6.71486 12.6917 6.63734 12.3415 6.62633 12.2091C6.6186 12.1161 6.64747 11.9965 6.63663 11.8942C6.7656 11.8124 6.81979 11.9024 6.92451 12.0464C7.11791 12.0407 7.31131 12.0349 7.50471 12.0292C7.5223 12.0851 7.5399 12.1409 7.55749 12.1968C7.55749 12.1969 7.55749 12.197 7.55749 12.1972C7.63176 12.2616 7.66324 12.1178 7.7033 12.0851C8.08677 11.7724 8.84154 12.0171 9.2637 12.0524C9.35467 12.0599 9.6506 11.9846 9.71303 12.0753C9.72919 12.099 9.73368 12.1851 9.75088 12.1889C9.90449 12.1376 10.0581 12.0864 10.2117 12.0352C10.5276 12.169 10.8542 12.0585 11.1725 12.0379C12.0337 11.982 12.8862 11.9141 13.7333 11.9347C13.897 11.9388 14.1048 11.8743 14.265 11.9159C14.3319 11.9332 14.3598 12.0715 14.4477 11.9684C14.4486 12.0057 14.4495 12.0429 14.4504 12.0802C14.5271 12.0352 14.5761 11.9504 14.6621 11.9418C14.7345 11.9347 14.926 11.9291 14.99 11.9434C15.0232 11.9505 15.0108 12.0201 15.0418 12.0198C15.0947 12.0187 15.2079 11.9224 15.281 11.9224C15.3472 11.9224 15.4588 12.0026 15.5097 11.991C15.693 11.9497 15.8927 11.8308 16.088 11.8627C16.142 11.8717 16.2114 11.962 16.2283 11.9595C16.2613 11.9542 16.2711 11.8665 16.2933 11.8552C16.4059 11.7983 16.5815 11.9025 16.6919 11.9066C17.0517 11.9201 17.4328 11.8818 17.791 11.898C18.0173 11.9081 18.3933 11.8926 18.6022 11.9586C18.6473 11.9729 18.6353 12.069 18.6731 12.069C18.7151 12.069 18.7378 12.004 18.7574 11.9988C18.8931 11.962 19.1926 11.8964 19.3207 11.9628C19.3451 11.9755 19.3628 12.0508 19.3774 12.0506C19.3848 12.0506 19.4015 11.9992 19.4247 11.9939C19.6297 11.9474 19.7792 11.9774 19.98 11.995C20.3647 12.0284 20.8104 11.9328 21.2145 11.9845C21.3026 11.9958 21.3629 12.1447 21.3753 12.1432C21.4025 12.1402 21.4199 12.04 21.4749 12.0153C21.6579 11.9339 21.9043 12.0408 22.0783 11.9906C22.1642 11.9659 22.2824 11.8387 22.367 11.8106C22.4346 11.7881 22.5941 11.838 22.6241 11.7821C22.6423 11.7484 22.6507 11.64 22.6726 11.6265ZM20.3961 13.313C20.4082 13.1398 20.2817 13.2837 20.3291 13.3767C20.3398 13.3977 20.393 13.358 20.3961 13.313ZM14.4721 13.0122C14.4732 13.0617 14.4744 13.1112 14.4755 13.1607C14.4922 13.1401 14.5088 13.1195 14.5254 13.0989C14.516 13.0691 14.5067 13.0394 14.4974 13.0097C14.4889 13.0105 14.4805 13.0114 14.4721 13.0122ZM39.5476 11.6265C39.5677 11.6145 39.5961 11.6793 39.6198 11.6828C39.7192 11.6977 39.756 11.7427 39.8459 11.7682C39.9793 11.8061 40.375 11.7208 40.375 12.1714C40.375 12.1714 40.375 12.1714 40.375 12.1714C40.375 12.1758 40.375 12.1803 40.3749 12.1848C40.3735 12.2707 40.3398 12.3644 40.3348 12.4614C40.3299 12.5586 40.3336 13.1855 40.2858 13.2207C40.2165 13.2672 40.0502 13.1064 40.0132 13.1135C39.988 13.1185 39.9569 13.1754 39.9245 13.1856C39.8203 13.2182 39.7658 13.1765 39.6719 13.3313C39.6344 13.2497 39.5968 13.1681 39.5593 13.0866C39.5103 13.1244 39.436 13.0168 39.4063 13.0227C39.3818 13.0276 39.3675 13.0921 39.3421 13.0951C39.3135 13.0988 39.2697 13.0292 39.2178 13.0397C39.1327 13.0566 39.1175 13.2249 39.0664 13.2462C39.0135 13.2683 38.9311 13.1769 38.8635 13.2361C38.8551 13.2546 38.8466 13.2731 38.8381 13.2916C38.8442 13.3335 38.8503 13.3754 38.8563 13.4173C38.8223 13.4367 38.8076 13.3509 38.7764 13.3494C38.7396 13.3475 38.7208 13.4289 38.696 13.4285C38.6757 13.4281 38.6482 13.3629 38.6219 13.367C38.5836 13.3726 38.592 13.4668 38.5713 13.4844C38.5631 13.4912 38.4109 13.5432 38.4023 13.544C38.337 13.5477 38.3313 13.4188 38.2792 13.4075C38.1348 13.3767 37.9865 13.4809 37.8529 13.5203C37.7932 13.5379 37.731 13.5304 37.6715 13.5098C37.7652 13.1798 37.5578 12.9231 37.6354 13.4393C37.5692 13.3659 37.5222 13.5053 37.4595 13.4817C37.4189 13.4663 37.3908 13.3947 37.3329 13.3966C37.23 13.4004 37.1176 13.6039 37.088 13.2361C36.9673 13.3009 36.8627 13.1675 36.8192 13.4922C36.7881 13.512 36.7083 13.3186 36.6734 13.2924C36.6404 13.2676 36.3871 13.1803 36.3456 13.1754C36.3042 13.1706 36.2317 13.1653 36.1967 13.1937C36.1529 13.229 36.1223 13.5657 36.0442 13.172C35.9534 13.2039 35.9211 13.1926 35.8366 13.1469C35.8214 13.1386 35.8196 13.0801 35.8107 13.0801C35.7923 13.0801 35.761 13.1233 35.7282 13.1286C35.6742 13.1372 35.6434 13.0142 35.6494 13.202C35.6138 13.2335 35.5782 13.265 35.5426 13.2965C35.5301 13.2603 35.5176 13.224 35.5051 13.1878C35.4861 13.2273 35.4671 13.2668 35.448 13.3063C35.4704 13.0345 35.3364 13.1949 35.3799 13.3508C35.3109 13.2946 35.2419 13.2384 35.1729 13.1821C35.1825 12.8732 35.0214 13.1465 35.0349 13.3145C35.027 13.3142 35.0191 13.314 35.0112 13.3137C34.9421 13.2316 34.8786 13.2988 34.7944 13.2437C34.7101 13.1886 34.718 13.1585 34.6924 13.0164C34.6726 13.0245 34.6528 13.0326 34.6329 13.0408C34.5289 13.4304 34.5473 12.7559 34.3691 13.0547C34.3122 12.8099 34.1719 12.9385 34.0789 13.0127C34.068 13.0213 34.0679 13.0689 34.0534 13.0835C34.0182 13.1188 33.9283 13.0577 33.9313 13.211C33.9002 13.1666 33.8691 13.1222 33.8379 13.0779C33.8125 13.1058 33.787 13.1336 33.7616 13.1615C33.7617 13.2094 33.7618 13.2572 33.762 13.3051C33.7107 13.142 33.6302 13.2047 33.5905 13.1657C33.5826 13.1578 33.5809 13.0918 33.5563 13.0737C33.5276 13.0524 33.4741 13.0719 33.4398 13.0513C33.4265 13.1244 33.4132 13.1975 33.3999 13.2706C33.3387 13.3103 33.3172 13.1173 33.2813 13.1023C33.2748 13.0997 33.1568 13.1136 33.1504 13.1177C33.0983 13.1504 33.1131 13.3148 32.9625 13.2796C32.9357 13.2732 32.914 13.2163 32.8898 13.214C32.847 13.2099 32.7179 13.3389 32.7078 13.4581C32.6559 13.3089 32.5169 13.3699 32.476 13.3268C32.4636 13.3135 32.4608 13.2185 32.4229 13.1983C32.3921 13.1818 32.3128 13.2579 32.2738 13.2451C32.2323 13.2313 32.2176 13.1514 32.199 13.1458C32.1814 13.1405 32.1653 13.205 32.1414 13.2046C32.0667 13.2024 31.9992 13.0986 31.9402 13.0967C31.8549 13.0937 31.7796 13.2845 31.7082 13.3693C31.6905 13.3569 31.6731 13.3159 31.6545 13.3156C31.4248 13.3096 31.1656 13.2744 30.9352 13.2335C30.8282 13.2148 30.5622 12.9557 30.6332 13.388C30.5961 13.4637 30.3258 13.2894 30.2744 13.2868C30.223 13.2842 30.1822 13.3617 30.1418 13.3628C30.0199 13.3662 29.934 13.3103 29.7856 13.3778C29.7473 13.3955 29.7062 13.4873 29.6835 13.4862C29.6562 13.4847 29.6268 13.3959 29.5914 13.3903C29.5069 13.3775 29.3496 13.4067 29.2686 13.3914C29.2538 13.3884 29.2486 13.3104 29.2275 13.286C29.1451 13.1908 29.0528 13.1991 29.0691 13.448C28.9635 13.3067 28.8659 13.4356 28.768 13.4435C28.5612 13.4596 28.1843 13.4015 28.0041 13.5061C27.8905 13.5721 27.8934 13.6838 27.7261 13.5874C27.6889 13.5661 27.652 13.5372 27.6069 13.5117C27.5013 13.4517 27.4045 13.2455 27.324 13.494C27.2067 13.4296 27.1133 13.4753 27.0263 13.2627C27.0161 13.3137 27.0058 13.3647 26.9956 13.4157C26.9812 13.4169 26.9668 13.4182 26.9524 13.4195C26.948 13.3708 26.9435 13.3222 26.939 13.2736C26.836 13.2605 26.7053 13.4603 26.6182 13.4589C26.472 13.4566 26.0955 13.379 25.9569 13.3134C25.8833 13.2785 25.8794 13.3827 25.8372 13.1686C25.8208 13.1835 25.8043 13.1984 25.7879 13.2133C25.7776 13.2601 25.7673 13.307 25.757 13.3539C25.6626 13.3558 25.5506 13.283 25.4607 13.2837C25.2968 13.2852 25.0507 13.4142 24.8861 13.3295C24.8449 13.3081 24.7933 13.2114 24.7529 13.2125C24.6941 13.214 24.6798 13.3745 24.6051 13.3775C24.4765 13.3823 24.237 13.196 24.1154 13.2102C24.0793 13.2143 24.0624 13.274 24.0375 13.2804C23.9329 13.3078 23.8471 13.3029 23.7469 13.3952C23.6392 13.2414 23.6485 13.043 23.6151 12.8428C23.5899 12.6917 23.5123 12.3415 23.5013 12.2091C23.4936 12.1161 23.5225 11.9965 23.5116 11.8942C23.6406 11.8124 23.6948 11.9024 23.7995 12.0464C23.9929 12.0407 24.1863 12.0349 24.3797 12.0292C24.3973 12.0851 24.4149 12.1409 24.4325 12.1968C24.4325 12.1969 24.4325 12.197 24.4325 12.1972C24.5068 12.2616 24.5382 12.1178 24.5783 12.0851C24.9618 11.7724 25.7165 12.0171 26.1387 12.0524C26.2297 12.0599 26.5256 11.9846 26.588 12.0753C26.6042 12.099 26.6087 12.1851 26.6259 12.1889C26.7795 12.1376 26.9331 12.0864 27.0867 12.0352C27.4026 12.169 27.7292 12.0585 28.0475 12.0379C28.9087 11.982 29.7612 11.9141 30.6083 11.9347C30.772 11.9388 30.9798 11.8743 31.14 11.9159C31.2069 11.9332 31.2348 12.0715 31.3227 11.9684C31.3236 12.0057 31.3245 12.0429 31.3254 12.0802C31.4021 12.0352 31.4511 11.9504 31.5371 11.9418C31.6095 11.9347 31.801 11.9291 31.865 11.9434C31.8982 11.9505 31.8858 12.0201 31.9168 12.0198C31.9697 12.0187 32.0829 11.9224 32.156 11.9224C32.2222 11.9224 32.3338 12.0026 32.3847 11.991C32.568 11.9497 32.7677 11.8308 32.963 11.8627C33.017 11.8717 33.0864 11.962 33.1033 11.9595C33.1363 11.9542 33.1461 11.8665 33.1683 11.8552C33.2809 11.7983 33.4565 11.9025 33.5669 11.9066C33.9267 11.9201 34.3078 11.8818 34.666 11.898C34.8923 11.9081 35.2683 11.8926 35.4772 11.9586C35.5223 11.9729 35.5103 12.069 35.5481 12.069C35.5901 12.069 35.6128 12.004 35.6324 11.9988C35.7681 11.962 36.0676 11.8964 36.1957 11.9628C36.2201 11.9755 36.2378 12.0508 36.2524 12.0506C36.2598 12.0506 36.2765 11.9992 36.2997 11.9939C36.5047 11.9474 36.6542 11.9774 36.855 11.995C37.2397 12.0284 37.6854 11.9328 38.0895 11.9845C38.1776 11.9958 38.2379 12.1447 38.2503 12.1432C38.2775 12.1402 38.2949 12.04 38.3499 12.0153C38.5329 11.9339 38.7793 12.0408 38.9533 11.9906C39.0392 11.9659 39.1574 11.8387 39.242 11.8106C39.3096 11.7881 39.4691 11.838 39.4991 11.7821C39.5173 11.7484 39.5257 11.64 39.5476 11.6265ZM37.2711 13.313C37.2832 13.1398 37.1567 13.2837 37.2041 13.3767C37.2148 13.3977 37.268 13.358 37.2711 13.313ZM31.3471 13.0122C31.3482 13.0617 31.3494 13.1112 31.3505 13.1607C31.3672 13.1401 31.3838 13.1195 31.4004 13.0989C31.391 13.0691 31.3817 13.0394 31.3724 13.0097C31.3639 13.0105 31.3555 13.0114 31.3471 13.0122ZM24.4985 12.1837C24.5105 12.1944 24.4457 12.2096 24.4422 12.2222C24.4272 12.2752 24.3823 12.2949 24.3568 12.3428C24.3189 12.4139 24.4042 12.625 23.9536 12.625C23.9536 12.625 23.9536 12.625 23.9536 12.625C23.9492 12.625 23.9447 12.625 23.9402 12.6249C23.8543 12.6242 23.7606 12.6062 23.6636 12.6036C23.5664 12.6009 22.9395 12.6029 22.9043 12.5774C22.8578 12.5405 23.0186 12.4518 23.0115 12.4321C23.0065 12.4186 22.9496 12.402 22.9394 12.3847C22.9068 12.3292 22.9485 12.3001 22.7937 12.25C22.8753 12.23 22.9569 12.21 23.0384 12.1899C23.0006 12.1638 23.1082 12.1242 23.1023 12.1083C23.0974 12.0953 23.0329 12.0877 23.0299 12.0741C23.0262 12.0589 23.0958 12.0355 23.0853 12.0078C23.0684 11.9624 22.9001 11.9543 22.8788 11.9271C22.8567 11.8989 22.9481 11.8549 22.8889 11.8189C22.8704 11.8144 22.8519 11.8098 22.8334 11.8053C22.7915 11.8086 22.7496 11.8118 22.7077 11.815C22.6883 11.7969 22.7741 11.7891 22.7756 11.7724C22.7775 11.7528 22.6961 11.7428 22.6965 11.7296C22.6969 11.7187 22.7621 11.7041 22.758 11.69C22.7524 11.6696 22.6582 11.6741 22.6406 11.663C22.6338 11.6587 22.5818 11.5775 22.581 11.5729C22.5773 11.5381 22.7062 11.535 22.7175 11.5072C22.7483 11.4302 22.6441 11.3511 22.6047 11.2799C22.5871 11.248 22.5946 11.2148 22.6152 11.1831C22.9452 11.2331 23.2019 11.1225 22.6857 11.1639C22.7591 11.1286 22.6197 11.1035 22.6433 11.0701C22.6587 11.0484 22.7303 11.0334 22.7284 11.0025C22.7246 10.9477 22.5211 10.8877 22.8889 10.8719C22.8241 10.8076 22.9575 10.7518 22.6328 10.7286C22.613 10.712 22.8064 10.6694 22.8326 10.6508C22.8574 10.6332 22.9447 10.4981 22.9496 10.476C22.9544 10.4539 22.9597 10.4152 22.9313 10.3966C22.896 10.3732 22.5593 10.3569 22.953 10.3152C22.9211 10.2668 22.9324 10.2496 22.9781 10.2045C22.9864 10.1964 23.0449 10.1955 23.0449 10.1907C23.0449 10.1809 23.0017 10.1642 22.9964 10.1467C22.9878 10.1179 23.1108 10.1015 22.923 10.1047C22.8915 10.0857 22.86 10.0667 22.8285 10.0477C22.8647 10.0411 22.901 10.0344 22.9372 10.0277C22.8977 10.0176 22.8582 10.0074 22.8187 9.99728C23.0905 10.0092 22.9301 9.93776 22.7742 9.96095C22.8304 9.92415 22.8866 9.88735 22.9429 9.85054C23.2518 9.85568 22.9785 9.76973 22.8105 9.77697C22.8108 9.77276 22.811 9.76855 22.8113 9.76433C22.8934 9.72747 22.8262 9.69361 22.8813 9.64867C22.9364 9.60373 22.9665 9.60795 23.1086 9.59429C23.1005 9.58371 23.0924 9.57314 23.0842 9.56256C22.6946 9.50708 23.3691 9.51688 23.0703 9.42187C23.3151 9.39151 23.1865 9.31668 23.1123 9.26706C23.1037 9.26129 23.0561 9.26119 23.0415 9.2535C23.0062 9.2347 23.0673 9.18673 22.914 9.18837C22.9584 9.17177 23.0028 9.15516 23.0471 9.13856C23.0192 9.12499 22.9914 9.11141 22.9635 9.09784C22.9156 9.09791 22.8678 9.09798 22.8199 9.09805C22.983 9.07072 22.9203 9.02777 22.9593 9.00658C22.9672 9.00237 23.0332 9.00146 23.0513 8.98835C23.0726 8.97304 23.0531 8.9445 23.0737 8.92625C23.0006 8.91915 22.9275 8.91206 22.8544 8.90496C22.8147 8.87232 23.0077 8.86085 23.0227 8.84169C23.0253 8.83823 23.0114 8.77528 23.0073 8.77189C22.9746 8.74412 22.8102 8.75199 22.8454 8.67167C22.8518 8.65737 22.9087 8.6458 22.911 8.63288C22.9151 8.61004 22.7861 8.54123 22.6669 8.53582C22.8161 8.50812 22.7551 8.43402 22.7982 8.41219C22.8115 8.4056 22.9065 8.40411 22.9267 8.38386C22.9432 8.36745 22.8671 8.32517 22.8799 8.30435C22.8937 8.28225 22.9736 8.27436 22.9792 8.26446C22.9845 8.2551 22.92 8.24648 22.9204 8.23373C22.9226 8.19393 23.0264 8.1579 23.0283 8.12644C23.0313 8.08095 22.8405 8.04077 22.7557 8.00271C22.7681 7.99326 22.8091 7.98398 22.8094 7.97407C22.8154 7.85155 22.8506 7.71333 22.8915 7.59044C22.9102 7.53339 23.1693 7.39153 22.737 7.42939C22.6613 7.40957 22.8356 7.26541 22.8382 7.23799C22.8408 7.21058 22.7633 7.18884 22.7622 7.1673C22.7588 7.10227 22.8147 7.05649 22.7472 6.97734C22.7295 6.95689 22.6377 6.93499 22.6388 6.92289C22.6403 6.90831 22.7291 6.89261 22.7347 6.87372C22.7475 6.82869 22.7183 6.74478 22.7336 6.70158C22.7366 6.69369 22.8146 6.69092 22.839 6.67964C22.9342 6.63571 22.9259 6.58647 22.677 6.59518C22.8183 6.53888 22.6894 6.48679 22.6815 6.43461C22.6654 6.32428 22.7235 6.12331 22.6189 6.02719C22.5529 5.96659 22.4412 5.96814 22.5376 5.87891C22.5589 5.8591 22.5878 5.83938 22.6133 5.81536C22.6733 5.75905 22.8795 5.70739 22.631 5.66447C22.6954 5.60193 22.6497 5.55212 22.8623 5.50572C22.8113 5.50025 22.7603 5.49478 22.7093 5.48931C22.7081 5.48164 22.7068 5.47397 22.7055 5.4663C22.7542 5.46391 22.8028 5.46152 22.8514 5.45913C22.8645 5.4042 22.6647 5.33451 22.6661 5.28801C22.6684 5.21006 22.746 5.00927 22.8116 4.93535C22.8465 4.89611 22.7423 4.894 22.9564 4.87153C22.9415 4.86275 22.9266 4.85397 22.9117 4.8452C22.8649 4.8397 22.818 4.83421 22.7711 4.82872C22.7692 4.77837 22.842 4.71865 22.8413 4.67068C22.8398 4.58328 22.7108 4.45204 22.7955 4.36427C22.8169 4.34226 22.9135 4.31475 22.9125 4.2932C22.911 4.26183 22.7505 4.25421 22.7475 4.21441C22.7427 4.14581 22.929 4.01805 22.9148 3.95321C22.9107 3.93395 22.851 3.92496 22.8446 3.91167C22.8172 3.8559 22.8221 3.81012 22.7298 3.75666C22.8836 3.69924 23.082 3.7042 23.2822 3.68641C23.4333 3.67293 23.7835 3.63158 23.9159 3.62571C24.0089 3.62159 24.1285 3.63698 24.2308 3.6312C24.3126 3.69999 24.2226 3.72889 24.0786 3.78474C24.0843 3.88788 24.0901 3.99103 24.0958 4.09418C24.0399 4.10356 23.9841 4.11294 23.9282 4.12233C23.9281 4.12233 23.928 4.12233 23.9278 4.12233C23.8634 4.16194 24.0072 4.17873 24.0399 4.20009C24.3526 4.40461 24.1079 4.80715 24.0726 5.03231C24.0651 5.08083 24.1404 5.23866 24.0497 5.27195C24.026 5.28057 23.9399 5.28296 23.9361 5.29213C23.9874 5.37406 24.0386 5.45599 24.0898 5.53792C23.956 5.7064 24.0665 5.88057 24.0871 6.05033C24.143 6.50962 24.2109 6.96433 24.1903 7.41611C24.1862 7.50342 24.2507 7.61421 24.2091 7.69969C24.1918 7.73536 24.0535 7.75023 24.1566 7.79709C24.1193 7.79758 24.0821 7.79808 24.0448 7.79857C24.0898 7.83946 24.1746 7.8656 24.1832 7.91145C24.1903 7.95006 24.1959 8.05222 24.1816 8.08634C24.1745 8.10404 24.1049 8.09745 24.1052 8.11394C24.1063 8.14219 24.2026 8.20254 24.2026 8.24152C24.2026 8.27683 24.1224 8.33636 24.134 8.36351C24.1753 8.46127 24.2942 8.56776 24.2623 8.67195C24.2533 8.70073 24.163 8.73775 24.1655 8.74676C24.1708 8.76436 24.2585 8.76961 24.2698 8.78143C24.3267 8.8415 24.2225 8.93514 24.2184 8.99402C24.2049 9.18588 24.2432 9.38914 24.227 9.58017C24.2169 9.70087 24.2324 9.90144 24.1664 10.0129C24.1521 10.0369 24.056 10.0305 24.056 10.0507C24.056 10.073 24.121 10.0852 24.1262 10.0956C24.163 10.168 24.2286 10.3277 24.1622 10.396C24.1495 10.4091 24.0742 10.4185 24.0744 10.4263C24.0744 10.4302 24.1258 10.4391 24.1311 10.4515C24.1776 10.5609 24.1476 10.6406 24.13 10.7477C24.0966 10.9528 24.1922 11.1906 24.1405 11.4061C24.1292 11.453 23.9803 11.4852 23.9818 11.4918C23.9848 11.5063 24.085 11.5156 24.1097 11.5449C24.1911 11.6425 24.0842 11.7739 24.1344 11.8667C24.1591 11.9126 24.2863 11.9756 24.3144 12.0207C24.3369 12.0568 24.287 12.1419 24.3429 12.1578C24.3766 12.1676 24.485 12.1721 24.4985 12.1837ZM22.812 10.9696C22.9852 10.976 22.8413 10.9086 22.7483 10.9339C22.7273 10.9396 22.767 10.9679 22.812 10.9696ZM23.1128 7.8101C23.0633 7.81072 23.0138 7.81134 22.9643 7.81196C22.9849 7.82081 23.0055 7.82967 23.0261 7.83853C23.0559 7.83355 23.0856 7.82857 23.1153 7.8236C23.1145 7.8191 23.1136 7.8146 23.1128 7.8101ZM24.4985 41.8672C24.5105 41.9039 24.4457 41.9556 24.4422 41.9988C24.4272 42.1799 24.3823 42.2471 24.3568 42.4109C24.3189 42.6539 24.4042 43.375 23.9536 43.375C23.9536 43.375 23.9536 43.375 23.9536 43.375C23.9492 43.375 23.9447 43.3749 23.9402 43.3748C23.8543 43.3723 23.7606 43.3109 23.6636 43.3018C23.5664 43.2927 22.9395 43.2996 22.9043 43.2124C22.8578 43.0861 23.0186 42.7832 23.0115 42.7158C23.0065 42.6697 22.9496 42.613 22.9394 42.5541C22.9068 42.3643 22.9485 42.2649 22.7937 42.0938C22.8753 42.0254 22.9569 41.957 23.0384 41.8886C23.0006 41.7993 23.1082 41.664 23.1023 41.6097C23.0974 41.5652 23.0329 41.5392 23.0299 41.4928C23.0262 41.4408 23.0958 41.3609 23.0853 41.2663C23.0684 41.1112 22.9001 41.0836 22.8788 40.9905C22.8567 40.894 22.9481 40.7439 22.8889 40.6208C22.8704 40.6053 22.8519 40.5899 22.8334 40.5744C22.7915 40.5855 22.7496 40.5966 22.7077 40.6076C22.6883 40.5456 22.7741 40.5189 22.7756 40.4619C22.7775 40.3949 22.6961 40.3607 22.6965 40.3155C22.6969 40.2786 22.7621 40.2285 22.758 40.1805C22.7524 40.1107 22.6582 40.1259 22.6406 40.0883C22.6338 40.0733 22.5818 39.7959 22.581 39.7803C22.5773 39.6613 22.7062 39.6509 22.7175 39.556C22.7483 39.2928 22.6441 39.0226 22.6047 38.7791C22.5871 38.6704 22.5946 38.557 22.6152 38.4486C22.9452 38.6193 23.2019 38.2414 22.6857 38.3828C22.7591 38.2622 22.6197 38.1766 22.6433 38.0623C22.6587 37.9883 22.7303 37.9372 22.7284 37.8316C22.7246 37.6442 22.5211 37.4392 22.8889 37.3853C22.8241 37.1654 22.9575 36.9749 22.6328 36.8956C22.613 36.8389 22.8064 36.6935 22.8326 36.6299C22.8574 36.5698 22.9447 36.1081 22.9496 36.0326C22.9544 35.9571 22.9597 35.8249 22.9313 35.7613C22.896 35.6814 22.5593 35.6255 22.953 35.4833C22.9211 35.3179 22.9324 35.2589 22.9781 35.1051C22.9864 35.0773 23.0449 35.0741 23.0449 35.0578C23.0449 35.0243 23.0017 34.9673 22.9964 34.9075C22.9878 34.8091 23.1108 34.7529 22.923 34.7639C22.8915 34.699 22.86 34.6341 22.8285 34.5693C22.8647 34.5465 22.901 34.5238 22.9372 34.501C22.8977 34.4663 22.8582 34.4316 22.8187 34.397C23.0905 34.4377 22.9301 34.1936 22.7742 34.2728C22.8304 34.1471 22.8866 34.0214 22.9429 33.8956C23.2518 33.9132 22.9785 33.6195 22.8105 33.6442C22.8108 33.6298 22.811 33.6154 22.8113 33.6011C22.8934 33.4751 22.8262 33.3594 22.8813 33.2059C22.9364 33.0523 22.9665 33.0667 23.1086 33.0201C23.1005 32.9839 23.0924 32.9478 23.0842 32.9117C22.6946 32.7221 23.3691 32.7556 23.0703 32.431C23.3151 32.3272 23.1865 32.0716 23.1123 31.9021C23.1037 31.8823 23.0561 31.882 23.0415 31.8557C23.0062 31.7915 23.0673 31.6276 22.914 31.6332C22.9584 31.5765 23.0028 31.5197 23.0471 31.463C23.0192 31.4166 22.9914 31.3702 22.9635 31.3239C22.9156 31.3241 22.8678 31.3243 22.8199 31.3246C22.983 31.2312 22.9203 31.0845 22.9593 31.0121C22.9672 30.9977 23.0332 30.9946 23.0513 30.9498C23.0726 30.8975 23.0531 30.7999 23.0737 30.7376C23.0006 30.7134 22.9275 30.6891 22.8544 30.6649C22.8147 30.5534 23.0077 30.5142 23.0227 30.4487C23.0253 30.4369 23.0114 30.2218 23.0073 30.2102C22.9746 30.1153 22.8102 30.1422 22.8454 29.8678C22.8518 29.8189 22.9087 29.7794 22.911 29.7352C22.9151 29.6572 22.7861 29.4221 22.6669 29.4036C22.8161 29.309 22.7551 29.0558 22.7982 28.9812C22.8115 28.9587 22.9065 28.9536 22.9267 28.8845C22.9432 28.8284 22.8671 28.6839 22.8799 28.6128C22.8937 28.5373 22.9736 28.5103 22.9792 28.4765C22.9845 28.4445 22.92 28.415 22.9204 28.3715C22.9226 28.2355 23.0264 28.1124 23.0283 28.0049C23.0313 27.8495 22.8405 27.7122 22.7557 27.5822C22.7681 27.5499 22.8091 27.5182 22.8094 27.4843C22.8154 27.0657 22.8506 26.5935 22.8915 26.1736C22.9102 25.9787 23.1693 25.494 22.737 25.6233C22.6613 25.5556 22.8356 25.0631 22.8382 24.9694C22.8408 24.8757 22.7633 24.8015 22.7622 24.7279C22.7588 24.5057 22.8147 24.3492 22.7472 24.0788C22.7295 24.009 22.6377 23.9341 22.6388 23.8928C22.6403 23.843 22.7291 23.7893 22.7347 23.7248C22.7475 23.571 22.7183 23.2842 22.7336 23.1366C22.7366 23.1097 22.8146 23.1002 22.839 23.0617C22.9342 22.9116 22.9259 22.7434 22.677 22.7731C22.8183 22.5808 22.6894 22.4028 22.6815 22.2245C22.6654 21.8475 22.7235 21.1609 22.6189 20.8325C22.5529 20.6254 22.4412 20.6307 22.5376 20.3259C22.5589 20.2582 22.5878 20.1908 22.6133 20.1087C22.6733 19.9163 22.8795 19.7398 22.631 19.5932C22.6954 19.3795 22.6497 19.2093 22.8623 19.0508C22.8113 19.0321 22.7603 19.0134 22.7093 18.9947C22.7081 18.9685 22.7068 18.9423 22.7055 18.9161C22.7542 18.9079 22.8028 18.8998 22.8514 18.8916C22.8645 18.7039 22.6647 18.4658 22.6661 18.307C22.6684 18.0406 22.746 17.3546 22.8116 17.102C22.8465 16.968 22.7423 16.9607 22.9564 16.884C22.9415 16.854 22.9266 16.824 22.9117 16.794C22.8649 16.7752 22.818 16.7565 22.7711 16.7377C22.7692 16.5657 22.842 16.3616 22.8413 16.1978C22.8398 15.8991 22.7108 15.4507 22.7955 15.1508C22.8169 15.0756 22.9135 14.9817 22.9125 14.908C22.911 14.8009 22.7505 14.7748 22.7475 14.6388C22.7427 14.4044 22.929 13.9679 22.9148 13.7464C22.9107 13.6806 22.851 13.6499 22.8446 13.6044C22.8172 13.4139 22.8221 13.2575 22.7298 13.0748C22.8836 12.8787 23.082 12.8956 23.2822 12.8348C23.4333 12.7888 23.7835 12.6475 23.9159 12.6274C24.0089 12.6133 24.1285 12.6659 24.2308 12.6462C24.3126 12.8812 24.2226 12.9799 24.0786 13.1708C24.0843 13.5232 24.0901 13.8756 24.0958 14.228C24.0399 14.2601 23.9841 14.2921 23.9282 14.3242C23.9281 14.3242 23.928 14.3242 23.9278 14.3242C23.8634 14.4595 24.0072 14.5169 24.0399 14.5899C24.3526 15.2887 24.1079 16.664 24.0726 17.4333C24.0651 17.5991 24.1404 18.1383 24.0497 18.2521C24.026 18.2815 23.9399 18.2897 23.9361 18.321C23.9874 18.601 24.0386 18.8809 24.0898 19.1608C23.956 19.7364 24.0665 20.3315 24.0871 20.9115C24.143 22.4808 24.2109 24.0344 24.1903 25.5779C24.1862 25.8763 24.2507 26.2548 24.2091 26.5469C24.1918 26.6687 24.0535 26.7195 24.1566 26.8796C24.1193 26.8813 24.0821 26.883 24.0448 26.8847C24.0898 27.0244 24.1746 27.1137 24.1832 27.2704C24.1903 27.4023 24.1959 27.7513 24.1816 27.8679C24.1745 27.9284 24.1049 27.9059 24.1052 27.9622C24.1063 28.0587 24.2026 28.2649 24.2026 28.3981C24.2026 28.5188 24.1224 28.7221 24.134 28.8149C24.1753 29.1489 24.2942 29.5128 24.2623 29.8687C24.2533 29.9671 24.163 30.0935 24.1655 30.1243C24.1708 30.1845 24.2585 30.2024 24.2698 30.2428C24.3267 30.448 24.2225 30.768 24.2184 30.9691C24.2049 31.6247 24.2432 32.3191 24.227 32.9718C24.2169 33.3842 24.2324 34.0695 24.1664 34.4502C24.1521 34.5323 24.056 34.5104 24.056 34.5794C24.056 34.6558 24.121 34.6972 24.1262 34.7329C24.163 34.9802 24.2286 35.526 24.1622 35.7594C24.1495 35.8039 24.0742 35.8361 24.0744 35.8628C24.0744 35.8762 24.1258 35.9067 24.1311 35.949C24.1776 36.3225 24.1476 36.5948 24.13 36.9608C24.0966 37.6618 24.1922 38.474 24.1405 39.2103C24.1292 39.3708 23.9803 39.4808 23.9818 39.5033C23.9848 39.5529 24.085 39.5845 24.1097 39.6848C24.1911 40.0182 24.0842 40.4672 24.1344 40.7843C24.1591 40.941 24.2863 41.1562 24.3144 41.3104C24.3369 41.4335 24.287 41.7243 24.3429 41.7789C24.3766 41.8121 24.485 41.8275 24.4985 41.8672ZM22.812 37.7191C22.9852 37.741 22.8413 37.5105 22.7483 37.597C22.7273 37.6164 22.767 37.7134 22.812 37.7191ZM23.1128 26.9241C23.0633 26.9262 23.0138 26.9283 22.9643 26.9304C22.9849 26.9607 23.0055 26.991 23.0261 27.0212C23.0559 27.0042 23.0856 26.9872 23.1153 26.9702C23.1145 26.9548 23.1136 26.9395 23.1128 26.9241ZM16.9753 40.7004C16.9775 40.7383 16.9017 40.7707 16.8873 40.8109C16.8264 40.9793 16.7658 41.0315 16.6992 41.1807C16.6004 41.402 16.4981 42.11 16.063 41.9929C16.063 41.9929 16.063 41.9929 16.063 41.9929C16.0587 41.9918 16.0544 41.9905 16.0501 41.9892C15.9679 41.9645 15.8931 41.8818 15.8017 41.8479C15.7102 41.814 15.1031 41.6575 15.0914 41.5655C15.0789 41.4333 15.3117 41.1869 15.3221 41.1209C15.3291 41.0758 15.2886 41.0071 15.2939 40.9485C15.3111 40.7594 15.3767 40.6757 15.2711 40.4727C15.3674 40.4288 15.4637 40.385 15.56 40.3411C15.5463 40.2463 15.6849 40.1456 15.693 40.0925C15.6997 40.0489 15.6441 40.0073 15.6531 39.9624C15.6628 39.9119 15.7505 39.8541 15.7646 39.7613C15.788 39.6094 15.6326 39.5394 15.6358 39.4453C15.6391 39.3478 15.7659 39.2288 15.7403 39.0963C15.7263 39.0767 15.7124 39.0572 15.6985 39.0377C15.6552 39.0374 15.612 39.037 15.5687 39.0367C15.5658 38.9726 15.6555 38.9695 15.6716 38.9157C15.6905 38.8524 15.6207 38.7987 15.6327 38.7559C15.6425 38.7208 15.7183 38.6901 15.7266 38.6435C15.7391 38.5755 15.6443 38.5656 15.6369 38.5252C15.6341 38.5092 15.6549 38.2318 15.6582 38.2167C15.6851 38.1026 15.8123 38.1262 15.8474 38.0389C15.9445 37.7965 15.9132 37.5124 15.9375 37.2706C15.9483 37.1626 15.9846 37.0566 16.0323 36.9589C16.3072 37.2071 16.6519 36.9144 16.1172 36.9146C16.219 36.8189 16.1063 36.7014 16.1583 36.5987C16.1921 36.5324 16.2743 36.5023 16.2996 36.4014C16.3439 36.2222 16.1999 35.9743 16.5688 36.0187C16.5626 35.7926 16.7402 35.646 16.447 35.4862C16.4423 35.4271 16.6663 35.3391 16.708 35.2854C16.7473 35.2346 16.9498 34.8182 16.9739 34.7477C16.9979 34.6771 17.0369 34.5527 17.0257 34.4848C17.0121 34.3997 16.7013 34.259 17.1178 34.226C17.1294 34.0604 17.1554 34.0073 17.239 33.8728C17.2541 33.8485 17.3113 33.8607 17.3156 33.8452C17.3241 33.8133 17.297 33.7479 17.3073 33.6896C17.3241 33.5938 17.4573 33.5723 17.2731 33.5339C17.2593 33.464 17.2455 33.3941 17.2317 33.3242C17.2725 33.312 17.3134 33.2998 17.3542 33.2876C17.3249 33.2443 17.2957 33.201 17.2664 33.1578C17.5184 33.2672 17.4261 32.9933 17.2551 33.0282C17.3417 32.9232 17.4282 32.8182 17.5147 32.7132C17.8085 32.8102 17.6198 32.4598 17.4513 32.4397C17.4552 32.426 17.4591 32.4124 17.463 32.3988C17.5746 32.3003 17.5394 32.1728 17.6319 32.0411C17.7244 31.9094 17.7498 31.9309 17.899 31.9234C17.9004 31.8869 17.9017 31.8505 17.9031 31.814C17.5755 31.5324 18.2182 31.7396 18.0128 31.3531C18.2758 31.3181 18.2171 31.0415 18.1888 30.8609C18.1855 30.8399 18.1397 30.8272 18.1323 30.7984C18.1147 30.7282 18.2157 30.5882 18.0662 30.5536C18.1236 30.5112 18.181 30.4688 18.2383 30.4263C18.2233 30.375 18.2082 30.3236 18.1932 30.2722C18.1469 30.26 18.1007 30.2478 18.0544 30.2356C18.2358 30.1892 18.2128 30.0333 18.269 29.9746C18.2804 29.9629 18.3449 29.9771 18.3737 29.9392C18.4078 29.895 18.4139 29.7972 18.4498 29.7432C18.3854 29.7012 18.321 29.6591 18.2566 29.617C18.2468 29.5006 18.4433 29.5135 18.4745 29.4551C18.48 29.4446 18.5217 29.2364 18.5207 29.2243C18.5135 29.1256 18.3478 29.1084 18.4521 28.8565C18.4708 28.8117 18.5358 28.7889 18.5494 28.7475C18.5733 28.6743 18.5089 28.4172 18.3985 28.3686C18.5669 28.3173 18.5728 28.0606 18.6335 28.0009C18.6521 27.983 18.7452 28.0028 18.7824 27.9423C18.8127 27.8932 18.7762 27.736 18.8068 27.6717C18.8395 27.6035 18.9235 27.5986 18.9376 27.5678C18.9509 27.5388 18.8962 27.494 18.9077 27.4527C18.9447 27.3239 19.0764 27.2338 19.1058 27.1321C19.1485 26.985 18.9993 26.8048 18.9508 26.6591C18.971 26.6316 19.0187 26.6121 19.0277 26.58C19.1407 26.1833 19.2956 25.7433 19.4426 25.3545C19.5107 25.174 19.8849 24.7802 19.4344 24.7909C19.3787 24.7068 19.6731 24.2836 19.6996 24.1952C19.7261 24.1068 19.6703 24.016 19.688 23.9457C19.7417 23.7335 19.8357 23.5992 19.8398 23.3244C19.8406 23.2534 19.7711 23.1583 19.7827 23.1192C19.7969 23.0722 19.8964 23.0443 19.9184 22.9844C19.9701 22.8414 20.0153 22.5611 20.068 22.4246C20.0778 22.3998 20.1555 22.4111 20.1889 22.3807C20.3193 22.2627 20.3544 22.1005 20.1064 22.0641C20.2921 21.9179 20.2132 21.7151 20.2512 21.5435C20.3322 21.1807 20.5642 20.5426 20.5473 20.2031C20.5366 19.9889 20.4274 19.9649 20.5985 19.7C20.6365 19.6412 20.6816 19.5846 20.7272 19.5131C20.8344 19.3457 21.0788 19.2315 20.8763 19.0273C20.9933 18.8408 20.9927 18.6671 21.2386 18.5715C21.1941 18.5405 21.1497 18.5095 21.1053 18.4784C21.1107 18.4532 21.1162 18.4279 21.1217 18.4027C21.1708 18.4076 21.2198 18.4124 21.2689 18.4173C21.3296 18.2422 21.1976 17.9637 21.2397 17.813C21.31 17.5602 21.5607 16.9279 21.6887 16.7047C21.7567 16.5862 21.658 16.5523 21.8844 16.5349C21.8777 16.5025 21.871 16.4701 21.8643 16.4377C21.8238 16.4077 21.7834 16.3776 21.7429 16.3476C21.7852 16.1835 21.9077 16.0083 21.949 15.8522C22.024 15.5678 22.0143 15.1077 22.1729 14.8445C22.2128 14.7785 22.3302 14.7142 22.348 14.6439C22.374 14.5416 22.2258 14.4751 22.2577 14.345C22.313 14.1207 22.6047 13.754 22.6477 13.5395C22.6606 13.4759 22.6108 13.4311 22.6163 13.3863C22.6387 13.1979 22.6834 13.0504 22.6411 12.8527C22.8398 12.706 23.0271 12.7737 23.236 12.768C23.3937 12.7634 23.768 12.7201 23.901 12.7354C23.9944 12.7462 24.0964 12.8273 24.2003 12.8352C24.219 13.08 24.1068 13.1505 23.9189 13.2946C23.8342 13.6313 23.7495 13.968 23.6648 14.3047C23.6026 14.3207 23.5405 14.3367 23.4783 14.3526C23.4782 14.3526 23.4781 14.3526 23.478 14.3525C23.3811 14.4645 23.5053 14.5565 23.5181 14.6344C23.6411 15.3804 23.0526 16.625 22.8215 17.3476C22.7718 17.5034 22.7064 18.0359 22.5897 18.1205C22.5593 18.1423 22.474 18.1277 22.4624 18.1566C22.4402 18.4362 22.418 18.7157 22.3957 18.9953C22.1191 19.5081 22.0734 20.1029 21.9448 20.66C21.5969 22.1672 21.2646 23.6626 20.8493 25.1255C20.769 25.4082 20.7343 25.7851 20.6194 26.0521C20.5715 26.1635 20.4249 26.1759 20.4834 26.355C20.447 26.3469 20.4106 26.3388 20.3742 26.3307C20.3818 26.4753 20.4409 26.5823 20.4091 26.7336C20.3822 26.8609 20.2981 27.1944 20.2545 27.3016C20.2322 27.3572 20.1707 27.3177 20.1566 27.3714C20.1329 27.4635 20.1731 27.6847 20.139 27.8114C20.1081 27.9261 19.9786 28.0987 19.966 28.19C19.9203 28.5184 19.942 28.8954 19.82 29.2258C19.7861 29.317 19.6665 29.4138 19.6611 29.4437C19.6508 29.5023 19.7309 29.5422 19.7314 29.5835C19.7339 29.7936 19.5513 30.0708 19.4958 30.2611C19.3149 30.8811 19.174 31.5516 18.9913 32.1683C18.8759 32.5579 18.7153 33.2138 18.5541 33.5588C18.5193 33.6332 18.4321 33.5874 18.4144 33.653C18.3949 33.7257 18.447 33.7819 18.4429 33.8173C18.4151 34.062 18.3386 34.5983 18.2148 34.8031C18.1911 34.8421 18.1101 34.8532 18.1036 34.8786C18.1001 34.8914 18.1419 34.9337 18.1362 34.9753C18.0854 35.3427 17.9867 35.5939 17.876 35.9375C17.6643 36.5956 17.5486 37.393 17.31 38.08C17.2581 38.2297 17.0861 38.2956 17.0818 38.3175C17.072 38.3653 17.1606 38.4215 17.1588 38.5233C17.152 38.8616 16.9338 39.2609 16.901 39.5756C16.8848 39.731 16.9525 39.9689 16.9402 40.1228C16.9304 40.2458 16.8077 40.5094 16.8477 40.5759C16.8717 40.6162 16.9724 40.659 16.9753 40.7004ZM16.4091 36.3161C16.5708 36.382 16.4908 36.1253 16.3789 36.1834C16.3537 36.1965 16.3672 36.299 16.4091 36.3161ZM19.4641 26.1259C19.4158 26.1151 19.3675 26.1042 19.3192 26.0934C19.3313 26.1275 19.3434 26.1616 19.3556 26.1958C19.3886 26.1873 19.4217 26.1789 19.4548 26.1704C19.4579 26.1556 19.461 26.1408 19.4641 26.1259ZM32.3065 40.1697C32.3279 40.2013 32.2793 40.2681 32.2877 40.3102C32.3218 40.4865 32.2965 40.5626 32.316 40.7254C32.3447 40.9668 32.6202 41.6295 32.1866 41.7519C32.1866 41.7519 32.1866 41.7519 32.1865 41.7519C32.1823 41.7531 32.178 41.7542 32.1736 41.7553C32.0903 41.7762 31.9837 41.7433 31.8878 41.761C31.7919 41.7787 31.1903 41.9554 31.133 41.8821C31.0544 41.7746 31.1279 41.4427 31.1029 41.3806C31.0859 41.3381 31.0158 41.2996 30.9903 41.2464C30.9079 41.0746 30.9214 40.9688 30.7265 40.8481C30.7866 40.7608 30.8468 40.6736 30.907 40.5864C30.8466 40.5117 30.9139 40.3538 30.8936 40.3038C30.877 40.2628 30.8079 40.2555 30.7926 40.2122C30.775 40.1638 30.8206 40.0689 30.7851 39.9817C30.7273 39.8388 30.5579 39.8582 30.5124 39.7755C30.4652 39.6897 30.5129 39.5221 30.4229 39.421C30.4009 39.4113 30.379 39.4017 30.357 39.392C30.3197 39.4139 30.2824 39.4358 30.245 39.4577C30.2096 39.404 30.2851 39.3553 30.2713 39.3007C30.2551 39.2364 30.1676 39.2259 30.1559 39.1829C30.1463 39.1476 30.1956 39.0823 30.1789 39.0378C30.1547 38.9728 30.0681 39.0129 30.0411 38.982C30.0305 38.9695 29.906 38.7198 29.9011 38.7051C29.8656 38.5929 29.9869 38.5481 29.9723 38.4547C29.9313 38.196 29.7585 37.9673 29.6553 37.7463C29.6092 37.6477 29.586 37.5378 29.5767 37.4291C29.9401 37.5019 30.0858 37.0728 29.6269 37.3474C29.6652 37.2127 29.5081 37.1692 29.5001 37.054C29.4951 36.9795 29.5502 36.9114 29.5201 36.8114C29.4662 36.6342 29.2153 36.4945 29.5549 36.3434C29.4335 36.1518 29.5107 35.9344 29.177 35.9471C29.1427 35.8985 29.2898 35.7078 29.298 35.6401C29.3057 35.5762 29.2659 35.1134 29.2503 35.0402C29.2348 34.967 29.2044 34.8399 29.1599 34.7871C29.1046 34.7206 28.7655 34.7589 29.1062 34.5167C29.0312 34.368 29.0262 34.3089 29.029 34.1502C29.0295 34.1214 29.0849 34.1026 29.0806 34.0871C29.0716 34.0552 29.0147 34.0127 28.9936 33.9572C28.9589 33.8659 29.0622 33.7791 28.8843 33.8406C28.8366 33.7874 28.7889 33.7343 28.7412 33.6811C28.77 33.6496 28.7988 33.6181 28.8275 33.5866C28.7802 33.5644 28.7329 33.5421 28.6855 33.5198C28.9581 33.4848 28.7382 33.2962 28.6094 33.4139C28.6298 33.279 28.6501 33.1441 28.6705 33.0093C28.9726 32.9421 28.6308 32.7369 28.4757 32.8061C28.4721 32.7923 28.4685 32.7786 28.4648 32.7648C28.5101 32.6227 28.4144 32.5309 28.4263 32.3699C28.4381 32.2089 28.4709 32.2144 28.5952 32.1314C28.5776 32.0993 28.5601 32.0671 28.5426 32.0349C28.1168 31.9604 28.7749 31.8092 28.4002 31.5815C28.608 31.4163 28.4157 31.2081 28.2987 31.067C28.2851 31.0505 28.2393 31.0631 28.2182 31.0421C28.167 30.9906 28.1818 30.8181 28.0358 30.865C28.0633 30.799 28.0907 30.733 28.1182 30.667C28.0789 30.6305 28.0397 30.5939 28.0004 30.5574C27.9544 30.5706 27.9084 30.5838 27.8624 30.597C27.9943 30.4639 27.8946 30.3414 27.9128 30.2619C27.9165 30.2461 27.9792 30.2252 27.9845 30.1777C27.991 30.1221 27.9461 30.0347 27.9492 29.9698C27.8723 29.9666 27.7954 29.9634 27.7186 29.9601C27.6505 29.8648 27.8257 29.7752 27.8226 29.7088C27.8219 29.6969 27.7509 29.496 27.7438 29.4861C27.6869 29.4047 27.5359 29.475 27.4961 29.2044C27.4892 29.1562 27.5333 29.1031 27.5237 29.0605C27.5067 28.9852 27.3194 28.7966 27.1997 28.8113C27.318 28.6808 27.1913 28.4565 27.2128 28.3739C27.2195 28.3489 27.3097 28.3182 27.3106 28.2469C27.3114 28.1891 27.1994 28.0724 27.1926 28.0012C27.1856 27.9256 27.2553 27.8783 27.2516 27.8446C27.2481 27.8128 27.1782 27.8022 27.1668 27.7607C27.1325 27.6308 27.1993 27.4855 27.1723 27.3827C27.1335 27.2341 26.913 27.1553 26.7966 27.0546C26.7998 27.0205 26.8307 26.9792 26.822 26.947C26.7155 26.5471 26.6226 26.0884 26.5493 25.6779C26.5151 25.4874 26.6344 24.956 26.2531 25.1964C26.162 25.1525 26.1976 24.6367 26.175 24.5469C26.1524 24.4571 26.0579 24.4075 26.037 24.3378C25.9741 24.1273 25.9859 23.9634 25.8484 23.7245C25.8127 23.6628 25.7042 23.6166 25.6942 23.5769C25.6823 23.5291 25.7533 23.454 25.7415 23.3911C25.7124 23.2413 25.6074 22.9765 25.5826 22.8319C25.5783 22.8055 25.6508 22.7753 25.6639 22.732C25.7153 22.5634 25.6622 22.4056 25.4306 22.5015C25.515 22.2802 25.3431 22.1459 25.2877 21.9784C25.1711 21.6242 25.0428 20.9553 24.854 20.6713C24.7349 20.4923 24.6289 20.5276 24.6398 20.2115C24.6422 20.1413 24.6519 20.0694 24.6544 19.9844C24.6605 19.7851 24.8117 19.5612 24.5331 19.4892C24.5378 19.2684 24.4482 19.119 24.6102 18.9104C24.5561 18.9065 24.5021 18.9026 24.448 18.8986C24.4397 18.874 24.4315 18.8495 24.4232 18.8249C24.4678 18.8039 24.5125 18.7829 24.5571 18.762C24.5193 18.5799 24.2631 18.4077 24.2219 18.2562C24.1526 18.0022 24.0432 17.3286 24.0386 17.0705C24.0362 16.9335 23.934 16.9549 24.1195 16.8238C24.0971 16.7993 24.0747 16.7748 24.0523 16.7503C24.0022 16.7452 23.952 16.7401 23.9019 16.7349C23.8539 16.5718 23.8693 16.358 23.8246 16.2023C23.743 15.9186 23.4985 15.5271 23.4996 15.2189C23.5 15.1415 23.5678 15.0259 23.547 14.9561C23.5168 14.8546 23.3555 14.8734 23.3161 14.7448C23.2485 14.5232 23.3108 14.0574 23.2376 13.8505C23.216 13.7891 23.1503 13.7761 23.132 13.7346C23.0545 13.5608 23.0172 13.4107 22.8794 13.2619C22.9748 13.0336 23.1703 12.9959 23.3467 12.8837C23.4798 12.7989 23.7789 12.5694 23.9009 12.5144C23.9866 12.4758 24.1159 12.4933 24.2091 12.4468C24.3508 12.6481 24.2907 12.7665 24.2033 12.9871C24.3034 13.3208 24.4034 13.6544 24.5035 13.9881C24.4583 14.0337 24.4132 14.0794 24.368 14.1251C24.3679 14.1251 24.3678 14.1251 24.3677 14.1252C24.3419 14.2714 24.4958 14.2869 24.5468 14.3475C25.0352 14.9273 25.1687 16.302 25.3411 17.0433C25.3784 17.203 25.5955 17.6955 25.5387 17.8284C25.5239 17.8628 25.4432 17.894 25.448 17.9248C25.5724 18.1772 25.6968 18.4295 25.8212 18.6819C25.8468 19.2658 26.1129 19.8018 26.2883 20.3479C26.7631 21.8255 27.2453 23.2848 27.6396 24.7587C27.7156 25.0436 27.8793 25.3862 27.9176 25.6753C27.9337 25.7959 27.8142 25.8817 27.9564 26.0061C27.9209 26.0178 27.8855 26.0295 27.8501 26.0412C27.9309 26.1619 28.0365 26.2238 28.0868 26.3705C28.1291 26.4941 28.228 26.8246 28.2456 26.9393C28.255 26.9988 28.1819 26.9963 28.1973 27.0498C28.2243 27.1413 28.3723 27.3113 28.4081 27.438C28.4404 27.5527 28.4178 27.768 28.4538 27.853C28.5832 28.1596 28.7952 28.4734 28.8601 28.8206C28.8778 28.9166 28.8248 29.0614 28.8355 29.0901C28.8567 29.1458 28.9459 29.1391 28.9676 29.1744C29.0775 29.3542 29.063 29.6868 29.113 29.8793C29.2759 30.5065 29.499 31.1567 29.6586 31.782C29.7595 32.177 29.9583 32.8246 29.9969 33.2047C30.0052 33.2866 29.9068 33.2919 29.9253 33.3575C29.9459 33.4302 30.0194 33.4519 30.0341 33.4845C30.1358 33.7097 30.3454 34.2111 30.3441 34.4511C30.3438 34.4969 30.28 34.548 30.2874 34.5733C30.291 34.5861 30.3486 34.6011 30.365 34.6399C30.51 34.9826 30.5542 35.2498 30.6355 35.6027C30.7914 36.2785 31.1013 37.0251 31.2491 37.7396C31.2813 37.8953 31.1675 38.0404 31.175 38.0614C31.1911 38.1077 31.2961 38.1106 31.3468 38.1993C31.5145 38.4944 31.5321 38.9505 31.6655 39.2385C31.7313 39.3808 31.9115 39.551 31.9799 39.69C32.0346 39.801 32.0646 40.0912 32.133 40.1279C32.1744 40.1504 32.2828 40.1356 32.3065 40.1697ZM29.5704 36.6817C29.743 36.6556 29.5426 36.4754 29.4763 36.5829C29.4614 36.6071 29.5256 36.6885 29.5704 36.6817ZM26.9637 26.3317C26.9166 26.3471 26.8696 26.3626 26.8225 26.378C26.8504 26.4012 26.8784 26.4244 26.9063 26.4476C26.9304 26.4234 26.9544 26.3991 26.9785 26.3749C26.9736 26.3605 26.9686 26.3461 26.9637 26.3317Z" fill="#916058" fill-opacity="0.6"/>
</svg>
